<?xml version="1.0" encoding="UTF-8" standalone="no"?>
<!-- Created with Inkscape (http://www.inkscape.org/) -->

<svg
   xmlns:dc="http://purl.org/dc/elements/1.1/"
   xmlns:cc="http://creativecommons.org/ns#"
   xmlns:rdf="http://www.w3.org/1999/02/22-rdf-syntax-ns#"
   xmlns:svg="http://www.w3.org/2000/svg"
   xmlns="http://www.w3.org/2000/svg"
   xmlns:xlink="http://www.w3.org/1999/xlink"
   xmlns:sodipodi="http://sodipodi.sourceforge.net/DTD/sodipodi-0.dtd"
   xmlns:inkscape="http://www.inkscape.org/namespaces/inkscape"
   width="256"
   height="256"
   id="svg2"
   sodipodi:version="0.32"
   inkscape:version="0.47pre0 r21549"
   version="1.0"
   sodipodi:docname="alsamixer-broken.svg"
   inkscape:output_extension="org.inkscape.output.svg.inkscape">
  <defs
     id="defs4">
    <linearGradient
       inkscape:collect="always"
       xlink:href="#linearGradient2780"
       id="linearGradient3020"
       gradientUnits="userSpaceOnUse"
       gradientTransform="matrix(0.4566076,0,0,0.3903144,11.419317,10.167774)"
       spreadMethod="pad"
       x1="26.974447"
       y1="68.680031"
       x2="26.974447"
       y2="44.981197" />
    <linearGradient
       inkscape:collect="always"
       xlink:href="#linearGradient2701"
       id="linearGradient3018"
       gradientUnits="userSpaceOnUse"
       gradientTransform="matrix(0.4599604,0,0,0.3785298,10.906303,11.314503)"
       spreadMethod="reflect"
       x1="29.613848"
       y1="52.608921"
       x2="44.723549"
       y2="52.608921" />
    <radialGradient
       inkscape:collect="always"
       xlink:href="#linearGradient3057"
       id="radialGradient3016"
       gradientUnits="userSpaceOnUse"
       gradientTransform="matrix(1.6098614,0,0,0.11499,11.76681,9.9512767)"
       cx="8.0178375"
       cy="231.98276"
       fx="8.0178375"
       fy="231.98276"
       r="7.4833150" />
    <radialGradient
       inkscape:collect="always"
       xlink:href="#linearGradient3057"
       id="radialGradient3014"
       gradientUnits="userSpaceOnUse"
       gradientTransform="matrix(1.6098614,0,0,0.1437375,11.76681,3.0672182)"
       cx="8.0178375"
       cy="231.98276"
       fx="8.0178375"
       fy="231.98276"
       r="7.4833150" />
    <radialGradient
       inkscape:collect="always"
       xlink:href="#linearGradient3057"
       id="radialGradient3012"
       gradientUnits="userSpaceOnUse"
       gradientTransform="matrix(1.6098614,0,0,0.11499,11.76681,10.38153)"
       cx="8.0178375"
       cy="231.98276"
       fx="8.0178375"
       fy="231.98276"
       r="7.4833150" />
    <linearGradient
       inkscape:collect="always"
       xlink:href="#linearGradient2780"
       id="linearGradient3010"
       gradientUnits="userSpaceOnUse"
       gradientTransform="matrix(0.4724482,0,0,0.4198773,10.593244,9.9201385)"
       x1="33.184048"
       y1="24.384579"
       x2="33.184048"
       y2="-13.170087" />
    <linearGradient
       inkscape:collect="always"
       xlink:href="#linearGradient2780"
       id="linearGradient3008"
       gradientUnits="userSpaceOnUse"
       gradientTransform="matrix(0.3488509,0,0,0.5306512,10.906303,10.38153)"
       x1="38.781849"
       y1="9.5745525"
       x2="38.781849"
       y2="7.5863166" />
    <radialGradient
       inkscape:collect="always"
       xlink:href="#linearGradient2834"
       id="radialGradient3006"
       gradientUnits="userSpaceOnUse"
       gradientTransform="matrix(-0.5058668,0,0,0.3690521,38.517999,10.360134)"
       cx="21.595108"
       cy="8.9813547"
       fx="21.595108"
       fy="8.9813547"
       r="6.0678878" />
    <radialGradient
       inkscape:collect="always"
       xlink:href="#linearGradient2834"
       id="radialGradient3004"
       gradientUnits="userSpaceOnUse"
       gradientTransform="matrix(0.5058668,0,0,0.3690521,10.830836,10.38153)"
       cx="21.595108"
       cy="8.9813547"
       fx="21.595108"
       fy="8.9813547"
       r="6.0678878" />
    <linearGradient
       inkscape:collect="always"
       xlink:href="#linearGradient2780"
       id="linearGradient3002"
       gradientUnits="userSpaceOnUse"
       gradientTransform="matrix(0.3500297,0,0,0.5288644,10.906303,10.38153)"
       x1="38.362892"
       y1="11.170151"
       x2="39.723621"
       y2="6.0918369" />
    <linearGradient
       inkscape:collect="always"
       xlink:href="#linearGradient2780"
       id="linearGradient3000"
       gradientUnits="userSpaceOnUse"
       gradientTransform="matrix(0.3488509,0,0,0.5207252,10.906303,10.813853)"
       x1="35.995708"
       y1="1.6246380"
       x2="35.995708"
       y2="11.710631" />
    <radialGradient
       inkscape:collect="always"
       xlink:href="#linearGradient3956-485"
       id="radialGradient2998"
       gradientUnits="userSpaceOnUse"
       gradientTransform="matrix(0.5651935,-1.1975236e-3,-1.3053826e-3,0.9364556,214.62469,27.887266)"
       cx="535.8233"
       cy="510.30014"
       fx="535.8233"
       fy="510.30014"
       r="185.71428" />
    <radialGradient
       inkscape:collect="always"
       xlink:href="#linearGradient3275"
       id="radialGradient2996"
       gradientUnits="userSpaceOnUse"
       gradientTransform="matrix(0.7150425,0.1084891,-0.2502275,1.5772245,219.48874,-319.69498)"
       cx="272.40131"
       cy="499.36295"
       fx="272.40131"
       fy="499.36295"
       r="185.71428" />
    <linearGradient
       inkscape:collect="always"
       xlink:href="#linearGradient3651-27"
       id="linearGradient2994"
       gradientUnits="userSpaceOnUse"
       x1="-60.296066"
       y1="497.17868"
       x2="796.88208"
       y2="449.75574" />
    <linearGradient
       inkscape:collect="always"
       xlink:href="#linearGradient3920-809"
       id="linearGradient2992"
       gradientUnits="userSpaceOnUse"
       x1="-736.93536"
       y1="410.93362"
       x2="-588.77887"
       y2="410.93362" />
    <linearGradient
       id="linearGradient2701">
      <stop
         id="stop2703"
         offset="0.00000000"
         style="stop-color:#a47c44;stop-opacity:1.0000000;" />
      <stop
         id="stop2770"
         offset="0.75000000"
         style="stop-color:#baa363;stop-opacity:1.0000000;" />
      <stop
         id="stop2705"
         offset="1.0000000"
         style="stop-color:#d6c795;stop-opacity:1.0000000;" />
    </linearGradient>
    <linearGradient
       id="linearGradient3057">
      <stop
         id="stop3059"
         offset="0.00000000"
         style="stop-color:#282828;stop-opacity:1.0000000;" />
      <stop
         id="stop3061"
         offset="1.0000000"
         style="stop-color:#282828;stop-opacity:0.00000000;" />
    </linearGradient>
    <linearGradient
       id="linearGradient2834">
      <stop
         id="stop2836"
         offset="0.00000000"
         style="stop-color:#ffe19c;stop-opacity:1.0000000;" />
      <stop
         id="stop2838"
         offset="1.0000000"
         style="stop-color:#b79e4f;stop-opacity:0.00000000;" />
    </linearGradient>
    <linearGradient
       id="linearGradient2780">
      <stop
         id="stop2782"
         offset="0.00000000"
         style="stop-color:#ffffff;stop-opacity:1.0000000;" />
      <stop
         id="stop2784"
         offset="1.0000000"
         style="stop-color:#ffffff;stop-opacity:0.00000000;" />
    </linearGradient>
    <filter
       inkscape:collect="always"
       id="filter3988"
       x="-0.19698875"
       width="1.3939775"
       y="-0.1484981"
       height="1.2969962">
      <feGaussianBlur
         inkscape:collect="always"
         stdDeviation="30.898605"
         id="feGaussianBlur3990" />
    </filter>
    <linearGradient
       inkscape:collect="always"
       id="linearGradient3956-485">
      <stop
         style="stop-color:#cfcfcf;stop-opacity:1;"
         offset="0"
         id="stop4596" />
      <stop
         style="stop-color:#cfcfcf;stop-opacity:0;"
         offset="1"
         id="stop4598" />
    </linearGradient>
    <filter
       inkscape:collect="always"
       id="filter3271"
       x="-0.59353037"
       width="2.1870607"
       y="-0.57021673"
       height="2.1404335">
      <feGaussianBlur
         inkscape:collect="always"
         stdDeviation="9.9443573"
         id="feGaussianBlur3273" />
    </filter>
    <linearGradient
       inkscape:collect="always"
       id="linearGradient3275">
      <stop
         style="stop-color:#0b0c08;stop-opacity:1;"
         offset="0"
         id="stop3277" />
      <stop
         style="stop-color:#0b0c08;stop-opacity:0.2962963"
         offset="1"
         id="stop3279" />
    </linearGradient>
    <linearGradient
       inkscape:collect="always"
       id="linearGradient3651-27">
      <stop
         style="stop-color:#86888d;stop-opacity:1;"
         offset="0"
         id="stop4584" />
      <stop
         style="stop-color:#86888d;stop-opacity:0;"
         offset="1"
         id="stop4586" />
    </linearGradient>
    <linearGradient
       inkscape:collect="always"
       id="linearGradient3920-809">
      <stop
         style="stop-color:#737471;stop-opacity:1;"
         offset="0"
         id="stop4578" />
      <stop
         style="stop-color:#737471;stop-opacity:0;"
         offset="1"
         id="stop4580" />
    </linearGradient>
    <linearGradient
       inkscape:collect="always"
       id="linearGradient4613">
      <stop
         style="stop-color:#000000;stop-opacity:1;"
         offset="0"
         id="stop4615" />
      <stop
         style="stop-color:#000000;stop-opacity:0;"
         offset="1"
         id="stop4617" />
    </linearGradient>
    <linearGradient
       inkscape:collect="always"
       id="linearGradient4605">
      <stop
         style="stop-color:#f70000;stop-opacity:1;"
         offset="0"
         id="stop4607" />
      <stop
         style="stop-color:#000000;stop-opacity:1"
         offset="1"
         id="stop4609" />
    </linearGradient>
    <linearGradient
       id="linearGradient4591"
       inkscape:collect="always">
      <stop
         id="stop4593"
         offset="0"
         style="stop-color:#ffffff;stop-opacity:1" />
      <stop
         id="stop4595"
         offset="1"
         style="stop-color:#ffffff;stop-opacity:0;" />
    </linearGradient>
    <mask
       maskUnits="userSpaceOnUse"
       x="122.963"
       y="97.149"
       width="576.609"
       height="587.491"
       id="XMLID_23_">
      <g
         id="g31"
         style="filter:url(#Adobe_OpacityMaskFilter)">
        <radialGradient
           id="XMLID_24_"
           cx="88.977501"
           cy="-20.899401"
           r="673.11609"
           fx="88.977501"
           fy="-20.899401"
           gradientUnits="userSpaceOnUse">
          <stop
             offset="0.309"
             style="stop-color:#FFFFFF"
             id="stop34" />
          <stop
             offset="1"
             style="stop-color:#000000"
             id="stop3816" />
        </radialGradient>
        <ellipse
           sodipodi:ry="349.10599"
           sodipodi:rx="512.93402"
           sodipodi:cy="286.172"
           sodipodi:cx="295.89499"
           cx="295.89499"
           cy="286.172"
           rx="512.93402"
           ry="349.10599"
           id="ellipse38"
           style="fill:url(#XMLID_24_)" />
      </g>
    </mask>
    <linearGradient
       inkscape:collect="always"
       xlink:href="#linearGradient4591"
       id="linearGradient3196"
       x1="99.881126"
       y1="68.792747"
       x2="171.01328"
       y2="46.998337"
       gradientUnits="userSpaceOnUse"
       gradientTransform="matrix(0.8301257,0,0,0.9649488,-179.55402,176.05704)" />
    <linearGradient
       inkscape:collect="always"
       xlink:href="#linearGradient4591"
       id="linearGradient4599"
       gradientUnits="userSpaceOnUse"
       gradientTransform="matrix(0.9457809,0,0,1.1075807,6.5485589,0.4212711)"
       x1="104.92213"
       y1="71.555038"
       x2="161.92285"
       y2="35.137646" />
    <linearGradient
       inkscape:collect="always"
       xlink:href="#linearGradient4605"
       id="linearGradient4611"
       x1="168.56552"
       y1="-13.762122"
       x2="206.93968"
       y2="23.825462"
       gradientUnits="userSpaceOnUse" />
    <linearGradient
       inkscape:collect="always"
       xlink:href="#linearGradient4613"
       id="linearGradient4619"
       x1="168.56552"
       y1="-13.762122"
       x2="351.36194"
       y2="165.28738"
       gradientUnits="userSpaceOnUse" />
  </defs>
  <sodipodi:namedview
     id="base"
     pagecolor="#ffffff"
     bordercolor="#666666"
     borderopacity="1.0"
     gridtolerance="10000"
     guidetolerance="10"
     objecttolerance="10"
     inkscape:pageopacity="0.0"
     inkscape:pageshadow="2"
     inkscape:zoom="1.2871553"
     inkscape:cx="128"
     inkscape:cy="97.383295"
     inkscape:document-units="px"
     inkscape:current-layer="layer1"
     showgrid="false"
     showguides="true"
     inkscape:guide-bbox="true"
     inkscape:window-width="773"
     inkscape:window-height="676"
     inkscape:window-x="302"
     inkscape:window-y="115" />
  <metadata
     id="metadata7">
    <rdf:RDF>
      <cc:Work
         rdf:about="">
        <dc:format>image/svg+xml</dc:format>
        <dc:type
           rdf:resource="http://purl.org/dc/dcmitype/StillImage" />
      </cc:Work>
    </rdf:RDF>
  </metadata>
  <g
     inkscape:label="Layer 1"
     inkscape:groupmode="layer"
     id="layer1">
    <rect
       style="opacity:1;fill:url(#linearGradient4619);fill-opacity:1;stroke:url(#linearGradient4611);stroke-width:2;stroke-miterlimit:4;stroke-dasharray:none;stroke-opacity:1"
       id="rect2383"
       width="209.543"
       height="209.543"
       x="75.938042"
       y="-106.63853"
       ry="61.030819"
       transform="matrix(0.6997472,0.7143906,-0.7143906,0.6997472,0,0)" />
    <rect
       style="opacity:0.26851852;fill:url(#linearGradient4599);fill-opacity:1;stroke:none;stroke-width:2;stroke-miterlimit:4;stroke-dasharray:none;stroke-opacity:1"
       id="rect4597"
       width="198.18179"
       height="232.08572"
       x="78.369324"
       y="-117.6895"
       ry="67.596573"
       transform="matrix(0.7600468,0.6498684,-0.7370851,0.6758,0,0)" />
    <rect
       transform="matrix(-0.796691,0.6043868,0.6617245,0.7497471,0,0)"
       ry="58.891621"
       y="73.156349"
       x="-116.51585"
       height="202.19823"
       width="173.94705"
       id="rect3188"
       style="opacity:0.27777778;fill:url(#linearGradient3196);fill-opacity:1;stroke:none;stroke-width:2;stroke-miterlimit:4;stroke-dasharray:none;stroke-opacity:1" />
    <path
       sodipodi:nodetypes="ccc"
       id="path2276"
       d="M 108.10388,41.662742 L 108.10388,37.156303 L 108.10388,41.662742 z"
       style="fill:#ffffff;fill-opacity:0.75688076;fill-rule:nonzero;stroke:none;stroke-width:0.5;stroke-linecap:round;stroke-linejoin:round;stroke-miterlimit:4;stroke-dasharray:none;stroke-dashoffset:4;stroke-opacity:1" />
    <g
       id="g2894"
       transform="matrix(0.3461436,0,0,0.3461436,42.889704,33.039425)">
      <path
         transform="matrix(0.7855657,0.179442,-0.1763918,0.7991495,668.34602,25.76631)"
         d="M -591.42854,410.93362 A 71.428574,112.85714 0 1 1 -734.28569,410.93362 A 71.428574,112.85714 0 1 1 -591.42854,410.93362 z"
         sodipodi:ry="112.85714"
         sodipodi:rx="71.428574"
         sodipodi:cy="410.93362"
         sodipodi:cx="-662.85712"
         id="path3918"
         style="fill:url(#linearGradient2992);fill-opacity:1;stroke:#130c07;stroke-width:5.29940796;stroke-linecap:round;stroke-linejoin:round;stroke-miterlimit:10;stroke-dasharray:none;stroke-opacity:1"
         sodipodi:type="arc" />
      <path
         sodipodi:type="arc"
         style="fill:#342b34;fill-opacity:1;stroke:#e6e6e6;stroke-width:3.66774511;stroke-linecap:round;stroke-linejoin:round;stroke-miterlimit:10;stroke-dasharray:none;stroke-opacity:1"
         id="path3928"
         sodipodi:cx="-662.85712"
         sodipodi:cy="410.93362"
         sodipodi:rx="71.428574"
         sodipodi:ry="112.85714"
         d="M -591.42854,410.93362 A 71.428574,112.85714 0 1 1 -734.28569,410.93362 A 71.428574,112.85714 0 1 1 -591.42854,410.93362 z"
         transform="matrix(0.8962446,8.1686625e-3,-4.1123721e-2,0.8210516,713.8384,-80.763745)" />
      <path
         id="path3669"
         d="M 263.66072,19.14731 C 169.16971,19.00172 81.9999,117.78657 64.06697,250.33481 C 44.93852,391.7196 111.81343,518.24019 213.34822,532.77231 C 314.883,547.30444 412.81351,444.3446 431.94197,302.95981 C 451.07042,161.57502 384.19551,35.05443 282.66072,20.52231 C 276.31479,19.61405 269.96012,19.15702 263.66072,19.14731 z M 237.47322,67.70981 C 242.42663,67.71744 247.38947,68.08937 252.37947,68.80356 C 332.21935,80.23062 384.827,179.72217 369.78572,290.89731 C 354.74444,402.07245 277.71935,483.04311 197.87947,471.61606 C 118.03958,460.18901 65.46319,360.6662 80.50447,249.49106 C 94.60567,145.26435 163.17207,67.59532 237.47322,67.70981 z"
         style="fill:#1e1e17;fill-opacity:1;stroke:none;stroke-width:16.3722496;stroke-linecap:round;stroke-linejoin:round;stroke-miterlimit:10;stroke-dasharray:none;stroke-opacity:1" />
      <path
         sodipodi:type="arc"
         style="fill:none;fill-opacity:1;stroke:url(#linearGradient2994);stroke-width:16.3722496;stroke-linecap:round;stroke-linejoin:round;stroke-miterlimit:10;stroke-dasharray:none;stroke-opacity:1"
         id="path3665"
         sodipodi:cx="408.57144"
         sodipodi:cy="503.79074"
         sodipodi:rx="185.71428"
         sodipodi:ry="251.42857"
         d="M 594.28572,503.79074 A 185.71428,251.42857 0 1 1 222.85716,503.79074 A 185.71428,251.42857 0 1 1 594.28572,503.79074 z"
         transform="matrix(0.9904453,0.1417571,-0.1378244,1.0187063,-87.232949,-294.48481)" />
      <path
         transform="matrix(0.9904453,0.1417571,-0.1378244,1.0187063,-90.090091,-300.1991)"
         d="M 594.28572,503.79074 A 185.71428,251.42857 0 1 1 222.85716,503.79074 A 185.71428,251.42857 0 1 1 594.28572,503.79074 z"
         sodipodi:ry="251.42857"
         sodipodi:rx="185.71428"
         sodipodi:cy="503.79074"
         sodipodi:cx="408.57144"
         id="path2879"
         style="fill:none;fill-opacity:1;stroke:#8c9395;stroke-width:16.3722496;stroke-linecap:round;stroke-linejoin:round;stroke-miterlimit:10;stroke-dasharray:none;stroke-opacity:1"
         sodipodi:type="arc" />
      <path
         transform="matrix(0.793759,0.1484388,-0.146804,0.8109902,-21.2935,-200.79641)"
         d="M 594.28572,503.79074 A 185.71428,251.42857 0 1 1 222.85716,503.79074 A 185.71428,251.42857 0 1 1 594.28572,503.79074 z"
         sodipodi:ry="251.42857"
         sodipodi:rx="185.71428"
         sodipodi:cy="503.79074"
         sodipodi:cx="408.57144"
         id="path3686"
         style="fill:#77797b;fill-opacity:1;stroke:none;stroke-width:16.3722496;stroke-linecap:round;stroke-linejoin:round;stroke-miterlimit:10;stroke-dasharray:none;stroke-opacity:1"
         sodipodi:type="arc" />
      <path
         sodipodi:type="arc"
         style="fill:url(#radialGradient2996);fill-opacity:1;stroke:none;stroke-width:16.3722496;stroke-linecap:round;stroke-linejoin:round;stroke-miterlimit:10;stroke-dasharray:none;stroke-opacity:1"
         id="path3992"
         sodipodi:cx="408.57144"
         sodipodi:cy="503.79074"
         sodipodi:rx="185.71428"
         sodipodi:ry="251.42857"
         d="M 594.28572,503.79074 A 185.71428,251.42857 0 1 1 222.85716,503.79074 A 185.71428,251.42857 0 1 1 594.28572,503.79074 z"
         transform="matrix(0.8847575,0.1484388,-0.163634,0.8109902,-37.376091,-203.19984)" />
      <path
         transform="matrix(1.0855334,0.1842435,-0.203486,0.9828806,836.34331,-81.998163)"
         d="M -454.28573,446.64789 A 67.14286,97.14286 0 1 1 -588.57145,446.64789 A 67.14286,97.14286 0 1 1 -454.28573,446.64789 z"
         sodipodi:ry="97.14286"
         sodipodi:rx="67.14286"
         sodipodi:cy="446.64789"
         sodipodi:cx="-521.42859"
         id="path3698"
         style="fill:#000200;fill-opacity:1;stroke:none;stroke-width:16.60400009;stroke-linecap:round;stroke-linejoin:round;stroke-miterlimit:10;stroke-dasharray:none;stroke-opacity:1"
         sodipodi:type="arc" />
      <path
         transform="matrix(0.9047619,0,0,1,638.06803,-202.85715)"
         d="M -434.28571,463.79074 A 60,60 0 1 1 -554.28571,463.79074 A 60,60 0 1 1 -434.28571,463.79074 z"
         sodipodi:ry="60"
         sodipodi:rx="60"
         sodipodi:cy="463.79074"
         sodipodi:cx="-494.28571"
         id="path3700"
         style="fill:#2b2932;fill-opacity:1;stroke:none;stroke-width:16.60400009;stroke-linecap:round;stroke-linejoin:round;stroke-miterlimit:10;stroke-dasharray:none;stroke-opacity:1"
         sodipodi:type="arc" />
      <path
         transform="matrix(0.9573576,0.5094699,-0.3866252,0.7464761,780.65391,231.3432)"
         d="M -474.28572,353.79074 A 21.428572,18.571428 0 1 1 -517.14287,353.79074 A 21.428572,18.571428 0 1 1 -474.28572,353.79074 z"
         sodipodi:ry="18.571428"
         sodipodi:rx="21.428572"
         sodipodi:cy="353.79074"
         sodipodi:cx="-495.71429"
         id="path3702"
         style="opacity:1;fill:#e6e6e6;fill-opacity:1;stroke:none;stroke-width:16.60400009;stroke-linecap:round;stroke-linejoin:round;stroke-miterlimit:10;stroke-dasharray:none;stroke-opacity:1;filter:url(#filter3271)"
         sodipodi:type="arc" />
      <path
         sodipodi:type="arc"
         style="fill:url(#radialGradient2998);fill-opacity:1;stroke:none;stroke-width:16.3722496;stroke-linecap:round;stroke-linejoin:round;stroke-miterlimit:10;stroke-dasharray:none;stroke-opacity:1;filter:url(#filter3988)"
         id="path3954"
         sodipodi:cx="408.57144"
         sodipodi:cy="503.79074"
         sodipodi:rx="185.71428"
         sodipodi:ry="251.42857"
         d="M 594.28572,503.79074 A 185.71428,251.42857 0 1 1 222.85716,503.79074 A 185.71428,251.42857 0 1 1 594.28572,503.79074 z"
         transform="matrix(0.793759,0.1484388,-0.146804,0.8109902,-29.999828,-226.5107)" />
      <g
         transform="matrix(10.088473,0,0,10.088473,34.811482,127.3297)"
         id="g2975">
        <path
           style="fill:#282828;fill-opacity:1;fill-rule:evenodd;stroke:none;stroke-width:0.625;stroke-linecap:round;stroke-linejoin:round;stroke-miterlimit:4;stroke-dashoffset:0;stroke-opacity:1"
           id="rect2723"
           d="M 24.674418,10.811784 C 20.383929,10.811784 16.929853,14.26586 16.929853,18.556349 L 16.929853,27.161421 L 19.081121,27.161421 L 19.081121,18.556349 C 19.081121,15.457662 21.575732,12.963052 24.674418,12.963052 C 27.773105,12.963052 30.267715,15.457662 30.267715,18.556349 L 30.267715,27.161421 L 32.418983,27.161421 L 32.418983,18.556349 C 32.418983,14.26586 28.964907,10.811784 24.674418,10.811784 z" />
        <path
           style="opacity:0.65;fill:url(#linearGradient3000);fill-opacity:1;fill-rule:evenodd;stroke:none;stroke-width:0.625;stroke-linecap:round;stroke-linejoin:round;stroke-miterlimit:4;stroke-dashoffset:0;stroke-opacity:1"
           id="path3082"
           d="M 24.674418,11.373803 C 20.62229,11.373803 17.360107,14.859428 17.360107,18.835761 L 17.360107,26.857671 C 17.360107,29.869322 19.236113,32.425946 21.904661,33.494218 C 19.992632,32.623615 18.650868,30.758173 18.650868,28.546493 L 18.650868,18.413556 C 18.650868,15.37283 21.145478,12.723135 24.244165,12.723135 L 25.104672,12.723135 C 28.203358,12.723135 30.697969,15.37283 30.697969,18.413556 L 30.697969,28.546493 C 30.697969,30.758173 29.356204,32.623615 27.444176,33.494218 C 30.112724,32.425946 31.98873,29.869322 31.98873,26.857671 L 31.98873,18.835761 C 31.98873,14.859428 28.726547,11.373803 24.674418,11.373803 z" />
        <path
           style="opacity:0.5;fill:url(#linearGradient3002);fill-opacity:1;fill-rule:evenodd;stroke:none;stroke-width:0.625;stroke-linecap:round;stroke-linejoin:round;stroke-miterlimit:4;stroke-dashoffset:0;stroke-opacity:1"
           id="path2931"
           d="M 24.674418,10.994319 C 20.504033,10.994319 17.146647,14.329133 17.146647,18.471481 L 17.146647,26.828309 C 17.146647,29.965699 19.077402,32.629066 21.823828,33.741935 C 19.855999,32.834986 18.475077,30.89166 18.475077,28.587642 L 18.475077,18.031648 C 18.475077,14.863971 21.042491,11.815138 24.231608,11.815138 L 25.117228,11.815138 C 28.306346,11.815138 30.873759,14.863971 30.873759,18.031648 L 30.873759,28.587642 C 30.873759,30.89166 29.492837,32.834986 27.525008,33.741935 C 30.271435,32.629066 32.202189,29.965699 32.202189,26.828309 L 32.202189,18.471481 C 32.202189,14.329133 28.844803,10.994319 24.674418,10.994319 z" />
        <path
           style="opacity:0.8;fill:url(#radialGradient3004);fill-opacity:1;fill-rule:evenodd;stroke:none;stroke-width:1px;stroke-linecap:butt;stroke-linejoin:miter;stroke-opacity:1"
           id="path2861"
           d="M 21.491915,12.950028 C 20.329426,13.677921 19.675263,14.918749 19.803347,15.33237 C 19.941357,15.778041 20.758123,13.786151 23.070218,13.169285 C 24.853064,12.693623 23.070113,11.961841 21.491915,12.950028 z" />
        <path
           style="opacity:0.8;fill:url(#radialGradient3006);fill-opacity:1;fill-rule:evenodd;stroke:none;stroke-width:1px;stroke-linecap:butt;stroke-linejoin:miter;stroke-opacity:1"
           id="path2871"
           d="M 27.856921,12.928632 C 29.019411,13.656524 29.673574,14.897352 29.545489,15.310973 C 29.40748,15.756645 28.590714,13.764754 26.278618,13.147889 C 24.495772,12.672227 26.278724,11.940444 27.856921,12.928632 z" />
        <path
           style="opacity:0.5;fill:url(#linearGradient3008);fill-opacity:1;fill-rule:evenodd;stroke:none;stroke-width:0.625;stroke-linecap:round;stroke-linejoin:round;stroke-miterlimit:4;stroke-dashoffset:0;stroke-opacity:1"
           id="rect2875"
           d="M 24.674418,11.726532 C 20.62229,11.726532 17.360107,14.504221 17.360107,18.556349 L 17.360107,26.731168 C 17.360107,29.800226 19.236113,32.405584 21.904661,33.494218 C 19.992632,32.607019 18.650868,30.70602 18.650868,28.452182 L 18.650868,18.126096 C 18.650868,15.027409 21.145478,12.529474 24.244165,12.529474 L 25.104672,12.529474 C 28.203358,12.529474 30.697969,15.027409 30.697969,18.126096 L 30.697969,28.452182 C 30.697969,30.70602 29.356204,32.607019 27.444176,33.494218 C 30.112724,32.405584 31.98873,29.800226 31.98873,26.731168 L 31.98873,18.556349 C 31.98873,14.504221 28.726547,11.726532 24.674418,11.726532 z" />
        <path
           style="opacity:0.8;fill:url(#linearGradient3010);fill-opacity:1;fill-rule:evenodd;stroke:none;stroke-width:0.625;stroke-linecap:round;stroke-linejoin:round;stroke-miterlimit:4;stroke-dashoffset:0;stroke-opacity:1"
           id="path2933"
           d="M 24.674418,11.247619 C 18.953941,11.247619 17.633832,16.231394 17.633832,18.485413 C 17.633832,25.247473 18.073868,25.247473 18.073868,18.485413 C 18.073868,13.52657 21.592857,11.56938 24.674418,11.56938 C 27.75598,11.56938 31.274969,13.728868 31.274969,18.485413 C 31.274969,25.247473 31.715005,25.247473 31.715005,18.485413 C 31.715005,16.231394 30.394895,11.247619 24.674418,11.247619 z" />
        <path
           style="opacity:0.4;fill:url(#radialGradient3012);fill-opacity:1;fill-rule:evenodd;stroke:none;stroke-width:0.625;stroke-linecap:round;stroke-linejoin:round;stroke-miterlimit:4;stroke-dashoffset:0;stroke-opacity:1"
           id="path3055"
           d="M 36.721519,37.057253 C 36.721519,37.532498 31.327848,37.91776 24.674418,37.91776 C 18.020988,37.91776 12.627317,37.532498 12.627317,37.057253 C 12.627317,36.582008 18.020988,36.196746 24.674418,36.196746 C 31.327848,36.196746 36.721519,36.582008 36.721519,37.057253 L 36.721519,37.057253 z" />
        <path
           style="opacity:0.4;fill:url(#radialGradient3014);fill-opacity:1;fill-rule:evenodd;stroke:none;stroke-width:0.625;stroke-linecap:round;stroke-linejoin:round;stroke-miterlimit:4;stroke-dashoffset:0;stroke-opacity:1"
           id="path3065"
           d="M 36.721519,36.411866 C 36.721519,37.005922 31.327848,37.4875 24.674418,37.4875 C 18.020988,37.4875 12.627317,37.005922 12.627317,36.411866 C 12.627317,35.81781 18.020988,35.336232 24.674418,35.336232 C 31.327848,35.336232 36.721519,35.81781 36.721519,36.411866 L 36.721519,36.411866 z" />
        <path
           style="opacity:0.4;fill:url(#radialGradient3016);fill-opacity:1;fill-rule:evenodd;stroke:none;stroke-width:0.625;stroke-linecap:round;stroke-linejoin:round;stroke-miterlimit:4;stroke-dashoffset:0;stroke-opacity:1"
           id="path3067"
           d="M 36.721519,36.627 C 36.721519,37.102245 31.327848,37.487507 24.674418,37.487507 C 18.020988,37.487507 12.627317,37.102245 12.627317,36.627 C 12.627317,36.151755 18.020988,35.766493 24.674418,35.766493 C 31.327848,35.766493 36.721519,36.151755 36.721519,36.627 L 36.721519,36.627 z" />
        <rect
           y="22.64513"
           x="16.069345"
           width="17.210146"
           style="fill:url(#linearGradient3018);fill-opacity:1;fill-rule:evenodd;stroke:none;stroke-width:0.625;stroke-linecap:round;stroke-linejoin:round;stroke-miterlimit:4;stroke-dashoffset:0;stroke-opacity:1"
           ry="0.106878"
           rx="0.10687799"
           id="rect1941"
           height="14.163282" />
        <path
           style="opacity:0.5;fill:#ffffff;fill-opacity:1;fill-rule:evenodd;stroke:none;stroke-width:0.625;stroke-linecap:round;stroke-linejoin:round;stroke-miterlimit:4;stroke-dashoffset:0;stroke-opacity:1"
           id="path2727"
           d="M 16.607163,22.645129 C 16.994081,23.098645 20.485835,23.45446 24.869988,23.45446 C 29.193967,23.45446 32.627889,23.102371 33.096145,22.657775 C 33.089555,22.657087 33.090692,22.645129 33.08392,22.645129 L 16.607163,22.645129 z" />
        <path
           style="opacity:0.24999994;fill:url(#linearGradient3020);fill-opacity:1;fill-rule:evenodd;stroke:none;stroke-width:0.625;stroke-linecap:round;stroke-linejoin:round;stroke-miterlimit:4;stroke-dashoffset:0;stroke-opacity:1"
           id="rect3077"
           d="M 32.958856,34.907356 L 32.958856,36.593284 C 32.958856,36.712464 32.866483,36.80841 32.751745,36.80841 L 16.597091,36.80841 C 16.482352,36.80841 16.38998,36.712464 16.38998,36.593284 L 16.38998,30.604821 C 16.38998,36.914151 32.958856,26.141811 32.958856,34.907356 z" />
        <path
           style="opacity:0.5;fill:#000000;fill-opacity:1;fill-rule:evenodd;stroke:none;stroke-width:0.625;stroke-linecap:round;stroke-linejoin:round;stroke-miterlimit:4;stroke-dashoffset:0;stroke-opacity:1"
           id="path2768"
           d="M 16.39937,36.808413 C 16.786288,36.354897 20.278041,35.999081 24.662195,35.999081 C 28.986174,35.999081 32.420097,36.351169 32.88835,36.795767 C 32.88176,36.796455 32.8829,36.808413 32.876128,36.808413 L 16.39937,36.808413 z" />
      </g>
    </g>
  </g>
</svg>
