<?xml version="1.0" encoding="UTF-8" standalone="no"?>
<!-- Created with Inkscape (http://www.inkscape.org/) -->

<svg
   xmlns:dc="http://purl.org/dc/elements/1.1/"
   xmlns:cc="http://creativecommons.org/ns#"
   xmlns:rdf="http://www.w3.org/1999/02/22-rdf-syntax-ns#"
   xmlns:svg="http://www.w3.org/2000/svg"
   xmlns="http://www.w3.org/2000/svg"
   xmlns:xlink="http://www.w3.org/1999/xlink"
   xmlns:sodipodi="http://sodipodi.sourceforge.net/DTD/sodipodi-0.dtd"
   xmlns:inkscape="http://www.inkscape.org/namespaces/inkscape"
   width="256"
   height="256"
   id="svg2"
   sodipodi:version="0.32"
   inkscape:version="0.47pre0 r21549"
   version="1.0"
   sodipodi:docname="amule.svg"
   inkscape:output_extension="org.inkscape.output.svg.inkscape">
  <defs
     id="defs4">
    <linearGradient
       inkscape:collect="always"
       xlink:href="#linearGradient3492"
       id="linearGradient4074"
       gradientUnits="userSpaceOnUse"
       x1="619.4566"
       y1="256.86499"
       x2="518.49963"
       y2="380.88708" />
    <linearGradient
       inkscape:collect="always"
       xlink:href="#linearGradient3500"
       id="linearGradient4072"
       gradientUnits="userSpaceOnUse"
       x1="750.45184"
       y1="167.4064"
       x2="471.91034"
       y2="356.48929" />
    <linearGradient
       inkscape:collect="always"
       xlink:href="#linearGradient3492"
       id="linearGradient4070"
       gradientUnits="userSpaceOnUse"
       x1="619.4566"
       y1="256.86499"
       x2="518.49963"
       y2="380.88708" />
    <linearGradient
       inkscape:collect="always"
       xlink:href="#linearGradient3500"
       id="linearGradient4068"
       gradientUnits="userSpaceOnUse"
       x1="750.45184"
       y1="167.4064"
       x2="471.91034"
       y2="356.48929" />
    <linearGradient
       inkscape:collect="always"
       id="linearGradient3492">
      <stop
         style="stop-color:#000000;stop-opacity:1;"
         offset="0"
         id="stop3494" />
      <stop
         style="stop-color:#000000;stop-opacity:0;"
         offset="1"
         id="stop3496" />
    </linearGradient>
    <linearGradient
       inkscape:collect="always"
       xlink:href="#linearGradient3492"
       id="linearGradient4078"
       gradientUnits="userSpaceOnUse"
       x1="619.4566"
       y1="256.86499"
       x2="518.49963"
       y2="380.88708" />
    <linearGradient
       inkscape:collect="always"
       id="linearGradient3500">
      <stop
         style="stop-color:#000000;stop-opacity:1;"
         offset="0"
         id="stop3502" />
      <stop
         style="stop-color:#000000;stop-opacity:0;"
         offset="1"
         id="stop3504" />
    </linearGradient>
    <linearGradient
       inkscape:collect="always"
       xlink:href="#linearGradient3500"
       id="linearGradient4076"
       gradientUnits="userSpaceOnUse"
       x1="750.45184"
       y1="167.4064"
       x2="471.91034"
       y2="356.48929" />
    <linearGradient
       inkscape:collect="always"
       xlink:href="#linearGradient3484"
       id="linearGradient4064"
       gradientUnits="userSpaceOnUse"
       x1="286.02008"
       y1="67.36161"
       x2="311.11841"
       y2="242.63292" />
    <linearGradient
       inkscape:collect="always"
       xlink:href="#linearGradient3484"
       id="linearGradient4062"
       gradientUnits="userSpaceOnUse"
       x1="286.02008"
       y1="67.36161"
       x2="311.11841"
       y2="242.63292" />
    <linearGradient
       inkscape:collect="always"
       id="linearGradient3484">
      <stop
         style="stop-color:#000000;stop-opacity:1;"
         offset="0"
         id="stop3486" />
      <stop
         style="stop-color:#000000;stop-opacity:0;"
         offset="1"
         id="stop3488" />
    </linearGradient>
    <linearGradient
       inkscape:collect="always"
       xlink:href="#linearGradient3484"
       id="linearGradient4066"
       gradientUnits="userSpaceOnUse"
       x1="286.02008"
       y1="67.36161"
       x2="311.11841"
       y2="242.63292" />
    <linearGradient
       inkscape:collect="always"
       xlink:href="#linearGradient3476"
       id="linearGradient4058"
       gradientUnits="userSpaceOnUse"
       x1="121.33498"
       y1="67.36161"
       x2="601.85876"
       y2="502.87607" />
    <linearGradient
       inkscape:collect="always"
       id="linearGradient3252">
      <stop
         style="stop-color:#916818;stop-opacity:1;"
         offset="0"
         id="stop3254" />
      <stop
         style="stop-color:#916818;stop-opacity:0;"
         offset="1"
         id="stop3256" />
    </linearGradient>
    <radialGradient
       inkscape:collect="always"
       xlink:href="#linearGradient3252"
       id="radialGradient4056"
       gradientUnits="userSpaceOnUse"
       gradientTransform="matrix(2.8587993,0.6833821,-0.2295318,0.9602028,-567.73296,-231.72068)"
       cx="337.7081"
       cy="397.64944"
       fx="337.7081"
       fy="397.64944"
       r="313.56647" />
    <linearGradient
       inkscape:collect="always"
       xlink:href="#linearGradient3476"
       id="linearGradient4054"
       gradientUnits="userSpaceOnUse"
       x1="121.33498"
       y1="67.36161"
       x2="601.85876"
       y2="502.87607" />
    <linearGradient
       inkscape:collect="always"
       id="linearGradient3476">
      <stop
         style="stop-color:#e4c678;stop-opacity:1;"
         offset="0"
         id="stop3478" />
      <stop
         style="stop-color:#e4c678;stop-opacity:0;"
         offset="1"
         id="stop3480" />
    </linearGradient>
    <linearGradient
       inkscape:collect="always"
       xlink:href="#linearGradient3476"
       id="linearGradient4060"
       gradientUnits="userSpaceOnUse"
       x1="121.33498"
       y1="67.36161"
       x2="601.85876"
       y2="502.87607" />
    <linearGradient
       inkscape:collect="always"
       id="linearGradient4613">
      <stop
         style="stop-color:#000000;stop-opacity:1;"
         offset="0"
         id="stop4615" />
      <stop
         style="stop-color:#000000;stop-opacity:0;"
         offset="1"
         id="stop4617" />
    </linearGradient>
    <linearGradient
       inkscape:collect="always"
       id="linearGradient4605">
      <stop
         style="stop-color:#f70000;stop-opacity:1;"
         offset="0"
         id="stop4607" />
      <stop
         style="stop-color:#000000;stop-opacity:1"
         offset="1"
         id="stop4609" />
    </linearGradient>
    <linearGradient
       id="linearGradient4591"
       inkscape:collect="always">
      <stop
         id="stop4593"
         offset="0"
         style="stop-color:#ffffff;stop-opacity:1" />
      <stop
         id="stop4595"
         offset="1"
         style="stop-color:#ffffff;stop-opacity:0;" />
    </linearGradient>
    <mask
       maskUnits="userSpaceOnUse"
       x="122.963"
       y="97.149"
       width="576.609"
       height="587.491"
       id="XMLID_23_">
      <g
         id="g31"
         style="filter:url(#Adobe_OpacityMaskFilter)">
        <radialGradient
           id="XMLID_24_"
           cx="88.977501"
           cy="-20.899401"
           r="673.11609"
           fx="88.977501"
           fy="-20.899401"
           gradientUnits="userSpaceOnUse">
          <stop
             offset="0.309"
             style="stop-color:#FFFFFF"
             id="stop34" />
          <stop
             offset="1"
             style="stop-color:#000000"
             id="stop3816" />
        </radialGradient>
        <ellipse
           sodipodi:ry="349.10599"
           sodipodi:rx="512.93402"
           sodipodi:cy="286.172"
           sodipodi:cx="295.89499"
           cx="295.89499"
           cy="286.172"
           rx="512.93402"
           ry="349.10599"
           id="ellipse38"
           style="fill:url(#XMLID_24_)" />
      </g>
    </mask>
    <linearGradient
       inkscape:collect="always"
       xlink:href="#linearGradient4591"
       id="linearGradient3196"
       x1="99.881126"
       y1="68.792747"
       x2="171.01328"
       y2="46.998337"
       gradientUnits="userSpaceOnUse"
       gradientTransform="matrix(0.8301257,0,0,0.9649488,-179.55402,176.05704)" />
    <linearGradient
       inkscape:collect="always"
       xlink:href="#linearGradient4591"
       id="linearGradient4599"
       gradientUnits="userSpaceOnUse"
       gradientTransform="matrix(0.9457809,0,0,1.1075807,6.5485589,0.4212711)"
       x1="104.92213"
       y1="71.555038"
       x2="161.92285"
       y2="35.137646" />
    <linearGradient
       inkscape:collect="always"
       xlink:href="#linearGradient4605"
       id="linearGradient4611"
       x1="168.56552"
       y1="-13.762122"
       x2="206.93968"
       y2="23.825462"
       gradientUnits="userSpaceOnUse" />
    <linearGradient
       inkscape:collect="always"
       xlink:href="#linearGradient4613"
       id="linearGradient4619"
       x1="168.56552"
       y1="-13.762122"
       x2="351.36194"
       y2="165.28738"
       gradientUnits="userSpaceOnUse" />
  </defs>
  <sodipodi:namedview
     id="base"
     pagecolor="#ffffff"
     bordercolor="#666666"
     borderopacity="1.0"
     gridtolerance="10000"
     guidetolerance="10"
     objecttolerance="10"
     inkscape:pageopacity="0.0"
     inkscape:pageshadow="2"
     inkscape:zoom="1.2871553"
     inkscape:cx="128"
     inkscape:cy="97.383295"
     inkscape:document-units="px"
     inkscape:current-layer="layer1"
     showgrid="false"
     showguides="true"
     inkscape:guide-bbox="true"
     inkscape:window-width="773"
     inkscape:window-height="676"
     inkscape:window-x="301"
     inkscape:window-y="111" />
  <metadata
     id="metadata7">
    <rdf:RDF>
      <cc:Work
         rdf:about="">
        <dc:format>image/svg+xml</dc:format>
        <dc:type
           rdf:resource="http://purl.org/dc/dcmitype/StillImage" />
      </cc:Work>
    </rdf:RDF>
  </metadata>
  <g
     inkscape:label="Layer 1"
     inkscape:groupmode="layer"
     id="layer1">
    <rect
       style="opacity:1;fill:url(#linearGradient4619);fill-opacity:1;stroke:url(#linearGradient4611);stroke-width:2;stroke-miterlimit:4;stroke-dasharray:none;stroke-opacity:1"
       id="rect2383"
       width="209.543"
       height="209.543"
       x="75.938042"
       y="-106.63853"
       ry="61.030819"
       transform="matrix(0.6997472,0.7143906,-0.7143906,0.6997472,0,0)" />
    <rect
       style="opacity:0.26851852;fill:url(#linearGradient4599);fill-opacity:1;stroke:none;stroke-width:2;stroke-miterlimit:4;stroke-dasharray:none;stroke-opacity:1"
       id="rect4597"
       width="198.18179"
       height="232.08572"
       x="78.369324"
       y="-117.6895"
       ry="67.596573"
       transform="matrix(0.7600468,0.6498684,-0.7370851,0.6758,0,0)" />
    <rect
       transform="matrix(-0.796691,0.6043868,0.6617245,0.7497471,0,0)"
       ry="58.891621"
       y="73.156349"
       x="-116.51585"
       height="202.19823"
       width="173.94705"
       id="rect3188"
       style="opacity:0.27777778;fill:url(#linearGradient3196);fill-opacity:1;stroke:none;stroke-width:2;stroke-miterlimit:4;stroke-dasharray:none;stroke-opacity:1" />
    <path
       sodipodi:nodetypes="ccc"
       id="path2276"
       d="M 108.10388,41.662742 L 108.10388,37.156303 L 108.10388,41.662742 z"
       style="fill:#ffffff;fill-opacity:0.75688076;fill-rule:nonzero;stroke:none;stroke-width:0.5;stroke-linecap:round;stroke-linejoin:round;stroke-miterlimit:4;stroke-dasharray:none;stroke-dashoffset:4;stroke-opacity:1" />
    <g
       id="g3971"
       transform="matrix(0.8997912,0,0,0.8997912,13.737225,17.75313)">
      <path
         d="M 99.726909,96.385544 A 4.6265059,1.7991968 0 1 1 90.473897,96.385544 A 4.6265059,1.7991968 0 1 1 99.726909,96.385544 z"
         sodipodi:ry="1.7991968"
         sodipodi:rx="4.6265059"
         sodipodi:cy="96.385544"
         sodipodi:cx="95.100403"
         id="path3494"
         style="opacity:0.82407406;fill:#000000;fill-opacity:1;stroke:#000000;stroke-width:2;stroke-linecap:round;stroke-linejoin:round;stroke-miterlimit:4;stroke-dasharray:none;stroke-opacity:1"
         sodipodi:type="arc" />
      <path
         style="fill:#ffffff;fill-opacity:0.75688076;fill-rule:nonzero;stroke:none;stroke-width:0.5;stroke-linecap:round;stroke-linejoin:round;stroke-miterlimit:4;stroke-dasharray:none;stroke-dashoffset:4;stroke-opacity:1"
         d="M 106.11175,33.029662 L 106.11175,28.523223 L 106.11175,33.029662 z"
         id="path6018"
         sodipodi:nodetypes="ccc" />
      <g
         style="stroke:url(#linearGradient4060);stroke-width:7.91022205;stroke-miterlimit:4;stroke-dasharray:none;stroke-opacity:1"
         transform="matrix(0.2528374,0,0,0.2528374,35.546653,6.8015652)"
         id="g3290">
        <path
           style="fill:#000000;stroke:url(#linearGradient4054);stroke-width:7.91022205;stroke-miterlimit:4;stroke-dasharray:none;stroke-opacity:1"
           d="M 509.37965,670.88007 C 558.95952,641.04617 574.82179,627.48587 607.60902,586.90577 C 640.83397,545.78387 670.41222,486.82834 683.80868,435.02412 C 696.44196,386.17114 695.67418,383.34796 663.69502,361.06479 C 627.4217,335.78945 570.15679,285.87955 566.55619,276.40232 C 564.66999,271.43762 561.25878,270.80889 555.60381,274.38365 C 542.6565,282.56821 537.11809,280.60756 545.30831,270.73894 C 551.97834,262.70205 551.3884,262.17678 539.81687,265.84943 C 531.48341,268.49437 528.08195,267.97501 530.29425,264.39544 C 536.12487,254.96129 527.65067,241.40981 515.92056,241.40981 C 509.79805,241.40981 501.70337,237.19033 497.93237,232.03318 C 491.86537,223.73606 489.95278,223.57844 481.31949,230.66414 C 472.4049,237.98069 471.83695,237.60843 474.73803,226.35028 C 478.2242,212.82155 473.75053,210.45487 463.69639,220.50901 C 454.33783,229.86757 448.62628,221.42107 457.27025,211.00573 C 465.50736,201.08061 464.34502,199.89171 427.29236,180.34286 C 407.69129,170.00139 405.18757,169.77537 399.3077,177.81658 C 391.26484,188.81585 385.84322,189.13351 385.84322,178.60549 C 385.84322,173.70652 382.63259,171.7951 377.62893,173.71519 C 371.92905,175.90243 369.41465,173.33542 369.41465,165.32903 C 369.41465,158.98298 366.20502,153.79076 362.28215,153.79076 C 358.35928,153.79076 350.711,141.44727 345.28598,126.36079 C 339.86095,111.27431 328.90093,93.788721 320.93038,87.503921 L 306.43846,76.077021 L 303.16803,105.35055 C 299.13394,141.45961 293.67515,159.26695 286.64009,159.26695 C 277.13923,159.26695 254.20288,130.02414 238.32717,97.670141 C 225.26073,71.041341 221.83257,67.456151 216.07273,74.396331 C 210.5338,81.070331 210.81172,82.600281 217.56298,82.600281 C 226.54025,82.600281 232.50989,93.714831 232.50989,110.42911 C 232.50989,127.15892 222.39112,122.60152 216.31699,103.13599 C 210.77808,85.385631 210.76947,85.382001 213.0741,101.76694 C 217.51163,133.3158 229.8472,173.73602 239.51158,188.39517 C 249.09523,202.93187 249.04057,203.26476 236.10163,209.16013 C 212.60656,219.8652 183.70989,264.99807 166.6475,317.63854 C 148.17666,374.62429 129.54529,413.83842 103.65518,450.22076 C 67.432431,501.12314 60.344151,523.24743 79.789341,524.71219 C 93.263941,525.72719 112.0337,541.18437 112.0337,551.26587 C 112.0337,555.09827 105.54063,563.34137 97.604701,569.58377 C 84.669831,579.75837 84.307691,580.93367 94.107221,580.93367 C 102.80002,580.93367 104.50541,583.72337 102.43465,594.55597 C 98.523831,615.01397 113.92309,617.78247 134.64434,600.34667 C 146.79004,590.12677 153.66315,587.51547 157.72522,591.57757 C 161.78731,595.63967 161.55303,599.31907 156.93846,603.93367 C 151.82736,609.04467 150.36703,608.83267 150.36703,602.97907 C 150.36703,597.93617 146.02676,599.53057 137.21245,607.81107 C 119.18839,624.74387 98.924301,621.57877 96.610441,601.46937 C 95.657201,593.18507 91.491081,586.40977 87.350261,586.40977 C 77.354461,586.40977 72.188611,577.25087 67.274051,550.81457 C 63.826031,532.26697 63.556821,533.39707 65.517621,558.18837 C 69.143631,604.03327 85.688131,625.82447 126.01145,637.86647 C 132.55649,639.82117 141.70572,637.66297 147.91621,632.69957 C 158.29748,624.40287 158.2534,624.26627 146.25989,627.56677 C 139.4831,629.43157 133.93846,628.81987 133.93846,626.20747 C 133.93846,617.75457 146.01839,609.09097 153.69633,612.03727 C 158.23062,613.77727 163.29633,609.30407 166.58395,600.65697 C 169.56317,592.82107 173.5575,586.40977 175.46024,586.40977 C 177.36298,586.40977 177.50131,590.10627 175.76765,594.62407 C 172.26751,603.74527 180.62928,605.99117 185.96227,597.36217 C 187.82373,594.35027 197.21023,591.87227 206.82117,591.85547 C 233.47037,591.80887 264.08893,582.30087 307.92986,560.45817 L 347.7546,540.61647 L 369.92211,562.14407 C 382.11424,573.98427 408.38184,607.69847 428.29456,637.06457 C 448.20727,666.43067 467.27716,690.45747 470.67208,690.45747 C 474.067,690.45747 491.48541,681.64757 509.37965,670.88007 z M 191.55915,374.20743 C 193.77596,368.9366 196.0612,360.11456 196.63745,354.60292 C 198.06975,340.9035 209.55457,334.68843 233.62126,334.58891 C 257.60906,334.48971 281.7956,344.35589 281.7956,354.24021 C 281.7956,366.77334 259.84485,377.61853 240.74957,374.51979 C 230.87109,372.91674 218.19919,374.27197 212.58977,377.53143 C 196.60247,386.82116 186.89908,385.28749 191.55915,374.20743 z M 210.60512,372.74675 C 215.12298,369.87748 228.06048,367.49217 239.35512,367.44605 C 259.38903,367.36424 267.87615,356.51519 254.41465,348.19553 C 251.40274,346.33406 248.93846,347.42078 248.93846,350.61043 C 248.93846,358.77407 228.48948,357.86575 225.39301,349.56457 C 223.60228,344.7639 219.18376,346.22916 210.59969,354.47033 C 197.01379,367.51352 197.01791,381.37591 210.60512,372.74675 z M 301.10289,230.72937 C 290.50963,210.24424 290.43759,178.14467 300.91823,148.43937 C 305.41187,135.70304 309.63247,118.14321 310.29735,109.41753 C 311.96438,87.539651 317.80977,89.531441 332.04072,116.82647 C 340.27719,132.62408 344.1751,149.77536 344.1751,170.21933 C 344.1751,200.32196 326.2623,246.886 314.68207,246.886 C 311.80873,246.886 305.6981,239.61552 301.10289,230.72937 z M 322.02005,197.60028 C 320.15148,187.05862 316.3901,174.73719 313.66141,170.21933 C 307.2029,159.52603 314.08056,197.17774 320.66358,208.55266 C 323.62238,213.66523 324.13458,209.52961 322.02005,197.60028 z M 235.07686,158.25408 C 232.96703,145.76614 233.70184,133.97975 236.78225,130.89934 C 245.89108,121.79051 259.89084,148.52271 259.89084,175.02465 C 259.89084,198.64503 259.60704,199.04094 249.33741,189.74704 C 243.53302,184.49414 237.11577,170.32231 235.07686,158.25408 z M 97.430501,566.33047 C 103.61833,560.14267 101.46032,537.12407 94.692411,537.12407 C 91.178561,537.12407 89.789081,538.60967 91.604711,540.42527 C 93.420341,542.24087 92.659921,549.63377 89.914871,556.85387 C 85.216961,569.21027 89.345241,574.41577 97.430501,566.33047 z"
           id="path2470" />
        <path
           id="path2472"
           d="M 509.37965,670.88007 C 558.95952,641.04617 574.82179,627.48587 607.60902,586.90577 C 640.83397,545.78387 670.41222,486.82834 683.80868,435.02412 C 696.44196,386.17114 695.67418,383.34796 663.69502,361.06479 C 627.4217,335.78945 570.15679,285.87955 566.55619,276.40232 C 564.66999,271.43762 561.25878,270.80889 555.60381,274.38365 C 542.6565,282.56821 537.11809,280.60756 545.30831,270.73894 C 551.97834,262.70205 551.3884,262.17678 539.81687,265.84943 C 531.48341,268.49437 528.08195,267.97501 530.29425,264.39544 C 536.12487,254.96129 527.65067,241.40981 515.92056,241.40981 C 509.79805,241.40981 501.70337,237.19033 497.93237,232.03318 C 491.86537,223.73606 489.95278,223.57844 481.31949,230.66414 C 472.4049,237.98069 471.83695,237.60843 474.73803,226.35028 C 478.2242,212.82155 473.75053,210.45487 463.69639,220.50901 C 454.33783,229.86757 448.62628,221.42107 457.27025,211.00573 C 465.50736,201.08061 464.34502,199.89171 427.29236,180.34286 C 407.69129,170.00139 405.18757,169.77537 399.3077,177.81658 C 391.26484,188.81585 385.84322,189.13351 385.84322,178.60549 C 385.84322,173.70652 382.63259,171.7951 377.62893,173.71519 C 371.92905,175.90243 369.41465,173.33542 369.41465,165.32903 C 369.41465,158.98298 366.20502,153.79076 362.28215,153.79076 C 358.35928,153.79076 350.711,141.44727 345.28598,126.36079 C 339.86095,111.27431 328.90093,93.788721 320.93038,87.503921 L 306.43846,76.077021 L 303.16803,105.35055 C 299.13394,141.45961 293.67515,159.26695 286.64009,159.26695 C 277.13923,159.26695 254.20288,130.02414 238.32717,97.670141 C 225.26073,71.041341 221.83257,67.456151 216.07273,74.396331 C 210.5338,81.070331 210.81172,82.600281 217.56298,82.600281 C 226.54025,82.600281 232.50989,93.714831 232.50989,110.42911 C 232.50989,127.15892 222.39112,122.60152 216.31699,103.13599 C 210.77808,85.385631 210.76947,85.382001 213.0741,101.76694 C 217.51163,133.3158 229.8472,173.73602 239.51158,188.39517 C 249.09523,202.93187 249.04057,203.26476 236.10163,209.16013 C 212.60656,219.8652 183.70989,264.99807 166.6475,317.63854 C 148.17666,374.62429 129.54529,413.83842 103.65518,450.22076 C 67.432431,501.12314 60.344151,523.24743 79.789341,524.71219 C 93.263941,525.72719 112.0337,541.18437 112.0337,551.26587 C 112.0337,555.09827 105.54063,563.34137 97.604701,569.58377 C 84.669831,579.75837 84.307691,580.93367 94.107221,580.93367 C 102.80002,580.93367 104.50541,583.72337 102.43465,594.55597 C 98.523831,615.01397 113.92309,617.78247 134.64434,600.34667 C 146.79004,590.12677 153.66315,587.51547 157.72522,591.57757 C 161.78731,595.63967 161.55303,599.31907 156.93846,603.93367 C 151.82736,609.04467 150.36703,608.83267 150.36703,602.97907 C 150.36703,597.93617 146.02676,599.53057 137.21245,607.81107 C 119.18839,624.74387 98.924301,621.57877 96.610441,601.46937 C 95.657201,593.18507 91.491081,586.40977 87.350261,586.40977 C 77.354461,586.40977 72.188611,577.25087 67.274051,550.81457 C 63.826031,532.26697 63.556821,533.39707 65.517621,558.18837 C 69.143631,604.03327 85.688131,625.82447 126.01145,637.86647 C 132.55649,639.82117 141.70572,637.66297 147.91621,632.69957 C 158.29748,624.40287 158.2534,624.26627 146.25989,627.56677 C 139.4831,629.43157 133.93846,628.81987 133.93846,626.20747 C 133.93846,617.75457 146.01839,609.09097 153.69633,612.03727 C 158.23062,613.77727 163.29633,609.30407 166.58395,600.65697 C 169.56317,592.82107 173.5575,586.40977 175.46024,586.40977 C 177.36298,586.40977 177.50131,590.10627 175.76765,594.62407 C 172.26751,603.74527 180.62928,605.99117 185.96227,597.36217 C 187.82373,594.35027 197.21023,591.87227 206.82117,591.85547 C 233.47037,591.80887 264.08893,582.30087 307.92986,560.45817 L 347.7546,540.61647 L 369.92211,562.14407 C 382.11424,573.98427 408.38184,607.69847 428.29456,637.06457 C 448.20727,666.43067 467.27716,690.45747 470.67208,690.45747 C 474.067,690.45747 491.48541,681.64757 509.37965,670.88007 z M 191.55915,374.20743 C 193.77596,368.9366 196.0612,360.11456 196.63745,354.60292 C 198.06975,340.9035 209.55457,334.68843 233.62126,334.58891 C 257.60906,334.48971 281.7956,344.35589 281.7956,354.24021 C 281.7956,366.77334 259.84485,377.61853 240.74957,374.51979 C 230.87109,372.91674 218.19919,374.27197 212.58977,377.53143 C 196.60247,386.82116 186.89908,385.28749 191.55915,374.20743 z M 210.60512,372.74675 C 215.12298,369.87748 228.06048,367.49217 239.35512,367.44605 C 259.38903,367.36424 267.87615,356.51519 254.41465,348.19553 C 251.40274,346.33406 248.93846,347.42078 248.93846,350.61043 C 248.93846,358.77407 228.48948,357.86575 225.39301,349.56457 C 223.60228,344.7639 219.18376,346.22916 210.59969,354.47033 C 197.01379,367.51352 197.01791,381.37591 210.60512,372.74675 z M 301.10289,230.72937 C 290.50963,210.24424 290.43759,178.14467 300.91823,148.43937 C 305.41187,135.70304 309.63247,118.14321 310.29735,109.41753 C 311.96438,87.539651 317.80977,89.531441 332.04072,116.82647 C 340.27719,132.62408 344.1751,149.77536 344.1751,170.21933 C 344.1751,200.32196 326.2623,246.886 314.68207,246.886 C 311.80873,246.886 305.6981,239.61552 301.10289,230.72937 z M 322.02005,197.60028 C 320.15148,187.05862 316.3901,174.73719 313.66141,170.21933 C 307.2029,159.52603 314.08056,197.17774 320.66358,208.55266 C 323.62238,213.66523 324.13458,209.52961 322.02005,197.60028 z M 235.07686,158.25408 C 232.96703,145.76614 233.70184,133.97975 236.78225,130.89934 C 245.89108,121.79051 259.89084,148.52271 259.89084,175.02465 C 259.89084,198.64503 259.60704,199.04094 249.33741,189.74704 C 243.53302,184.49414 237.11577,170.32231 235.07686,158.25408 z M 97.430501,566.33047 C 103.61833,560.14267 101.46032,537.12407 94.692411,537.12407 C 91.178561,537.12407 89.789081,538.60967 91.604711,540.42527 C 93.420341,542.24087 92.659921,549.63377 89.914871,556.85387 C 85.216961,569.21027 89.345241,574.41577 97.430501,566.33047 z"
           style="fill:url(#radialGradient4056);fill-opacity:1;stroke:url(#linearGradient4058);stroke-width:7.91022205;stroke-miterlimit:4;stroke-dasharray:none;stroke-opacity:1" />
      </g>
      <g
         id="g3478"
         transform="matrix(0.2528374,0,0,0.2528374,35.546653,6.8015652)"
         style="fill:none;stroke:url(#linearGradient4066);stroke-width:7.91022205;stroke-miterlimit:4;stroke-dasharray:none;stroke-opacity:1">
        <path
           id="path3480"
           d="M 509.37965,670.88007 C 558.95952,641.04617 574.82179,627.48587 607.60902,586.90577 C 640.83397,545.78387 670.41222,486.82834 683.80868,435.02412 C 696.44196,386.17114 695.67418,383.34796 663.69502,361.06479 C 627.4217,335.78945 570.15679,285.87955 566.55619,276.40232 C 564.66999,271.43762 561.25878,270.80889 555.60381,274.38365 C 542.6565,282.56821 537.11809,280.60756 545.30831,270.73894 C 551.97834,262.70205 551.3884,262.17678 539.81687,265.84943 C 531.48341,268.49437 528.08195,267.97501 530.29425,264.39544 C 536.12487,254.96129 527.65067,241.40981 515.92056,241.40981 C 509.79805,241.40981 501.70337,237.19033 497.93237,232.03318 C 491.86537,223.73606 489.95278,223.57844 481.31949,230.66414 C 472.4049,237.98069 471.83695,237.60843 474.73803,226.35028 C 478.2242,212.82155 473.75053,210.45487 463.69639,220.50901 C 454.33783,229.86757 448.62628,221.42107 457.27025,211.00573 C 465.50736,201.08061 464.34502,199.89171 427.29236,180.34286 C 407.69129,170.00139 405.18757,169.77537 399.3077,177.81658 C 391.26484,188.81585 385.84322,189.13351 385.84322,178.60549 C 385.84322,173.70652 382.63259,171.7951 377.62893,173.71519 C 371.92905,175.90243 369.41465,173.33542 369.41465,165.32903 C 369.41465,158.98298 366.20502,153.79076 362.28215,153.79076 C 358.35928,153.79076 350.711,141.44727 345.28598,126.36079 C 339.86095,111.27431 328.90093,93.788721 320.93038,87.503921 L 306.43846,76.077021 L 303.16803,105.35055 C 299.13394,141.45961 293.67515,159.26695 286.64009,159.26695 C 277.13923,159.26695 254.20288,130.02414 238.32717,97.670141 C 225.26073,71.041341 221.83257,67.456151 216.07273,74.396331 C 210.5338,81.070331 210.81172,82.600281 217.56298,82.600281 C 226.54025,82.600281 232.50989,93.714831 232.50989,110.42911 C 232.50989,127.15892 222.39112,122.60152 216.31699,103.13599 C 210.77808,85.385631 210.76947,85.382001 213.0741,101.76694 C 217.51163,133.3158 229.8472,173.73602 239.51158,188.39517 C 249.09523,202.93187 249.04057,203.26476 236.10163,209.16013 C 212.60656,219.8652 183.70989,264.99807 166.6475,317.63854 C 148.17666,374.62429 129.54529,413.83842 103.65518,450.22076 C 67.432431,501.12314 60.344151,523.24743 79.789341,524.71219 C 93.263941,525.72719 112.0337,541.18437 112.0337,551.26587 C 112.0337,555.09827 105.54063,563.34137 97.604701,569.58377 C 84.669831,579.75837 84.307691,580.93367 94.107221,580.93367 C 102.80002,580.93367 104.50541,583.72337 102.43465,594.55597 C 98.523831,615.01397 113.92309,617.78247 134.64434,600.34667 C 146.79004,590.12677 153.66315,587.51547 157.72522,591.57757 C 161.78731,595.63967 161.55303,599.31907 156.93846,603.93367 C 151.82736,609.04467 150.36703,608.83267 150.36703,602.97907 C 150.36703,597.93617 146.02676,599.53057 137.21245,607.81107 C 119.18839,624.74387 98.924301,621.57877 96.610441,601.46937 C 95.657201,593.18507 91.491081,586.40977 87.350261,586.40977 C 77.354461,586.40977 72.188611,577.25087 67.274051,550.81457 C 63.826031,532.26697 63.556821,533.39707 65.517621,558.18837 C 69.143631,604.03327 85.688131,625.82447 126.01145,637.86647 C 132.55649,639.82117 141.70572,637.66297 147.91621,632.69957 C 158.29748,624.40287 158.2534,624.26627 146.25989,627.56677 C 139.4831,629.43157 133.93846,628.81987 133.93846,626.20747 C 133.93846,617.75457 146.01839,609.09097 153.69633,612.03727 C 158.23062,613.77727 163.29633,609.30407 166.58395,600.65697 C 169.56317,592.82107 173.5575,586.40977 175.46024,586.40977 C 177.36298,586.40977 177.50131,590.10627 175.76765,594.62407 C 172.26751,603.74527 180.62928,605.99117 185.96227,597.36217 C 187.82373,594.35027 197.21023,591.87227 206.82117,591.85547 C 233.47037,591.80887 264.08893,582.30087 307.92986,560.45817 L 347.7546,540.61647 L 369.92211,562.14407 C 382.11424,573.98427 408.38184,607.69847 428.29456,637.06457 C 448.20727,666.43067 467.27716,690.45747 470.67208,690.45747 C 474.067,690.45747 491.48541,681.64757 509.37965,670.88007 z M 191.55915,374.20743 C 193.77596,368.9366 196.0612,360.11456 196.63745,354.60292 C 198.06975,340.9035 209.55457,334.68843 233.62126,334.58891 C 257.60906,334.48971 281.7956,344.35589 281.7956,354.24021 C 281.7956,366.77334 259.84485,377.61853 240.74957,374.51979 C 230.87109,372.91674 218.19919,374.27197 212.58977,377.53143 C 196.60247,386.82116 186.89908,385.28749 191.55915,374.20743 z M 210.60512,372.74675 C 215.12298,369.87748 228.06048,367.49217 239.35512,367.44605 C 259.38903,367.36424 267.87615,356.51519 254.41465,348.19553 C 251.40274,346.33406 248.93846,347.42078 248.93846,350.61043 C 248.93846,358.77407 228.48948,357.86575 225.39301,349.56457 C 223.60228,344.7639 219.18376,346.22916 210.59969,354.47033 C 197.01379,367.51352 197.01791,381.37591 210.60512,372.74675 z M 301.10289,230.72937 C 290.50963,210.24424 290.43759,178.14467 300.91823,148.43937 C 305.41187,135.70304 309.63247,118.14321 310.29735,109.41753 C 311.96438,87.539651 317.80977,89.531441 332.04072,116.82647 C 340.27719,132.62408 344.1751,149.77536 344.1751,170.21933 C 344.1751,200.32196 326.2623,246.886 314.68207,246.886 C 311.80873,246.886 305.6981,239.61552 301.10289,230.72937 z M 322.02005,197.60028 C 320.15148,187.05862 316.3901,174.73719 313.66141,170.21933 C 307.2029,159.52603 314.08056,197.17774 320.66358,208.55266 C 323.62238,213.66523 324.13458,209.52961 322.02005,197.60028 z M 235.07686,158.25408 C 232.96703,145.76614 233.70184,133.97975 236.78225,130.89934 C 245.89108,121.79051 259.89084,148.52271 259.89084,175.02465 C 259.89084,198.64503 259.60704,199.04094 249.33741,189.74704 C 243.53302,184.49414 237.11577,170.32231 235.07686,158.25408 z M 97.430501,566.33047 C 103.61833,560.14267 101.46032,537.12407 94.692411,537.12407 C 91.178561,537.12407 89.789081,538.60967 91.604711,540.42527 C 93.420341,542.24087 92.659921,549.63377 89.914871,556.85387 C 85.216961,569.21027 89.345241,574.41577 97.430501,566.33047 z"
           style="fill:none;stroke:url(#linearGradient4062);stroke-width:7.91022205;stroke-miterlimit:4;stroke-dasharray:none;stroke-opacity:1" />
        <path
           style="fill:none;fill-opacity:1;stroke:url(#linearGradient4064);stroke-width:7.91022205;stroke-miterlimit:4;stroke-dasharray:none;stroke-opacity:1"
           d="M 509.37965,670.88007 C 558.95952,641.04617 574.82179,627.48587 607.60902,586.90577 C 640.83397,545.78387 670.41222,486.82834 683.80868,435.02412 C 696.44196,386.17114 695.67418,383.34796 663.69502,361.06479 C 627.4217,335.78945 570.15679,285.87955 566.55619,276.40232 C 564.66999,271.43762 561.25878,270.80889 555.60381,274.38365 C 542.6565,282.56821 537.11809,280.60756 545.30831,270.73894 C 551.97834,262.70205 551.3884,262.17678 539.81687,265.84943 C 531.48341,268.49437 528.08195,267.97501 530.29425,264.39544 C 536.12487,254.96129 527.65067,241.40981 515.92056,241.40981 C 509.79805,241.40981 501.70337,237.19033 497.93237,232.03318 C 491.86537,223.73606 489.95278,223.57844 481.31949,230.66414 C 472.4049,237.98069 471.83695,237.60843 474.73803,226.35028 C 478.2242,212.82155 473.75053,210.45487 463.69639,220.50901 C 454.33783,229.86757 448.62628,221.42107 457.27025,211.00573 C 465.50736,201.08061 464.34502,199.89171 427.29236,180.34286 C 407.69129,170.00139 405.18757,169.77537 399.3077,177.81658 C 391.26484,188.81585 385.84322,189.13351 385.84322,178.60549 C 385.84322,173.70652 382.63259,171.7951 377.62893,173.71519 C 371.92905,175.90243 369.41465,173.33542 369.41465,165.32903 C 369.41465,158.98298 366.20502,153.79076 362.28215,153.79076 C 358.35928,153.79076 350.711,141.44727 345.28598,126.36079 C 339.86095,111.27431 328.90093,93.788721 320.93038,87.503921 L 306.43846,76.077021 L 303.16803,105.35055 C 299.13394,141.45961 293.67515,159.26695 286.64009,159.26695 C 277.13923,159.26695 254.20288,130.02414 238.32717,97.670141 C 225.26073,71.041341 221.83257,67.456151 216.07273,74.396331 C 210.5338,81.070331 210.81172,82.600281 217.56298,82.600281 C 226.54025,82.600281 232.50989,93.714831 232.50989,110.42911 C 232.50989,127.15892 222.39112,122.60152 216.31699,103.13599 C 210.77808,85.385631 210.76947,85.382001 213.0741,101.76694 C 217.51163,133.3158 229.8472,173.73602 239.51158,188.39517 C 249.09523,202.93187 249.04057,203.26476 236.10163,209.16013 C 212.60656,219.8652 183.70989,264.99807 166.6475,317.63854 C 148.17666,374.62429 129.54529,413.83842 103.65518,450.22076 C 67.432431,501.12314 60.344151,523.24743 79.789341,524.71219 C 93.263941,525.72719 112.0337,541.18437 112.0337,551.26587 C 112.0337,555.09827 105.54063,563.34137 97.604701,569.58377 C 84.669831,579.75837 84.307691,580.93367 94.107221,580.93367 C 102.80002,580.93367 104.50541,583.72337 102.43465,594.55597 C 98.523831,615.01397 113.92309,617.78247 134.64434,600.34667 C 146.79004,590.12677 153.66315,587.51547 157.72522,591.57757 C 161.78731,595.63967 161.55303,599.31907 156.93846,603.93367 C 151.82736,609.04467 150.36703,608.83267 150.36703,602.97907 C 150.36703,597.93617 146.02676,599.53057 137.21245,607.81107 C 119.18839,624.74387 98.924301,621.57877 96.610441,601.46937 C 95.657201,593.18507 91.491081,586.40977 87.350261,586.40977 C 77.354461,586.40977 72.188611,577.25087 67.274051,550.81457 C 63.826031,532.26697 63.556821,533.39707 65.517621,558.18837 C 69.143631,604.03327 85.688131,625.82447 126.01145,637.86647 C 132.55649,639.82117 141.70572,637.66297 147.91621,632.69957 C 158.29748,624.40287 158.2534,624.26627 146.25989,627.56677 C 139.4831,629.43157 133.93846,628.81987 133.93846,626.20747 C 133.93846,617.75457 146.01839,609.09097 153.69633,612.03727 C 158.23062,613.77727 163.29633,609.30407 166.58395,600.65697 C 169.56317,592.82107 173.5575,586.40977 175.46024,586.40977 C 177.36298,586.40977 177.50131,590.10627 175.76765,594.62407 C 172.26751,603.74527 180.62928,605.99117 185.96227,597.36217 C 187.82373,594.35027 197.21023,591.87227 206.82117,591.85547 C 233.47037,591.80887 264.08893,582.30087 307.92986,560.45817 L 347.7546,540.61647 L 369.92211,562.14407 C 382.11424,573.98427 408.38184,607.69847 428.29456,637.06457 C 448.20727,666.43067 467.27716,690.45747 470.67208,690.45747 C 474.067,690.45747 491.48541,681.64757 509.37965,670.88007 z M 191.55915,374.20743 C 193.77596,368.9366 196.0612,360.11456 196.63745,354.60292 C 198.06975,340.9035 209.55457,334.68843 233.62126,334.58891 C 257.60906,334.48971 281.7956,344.35589 281.7956,354.24021 C 281.7956,366.77334 259.84485,377.61853 240.74957,374.51979 C 230.87109,372.91674 218.19919,374.27197 212.58977,377.53143 C 196.60247,386.82116 186.89908,385.28749 191.55915,374.20743 z M 210.60512,372.74675 C 215.12298,369.87748 228.06048,367.49217 239.35512,367.44605 C 259.38903,367.36424 267.87615,356.51519 254.41465,348.19553 C 251.40274,346.33406 248.93846,347.42078 248.93846,350.61043 C 248.93846,358.77407 228.48948,357.86575 225.39301,349.56457 C 223.60228,344.7639 219.18376,346.22916 210.59969,354.47033 C 197.01379,367.51352 197.01791,381.37591 210.60512,372.74675 z M 301.10289,230.72937 C 290.50963,210.24424 290.43759,178.14467 300.91823,148.43937 C 305.41187,135.70304 309.63247,118.14321 310.29735,109.41753 C 311.96438,87.539651 317.80977,89.531441 332.04072,116.82647 C 340.27719,132.62408 344.1751,149.77536 344.1751,170.21933 C 344.1751,200.32196 326.2623,246.886 314.68207,246.886 C 311.80873,246.886 305.6981,239.61552 301.10289,230.72937 z M 322.02005,197.60028 C 320.15148,187.05862 316.3901,174.73719 313.66141,170.21933 C 307.2029,159.52603 314.08056,197.17774 320.66358,208.55266 C 323.62238,213.66523 324.13458,209.52961 322.02005,197.60028 z M 235.07686,158.25408 C 232.96703,145.76614 233.70184,133.97975 236.78225,130.89934 C 245.89108,121.79051 259.89084,148.52271 259.89084,175.02465 C 259.89084,198.64503 259.60704,199.04094 249.33741,189.74704 C 243.53302,184.49414 237.11577,170.32231 235.07686,158.25408 z M 97.430501,566.33047 C 103.61833,560.14267 101.46032,537.12407 94.692411,537.12407 C 91.178561,537.12407 89.789081,538.60967 91.604711,540.42527 C 93.420341,542.24087 92.659921,549.63377 89.914871,556.85387 C 85.216961,569.21027 89.345241,574.41577 97.430501,566.33047 z"
           id="path3482" />
      </g>
      <g
         id="g2716"
         transform="matrix(0.2528374,0,0,0.2528374,35.546653,6.8015652)"
         style="fill:url(#linearGradient4076);fill-opacity:1;stroke:url(#linearGradient4078);stroke-width:24.52168846;stroke-miterlimit:4;stroke-dasharray:none;stroke-opacity:1">
        <path
           id="path2718"
           d="M 509.37965,670.88007 C 558.95952,641.04617 574.82179,627.48587 607.60902,586.90577 C 640.83397,545.78387 670.41222,486.82834 683.80868,435.02412 C 696.44196,386.17114 695.67418,383.34796 663.69502,361.06479 C 627.4217,335.78945 570.15679,285.87955 566.55619,276.40232 C 564.66999,271.43762 561.25878,270.80889 555.60381,274.38365 C 542.6565,282.56821 537.11809,280.60756 545.30831,270.73894 C 551.97834,262.70205 551.3884,262.17678 539.81687,265.84943 C 531.48341,268.49437 528.08195,267.97501 530.29425,264.39544 C 536.12487,254.96129 527.65067,241.40981 515.92056,241.40981 C 509.79805,241.40981 501.70337,237.19033 497.93237,232.03318 C 491.86537,223.73606 489.95278,223.57844 481.31949,230.66414 C 472.4049,237.98069 471.83695,237.60843 474.73803,226.35028 C 478.2242,212.82155 473.75053,210.45487 463.69639,220.50901 C 454.33783,229.86757 448.62628,221.42107 457.27025,211.00573 C 465.50736,201.08061 464.34502,199.89171 427.29236,180.34286 C 407.69129,170.00139 405.18757,169.77537 399.3077,177.81658 C 391.26484,188.81585 385.84322,189.13351 385.84322,178.60549 C 385.84322,173.70652 382.63259,171.7951 377.62893,173.71519 C 371.92905,175.90243 369.41465,173.33542 369.41465,165.32903 C 369.41465,158.98298 366.20502,153.79076 362.28215,153.79076 C 358.35928,153.79076 350.711,141.44727 345.28598,126.36079 C 339.86095,111.27431 328.90093,93.788721 320.93038,87.503921 L 306.43846,76.077021 L 303.16803,105.35055 C 299.13394,141.45961 293.67515,159.26695 286.64009,159.26695 C 277.13923,159.26695 254.20288,130.02414 238.32717,97.670141 C 225.26073,71.041341 221.83257,67.456151 216.07273,74.396331 C 210.5338,81.070331 210.81172,82.600281 217.56298,82.600281 C 226.54025,82.600281 232.50989,93.714831 232.50989,110.42911 C 232.50989,127.15892 222.39112,122.60152 216.31699,103.13599 C 210.77808,85.385631 210.76947,85.382001 213.0741,101.76694 C 217.51163,133.3158 229.8472,173.73602 239.51158,188.39517 C 249.09523,202.93187 249.04057,203.26476 236.10163,209.16013 C 212.60656,219.8652 183.70989,264.99807 166.6475,317.63854 C 148.17666,374.62429 129.54529,413.83842 103.65518,450.22076 C 67.432431,501.12314 60.344151,523.24743 79.789341,524.71219 C 93.263941,525.72719 112.0337,541.18437 112.0337,551.26587 C 112.0337,555.09827 105.54063,563.34137 97.604701,569.58377 C 84.669831,579.75837 84.307691,580.93367 94.107221,580.93367 C 102.80002,580.93367 104.50541,583.72337 102.43465,594.55597 C 98.523831,615.01397 113.92309,617.78247 134.64434,600.34667 C 146.79004,590.12677 153.66315,587.51547 157.72522,591.57757 C 161.78731,595.63967 161.55303,599.31907 156.93846,603.93367 C 151.82736,609.04467 150.36703,608.83267 150.36703,602.97907 C 150.36703,597.93617 146.02676,599.53057 137.21245,607.81107 C 119.18839,624.74387 98.924301,621.57877 96.610441,601.46937 C 95.657201,593.18507 91.491081,586.40977 87.350261,586.40977 C 77.354461,586.40977 72.188611,577.25087 67.274051,550.81457 C 63.826031,532.26697 63.556821,533.39707 65.517621,558.18837 C 69.143631,604.03327 85.688131,625.82447 126.01145,637.86647 C 132.55649,639.82117 141.70572,637.66297 147.91621,632.69957 C 158.29748,624.40287 158.2534,624.26627 146.25989,627.56677 C 139.4831,629.43157 133.93846,628.81987 133.93846,626.20747 C 133.93846,617.75457 146.01839,609.09097 153.69633,612.03727 C 158.23062,613.77727 163.29633,609.30407 166.58395,600.65697 C 169.56317,592.82107 173.5575,586.40977 175.46024,586.40977 C 177.36298,586.40977 177.50131,590.10627 175.76765,594.62407 C 172.26751,603.74527 180.62928,605.99117 185.96227,597.36217 C 187.82373,594.35027 197.21023,591.87227 206.82117,591.85547 C 233.47037,591.80887 264.08893,582.30087 307.92986,560.45817 L 347.7546,540.61647 L 369.92211,562.14407 C 382.11424,573.98427 408.38184,607.69847 428.29456,637.06457 C 448.20727,666.43067 467.27716,690.45747 470.67208,690.45747 C 474.067,690.45747 491.48541,681.64757 509.37965,670.88007 z M 191.55915,374.20743 C 193.77596,368.9366 196.0612,360.11456 196.63745,354.60292 C 198.06975,340.9035 209.55457,334.68843 233.62126,334.58891 C 257.60906,334.48971 281.7956,344.35589 281.7956,354.24021 C 281.7956,366.77334 259.84485,377.61853 240.74957,374.51979 C 230.87109,372.91674 218.19919,374.27197 212.58977,377.53143 C 196.60247,386.82116 186.89908,385.28749 191.55915,374.20743 z M 210.60512,372.74675 C 215.12298,369.87748 228.06048,367.49217 239.35512,367.44605 C 259.38903,367.36424 267.87615,356.51519 254.41465,348.19553 C 251.40274,346.33406 248.93846,347.42078 248.93846,350.61043 C 248.93846,358.77407 228.48948,357.86575 225.39301,349.56457 C 223.60228,344.7639 219.18376,346.22916 210.59969,354.47033 C 197.01379,367.51352 197.01791,381.37591 210.60512,372.74675 z M 301.10289,230.72937 C 290.50963,210.24424 290.43759,178.14467 300.91823,148.43937 C 305.41187,135.70304 309.63247,118.14321 310.29735,109.41753 C 311.96438,87.539651 317.80977,89.531441 332.04072,116.82647 C 340.27719,132.62408 344.1751,149.77536 344.1751,170.21933 C 344.1751,200.32196 326.2623,246.886 314.68207,246.886 C 311.80873,246.886 305.6981,239.61552 301.10289,230.72937 z M 322.02005,197.60028 C 320.15148,187.05862 316.3901,174.73719 313.66141,170.21933 C 307.2029,159.52603 314.08056,197.17774 320.66358,208.55266 C 323.62238,213.66523 324.13458,209.52961 322.02005,197.60028 z M 235.07686,158.25408 C 232.96703,145.76614 233.70184,133.97975 236.78225,130.89934 C 245.89108,121.79051 259.89084,148.52271 259.89084,175.02465 C 259.89084,198.64503 259.60704,199.04094 249.33741,189.74704 C 243.53302,184.49414 237.11577,170.32231 235.07686,158.25408 z M 97.430501,566.33047 C 103.61833,560.14267 101.46032,537.12407 94.692411,537.12407 C 91.178561,537.12407 89.789081,538.60967 91.604711,540.42527 C 93.420341,542.24087 92.659921,549.63377 89.914871,556.85387 C 85.216961,569.21027 89.345241,574.41577 97.430501,566.33047 z"
           style="fill:url(#linearGradient4068);fill-opacity:1;stroke:url(#linearGradient4070);stroke-width:24.52168846;stroke-miterlimit:4;stroke-dasharray:none;stroke-opacity:1" />
        <path
           style="fill:url(#linearGradient4072);fill-opacity:1;stroke:url(#linearGradient4074);stroke-width:24.52168846;stroke-miterlimit:4;stroke-dasharray:none;stroke-opacity:1"
           d="M 509.37965,670.88007 C 558.95952,641.04617 574.82179,627.48587 607.60902,586.90577 C 640.83397,545.78387 670.41222,486.82834 683.80868,435.02412 C 696.44196,386.17114 695.67418,383.34796 663.69502,361.06479 C 627.4217,335.78945 570.15679,285.87955 566.55619,276.40232 C 564.66999,271.43762 561.25878,270.80889 555.60381,274.38365 C 542.6565,282.56821 537.11809,280.60756 545.30831,270.73894 C 551.97834,262.70205 551.3884,262.17678 539.81687,265.84943 C 531.48341,268.49437 528.08195,267.97501 530.29425,264.39544 C 536.12487,254.96129 527.65067,241.40981 515.92056,241.40981 C 509.79805,241.40981 501.70337,237.19033 497.93237,232.03318 C 491.86537,223.73606 489.95278,223.57844 481.31949,230.66414 C 472.4049,237.98069 471.83695,237.60843 474.73803,226.35028 C 478.2242,212.82155 473.75053,210.45487 463.69639,220.50901 C 454.33783,229.86757 448.62628,221.42107 457.27025,211.00573 C 465.50736,201.08061 464.34502,199.89171 427.29236,180.34286 C 407.69129,170.00139 405.18757,169.77537 399.3077,177.81658 C 391.26484,188.81585 385.84322,189.13351 385.84322,178.60549 C 385.84322,173.70652 382.63259,171.7951 377.62893,173.71519 C 371.92905,175.90243 369.41465,173.33542 369.41465,165.32903 C 369.41465,158.98298 366.20502,153.79076 362.28215,153.79076 C 358.35928,153.79076 350.711,141.44727 345.28598,126.36079 C 339.86095,111.27431 328.90093,93.788721 320.93038,87.503921 L 306.43846,76.077021 L 303.16803,105.35055 C 299.13394,141.45961 293.67515,159.26695 286.64009,159.26695 C 277.13923,159.26695 254.20288,130.02414 238.32717,97.670141 C 225.26073,71.041341 221.83257,67.456151 216.07273,74.396331 C 210.5338,81.070331 210.81172,82.600281 217.56298,82.600281 C 226.54025,82.600281 232.50989,93.714831 232.50989,110.42911 C 232.50989,127.15892 222.39112,122.60152 216.31699,103.13599 C 210.77808,85.385631 210.76947,85.382001 213.0741,101.76694 C 217.51163,133.3158 229.8472,173.73602 239.51158,188.39517 C 249.09523,202.93187 249.04057,203.26476 236.10163,209.16013 C 212.60656,219.8652 183.70989,264.99807 166.6475,317.63854 C 148.17666,374.62429 129.54529,413.83842 103.65518,450.22076 C 67.432431,501.12314 60.344151,523.24743 79.789341,524.71219 C 93.263941,525.72719 112.0337,541.18437 112.0337,551.26587 C 112.0337,555.09827 105.54063,563.34137 97.604701,569.58377 C 84.669831,579.75837 84.307691,580.93367 94.107221,580.93367 C 102.80002,580.93367 104.50541,583.72337 102.43465,594.55597 C 98.523831,615.01397 113.92309,617.78247 134.64434,600.34667 C 146.79004,590.12677 153.66315,587.51547 157.72522,591.57757 C 161.78731,595.63967 161.55303,599.31907 156.93846,603.93367 C 151.82736,609.04467 150.36703,608.83267 150.36703,602.97907 C 150.36703,597.93617 146.02676,599.53057 137.21245,607.81107 C 119.18839,624.74387 98.924301,621.57877 96.610441,601.46937 C 95.657201,593.18507 91.491081,586.40977 87.350261,586.40977 C 77.354461,586.40977 72.188611,577.25087 67.274051,550.81457 C 63.826031,532.26697 63.556821,533.39707 65.517621,558.18837 C 69.143631,604.03327 85.688131,625.82447 126.01145,637.86647 C 132.55649,639.82117 141.70572,637.66297 147.91621,632.69957 C 158.29748,624.40287 158.2534,624.26627 146.25989,627.56677 C 139.4831,629.43157 133.93846,628.81987 133.93846,626.20747 C 133.93846,617.75457 146.01839,609.09097 153.69633,612.03727 C 158.23062,613.77727 163.29633,609.30407 166.58395,600.65697 C 169.56317,592.82107 173.5575,586.40977 175.46024,586.40977 C 177.36298,586.40977 177.50131,590.10627 175.76765,594.62407 C 172.26751,603.74527 180.62928,605.99117 185.96227,597.36217 C 187.82373,594.35027 197.21023,591.87227 206.82117,591.85547 C 233.47037,591.80887 264.08893,582.30087 307.92986,560.45817 L 347.7546,540.61647 L 369.92211,562.14407 C 382.11424,573.98427 408.38184,607.69847 428.29456,637.06457 C 448.20727,666.43067 467.27716,690.45747 470.67208,690.45747 C 474.067,690.45747 491.48541,681.64757 509.37965,670.88007 z M 191.55915,374.20743 C 193.77596,368.9366 196.0612,360.11456 196.63745,354.60292 C 198.06975,340.9035 209.55457,334.68843 233.62126,334.58891 C 257.60906,334.48971 281.7956,344.35589 281.7956,354.24021 C 281.7956,366.77334 259.84485,377.61853 240.74957,374.51979 C 230.87109,372.91674 218.19919,374.27197 212.58977,377.53143 C 196.60247,386.82116 186.89908,385.28749 191.55915,374.20743 z M 210.60512,372.74675 C 215.12298,369.87748 228.06048,367.49217 239.35512,367.44605 C 259.38903,367.36424 267.87615,356.51519 254.41465,348.19553 C 251.40274,346.33406 248.93846,347.42078 248.93846,350.61043 C 248.93846,358.77407 228.48948,357.86575 225.39301,349.56457 C 223.60228,344.7639 219.18376,346.22916 210.59969,354.47033 C 197.01379,367.51352 197.01791,381.37591 210.60512,372.74675 z M 301.10289,230.72937 C 290.50963,210.24424 290.43759,178.14467 300.91823,148.43937 C 305.41187,135.70304 309.63247,118.14321 310.29735,109.41753 C 311.96438,87.539651 317.80977,89.531441 332.04072,116.82647 C 340.27719,132.62408 344.1751,149.77536 344.1751,170.21933 C 344.1751,200.32196 326.2623,246.886 314.68207,246.886 C 311.80873,246.886 305.6981,239.61552 301.10289,230.72937 z M 322.02005,197.60028 C 320.15148,187.05862 316.3901,174.73719 313.66141,170.21933 C 307.2029,159.52603 314.08056,197.17774 320.66358,208.55266 C 323.62238,213.66523 324.13458,209.52961 322.02005,197.60028 z M 235.07686,158.25408 C 232.96703,145.76614 233.70184,133.97975 236.78225,130.89934 C 245.89108,121.79051 259.89084,148.52271 259.89084,175.02465 C 259.89084,198.64503 259.60704,199.04094 249.33741,189.74704 C 243.53302,184.49414 237.11577,170.32231 235.07686,158.25408 z M 97.430501,566.33047 C 103.61833,560.14267 101.46032,537.12407 94.692411,537.12407 C 91.178561,537.12407 89.789081,538.60967 91.604711,540.42527 C 93.420341,542.24087 92.659921,549.63377 89.914871,556.85387 C 85.216961,569.21027 89.345241,574.41577 97.430501,566.33047 z"
           id="path2720" />
      </g>
    </g>
  </g>
</svg>
