<?xml version="1.0" encoding="UTF-8" standalone="no"?>
<!-- Created with Inkscape (http://www.inkscape.org/) -->

<svg
   xmlns:dc="http://purl.org/dc/elements/1.1/"
   xmlns:cc="http://creativecommons.org/ns#"
   xmlns:rdf="http://www.w3.org/1999/02/22-rdf-syntax-ns#"
   xmlns:svg="http://www.w3.org/2000/svg"
   xmlns="http://www.w3.org/2000/svg"
   xmlns:xlink="http://www.w3.org/1999/xlink"
   xmlns:sodipodi="http://sodipodi.sourceforge.net/DTD/sodipodi-0.dtd"
   xmlns:inkscape="http://www.inkscape.org/namespaces/inkscape"
   width="256"
   height="256"
   id="svg2"
   sodipodi:version="0.32"
   inkscape:version="0.47pre0 r21549"
   version="1.0"
   sodipodi:docname="audacious.svg"
   inkscape:output_extension="org.inkscape.output.svg.inkscape">
  <defs
     id="defs4">
    <radialGradient
       inkscape:collect="always"
       xlink:href="#linearGradient3743"
       id="radialGradient2981"
       gradientUnits="userSpaceOnUse"
       gradientTransform="matrix(1,0,0,0.8577968,-2.9079405,9.6371985)"
       cx="88.566551"
       cy="145.98643"
       fx="88.566551"
       fy="145.98643"
       r="79.882321" />
    <linearGradient
       inkscape:collect="always"
       id="linearGradient3668">
      <stop
         style="stop-color:#fdffff;stop-opacity:1;"
         offset="0"
         id="stop7347" />
      <stop
         style="stop-color:#fdffff;stop-opacity:0;"
         offset="1"
         id="stop7349" />
    </linearGradient>
    <radialGradient
       inkscape:collect="always"
       xlink:href="#linearGradient3668"
       id="radialGradient2979"
       gradientUnits="userSpaceOnUse"
       gradientTransform="matrix(0.5915441,-2.5651108e-8,1.7732442e-8,0.5941738,47.966179,39.780106)"
       cx="124.55232"
       cy="114.14482"
       fx="124.55232"
       fy="114.14482"
       r="73.106921" />
    <radialGradient
       inkscape:collect="always"
       xlink:href="#linearGradient3743"
       id="radialGradient2977"
       gradientUnits="userSpaceOnUse"
       gradientTransform="matrix(1,0,0,0.8577968,-5.0888968,6.7292576)"
       cx="88.566551"
       cy="145.98643"
       fx="88.566551"
       fy="145.98643"
       r="79.882321" />
    <radialGradient
       inkscape:collect="always"
       xlink:href="#linearGradient3651"
       id="radialGradient2975"
       gradientUnits="userSpaceOnUse"
       gradientTransform="matrix(0.5922904,-1.6678813e-7,1.6789077e-7,0.5962061,45.692267,36.352309)"
       cx="124.55231"
       cy="85.386757"
       fx="124.55231"
       fy="85.386757"
       r="73.106918" />
    <radialGradient
       inkscape:collect="always"
       xlink:href="#linearGradient3743"
       id="radialGradient2973"
       gradientUnits="userSpaceOnUse"
       gradientTransform="matrix(1,0,0,0.8577968,-7.9968379,8.1832281)"
       cx="88.566551"
       cy="145.98643"
       fx="88.566551"
       fy="145.98643"
       r="79.882321" />
    <linearGradient
       inkscape:collect="always"
       id="linearGradient3651">
      <stop
         style="stop-color:#fdff0e;stop-opacity:1;"
         offset="0"
         id="stop3653" />
      <stop
         style="stop-color:#fdff0e;stop-opacity:0;"
         offset="1"
         id="stop3655" />
    </linearGradient>
    <radialGradient
       inkscape:collect="always"
       xlink:href="#linearGradient3651"
       id="radialGradient2971"
       gradientUnits="userSpaceOnUse"
       gradientTransform="matrix(0.5922904,-1.6678813e-7,1.6789077e-7,0.5962061,42.784326,37.80628)"
       cx="173.6488"
       cy="215.85747"
       fx="173.6488"
       fy="215.85747"
       r="73.106918" />
    <radialGradient
       inkscape:collect="always"
       xlink:href="#linearGradient3743"
       id="radialGradient2969"
       gradientUnits="userSpaceOnUse"
       gradientTransform="matrix(1,0,0,0.8577968,-7.9968379,8.1832281)"
       cx="88.566551"
       cy="145.98643"
       fx="88.566551"
       fy="145.98643"
       r="79.882321" />
    <linearGradient
       inkscape:collect="always"
       id="linearGradient3634">
      <stop
         style="stop-color:#fd00f9;stop-opacity:1;"
         offset="0"
         id="stop7334" />
      <stop
         style="stop-color:#fd00f9;stop-opacity:0;"
         offset="1"
         id="stop3638" />
    </linearGradient>
    <linearGradient
       inkscape:collect="always"
       xlink:href="#linearGradient3634"
       id="linearGradient2967"
       gradientUnits="userSpaceOnUse"
       gradientTransform="translate(-146.85103,-10.904779)"
       x1="318.97598"
       y1="110.87339"
       x2="221.64975"
       y2="122.50515" />
    <linearGradient
       inkscape:collect="always"
       id="linearGradient3743">
      <stop
         style="stop-color:#faff00;stop-opacity:1;"
         offset="0"
         id="stop3745" />
      <stop
         style="stop-color:#faff00;stop-opacity:0;"
         offset="1"
         id="stop3747" />
    </linearGradient>
    <radialGradient
       inkscape:collect="always"
       xlink:href="#linearGradient3743"
       id="radialGradient2965"
       gradientUnits="userSpaceOnUse"
       gradientTransform="matrix(1,0,0,0.8577968,-7.9968379,8.1832281)"
       cx="88.566551"
       cy="145.98643"
       fx="88.566551"
       fy="145.98643"
       r="79.882321" />
    <linearGradient
       inkscape:collect="always"
       id="linearGradient3626">
      <stop
         style="stop-color:#fd0009;stop-opacity:1;"
         offset="0"
         id="stop7324" />
      <stop
         style="stop-color:#fd0009;stop-opacity:0;"
         offset="1"
         id="stop7326" />
    </linearGradient>
    <linearGradient
       inkscape:collect="always"
       xlink:href="#linearGradient3626"
       id="linearGradient2963"
       gradientUnits="userSpaceOnUse"
       gradientTransform="translate(-7.9968379,-7.9968379)"
       x1="52.172382"
       y1="113.05434"
       x2="135.1385"
       y2="113.05434" />
    <linearGradient
       inkscape:collect="always"
       id="linearGradient4613">
      <stop
         style="stop-color:#000000;stop-opacity:1;"
         offset="0"
         id="stop4615" />
      <stop
         style="stop-color:#000000;stop-opacity:0;"
         offset="1"
         id="stop4617" />
    </linearGradient>
    <linearGradient
       inkscape:collect="always"
       id="linearGradient4605">
      <stop
         style="stop-color:#f70000;stop-opacity:1;"
         offset="0"
         id="stop4607" />
      <stop
         style="stop-color:#000000;stop-opacity:1"
         offset="1"
         id="stop4609" />
    </linearGradient>
    <linearGradient
       id="linearGradient4591"
       inkscape:collect="always">
      <stop
         id="stop4593"
         offset="0"
         style="stop-color:#ffffff;stop-opacity:1" />
      <stop
         id="stop4595"
         offset="1"
         style="stop-color:#ffffff;stop-opacity:0;" />
    </linearGradient>
    <mask
       maskUnits="userSpaceOnUse"
       x="122.963"
       y="97.149"
       width="576.609"
       height="587.491"
       id="XMLID_23_">
      <g
         id="g31"
         style="filter:url(#Adobe_OpacityMaskFilter)">
        <radialGradient
           id="XMLID_24_"
           cx="88.977501"
           cy="-20.899401"
           r="673.11609"
           fx="88.977501"
           fy="-20.899401"
           gradientUnits="userSpaceOnUse">
          <stop
             offset="0.309"
             style="stop-color:#FFFFFF"
             id="stop34" />
          <stop
             offset="1"
             style="stop-color:#000000"
             id="stop3816" />
        </radialGradient>
        <ellipse
           sodipodi:ry="349.10599"
           sodipodi:rx="512.93402"
           sodipodi:cy="286.172"
           sodipodi:cx="295.89499"
           cx="295.89499"
           cy="286.172"
           rx="512.93402"
           ry="349.10599"
           id="ellipse38"
           style="fill:url(#XMLID_24_)" />
      </g>
    </mask>
    <linearGradient
       inkscape:collect="always"
       xlink:href="#linearGradient4591"
       id="linearGradient3196"
       x1="99.881126"
       y1="68.792747"
       x2="171.01328"
       y2="46.998337"
       gradientUnits="userSpaceOnUse"
       gradientTransform="matrix(0.8301257,0,0,0.9649488,-179.55402,176.05704)" />
    <linearGradient
       inkscape:collect="always"
       xlink:href="#linearGradient4591"
       id="linearGradient4599"
       gradientUnits="userSpaceOnUse"
       gradientTransform="matrix(0.9457809,0,0,1.1075807,6.5485589,0.4212711)"
       x1="104.92213"
       y1="71.555038"
       x2="161.92285"
       y2="35.137646" />
    <linearGradient
       inkscape:collect="always"
       xlink:href="#linearGradient4605"
       id="linearGradient4611"
       x1="168.56552"
       y1="-13.762122"
       x2="206.93968"
       y2="23.825462"
       gradientUnits="userSpaceOnUse" />
    <linearGradient
       inkscape:collect="always"
       xlink:href="#linearGradient4613"
       id="linearGradient4619"
       x1="168.56552"
       y1="-13.762122"
       x2="351.36194"
       y2="165.28738"
       gradientUnits="userSpaceOnUse" />
  </defs>
  <sodipodi:namedview
     id="base"
     pagecolor="#ffffff"
     bordercolor="#666666"
     borderopacity="1.0"
     gridtolerance="10000"
     guidetolerance="10"
     objecttolerance="10"
     inkscape:pageopacity="0.0"
     inkscape:pageshadow="2"
     inkscape:zoom="1.2871553"
     inkscape:cx="128"
     inkscape:cy="97.383295"
     inkscape:document-units="px"
     inkscape:current-layer="layer1"
     showgrid="false"
     showguides="true"
     inkscape:guide-bbox="true"
     inkscape:window-width="773"
     inkscape:window-height="676"
     inkscape:window-x="301"
     inkscape:window-y="111" />
  <metadata
     id="metadata7">
    <rdf:RDF>
      <cc:Work
         rdf:about="">
        <dc:format>image/svg+xml</dc:format>
        <dc:type
           rdf:resource="http://purl.org/dc/dcmitype/StillImage" />
      </cc:Work>
    </rdf:RDF>
  </metadata>
  <g
     inkscape:label="Layer 1"
     inkscape:groupmode="layer"
     id="layer1">
    <rect
       style="opacity:1;fill:url(#linearGradient4619);fill-opacity:1;stroke:url(#linearGradient4611);stroke-width:2;stroke-miterlimit:4;stroke-dasharray:none;stroke-opacity:1"
       id="rect2383"
       width="209.543"
       height="209.543"
       x="75.938042"
       y="-106.63853"
       ry="61.030819"
       transform="matrix(0.6997472,0.7143906,-0.7143906,0.6997472,0,0)" />
    <rect
       style="opacity:0.26851852;fill:url(#linearGradient4599);fill-opacity:1;stroke:none;stroke-width:2;stroke-miterlimit:4;stroke-dasharray:none;stroke-opacity:1"
       id="rect4597"
       width="198.18179"
       height="232.08572"
       x="78.369324"
       y="-117.6895"
       ry="67.596573"
       transform="matrix(0.7600468,0.6498684,-0.7370851,0.6758,0,0)" />
    <rect
       transform="matrix(-0.796691,0.6043868,0.6617245,0.7497471,0,0)"
       ry="58.891621"
       y="73.156349"
       x="-116.51585"
       height="202.19823"
       width="173.94705"
       id="rect3188"
       style="opacity:0.27777778;fill:url(#linearGradient3196);fill-opacity:1;stroke:none;stroke-width:2;stroke-miterlimit:4;stroke-dasharray:none;stroke-opacity:1" />
    <path
       sodipodi:nodetypes="ccc"
       id="path2276"
       d="M 108.10388,41.662742 L 108.10388,37.156303 L 108.10388,41.662742 z"
       style="fill:#ffffff;fill-opacity:0.75688076;fill-rule:nonzero;stroke:none;stroke-width:0.5;stroke-linecap:round;stroke-linejoin:round;stroke-miterlimit:4;stroke-dasharray:none;stroke-dashoffset:4;stroke-opacity:1" />
    <g
       id="g2953"
       transform="matrix(0.949655,0,0,0.8383615,9.9070387,24.717946)">
      <path
         d="M 161.25721,41.444007 C 157.04055,43.756164 153.11221,46.546542 149.12261,49.220392 C 141.05104,54.364526 133.19889,59.821966 125.49405,65.497638 C 113.96982,74.137685 102.57336,82.943398 91.672948,92.361612 C 84.75377,98.662162 77.937179,105.37294 73.489838,113.71703 C 72.829881,114.95523 72.301537,116.25922 71.707387,117.53031 C 69.859647,122.26287 68.695255,127.27643 68.875558,132.38304 C 68.976731,135.24849 69.284772,136.22542 69.836517,139.00821 C 71.426708,144.0438 74.277299,147.79367 78.907493,150.38801 C 79.823344,150.90117 80.796729,151.30411 81.741348,151.76216 C 89.294084,154.73539 97.411242,154.48334 105.34705,153.763 C 113.60238,152.81763 121.66827,150.45318 129.07598,146.6654 C 130.69044,145.83989 132.23316,144.88103 133.81175,143.98884 C 99.706742,164.14833 117.99578,153.33417 124.81031,147.06908 C 127.18829,144.88282 129.69944,142.16882 131.64029,139.57252 C 132.53821,138.37136 133.29852,137.07324 134.12764,135.8236 C 138.32939,128.78488 138.90284,121.567 139.23583,113.60294 C 139.30974,105.32856 140.20986,97.098962 141.25056,88.900227 C 142.21687,81.914438 142.8763,74.888976 142.53272,67.837075 C 142.20602,64.56388 141.42524,61.352249 139.55072,58.616318 C 139.52539,58.606823 138.61086,57.454032 138.53755,57.578364 C 138.46136,57.707566 138.49191,58.08943 138.62476,58.019806 C 164.24769,44.591697 172.06973,36.455272 164.7403,44.015144 C 163.95449,48.467544 163.01999,52.897263 162.12147,57.330631 C 160.17151,66.524395 160.50601,75.934425 161.03143,85.251709 C 161.75267,95.237062 162.03904,105.2891 163.38984,115.22012 C 163.66949,117.27608 164.05742,119.31586 164.39121,121.36373 C 165.96972,128.78604 168.3824,136.14832 173.11083,142.21153 C 175.94766,145.84916 176.9856,146.31934 180.54991,149.11655 C 184.62048,151.79065 189.12398,153.61699 193.87552,154.66383 C 195.36267,154.99148 196.88266,155.14659 198.38622,155.38796 L 176.27745,170.80332 C 174.76622,170.45111 173.23496,170.17585 171.74376,169.74669 C 166.83551,168.33413 162.23245,166.17709 158.09429,163.16843 C 154.4023,159.9543 153.40528,159.44738 150.47947,155.42082 C 145.7482,148.90956 143.35961,141.15903 141.77604,133.36341 C 141.41772,131.2779 141.00521,129.20099 140.70108,127.10689 C 139.27048,117.25655 138.7231,107.28723 137.62407,97.399612 C 136.76102,88.167338 135.98992,78.871843 137.07339,69.618014 C 137.47923,65.572355 138.10505,61.445476 137.71086,57.3809 C 135.47197,46.026005 161.81249,31.958839 165.45964,43.800973 C 166.89635,47.340856 167.66835,51.093825 167.71033,54.92589 C 167.74791,62.27335 166.7035,69.561162 165.73447,76.832337 C 164.59967,84.903573 163.81427,93.014932 163.79265,101.17486 C 163.67991,109.84491 163.16562,117.273 158.74073,125.02474 C 157.8578,126.40057 157.04771,127.82598 156.09194,129.15225 C 154.21126,131.76198 151.38185,134.98133 149.09069,137.21335 C 138.86078,147.17913 125.54013,153.36363 113.39514,160.43301 C 111.73699,161.29753 110.11077,162.22627 108.42069,163.02656 C 100.64442,166.70881 92.266062,168.90565 83.714225,169.74538 C 75.162738,170.33983 66.391796,170.60711 58.351409,167.13473 C 57.320639,166.5924 56.252933,166.11512 55.2591,165.50774 C 50.252235,162.44783 46.839524,157.77421 45.243798,152.14863 C 44.639625,149.07492 44.319209,148.06833 44.199909,144.89898 C 43.991835,139.37128 45.131427,133.9288 47.04536,128.76504 C 47.701934,127.36428 48.28217,125.92513 49.015082,124.56276 C 53.833114,115.60677 61.22237,108.44943 68.674723,101.69146 C 79.285702,92.532912 90.289578,83.856098 101.26982,75.146704 C 108.34073,69.611753 115.5698,64.297133 123.11408,59.420427 C 126.46519,57.118745 129.71878,54.691657 133.02919,52.334241 L 161.25721,41.444007 z"
         id="path2833"
         style="opacity:0.77847464;fill:url(#linearGradient2963);fill-opacity:1;stroke:url(#radialGradient2965);stroke-width:2;stroke-miterlimit:4;stroke-dasharray:none;stroke-opacity:1" />
      <g
         id="g2929">
        <path
           d="M 161.98419,42.170993 C 157.76753,44.48315 153.83919,47.273528 149.84959,49.947378 C 141.77802,55.091512 133.92587,60.548952 126.22103,66.224624 C 114.6968,74.864673 103.30034,83.670383 92.399932,93.088592 C 85.480757,99.389142 78.664167,106.09992 74.216827,114.44401 C 73.556867,115.68221 73.028527,116.9862 72.434367,118.25729 C 70.586637,122.98985 69.422237,128.00341 69.602547,133.11002 C 69.703717,135.97547 70.011757,136.9524 70.563507,139.73519 C 72.153697,144.77078 75.004287,148.52065 79.634477,151.11499 C 80.550327,151.62815 81.523717,152.03109 82.468337,152.48914 C 90.021067,155.46237 98.138222,155.21032 106.07403,154.48998 C 114.32936,153.54461 122.39525,151.18016 129.80296,147.39238 C 131.41742,146.56687 132.96014,145.60801 134.53873,144.71582 C 100.43372,164.87531 118.72276,154.06115 125.53729,147.79606 C 127.91527,145.6098 130.42642,142.8958 132.36727,140.2995 C 133.26519,139.09834 134.0255,137.80022 134.85462,136.55058 C 139.05637,129.51186 139.62982,122.29398 139.96281,114.32992 C 140.03672,106.05554 140.93684,97.825942 141.97754,89.627213 C 142.94385,82.641423 143.60328,75.615963 143.2597,68.564063 C 142.933,65.290866 142.15222,62.079235 140.2777,59.343304 C 140.25237,59.333809 139.33784,58.181018 139.26453,58.30535 C 139.18834,58.434552 139.21889,58.816416 139.35174,58.746792 C 164.97467,45.318683 172.79671,37.182258 165.46728,44.74213 C 164.68147,49.19453 163.74697,53.624249 162.84845,58.057617 C 160.89849,67.251381 161.23299,76.661413 161.75841,85.978693 C 162.47965,95.964042 162.76602,106.01608 164.11682,115.9471 C 164.39647,118.00306 164.7844,120.04284 165.11819,122.09071 C 166.6967,129.51302 169.10938,136.8753 173.83781,142.93851 C 176.67464,146.57614 177.71258,147.04632 181.27689,149.84353 C 185.34746,152.51763 187.67001,155.07096 192.42155,156.1178 C 193.9087,156.44545 197.60964,155.87357 199.1132,156.11494 L 177.00443,171.5303 C 175.4932,171.17809 173.96194,170.90283 172.47074,170.47367 C 167.56249,169.06111 162.95943,166.90407 158.82127,163.89541 C 155.12928,160.68128 154.13226,160.17436 151.20645,156.1478 C 146.47518,149.63654 144.08659,141.88601 142.50302,134.09039 C 142.1447,132.00488 141.73219,129.92797 141.42806,127.83387 C 139.99746,117.98353 139.45008,108.01421 138.35105,98.126592 C 137.488,88.894323 136.7169,79.598833 137.80037,70.345003 C 138.20621,66.299341 138.83203,62.172462 138.43784,58.107886 C 136.19895,46.752991 162.53947,32.685824 166.18662,44.527959 C 167.62333,48.067842 168.39533,51.820811 168.43731,55.652876 C 168.47489,63.000336 167.43048,70.288143 166.46145,77.559323 C 165.32665,85.630563 164.54125,93.741922 164.51963,101.90184 C 164.40689,110.57189 163.8926,117.99998 159.46771,125.75172 C 158.58478,127.12755 157.77469,128.55296 156.81892,129.87923 C 154.93824,132.48896 152.10883,135.70831 149.81767,137.94033 C 139.58776,147.90611 126.26711,154.09061 114.12212,161.15999 C 112.46397,162.02451 110.83775,162.95325 109.14767,163.75354 C 101.3714,167.43579 92.993042,169.63263 84.441207,170.47236 C 75.889727,171.06681 67.118777,171.33409 59.078397,167.86171 C 58.047627,167.31938 56.979917,166.8421 55.986087,166.23472 C 50.979217,163.17481 47.566507,158.50119 45.970787,152.87561 C 45.366607,149.8019 45.046197,148.79531 44.926897,145.62596 C 44.718817,140.09826 45.858407,134.65578 47.772347,129.49202 C 48.428917,128.09126 49.009157,126.65211 49.742067,125.28974 C 54.560097,116.33375 61.949357,109.17641 69.401707,102.41844 C 80.012687,93.259892 91.016567,84.583083 101.9968,75.873693 C 109.06771,70.338743 116.29678,65.024119 123.84106,60.147413 C 127.19217,57.845731 130.44576,55.418643 133.75617,53.061227 L 161.98419,42.170993 z"
           id="path2835"
           style="opacity:0.77847464;fill:url(#linearGradient2967);fill-opacity:1;stroke:url(#radialGradient2969);stroke-width:2;stroke-miterlimit:4;stroke-dasharray:none;stroke-opacity:1"
           sodipodi:nodetypes="ccccscscsccscsscccccsscccscscsccscscsccccccccsscsccscscsccccc" />
        <g
           id="g2911">
          <path
             sodipodi:nodetypes="ccccscscsccscsscccccsscccscscsccscscsccccccccsscsccscscsccccc"
             d="M 160.53022,42.170992 C 156.31356,44.483149 152.38522,47.273527 148.39562,49.947377 C 140.32405,55.091511 132.4719,60.548951 124.76706,66.224623 C 113.24283,74.86467 101.84637,83.670383 90.945967,93.088592 C 84.026787,99.389142 77.210197,106.09992 72.762857,114.44401 C 72.102897,115.68221 71.574557,116.9862 70.980397,118.25729 C 69.132667,122.98985 67.968267,128.00341 68.148577,133.11002 C 68.249747,135.97547 68.557787,136.9524 69.109537,139.73519 C 70.699727,144.77078 73.550317,148.52065 78.180507,151.11499 C 79.096357,151.62815 80.069747,152.03109 81.014367,152.48914 C 88.567097,155.46237 96.684252,155.21032 104.62006,154.48998 C 112.87539,153.54461 120.94128,151.18016 128.34899,147.39238 C 129.96345,146.56687 131.50617,145.60801 133.08476,144.71582 C 98.979752,164.87531 117.26879,154.06115 124.08332,147.79606 C 126.4613,145.6098 128.97245,142.8958 130.9133,140.2995 C 131.81122,139.09834 132.57153,137.80022 133.40065,136.55058 C 137.6024,129.51186 138.17585,122.29398 138.50884,114.32992 C 138.58275,106.05554 139.48287,97.825942 140.52357,89.627215 C 141.48988,82.641423 142.14931,75.615961 141.80573,68.56406 C 141.47903,65.290865 140.69825,62.079234 138.82373,59.343303 C 138.7984,59.333808 137.88387,58.181017 137.81056,58.305349 C 137.73437,58.434551 137.76492,58.816415 137.89777,58.746791 C 163.5207,45.318682 171.34274,37.182257 164.01331,44.742129 C 163.2275,49.194529 162.293,53.624248 161.39448,58.057616 C 159.44452,67.25138 159.77902,76.66141 160.30444,85.978695 C 161.02568,95.964042 161.31205,106.01608 162.66285,115.9471 C 162.9425,118.00306 163.33043,120.04284 163.66422,122.09071 C 165.24273,129.51302 167.65541,136.8753 172.38384,142.93851 C 175.22067,146.57614 177.71258,151.40823 181.27689,154.20544 C 185.34746,156.87954 173.1303,164.52176 184.42471,159.75272 C 185.82759,159.16036 188.15884,165.32438 189.6624,165.56575 L 178.4584,172.25729 C 180.5821,168.99714 180.4747,167.77017 179.01361,168.29271 C 174.83235,169.78809 164.4134,166.17708 160.27524,163.16842 C 156.58325,159.95429 152.67829,160.17436 149.75248,156.1478 C 145.02121,149.63654 142.63262,141.88601 141.04905,134.09039 C 140.69073,132.00488 140.27822,129.92797 139.97409,127.83387 C 138.54349,117.98353 137.99611,108.01421 136.89708,98.126592 C 136.03403,88.894325 135.26293,79.598828 136.3464,70.344999 C 136.75224,66.29934 137.37806,62.172461 136.98387,58.107885 C 134.74498,46.75299 161.0855,32.685824 164.73265,44.527958 C 166.16936,48.067841 166.94136,51.82081 166.98334,55.652875 C 167.02092,63.000335 165.97651,70.288147 165.00748,77.559322 C 163.87268,85.630555 163.08728,93.741922 163.06566,101.90184 C 162.95292,110.57189 162.43863,117.99998 158.01374,125.75172 C 157.13081,127.12755 156.32072,128.55296 155.36495,129.87923 C 153.48427,132.48896 150.65486,135.70831 148.3637,137.94033 C 138.13379,147.90611 124.81314,154.09061 112.66815,161.15999 C 111.01,162.02451 109.38378,162.95325 107.6937,163.75354 C 99.917432,167.43579 91.539077,169.63263 82.987237,170.47236 C 74.435757,171.06681 65.664807,171.33409 57.624427,167.86171 C 56.593657,167.31938 55.525947,166.8421 54.532117,166.23472 C 49.525247,163.17481 46.112537,158.50119 44.516817,152.87561 C 43.912637,149.8019 43.592227,148.79531 43.472927,145.62596 C 43.264847,140.09826 44.404437,134.65578 46.318377,129.49202 C 46.974947,128.09126 47.555187,126.65211 48.288097,125.28974 C 53.106127,116.33375 60.495387,109.17641 67.947737,102.41844 C 78.558717,93.259892 89.562597,84.583083 100.54283,75.873689 C 107.61374,70.338738 114.84281,65.024118 122.38709,60.147412 C 125.7382,57.84573 128.99179,55.418642 132.3022,53.061226 L 160.53022,42.170992 z"
             id="path3617"
             style="opacity:0.77847464;fill:url(#radialGradient2971);fill-opacity:1;stroke:url(#radialGradient2973);stroke-width:2;stroke-miterlimit:4;stroke-dasharray:none;stroke-opacity:1" />
          <g
             id="g2899">
            <path
               sodipodi:nodetypes="ccccscscsccscsscccccsscccscscsccscscsccccccccsscsccscscsccccc"
               d="M 163.43816,40.717021 C 159.2215,43.029178 155.29316,45.819556 151.30356,48.493406 C 143.23199,53.63754 135.37984,59.09498 127.675,64.770652 C 116.15077,73.410699 104.75431,82.216412 93.853908,91.634621 C 86.934728,97.935171 80.118138,104.64595 75.670798,112.99004 C 75.010838,114.22824 74.482498,115.53223 73.888338,116.80332 C 72.040608,121.53588 70.876208,126.54944 71.056518,131.65605 C 71.157688,134.5215 71.465728,135.49843 72.017478,138.28122 C 73.607668,143.31681 76.458258,147.06668 81.088448,149.66102 C 82.004298,150.17418 82.977688,150.57712 83.922308,151.03517 C 91.475038,154.0084 99.592193,153.75635 107.528,153.03601 C 115.78333,152.09064 123.84922,149.72619 131.25693,145.93841 C 132.87139,145.1129 134.41411,144.15404 135.9927,143.26185 C 101.88769,163.42134 120.17673,152.60718 126.99126,146.34209 C 129.36924,144.15583 131.88039,141.44183 133.82124,138.84553 C 134.71916,137.64437 135.47947,136.34625 136.30859,135.09661 C 140.51034,128.05789 141.08379,120.84001 141.41678,112.87595 C 141.49069,104.60157 142.39081,96.371971 143.43151,88.173244 C 144.39782,81.187452 145.05725,74.16199 144.71367,67.110089 C 144.38697,63.836894 143.60619,60.625263 141.73167,57.889332 C 141.70634,57.879837 140.79181,56.727046 140.7185,56.851378 C 140.64231,56.98058 140.67286,57.362444 140.80571,57.29282 C 166.42864,43.864711 174.25068,35.728286 166.92125,43.288158 C 166.13544,47.740558 165.20094,52.170277 164.30242,56.603645 C 162.35246,65.797409 162.68696,75.207439 163.21238,84.524724 C 163.93362,94.510071 164.21999,104.56211 165.57079,114.49313 C 165.85044,116.54909 166.23837,118.58887 166.57216,120.63674 C 168.15067,128.05905 170.56335,135.42133 175.29178,141.48454 C 178.12861,145.12217 180.62052,149.95426 184.18483,152.75147 C 188.2554,155.42557 176.03824,163.06779 187.33265,158.29875 C 188.73553,157.70639 191.06678,163.87041 192.57034,164.11178 L 181.36634,170.80332 C 183.49004,167.54317 183.38264,166.3162 181.92155,166.83874 C 177.74029,168.33412 167.32134,164.72311 163.18318,161.71445 C 159.49119,158.50032 155.58623,158.72039 152.66042,154.69383 C 147.92915,148.18257 145.54056,140.43204 143.95699,132.63642 C 143.59867,130.55091 143.18616,128.474 142.88203,126.3799 C 141.45143,116.52956 140.90405,106.56024 139.80502,96.672621 C 138.94197,87.440354 138.17087,78.144857 139.25434,68.891028 C 139.66018,64.845369 140.286,60.71849 139.89181,56.653914 C 137.65292,45.299019 163.99344,31.231853 167.64059,43.073987 C 169.0773,46.61387 169.8493,50.366839 169.89128,54.198904 C 169.92886,61.546364 168.88445,68.834176 167.91542,76.105351 C 166.78062,84.176584 165.99522,92.287951 165.9736,100.44787 C 165.86086,109.11792 165.34657,116.54601 160.92168,124.29775 C 160.03875,125.67358 159.22866,127.09899 158.27289,128.42526 C 156.39221,131.03499 153.5628,134.25434 151.27164,136.48636 C 141.04173,146.45214 127.72108,152.63664 115.57609,159.70602 C 113.91794,160.57054 112.29172,161.49928 110.60164,162.29957 C 102.82537,165.98182 94.447018,168.17866 85.895178,169.01839 C 77.343698,169.61284 68.572748,169.88012 60.532368,166.40774 C 59.501598,165.86541 58.433888,165.38813 57.440058,164.78075 C 52.433188,161.72084 49.020478,157.04722 47.424758,151.42164 C 46.820578,148.34793 46.500168,147.34134 46.380868,144.17199 C 46.172788,138.64429 47.312378,133.20181 49.226318,128.03805 C 49.882888,126.63729 50.463128,125.19814 51.196038,123.83577 C 56.014068,114.87978 63.403328,107.72244 70.855678,100.96447 C 81.466658,91.805921 92.470538,83.129112 103.45077,74.419718 C 110.52168,68.884767 117.75075,63.570147 125.29503,58.693441 C 128.64614,56.391759 131.89973,53.964671 135.21014,51.607255 L 163.43816,40.717021 z"
               id="path3662"
               style="opacity:0.77847464;fill:url(#radialGradient2975);fill-opacity:1;stroke:url(#radialGradient2977);stroke-width:2;stroke-miterlimit:4;stroke-dasharray:none;stroke-opacity:1" />
            <path
               style="opacity:0.77847464;fill:url(#radialGradient2979);fill-opacity:1;stroke:url(#radialGradient2981);stroke-width:2;stroke-miterlimit:4;stroke-dasharray:none;stroke-opacity:1"
               id="path3666"
               d="M 165.61911,43.624963 C 161.40245,45.93712 157.47411,48.727498 153.48451,51.401348 C 145.41294,56.545482 137.56079,62.002922 129.85595,67.678594 C 118.33172,76.318641 106.93527,85.124354 96.034864,94.542563 C 89.115684,100.84311 82.299094,107.55389 77.851754,115.89798 C 77.191794,117.13618 76.663454,118.44017 76.069294,119.71126 C 74.221564,124.44382 73.057164,129.45738 73.237474,134.56399 C 73.338644,137.42944 73.646684,138.40637 74.198434,141.18916 C 75.788624,146.22475 78.639214,149.97462 83.269404,152.56896 C 84.185254,153.08212 85.158644,153.48506 86.103264,153.94311 C 93.655994,156.91634 101.77315,156.66429 109.70896,155.94395 C 117.96428,154.99858 126.03017,152.63413 133.43788,148.84635 C 135.05234,148.02084 136.59506,147.06198 138.17365,146.16979 C 104.06865,166.32928 122.35768,155.51512 129.17221,149.25003 C 131.55019,147.06377 134.06134,144.34977 136.00219,141.75347 C 136.90011,140.55231 137.66042,139.25419 138.48954,138.00455 C 142.69129,130.96583 143.26474,123.74795 143.59773,115.78389 C 143.67164,107.50951 144.57176,99.279909 145.61246,91.081186 C 146.57877,84.095394 147.2382,77.069932 146.89462,70.018031 C 146.56792,66.744836 145.78714,63.533205 143.91262,60.797274 C 143.88729,60.787779 142.97276,59.634988 142.89945,59.75932 C 142.82326,59.888522 142.85381,60.270386 142.98666,60.200762 C 168.60959,46.772653 176.43163,38.636228 169.1022,46.1961 C 168.31639,50.6485 167.38189,55.078219 166.48337,59.511587 C 164.53341,68.705351 164.86791,78.115381 165.39333,87.432666 C 166.11457,97.418013 166.40094,107.47005 167.75174,117.40107 C 168.03139,119.45703 168.41932,121.49681 168.75311,123.54468 C 170.33162,130.96699 172.7443,138.32927 177.47273,144.39248 C 180.30956,148.03011 182.80147,152.8622 186.36578,155.65941 C 190.43635,158.33351 178.21919,165.97573 189.5136,161.20669 C 190.91648,160.61433 193.24773,166.77835 194.75129,167.01972 L 183.54729,173.71126 C 185.67099,170.45111 185.56359,169.22414 184.1025,169.74668 C 179.92124,171.24206 169.50229,167.63105 165.36413,164.62239 C 161.67214,161.40826 157.76718,161.62833 154.84137,157.60177 C 150.1101,151.09051 147.72151,143.33998 146.13794,135.54436 C 145.77962,133.45885 145.36711,131.38194 145.06298,129.28784 C 143.63238,119.4375 143.085,109.46818 141.98597,99.580559 C 141.12292,90.348296 140.35182,81.052799 141.43529,71.79897 C 141.84113,67.753311 142.46695,63.626432 142.07276,59.561856 C 139.83387,48.206961 166.17439,34.139795 169.82154,45.981929 C 171.25825,49.521812 172.03025,53.274781 172.07223,57.106846 C 172.10981,64.454306 171.0654,71.742118 170.09637,79.013293 C 168.96157,87.084526 168.17617,95.195893 168.15455,103.35581 C 168.04181,112.02586 167.52752,119.45395 163.10263,127.20569 C 162.2197,128.58152 161.40961,130.00693 160.45384,131.3332 C 158.57316,133.94293 155.74375,137.16228 153.45259,139.3943 C 143.22268,149.36008 129.90203,155.54458 117.75704,162.61396 C 116.09889,163.47848 114.47267,164.40722 112.78259,165.20751 C 105.00633,168.88976 96.627974,171.0866 88.076134,171.92633 C 79.524654,172.52078 70.753704,172.78806 62.713324,169.31568 C 61.682554,168.77335 60.614844,168.29607 59.621014,167.68869 C 54.614144,164.62878 51.201434,159.95516 49.605714,154.32958 C 49.001534,151.25587 48.681124,150.24928 48.561824,147.07993 C 48.353744,141.55223 49.493334,136.10975 51.407274,130.94599 C 52.063844,129.54523 52.644084,128.10608 53.376994,126.74371 C 58.195024,117.78772 65.584284,110.63038 73.036634,103.87241 C 83.647614,94.713863 94.651494,86.037054 105.63173,77.32766 C 112.70263,71.792709 119.9317,66.478089 127.47598,61.601383 C 130.82709,59.299701 134.08068,56.872613 137.39109,54.515197 L 165.61911,43.624963 z"
               sodipodi:nodetypes="ccccscscsccscsscccccsscccscscsccscscsccccccccsscsccscscsccccc" />
          </g>
        </g>
      </g>
    </g>
  </g>
</svg>
