<?xml version="1.0" encoding="UTF-8" standalone="no"?>
<!-- Created with Inkscape (http://www.inkscape.org/) -->

<svg
   xmlns:dc="http://purl.org/dc/elements/1.1/"
   xmlns:cc="http://creativecommons.org/ns#"
   xmlns:rdf="http://www.w3.org/1999/02/22-rdf-syntax-ns#"
   xmlns:svg="http://www.w3.org/2000/svg"
   xmlns="http://www.w3.org/2000/svg"
   xmlns:xlink="http://www.w3.org/1999/xlink"
   xmlns:sodipodi="http://sodipodi.sourceforge.net/DTD/sodipodi-0.dtd"
   xmlns:inkscape="http://www.inkscape.org/namespaces/inkscape"
   width="256"
   height="256"
   id="svg2"
   sodipodi:version="0.32"
   inkscape:version="0.47pre0 r21549"
   version="1.0"
   sodipodi:docname="bluefish.svg"
   inkscape:output_extension="org.inkscape.output.svg.inkscape">
  <defs
     id="defs4">
    <radialGradient
       inkscape:collect="always"
       xlink:href="#linearGradient3261"
       id="radialGradient3317"
       gradientUnits="userSpaceOnUse"
       gradientTransform="matrix(0.9999661,8.228265e-3,-6.7728675e-3,0.8230943,-0.1121383,4.8711489)"
       cx="69.907066"
       cy="103.53012"
       fx="69.907066"
       fy="103.53012"
       r="81.11132" />
    <linearGradient
       inkscape:collect="always"
       id="linearGradient3261">
      <stop
         style="stop-color:#62b9e7;stop-opacity:1;"
         offset="0"
         id="stop3263" />
      <stop
         style="stop-color:#62b9e7;stop-opacity:0;"
         offset="1"
         id="stop3265" />
    </linearGradient>
    <radialGradient
       inkscape:collect="always"
       xlink:href="#linearGradient3261"
       id="radialGradient3315"
       gradientUnits="userSpaceOnUse"
       gradientTransform="matrix(1.3105439,7.8753375e-2,-5.4302325e-2,0.9036511,-41.563609,-9.7905048)"
       cx="151.63864"
       cy="97.946945"
       fx="151.63864"
       fy="97.946945"
       r="81.11132" />
    <filter
       inkscape:collect="always"
       id="filter3305">
      <feGaussianBlur
         inkscape:collect="always"
         stdDeviation="2.0793248"
         id="feGaussianBlur3307" />
    </filter>
    <linearGradient
       inkscape:collect="always"
       id="linearGradient4613">
      <stop
         style="stop-color:#000000;stop-opacity:1;"
         offset="0"
         id="stop4615" />
      <stop
         style="stop-color:#000000;stop-opacity:0;"
         offset="1"
         id="stop4617" />
    </linearGradient>
    <linearGradient
       inkscape:collect="always"
       id="linearGradient4605">
      <stop
         style="stop-color:#f70000;stop-opacity:1;"
         offset="0"
         id="stop4607" />
      <stop
         style="stop-color:#000000;stop-opacity:1"
         offset="1"
         id="stop4609" />
    </linearGradient>
    <linearGradient
       id="linearGradient4591"
       inkscape:collect="always">
      <stop
         id="stop4593"
         offset="0"
         style="stop-color:#ffffff;stop-opacity:1" />
      <stop
         id="stop4595"
         offset="1"
         style="stop-color:#ffffff;stop-opacity:0;" />
    </linearGradient>
    <mask
       maskUnits="userSpaceOnUse"
       x="122.963"
       y="97.149"
       width="576.609"
       height="587.491"
       id="XMLID_23_">
      <g
         id="g31"
         style="filter:url(#Adobe_OpacityMaskFilter)">
        <radialGradient
           id="XMLID_24_"
           cx="88.977501"
           cy="-20.899401"
           r="673.11609"
           fx="88.977501"
           fy="-20.899401"
           gradientUnits="userSpaceOnUse">
          <stop
             offset="0.309"
             style="stop-color:#FFFFFF"
             id="stop34" />
          <stop
             offset="1"
             style="stop-color:#000000"
             id="stop3816" />
        </radialGradient>
        <ellipse
           sodipodi:ry="349.10599"
           sodipodi:rx="512.93402"
           sodipodi:cy="286.172"
           sodipodi:cx="295.89499"
           cx="295.89499"
           cy="286.172"
           rx="512.93402"
           ry="349.10599"
           id="ellipse38"
           style="fill:url(#XMLID_24_)" />
      </g>
    </mask>
    <linearGradient
       inkscape:collect="always"
       xlink:href="#linearGradient4591"
       id="linearGradient3196"
       x1="99.881126"
       y1="68.792747"
       x2="171.01328"
       y2="46.998337"
       gradientUnits="userSpaceOnUse"
       gradientTransform="matrix(0.8301257,0,0,0.9649488,-179.55402,176.05704)" />
    <linearGradient
       inkscape:collect="always"
       xlink:href="#linearGradient4591"
       id="linearGradient4599"
       gradientUnits="userSpaceOnUse"
       gradientTransform="matrix(0.9457809,0,0,1.1075807,6.5485589,0.4212711)"
       x1="104.92213"
       y1="71.555038"
       x2="161.92285"
       y2="35.137646" />
    <linearGradient
       inkscape:collect="always"
       xlink:href="#linearGradient4605"
       id="linearGradient4611"
       x1="168.56552"
       y1="-13.762122"
       x2="206.93968"
       y2="23.825462"
       gradientUnits="userSpaceOnUse" />
    <linearGradient
       inkscape:collect="always"
       xlink:href="#linearGradient4613"
       id="linearGradient4619"
       x1="168.56552"
       y1="-13.762122"
       x2="351.36194"
       y2="165.28738"
       gradientUnits="userSpaceOnUse" />
  </defs>
  <sodipodi:namedview
     id="base"
     pagecolor="#ffffff"
     bordercolor="#666666"
     borderopacity="1.0"
     gridtolerance="10000"
     guidetolerance="10"
     objecttolerance="10"
     inkscape:pageopacity="0.0"
     inkscape:pageshadow="2"
     inkscape:zoom="1.2871553"
     inkscape:cx="128"
     inkscape:cy="97.383295"
     inkscape:document-units="px"
     inkscape:current-layer="layer1"
     showgrid="false"
     showguides="true"
     inkscape:guide-bbox="true"
     inkscape:window-width="773"
     inkscape:window-height="676"
     inkscape:window-x="301"
     inkscape:window-y="111" />
  <metadata
     id="metadata7">
    <rdf:RDF>
      <cc:Work
         rdf:about="">
        <dc:format>image/svg+xml</dc:format>
        <dc:type
           rdf:resource="http://purl.org/dc/dcmitype/StillImage" />
      </cc:Work>
    </rdf:RDF>
  </metadata>
  <g
     inkscape:label="Layer 1"
     inkscape:groupmode="layer"
     id="layer1">
    <rect
       style="opacity:1;fill:url(#linearGradient4619);fill-opacity:1;stroke:url(#linearGradient4611);stroke-width:2;stroke-miterlimit:4;stroke-dasharray:none;stroke-opacity:1"
       id="rect2383"
       width="209.543"
       height="209.543"
       x="75.938042"
       y="-106.63853"
       ry="61.030819"
       transform="matrix(0.6997472,0.7143906,-0.7143906,0.6997472,0,0)" />
    <rect
       style="opacity:0.26851852;fill:url(#linearGradient4599);fill-opacity:1;stroke:none;stroke-width:2;stroke-miterlimit:4;stroke-dasharray:none;stroke-opacity:1"
       id="rect4597"
       width="198.18179"
       height="232.08572"
       x="78.369324"
       y="-117.6895"
       ry="67.596573"
       transform="matrix(0.7600468,0.6498684,-0.7370851,0.6758,0,0)" />
    <rect
       transform="matrix(-0.796691,0.6043868,0.6617245,0.7497471,0,0)"
       ry="58.891621"
       y="73.156349"
       x="-116.51585"
       height="202.19823"
       width="173.94705"
       id="rect3188"
       style="opacity:0.27777778;fill:url(#linearGradient3196);fill-opacity:1;stroke:none;stroke-width:2;stroke-miterlimit:4;stroke-dasharray:none;stroke-opacity:1" />
    <path
       sodipodi:nodetypes="ccc"
       id="path2276"
       d="M 108.10388,41.662742 L 108.10388,37.156303 L 108.10388,41.662742 z"
       style="fill:#ffffff;fill-opacity:0.75688076;fill-rule:nonzero;stroke:none;stroke-width:0.5;stroke-linecap:round;stroke-linejoin:round;stroke-miterlimit:4;stroke-dasharray:none;stroke-dashoffset:4;stroke-opacity:1" />
    <g
       id="g3519"
       transform="matrix(0.6704867,0,0,0.7015839,40.754334,55.552908)">
      <path
         d="M 62.336495,87.227585 C 61.232516,87.473284 60.104285,87.494938 58.98115,87.572057 C 58.798412,87.573625 58.609609,87.530054 58.432934,87.576764 C 58.114216,87.661026 57.874394,87.937476 57.564575,88.050144 C 57.110457,88.215288 56.60977,88.293618 56.131719,88.325869 C 55.875559,88.538476 55.516258,88.225386 55.257775,88.360224 C 55.138655,88.422362 55.155344,88.617835 55.057692,88.710111 C 54.833804,88.921674 54.340161,89.050494 54.058601,89.183376 C 53.931969,89.520108 53.608121,89.094804 53.465089,89.232459 C 53.364705,89.329071 53.525385,89.530238 53.4547,89.650297 C 53.319873,89.879303 52.630526,89.877823 52.440743,89.86827 C 60.467993,85.320936 83.113906,69.771174 76.522492,76.226267 C 64.182862,88.310695 60.43587,89.08176 50.359125,90.669535 C 58.448365,86.116481 66.533159,81.555521 74.626847,77.010384 C 74.862536,76.87803 74.18678,77.326158 73.951669,77.459536 C 65.723766,82.127223 57.518666,86.835489 49.261089,91.450467 C 49.16946,91.501688 49.051431,91.43972 48.946602,91.434333 C 42.64652,99.870833 81.743833,74.121714 72.201482,78.282326 C 63.96464,82.935785 55.727799,87.589245 47.490957,92.2427 C 47.405305,92.214857 47.155789,92.203833 47.234,92.159185 C 55.349765,87.524986 63.567272,83.070407 71.679821,78.430587 C 71.754547,78.387848 71.517231,78.250891 71.452627,78.307787 C 70.947656,78.752518 71.798153,78.77633 71.051349,78.662394 C 70.452169,78.609935 70.824525,79.55081 70.492976,79.672135 C 69.837074,79.912152 70.507124,78.956877 69.999522,79.883525 C 69.608459,80.536785 5.6045185,116.78329 69.216138,80.480036 C 69.339543,80.409608 69.019517,80.690885 68.896602,80.762166 C 44.969358,94.638417 52.940861,91.04988 44.019987,95.051991 C 50.262033,77.483882 75.923129,75.66471 66.849088,81.969348 C 66.323694,82.866117 66.967979,81.994718 66.258059,82.409687 C 66.126526,82.486571 66.078134,82.664732 65.950286,82.747597 C 65.834357,82.822737 65.66743,82.788714 65.553262,82.8665 C 64.186195,83.797933 66.199431,82.782827 64.818845,83.434301 C 64.406318,83.973936 63.827265,84.315407 63.346641,84.778698 C 62.357228,85.732431 63.639826,84.803939 62.616889,85.494193 C 62.490043,85.572608 62.336468,85.618915 62.23635,85.729437 C 62.110074,85.868833 62.069037,86.06833 61.958762,86.220701 C 61.527504,86.816593 61.027968,87.377323 60.596358,87.981149 C 60.105951,89.061603 59.673475,90.201711 59.317424,91.340795 C 58.93119,92.741344 58.926764,94.219733 58.942974,95.663535 C 59.112652,96.973035 59.304469,98.286065 59.647493,99.562625 C 60.067656,100.94834 60.232035,102.38423 60.330172,103.82286 C 60.328279,105.0681 60.676744,106.26953 60.868084,107.49208 C 61.184713,108.96881 61.467718,110.43375 61.616282,111.93937 C 61.804581,113.64593 61.840511,115.34136 61.604942,117.04168 C 61.530734,118.5949 61.055766,120.0385 60.334292,121.40344 C 59.055811,123.54719 56.961847,124.95663 54.899931,126.2683 C 41.849006,135.01873 34.441593,139.3234 21.922025,143.37895 C 17.547904,144.81463 13.159105,146.2296 8.8751092,147.9184 C 6.5393811,148.86067 4.1898316,149.76747 1.8374505,150.66707 L 22.869521,134.17721 C 25.19709,133.28251 27.520597,132.37743 29.849418,131.48601 C 34.330666,129.85149 38.828622,128.26364 43.331405,126.68974 C 45.040115,126.04316 46.75929,125.42053 48.447763,124.72191 C 57.139484,121.12568 68.036343,112.15801 29.203326,136.1672 C 31.112531,135.1184 33.009233,134.05311 34.665825,132.6255 C 35.504522,131.67133 36.21791,130.65715 36.435397,129.38011 C 36.701025,127.84903 37.054899,126.44466 36.804686,124.86568 C 36.68626,123.41758 36.456781,121.98622 35.983565,120.60657 C 35.828703,119.29328 35.415322,118.02303 35.375068,116.70265 C 35.332248,115.46511 35.277629,114.21719 34.936515,113.01856 C 34.515523,111.57773 34.352575,110.12329 34.109715,108.64046 C 33.835337,106.98539 34.030688,105.31111 34.001227,103.63826 C 34.152032,102.16897 34.650793,101.08237 35.018144,99.687036 C 35.240193,98.877786 35.543169,98.056683 36.027635,97.364759 C 36.11991,97.232972 36.299175,97.173717 36.379305,97.034213 C 36.489631,96.842131 36.513874,96.61213 36.581159,96.401096 C 37.476421,94.952302 36.287067,96.703786 37.302344,95.672662 C 37.436069,95.536845 37.466476,95.320398 37.600162,95.184542 C 37.711805,95.071089 37.904054,95.062304 38.015144,94.948311 C 38.889083,94.051529 37.725626,94.780266 38.708629,94.239779 C 39.579511,92.699856 38.400927,94.574579 39.364949,93.570297 C 39.484886,93.445359 39.480879,93.23036 39.604863,93.109427 C 39.695976,93.020564 39.872992,93.071666 39.965643,92.984397 C 40.07676,92.879742 40.044994,92.660502 40.171766,92.575472 C 40.272403,92.507972 40.413428,92.593832 40.53426,92.603012 C 40.686817,92.450811 40.799338,92.260389 40.958853,92.115497 C 41.162291,91.930699 41.489059,91.861934 41.723024,91.730214 C 49.865566,86.91249 58.008107,82.09477 66.150648,77.277051 C 74.187259,72.275487 68.714185,75.685381 42.45978,90.929446 C 42.354243,90.99073 42.703214,90.880491 42.809083,90.819787 C 51.019865,86.11191 58.939136,80.865589 67.402235,76.628023 C 75.594411,72.526112 34.387051,93.972795 43.638074,90.437493 C 44.300102,90.378554 43.518298,90.539804 43.964573,89.930691 C 44.13882,89.692867 44.686748,90.649055 44.823553,89.585187 C 45.052193,88.13613 44.6618,89.699558 45.170459,89.285781 C 45.271009,89.203988 45.081141,88.962524 45.193329,88.897607 C 46.669364,88.043511 109.27207,52.649163 45.63261,88.658849 C 53.179154,82.28252 61.625136,74.611847 71.453536,74.06306 C 71.508056,74.010128 71.683183,73.866757 71.617096,73.904264 C 63.54181,78.487312 55.485145,83.103094 47.419607,87.703275 C 47.346524,87.744958 47.566409,87.621035 47.639724,87.579762 C 47.805876,87.486224 47.97346,87.395249 48.139539,87.301583 C 56.380608,82.653773 64.620576,78.004012 72.861094,73.355226 C 73.191593,73.202992 73.374877,73.029605 73.658523,72.810524 C 73.753471,72.737188 74.071694,72.566455 73.967739,72.626341 C 40.971794,91.634568 42.986953,90.415301 74.771433,72.394192 C 74.902267,72.244188 75.319617,71.791089 75.539302,71.774916 C 75.701039,71.763011 75.842292,71.936317 76.003655,71.920112 C 76.156254,71.904785 76.118446,71.521596 76.372924,71.645646 C 76.682079,71.547696 77.109989,71.335331 77.431165,71.333951 C 77.897351,71.331948 78.210477,71.487167 78.666875,71.242119 C 79.648383,70.873121 80.609425,70.774035 81.650242,70.774847 C 82.744032,70.63998 83.805343,70.333171 84.855643,70.008136 L 62.336495,87.227585 z"
         id="path3477"
         style="opacity:0.54166667;fill:#00ffff;fill-opacity:1;stroke:none;stroke-width:2;stroke-linecap:round;stroke-linejoin:round;stroke-miterlimit:4;stroke-dasharray:none;stroke-opacity:1" />
      <g
         transform="matrix(1.3170733,0,0,1.3170733,-56.295371,-59.665289)"
         id="g3309">
        <path
           style="fill:#000000;filter:url(#filter3305)"
           d="M 156.38771,122.60913 C 154.37735,121.86972 151.67735,120.57835 150.38771,119.73941 C 148.80193,118.70782 145.61514,118.22338 140.54291,118.24285 C 132.09104,118.2753 122.46706,116.29876 113.66799,112.72338 C 108.35198,110.56329 107.6749,110.48168 107.28973,111.95457 C 107.04517,112.88979 102.46599,115.62451 96.700874,118.27832 C 87.647978,122.44557 86.542918,122.74567 86.542918,121.03688 C 86.542918,119.12135 79.850956,114.09069 77.31279,114.09816 C 76.61436,114.10021 74.633742,114.96117 72.911417,116.0114 C 71.189091,117.06162 67.139091,118.23981 63.911417,118.62959 C 60.683742,119.01937 57.395598,119.68627 56.60443,120.11159 C 55.658593,120.62005 54.544263,120.09455 53.350703,118.57719 C 51.697769,116.47582 51.669555,116.01578 53.035148,113.43195 C 53.859974,111.87131 55.176075,108.93711 55.959817,106.91151 C 57.663402,102.50855 63.066865,98.365671 75.297251,92.085341 C 83.941214,87.646641 84.153394,87.595811 93.542918,87.713961 C 103.74816,87.842381 103.66559,87.818291 127.13701,97.513981 C 133.23877,100.03453 141.24659,102.84093 144.93217,103.75044 C 153.31451,105.81899 154.36985,105.1196 152.56941,98.689071 C 150.52042,91.370781 152.48459,84.647251 158.75922,77.500841 C 162.55191,73.181201 177.63782,62.855951 185.24457,59.373468 C 191.20517,56.644615 193.19989,56.787673 188.82412,59.630185 C 182.82255,63.528821 173.54291,75.075821 173.54291,78.645161 C 173.54291,79.883031 174.66351,83.303011 176.03314,86.245121 C 179.6807,94.080481 179.37031,96.530181 174.05669,101.84379 C 171.58928,104.31121 169.80861,106.71531 170.09965,107.18623 C 170.3907,107.65715 172.88218,108.71163 175.63628,109.52951 C 180.09728,110.85428 181.64767,110.84557 189.84332,109.44968 C 194.9031,108.5879 202.39861,106.82362 206.50002,105.52905 C 210.60143,104.23449 214.09951,103.31769 214.27354,103.49172 C 214.44757,103.66574 211.05605,106.54193 206.73683,109.88325 C 197.87664,116.73742 192.4554,118.89421 176.24215,122.01527 C 163.86849,124.3972 161.44628,124.46965 156.38771,122.60913 z"
           id="path2487" />
        <g
           id="g3273"
           transform="translate(-1.0987124,-1.0987121)">
          <path
             style="fill:url(#radialGradient3315);fill-opacity:1"
             d="M 156.38771,122.60913 C 154.37735,121.86972 151.67735,120.57835 150.38771,119.73941 C 148.80193,118.70782 145.61514,118.22338 140.54291,118.24285 C 132.09104,118.2753 122.46706,116.29876 113.66799,112.72338 C 108.35198,110.56329 107.6749,110.48168 107.28973,111.95457 C 107.04517,112.88979 102.46599,115.62451 96.700874,118.27832 C 87.647978,122.44557 86.542918,122.74567 86.542918,121.03688 C 86.542918,119.12135 79.850956,114.09069 77.31279,114.09816 C 76.61436,114.10021 74.633742,114.96117 72.911417,116.0114 C 71.189091,117.06162 67.139091,118.23981 63.911417,118.62959 C 60.683742,119.01937 57.395598,119.68627 56.60443,120.11159 C 55.658593,120.62005 54.544263,120.09455 53.350703,118.57719 C 51.697769,116.47582 51.669555,116.01578 53.035148,113.43195 C 53.859974,111.87131 55.176075,108.93711 55.959817,106.91151 C 57.663402,102.50855 63.066865,98.365671 75.297251,92.085341 C 83.941214,87.646641 84.153394,87.595811 93.542918,87.713961 C 103.74816,87.842381 103.66559,87.818291 127.13701,97.513981 C 133.23877,100.03453 141.24659,102.84093 144.93217,103.75044 C 153.31451,105.81899 154.36985,105.1196 152.56941,98.689071 C 150.52042,91.370781 152.48459,84.647251 158.75922,77.500841 C 162.55191,73.181201 177.63782,62.855951 185.24457,59.373468 C 191.20517,56.644615 193.19989,56.787673 188.82412,59.630185 C 182.82255,63.528821 173.54291,75.075821 173.54291,78.645161 C 173.54291,79.883031 174.66351,83.303011 176.03314,86.245121 C 179.6807,94.080481 179.37031,96.530181 174.05669,101.84379 C 171.58928,104.31121 169.80861,106.71531 170.09965,107.18623 C 170.3907,107.65715 172.88218,108.71163 175.63628,109.52951 C 180.09728,110.85428 181.64767,110.84557 189.84332,109.44968 C 194.9031,108.5879 202.39861,106.82362 206.50002,105.52905 C 210.60143,104.23449 214.09951,103.31769 214.27354,103.49172 C 214.44757,103.66574 211.05605,106.54193 206.73683,109.88325 C 197.87664,116.73742 192.4554,118.89421 176.24215,122.01527 C 163.86849,124.3972 161.44628,124.46965 156.38771,122.60913 z"
             id="path2489" />
          <path
             id="path3269"
             d="M 155.48642,122.60913 C 153.47606,121.86972 150.77606,120.57835 149.48642,119.73941 C 147.90064,118.70782 144.71385,118.22338 139.64162,118.24285 C 131.18975,118.2753 121.56577,116.29876 112.7667,112.72338 C 107.45069,110.56329 106.77361,110.48168 106.38844,111.95457 C 106.14388,112.88979 101.5647,115.62451 95.799586,118.27832 C 86.74669,122.44557 85.64163,122.74567 85.64163,121.03688 C 85.64163,119.12135 78.949668,114.09069 76.411502,114.09816 C 75.713072,114.10021 73.732454,114.96117 72.010129,116.0114 C 70.287803,117.06162 66.237803,118.23981 63.010129,118.62959 C 59.782454,119.01937 56.49431,119.68627 55.703142,120.11159 C 54.757305,120.62005 53.642975,120.09455 52.449415,118.57719 C 50.796481,116.47582 50.768267,116.01578 52.13386,113.43195 C 52.958686,111.87131 54.274787,108.93711 55.058529,106.91151 C 56.762114,102.50855 62.165577,98.365673 74.395963,92.085343 C 83.039926,87.646643 83.252106,87.595813 92.64163,87.713963 C 102.84687,87.842383 102.7643,87.818293 126.23572,97.513983 C 132.33748,100.03453 140.3453,102.84093 144.03088,103.75044 C 152.41322,105.81899 153.46856,105.1196 151.66812,98.689073 C 149.61913,91.370783 151.5833,84.647253 157.85793,77.500843 C 161.65062,73.181203 176.73654,62.855953 184.34329,59.373463 C 190.30389,56.644613 192.29861,56.787673 187.92284,59.630183 C 181.92127,63.528823 172.64163,75.075823 172.64163,78.645163 C 172.64163,79.883033 173.76223,83.303013 175.13186,86.245123 C 178.77942,94.080483 178.46903,96.530183 173.15541,101.84379 C 170.688,104.31121 168.90732,106.71531 169.19836,107.18623 C 169.48941,107.65715 171.9809,108.71163 174.735,109.52951 C 179.196,110.85428 180.74639,110.84557 188.94204,109.44968 C 194.00182,108.5879 201.49733,106.82362 205.59874,105.52905 C 209.70015,104.23449 213.19823,103.31769 213.37226,103.49172 C 213.54629,103.66574 210.15477,106.54193 205.83555,109.88325 C 196.97536,116.73742 191.55412,118.89421 175.34087,122.01527 C 162.9672,124.3972 160.54499,124.46965 155.48642,122.60913 z"
             style="fill:url(#radialGradient3317);fill-opacity:1" />
        </g>
      </g>
      <path
         d="M 127.5252,94.164942 C 127.72734,93.994329 127.94732,93.842839 128.13162,93.653101 C 128.34093,93.437615 128.49139,93.169735 128.70095,92.954499 C 129.62652,92.003836 130.76222,91.33496 131.67619,90.359641 C 133.4457,88.961653 135.51525,88.013122 137.33877,86.706414 C 138.63803,85.516711 140.09447,84.458862 141.21507,83.089016 C 141.77589,82.369404 141.75242,81.511487 141.84775,80.662984 C 141.69023,79.296366 142.08149,78.335564 142.38915,77.05112 C 142.3969,76.032892 142.76337,75.028939 142.70136,74.027509 C 142.60031,73.173204 142.13163,72.498923 141.74565,71.747098 C 141.5832,71.443487 141.32602,70.501783 140.96269,70.394759 C 140.71977,69.847374 140.18214,69.649218 139.78555,69.242936 C 139.46005,68.909476 139.19539,68.521562 138.89395,68.166199 C 138.2512,67.827248 137.60232,66.700383 137.223,66.054008 C 136.55184,64.932557 136.47622,63.670345 136.24675,62.445227 C 135.94133,61.117654 135.65267,59.800647 135.54757,58.440873 C 135.58076,57.661433 135.4108,56.864364 135.44909,56.087721 C 135.48885,55.28131 135.73835,54.47163 135.81013,53.662175 C 136.03207,51.914811 136.37474,50.184406 136.72411,48.458242 C 137.46294,46.15847 138.83099,44.19287 140.20599,42.238745 C 142.01273,39.444028 144.53475,37.361049 147.13294,35.347265 C 148.14261,34.650541 149.20779,33.884972 150.27245,33.27011 C 164.2197,25.215308 178.17733,17.178408 192.15201,9.171285 C 192.67647,8.8707776 193.23688,8.6371301 193.7679,8.3483526 C 194.27602,8.0720293 195.76939,7.1879004 195.26822,7.4766305 C 182.24053,14.981967 169.21496,22.490997 156.18835,29.998182 C 159.44962,28.190494 162.406,25.930106 165.32718,23.628978 C 167.74134,21.744461 170.14287,19.846482 172.62654,18.054534 L 215.8514,1.0559443 C 213.39496,2.6817764 210.97255,4.3259212 208.71397,6.2241939 C 205.93312,8.4734574 203.31925,10.953521 200.3263,12.921156 C 186.36527,21.001281 172.41724,29.103897 158.44323,37.161533 C 157.98295,37.426935 157.49363,37.638693 157.02512,37.889282 C 156.51175,38.163871 154.99398,39.028304 155.49798,38.736856 C 168.3905,31.281408 181.3047,23.863431 194.19097,16.397152 C 195.25028,15.783385 189.91272,18.706821 190.96303,18.149369 C 188.49393,19.589348 186.06418,21.213226 184.14917,23.355365 C 182.87282,24.861459 181.72367,26.478862 180.63491,28.119857 C 179.736,29.312142 179.61818,30.827402 179.34925,32.263061 C 179.20475,32.9929 179.22327,33.818044 179.02019,34.527595 C 178.98101,34.664503 178.83464,34.757719 178.80593,34.897201 C 178.80293,34.911785 178.82948,36.051275 178.83036,36.090215 C 178.85722,37.142782 178.82536,38.213073 179.11095,39.236237 C 179.35138,39.983217 179.69004,40.656893 179.57533,41.45979 C 180.03092,42.004655 180.46332,42.553181 180.91678,43.098308 C 181.43614,43.88769 182.39835,44.343209 182.89277,45.173417 C 183.54857,46.057553 184.1353,46.966782 184.62811,47.952458 C 184.81744,49.092441 185.53388,50.070105 185.65425,51.223108 C 186.03419,52.756869 186.30577,53.935165 186.00159,55.525401 C 185.97733,56.159961 186.1254,57.405623 185.73861,57.963493 C 185.69124,58.031824 185.53166,57.969613 185.50392,58.047999 C 185.45238,58.193683 185.53154,58.355829 185.54534,58.509744 C 185.60311,59.932172 185.31706,61.354634 185.17472,62.764855 C 184.64929,65.241889 183.58825,66.900947 181.72382,68.618497 C 181.16667,69.225202 180.67936,69.90021 180.07105,70.455592 C 179.04091,71.396069 177.65885,71.959605 176.52377,72.750064 C 176.22596,72.85642 175.90052,72.904836 175.63031,73.069133 C 174.91348,73.504991 174.40662,74.300273 173.67857,74.753906 C 173.49946,74.865504 173.27425,74.896688 173.10602,75.02409 C 172.98044,75.119185 172.91702,75.27614 172.82253,75.402164 L 127.5252,94.164942 z"
         id="path3461"
         style="opacity:0.54166667;fill:#00ffff;fill-opacity:1;stroke:none;stroke-width:2;stroke-linecap:round;stroke-linejoin:round;stroke-miterlimit:4;stroke-dasharray:none;stroke-opacity:1" />
      <path
         d="M 175.92462,76.259918 C 174.18033,76.851315 173.02211,78.327619 171.93293,79.730733 C 171.60635,80.489005 171.02365,81.071867 170.5494,81.719264 C 170.44062,81.86775 170.40573,82.066624 170.28064,82.201644 C 169.94346,82.56556 170.06774,81.935943 170.02057,82.496054 C 170.0903,82.631173 170.12666,82.789663 170.22978,82.901412 C 170.75591,83.471591 173.28088,84.377335 174.01978,84.677637 C 176.42437,85.867522 179.06653,86.303985 181.61524,87.034941 C 183.95611,87.619146 186.37981,87.610368 188.77452,87.711345 C 191.02537,87.727898 193.28863,87.999546 195.54032,87.916074 C 195.67776,87.910979 199.17365,87.568522 199.30915,87.555329 C 202.64938,87.161579 205.76327,86.135538 208.82027,84.779435 C 223.64526,77.540735 242.19639,65.835822 173.62733,105.18985 C 173.21385,105.42716 174.47351,104.74904 174.8817,104.50272 C 175.29947,104.25062 175.69597,103.9648 176.10309,103.69584 C 190.5211,93.62053 178.54541,101.93853 219.2168,78.472604 C 220.07756,77.975977 221.01775,77.626573 221.94904,77.279789 C 222.89989,76.925719 223.8832,76.665001 224.84152,76.33168 C 228.00276,75.236165 231.1921,75.896872 234.39497,76.340946 C 237.91635,77.07962 241.13495,78.867201 243.989,81.010827 C 245.83225,82.649522 247.60431,84.494635 248.79263,86.682641 C 249.55923,88.094188 249.70575,88.804437 250.19061,90.326635 C 251.06861,94.331697 250.1941,98.374967 249.81769,102.37946 L 207.90833,123.32629 C 208.12662,119.8536 208.83618,116.38065 208.49765,112.89745 C 208.43597,112.49933 208.42438,112.09014 208.31261,111.70308 C 207.67863,109.50745 205.89974,107.81139 204.14435,106.4785 C 201.57571,104.96605 198.80321,103.91522 195.78713,103.87101 C 192.84584,103.7658 190.10716,104.35813 187.45427,105.6648 C 186.08998,106.24889 184.77598,106.90162 183.48674,107.63988 C 183.06466,107.88158 181.82107,108.64506 182.24158,108.40063 C 221.47223,85.598417 234.33269,77.208892 220.35319,86.29703 C 219.94963,86.588246 219.53882,86.86968 219.1425,87.170677 C 218.72875,87.484902 218.37304,87.881381 217.92371,88.14217 C 203.48645,96.521318 188.19311,108.2114 171.46321,113.94334 C 168.20135,114.86652 164.85144,115.36064 161.45768,115.42889 C 157.68258,115.54578 153.90106,115.52198 150.12438,115.5208 C 147.41921,115.38664 144.74581,115.0044 142.19208,114.05596 C 139.5047,113.31325 136.94745,112.19008 134.34862,111.19336 C 131.68055,110.07901 129.11767,108.71968 127.70328,106.06782 C 126.43474,103.37451 126.18809,101.77477 127.87779,99.209412 C 128.68683,97.560186 129.62778,95.972415 130.44685,94.345763 L 175.92462,76.259918 z"
         id="path3463"
         style="opacity:0.54166667;fill:#00ffff;fill-opacity:1;stroke:none;stroke-width:2;stroke-linecap:round;stroke-linejoin:round;stroke-miterlimit:4;stroke-dasharray:none;stroke-opacity:1" />
      <path
         d="M 81.908376,88.727088 C 83.37519,89.345629 84.994204,89.744377 86.545281,90.245128 C 88.811948,91.022961 90.300052,92.427694 91.626765,93.868986 C 92.617942,94.929811 93.301056,96.106264 94.37149,97.130225 C 95.753635,98.195767 96.754042,99.09028 97.467192,100.45556 C 98.230083,102.91823 97.318248,105.431 96.677303,107.86108 C 96.260408,109.29505 95.883967,110.72365 96.27235,112.17476 C 97.262749,114.16511 98.362812,116.13117 99.374234,118.11826 C 100.62012,120.31505 101.81384,122.66604 104.14876,124.44353 C 104.57843,124.77063 105.07554,125.05176 105.53893,125.35586 C 109.33069,127.64532 114.19771,128.47045 119.02271,129.06736 C 122.76161,129.26837 120.88776,129.20035 124.64428,129.27103 L 102.40047,140.36688 C 98.530016,140.16304 100.4778,140.3033 96.557782,139.94188 C 91.20079,139.15212 85.892163,138.07233 81.691525,135.50365 C 81.16321,135.12213 80.597796,134.76379 80.106581,134.3591 C 77.701537,132.37769 76.403362,129.91355 74.86041,127.59238 C 73.654752,125.60044 72.261901,123.67725 70.940097,121.72365 C 70.043677,119.81829 70.432966,118.29772 71.227822,116.39588 C 71.945183,114.37488 72.76584,112.25271 72.342725,110.16111 C 71.679687,109.06148 70.45479,108.24732 69.396928,107.32527 C 68.35994,106.24236 67.729712,105.01474 66.763546,103.90202 C 65.751939,102.71731 64.489071,101.79386 62.574127,101.32231 C 60.864566,100.84623 59.177177,100.33474 57.446068,99.898757 L 81.908376,88.727088 z"
         id="path3475"
         style="opacity:0.54166667;fill:#00ffff;fill-opacity:1;stroke:none;stroke-width:2;stroke-linecap:round;stroke-linejoin:round;stroke-miterlimit:4;stroke-dasharray:none;stroke-opacity:1" />
    </g>
  </g>
</svg>
