<?xml version="1.0" encoding="UTF-8" standalone="no"?>
<!-- Created with Inkscape (http://www.inkscape.org/) -->

<svg
   xmlns:dc="http://purl.org/dc/elements/1.1/"
   xmlns:cc="http://creativecommons.org/ns#"
   xmlns:rdf="http://www.w3.org/1999/02/22-rdf-syntax-ns#"
   xmlns:svg="http://www.w3.org/2000/svg"
   xmlns="http://www.w3.org/2000/svg"
   xmlns:xlink="http://www.w3.org/1999/xlink"
   xmlns:sodipodi="http://sodipodi.sourceforge.net/DTD/sodipodi-0.dtd"
   xmlns:inkscape="http://www.inkscape.org/namespaces/inkscape"
   width="256"
   height="256"
   id="svg2"
   sodipodi:version="0.32"
   inkscape:version="0.47pre0 r21549"
   version="1.0"
   sodipodi:docname="cd.svg"
   inkscape:output_extension="org.inkscape.output.svg.inkscape">
  <defs
     id="defs4">
    <radialGradient
       inkscape:collect="always"
       xlink:href="#linearGradient3435"
       id="radialGradient10476"
       gradientUnits="userSpaceOnUse"
       gradientTransform="matrix(-5.04822e-2,1.387847e-2,-0.12844,-0.467196,35.362854,39.768316)"
       cx="133.84108"
       cy="23.914305"
       fx="133.84108"
       fy="23.914305"
       r="21.333334" />
    <radialGradient
       inkscape:collect="always"
       xlink:href="#linearGradient3435"
       id="radialGradient10474"
       gradientUnits="userSpaceOnUse"
       gradientTransform="matrix(0.105916,-1.91424e-2,0.104789,0.579807,17.290425,6.9812709)"
       cx="35.511295"
       cy="21.618015"
       fx="35.511295"
       fy="21.618015"
       r="21.333334" />
    <radialGradient
       inkscape:collect="always"
       xlink:href="#linearGradient3435"
       id="radialGradient10472"
       gradientUnits="userSpaceOnUse"
       gradientTransform="matrix(5.184267e-3,-0.12286,0.544548,2.297824e-2,1.1625835,26.36465)"
       cx="16.885271"
       cy="33.377594"
       fx="16.885271"
       fy="33.377594"
       r="21.333334" />
    <radialGradient
       inkscape:collect="always"
       xlink:href="#linearGradient3421"
       id="radialGradient10470"
       gradientUnits="userSpaceOnUse"
       gradientTransform="matrix(0.15845,-0.158988,0.432907,0.431441,-3.0052834,14.88679)"
       cx="53.556889"
       cy="48.238270"
       fx="53.556889"
       fy="48.238270"
       r="21.333334" />
    <radialGradient
       inkscape:collect="always"
       xlink:href="#linearGradient3406"
       id="radialGradient10468"
       gradientUnits="userSpaceOnUse"
       gradientTransform="matrix(0.769501,-1.2425,0.6703,0.415141,-21.77857,41.527246)"
       cx="26.137741"
       cy="38.807304"
       fx="26.137741"
       fy="38.807304"
       r="21.333334" />
    <radialGradient
       inkscape:collect="always"
       xlink:href="#linearGradient3394"
       id="radialGradient10466"
       gradientUnits="userSpaceOnUse"
       gradientTransform="matrix(0.848684,0.95802,-0.782119,0.692834,18.368238,-20.606589)"
       cx="37.751469"
       cy="27.569166"
       fx="37.751469"
       fy="27.569166"
       r="21.333334" />
    <linearGradient
       inkscape:collect="always"
       xlink:href="#linearGradient6028"
       id="linearGradient10464"
       gradientUnits="userSpaceOnUse"
       x1="28.702885"
       y1="31.494707"
       x2="17.742729"
       y2="18.366575" />
    <linearGradient
       inkscape:collect="always"
       xlink:href="#linearGradient3238"
       id="linearGradient10462"
       gradientUnits="userSpaceOnUse"
       x1="-33.004112"
       y1="18.647663"
       x2="62.384823"
       y2="25.847296" />
    <radialGradient
       inkscape:collect="always"
       xlink:href="#linearGradient23419"
       id="radialGradient10460"
       gradientUnits="userSpaceOnUse"
       gradientTransform="matrix(1,0,0,0.25,0,31.22703)"
       cx="23.334524"
       cy="41.63604"
       fx="23.334524"
       fy="41.63604"
       r="22.627417" />
    <radialGradient
       inkscape:collect="always"
       xlink:href="#linearGradient3435"
       id="radialGradient10458"
       gradientUnits="userSpaceOnUse"
       gradientTransform="matrix(-5.04822e-2,1.387847e-2,-0.12844,-0.467196,35.362854,39.768316)"
       cx="133.84108"
       cy="23.914305"
       fx="133.84108"
       fy="23.914305"
       r="21.333334" />
    <radialGradient
       inkscape:collect="always"
       xlink:href="#linearGradient3435"
       id="radialGradient10456"
       gradientUnits="userSpaceOnUse"
       gradientTransform="matrix(0.105916,-1.91424e-2,0.104789,0.579807,17.290425,6.9812709)"
       cx="35.511295"
       cy="21.618015"
       fx="35.511295"
       fy="21.618015"
       r="21.333334" />
    <linearGradient
       id="linearGradient3435"
       gradientUnits="userSpaceOnUse"
       x1="12.2744"
       y1="32.4165"
       x2="35.3912"
       y2="14.2033">
      <stop
         offset="0.0000000"
         style="stop-color:#ffffc8;stop-opacity:1.0000000;"
         id="stop3437" />
      <stop
         offset="1.0000000"
         style="stop-color:#9a91ef;stop-opacity:0.0000000;"
         id="stop3439" />
    </linearGradient>
    <radialGradient
       inkscape:collect="always"
       xlink:href="#linearGradient3435"
       id="radialGradient10454"
       gradientUnits="userSpaceOnUse"
       gradientTransform="matrix(5.184267e-3,-0.12286,0.544548,2.297824e-2,1.1625835,26.36465)"
       cx="16.885271"
       cy="33.377594"
       fx="16.885271"
       fy="33.377594"
       r="21.333334" />
    <linearGradient
       y2="14.2033"
       x2="35.3912"
       y1="32.4165"
       x1="12.2744"
       gradientUnits="userSpaceOnUse"
       id="linearGradient3421">
      <stop
         id="stop3423"
         style="stop-color:#ffffff;stop-opacity:1.0000000;"
         offset="0.0000000" />
      <stop
         id="stop3427"
         style="stop-color:#b8c04c;stop-opacity:0.0000000;"
         offset="1.0000000" />
    </linearGradient>
    <radialGradient
       inkscape:collect="always"
       xlink:href="#linearGradient3421"
       id="radialGradient10452"
       gradientUnits="userSpaceOnUse"
       gradientTransform="matrix(0.15845,-0.158988,0.432907,0.431441,-3.0052834,14.88679)"
       cx="53.556889"
       cy="48.238270"
       fx="53.556889"
       fy="48.238270"
       r="21.333334" />
    <linearGradient
       id="linearGradient3406"
       gradientUnits="userSpaceOnUse"
       x1="12.2744"
       y1="32.4165"
       x2="35.3912"
       y2="14.2033">
      <stop
         offset="0.0000000"
         style="stop-color:#b307ff;stop-opacity:0.82178217;"
         id="stop3408" />
      <stop
         offset="1.0000000"
         style="stop-color:#f0ff8b;stop-opacity:0.64356434;"
         id="stop3410" />
      <stop
         offset="1.0000000"
         style="stop-color:#ffffff;stop-opacity:0.0000000;"
         id="stop3412" />
    </linearGradient>
    <radialGradient
       inkscape:collect="always"
       xlink:href="#linearGradient3406"
       id="radialGradient10450"
       gradientUnits="userSpaceOnUse"
       gradientTransform="matrix(0.769501,-1.2425,0.6703,0.415141,-21.77857,41.527246)"
       cx="26.137741"
       cy="38.807304"
       fx="26.137741"
       fy="38.807304"
       r="21.333334" />
    <linearGradient
       y2="14.2033"
       x2="35.3912"
       y1="32.4165"
       x1="12.2744"
       gradientUnits="userSpaceOnUse"
       id="linearGradient3394">
      <stop
         id="stop3396"
         style="stop-color:#fff307;stop-opacity:1.0000000;"
         offset="0.0000000" />
      <stop
         id="stop3398"
         style="stop-color:#166eff;stop-opacity:1.0000000;"
         offset="0.50000000" />
      <stop
         id="stop3400"
         style="stop-color:#ffffff;stop-opacity:0.0000000;"
         offset="1.0000000" />
    </linearGradient>
    <radialGradient
       inkscape:collect="always"
       xlink:href="#linearGradient3394"
       id="radialGradient10448"
       gradientUnits="userSpaceOnUse"
       gradientTransform="matrix(0.848684,0.95802,-0.782119,0.692834,18.368238,-20.606589)"
       cx="37.751469"
       cy="27.569166"
       fx="37.751469"
       fy="27.569166"
       r="21.333334" />
    <linearGradient
       inkscape:collect="always"
       id="linearGradient6028">
      <stop
         style="stop-color:#ffffff;stop-opacity:1;"
         offset="0"
         id="stop6030" />
      <stop
         style="stop-color:#ffffff;stop-opacity:0;"
         offset="1"
         id="stop6032" />
    </linearGradient>
    <linearGradient
       inkscape:collect="always"
       xlink:href="#linearGradient6028"
       id="linearGradient10446"
       gradientUnits="userSpaceOnUse"
       x1="28.702885"
       y1="31.494707"
       x2="17.742729"
       y2="18.366575" />
    <linearGradient
       inkscape:collect="always"
       id="linearGradient3238">
      <stop
         style="stop-color:#ffffff;stop-opacity:1;"
         offset="0"
         id="stop3240" />
      <stop
         style="stop-color:#ffffff;stop-opacity:0;"
         offset="1"
         id="stop3242" />
    </linearGradient>
    <linearGradient
       inkscape:collect="always"
       xlink:href="#linearGradient3238"
       id="linearGradient10444"
       gradientUnits="userSpaceOnUse"
       x1="-33.004112"
       y1="18.647663"
       x2="62.384823"
       y2="25.847296" />
    <linearGradient
       inkscape:collect="always"
       id="linearGradient23419">
      <stop
         style="stop-color:#000000;stop-opacity:1;"
         offset="0"
         id="stop23421" />
      <stop
         style="stop-color:#000000;stop-opacity:0;"
         offset="1"
         id="stop23423" />
    </linearGradient>
    <radialGradient
       inkscape:collect="always"
       xlink:href="#linearGradient23419"
       id="radialGradient10442"
       gradientUnits="userSpaceOnUse"
       gradientTransform="matrix(1,0,0,0.25,0,31.22703)"
       cx="23.334524"
       cy="41.63604"
       fx="23.334524"
       fy="41.63604"
       r="22.627417" />
    <linearGradient
       inkscape:collect="always"
       id="linearGradient4613">
      <stop
         style="stop-color:#000000;stop-opacity:1;"
         offset="0"
         id="stop4615" />
      <stop
         style="stop-color:#000000;stop-opacity:0;"
         offset="1"
         id="stop4617" />
    </linearGradient>
    <linearGradient
       inkscape:collect="always"
       id="linearGradient4605">
      <stop
         style="stop-color:#f70000;stop-opacity:1;"
         offset="0"
         id="stop4607" />
      <stop
         style="stop-color:#000000;stop-opacity:1"
         offset="1"
         id="stop4609" />
    </linearGradient>
    <linearGradient
       id="linearGradient4591"
       inkscape:collect="always">
      <stop
         id="stop4593"
         offset="0"
         style="stop-color:#ffffff;stop-opacity:1" />
      <stop
         id="stop4595"
         offset="1"
         style="stop-color:#ffffff;stop-opacity:0;" />
    </linearGradient>
    <mask
       maskUnits="userSpaceOnUse"
       x="122.963"
       y="97.149"
       width="576.609"
       height="587.491"
       id="XMLID_23_">
      <g
         id="g31"
         style="filter:url(#Adobe_OpacityMaskFilter)">
        <radialGradient
           id="XMLID_24_"
           cx="88.977501"
           cy="-20.899401"
           r="673.11609"
           fx="88.977501"
           fy="-20.899401"
           gradientUnits="userSpaceOnUse">
          <stop
             offset="0.309"
             style="stop-color:#FFFFFF"
             id="stop34" />
          <stop
             offset="1"
             style="stop-color:#000000"
             id="stop3816" />
        </radialGradient>
        <ellipse
           sodipodi:ry="349.10599"
           sodipodi:rx="512.93402"
           sodipodi:cy="286.172"
           sodipodi:cx="295.89499"
           cx="295.89499"
           cy="286.172"
           rx="512.93402"
           ry="349.10599"
           id="ellipse38"
           style="fill:url(#XMLID_24_)" />
      </g>
    </mask>
    <linearGradient
       inkscape:collect="always"
       xlink:href="#linearGradient4591"
       id="linearGradient3196"
       x1="99.881126"
       y1="68.792747"
       x2="171.01328"
       y2="46.998337"
       gradientUnits="userSpaceOnUse"
       gradientTransform="matrix(0.8301257,0,0,0.9649488,-179.55402,176.05704)" />
    <linearGradient
       inkscape:collect="always"
       xlink:href="#linearGradient4591"
       id="linearGradient4599"
       gradientUnits="userSpaceOnUse"
       gradientTransform="matrix(0.9457809,0,0,1.1075807,6.5485589,0.4212711)"
       x1="104.92213"
       y1="71.555038"
       x2="161.92285"
       y2="35.137646" />
    <linearGradient
       inkscape:collect="always"
       xlink:href="#linearGradient4605"
       id="linearGradient4611"
       x1="168.56552"
       y1="-13.762122"
       x2="206.93968"
       y2="23.825462"
       gradientUnits="userSpaceOnUse" />
    <linearGradient
       inkscape:collect="always"
       xlink:href="#linearGradient4613"
       id="linearGradient4619"
       x1="168.56552"
       y1="-13.762122"
       x2="351.36194"
       y2="165.28738"
       gradientUnits="userSpaceOnUse" />
  </defs>
  <sodipodi:namedview
     id="base"
     pagecolor="#ffffff"
     bordercolor="#666666"
     borderopacity="1.0"
     gridtolerance="10000"
     guidetolerance="10"
     objecttolerance="10"
     inkscape:pageopacity="0.0"
     inkscape:pageshadow="2"
     inkscape:zoom="1.2871553"
     inkscape:cx="128"
     inkscape:cy="97.383295"
     inkscape:document-units="px"
     inkscape:current-layer="layer1"
     showgrid="false"
     showguides="true"
     inkscape:guide-bbox="true"
     inkscape:window-width="773"
     inkscape:window-height="676"
     inkscape:window-x="301"
     inkscape:window-y="111" />
  <metadata
     id="metadata7">
    <rdf:RDF>
      <cc:Work
         rdf:about="">
        <dc:format>image/svg+xml</dc:format>
        <dc:type
           rdf:resource="http://purl.org/dc/dcmitype/StillImage" />
      </cc:Work>
    </rdf:RDF>
  </metadata>
  <g
     inkscape:label="Layer 1"
     inkscape:groupmode="layer"
     id="layer1">
    <rect
       style="opacity:1;fill:url(#linearGradient4619);fill-opacity:1;stroke:url(#linearGradient4611);stroke-width:2;stroke-miterlimit:4;stroke-dasharray:none;stroke-opacity:1"
       id="rect2383"
       width="209.543"
       height="209.543"
       x="75.938042"
       y="-106.63853"
       ry="61.030819"
       transform="matrix(0.6997472,0.7143906,-0.7143906,0.6997472,0,0)" />
    <rect
       style="opacity:0.26851852;fill:url(#linearGradient4599);fill-opacity:1;stroke:none;stroke-width:2;stroke-miterlimit:4;stroke-dasharray:none;stroke-opacity:1"
       id="rect4597"
       width="198.18179"
       height="232.08572"
       x="78.369324"
       y="-117.6895"
       ry="67.596573"
       transform="matrix(0.7600468,0.6498684,-0.7370851,0.6758,0,0)" />
    <rect
       transform="matrix(-0.796691,0.6043868,0.6617245,0.7497471,0,0)"
       ry="58.891621"
       y="73.156349"
       x="-116.51585"
       height="202.19823"
       width="173.94705"
       id="rect3188"
       style="opacity:0.27777778;fill:url(#linearGradient3196);fill-opacity:1;stroke:none;stroke-width:2;stroke-miterlimit:4;stroke-dasharray:none;stroke-opacity:1" />
    <path
       sodipodi:nodetypes="ccc"
       id="path2276"
       d="M 108.10388,41.662742 L 108.10388,37.156303 L 108.10388,41.662742 z"
       style="fill:#ffffff;fill-opacity:0.75688076;fill-rule:nonzero;stroke:none;stroke-width:0.5;stroke-linecap:round;stroke-linejoin:round;stroke-miterlimit:4;stroke-dasharray:none;stroke-dashoffset:4;stroke-opacity:1" />
    <g
       id="g10336"
       transform="matrix(0.9503646,0,0,0.9503646,8.9665083,11.651824)">
      <g
         transform="matrix(4.3168704,0,0,4.3168704,20.204232,10.085004)"
         id="g3284">
        <path
           sodipodi:type="arc"
           style="opacity:0.55;fill:url(#radialGradient10442);fill-opacity:1;fill-rule:evenodd;stroke:none;stroke-width:2;stroke-linecap:butt;stroke-linejoin:miter;marker:none;marker-start:none;marker-mid:none;marker-end:none;stroke-miterlimit:4;stroke-dasharray:none;stroke-dashoffset:0;stroke-opacity:1;visibility:visible;display:inline;overflow:visible"
           id="path3286"
           sodipodi:cx="23.334524"
           sodipodi:cy="41.63604"
           sodipodi:rx="22.627417"
           sodipodi:ry="5.6568542"
           d="M 45.961941,41.63604 A 22.627417,5.6568542 0 1 1 0.70710754,41.63604 A 22.627417,5.6568542 0 1 1 45.961941,41.63604 z"
           inkscape:r_cx="true"
           inkscape:r_cy="true"
           transform="matrix(1,0,0,1.066291,1,-2.885106)" />
        <path
           inkscape:r_cy="true"
           inkscape:r_cx="true"
           id="path3288"
           d="M 24.347006,14.895835 C 18.70442,14.895835 14.24284,19.488638 14.24284,25 C 14.24284,30.642588 18.835644,35.104166 24.347006,35.104166 C 29.989592,35.104166 34.451172,30.511364 34.451172,25 C 34.451172,19.357414 29.858368,14.895835 24.347006,14.895835 L 24.347006,14.895835 z M 24.347006,30.511364 C 21.328879,30.511364 18.835644,28.018129 18.835644,25 C 18.835644,21.981873 21.328879,19.488638 24.347006,19.488638 C 27.365133,19.488638 29.858368,21.981873 29.858368,25 C 29.858368,28.018129 27.365133,30.511364 24.347006,30.511364 z"
           style="opacity:0.10999995;fill-rule:nonzero;stroke:none;stroke-miterlimit:4" />
        <path
           style="opacity:1;fill:none;fill-opacity:1;fill-rule:nonzero;stroke:url(#linearGradient10444);stroke-width:0.1;stroke-miterlimit:4;stroke-dasharray:none;stroke-opacity:1"
           d="M 24.347006,4.3282823 C 12.799386,4.3282823 3.5136723,13.613997 3.5136723,25.161616 C 3.5136723,36.709236 12.799386,45.994951 24.347006,45.994951 C 35.894626,45.994951 45.180341,36.709236 45.180341,25.161616 C 45.180341,13.613997 35.894626,4.3282823 24.347006,4.3282823 L 24.347006,4.3282823 z M 24.347006,30.161617 C 21.608911,30.161617 19.347006,27.899712 19.347006,25.161616 C 19.347006,22.423521 21.608911,20.161616 24.347006,20.161616 C 27.085101,20.161616 29.347006,22.423521 29.347006,25.161616 C 29.347006,27.899712 27.085101,30.161617 24.347006,30.161617 z"
           id="path3290"
           inkscape:r_cx="true"
           inkscape:r_cy="true" />
        <path
           inkscape:r_cy="true"
           inkscape:r_cx="true"
           sodipodi:type="arc"
           style="opacity:0.67213111;fill:none;fill-opacity:0.31638417;fill-rule:nonzero;stroke:url(#linearGradient10446);stroke-width:0.93053865;stroke-linecap:butt;stroke-linejoin:miter;marker:none;marker-start:none;marker-mid:none;marker-end:none;stroke-miterlimit:4;stroke-dashoffset:0;stroke-opacity:1;visibility:visible;display:inline;overflow:visible"
           id="path3292"
           sodipodi:cx="24.306795"
           sodipodi:cy="24.930641"
           sodipodi:rx="6.0987959"
           sodipodi:ry="6.0987959"
           d="M 30.405591,24.930641 A 6.0987959,6.0987959 0 1 1 18.207999,24.930641 A 6.0987959,6.0987959 0 1 1 30.405591,24.930641 z"
           transform="translate(8.838835e-2,8.838865e-2)" />
        <path
           inkscape:r_cy="true"
           inkscape:r_cx="true"
           style="opacity:0.1142857;fill:url(#radialGradient10448);fill-opacity:1;fill-rule:nonzero;stroke:none;stroke-miterlimit:4;stroke-opacity:1"
           d="M 24.023774,4.0858585 C 12.476154,4.0858585 3.1904398,13.371572 3.1904398,24.919191 C 3.1904398,36.466811 12.476154,45.752526 24.023774,45.752526 C 35.571394,45.752526 44.857109,36.466811 44.857109,24.919191 C 44.857109,13.371572 35.571394,4.0858585 24.023774,4.0858585 L 24.023774,4.0858585 z M 24.023774,29.919192 C 21.285679,29.919192 19.023774,27.657287 19.023774,24.919191 C 19.023774,22.181096 21.285679,19.919191 24.023774,19.919191 C 26.761869,19.919191 29.023774,22.181096 29.023774,24.919191 C 29.023774,27.657287 26.761869,29.919192 24.023774,29.919192 z"
           id="path3294" />
        <path
           inkscape:r_cy="true"
           inkscape:r_cx="true"
           id="path3296"
           d="M 24.347006,4.3282823 C 12.799386,4.3282823 3.5136723,13.613997 3.5136723,25.161616 C 3.5136723,36.709236 12.799386,45.994951 24.347006,45.994951 C 35.894626,45.994951 45.180341,36.709236 45.180341,25.161616 C 45.180341,13.613997 35.894626,4.3282823 24.347006,4.3282823 L 24.347006,4.3282823 z M 24.347006,30.161617 C 21.608911,30.161617 19.347006,27.899712 19.347006,25.161616 C 19.347006,22.423521 21.608911,20.161616 24.347006,20.161616 C 27.085101,20.161616 29.347006,22.423521 29.347006,25.161616 C 29.347006,27.899712 27.085101,30.161617 24.347006,30.161617 z"
           style="opacity:0;fill:url(#radialGradient10450);fill-opacity:1;fill-rule:nonzero;stroke:none;stroke-miterlimit:4;stroke-opacity:1" />
        <path
           inkscape:r_cy="true"
           inkscape:r_cx="true"
           style="opacity:0.71428576;fill:url(#radialGradient10452);fill-opacity:1;fill-rule:nonzero;stroke:none;stroke-miterlimit:4;stroke-opacity:1"
           d="M 24.065367,4.0523854 C 12.517747,4.0523854 3.2320337,13.338101 3.2320337,24.88572 C 3.2320337,36.43334 12.517747,45.719055 24.065367,45.719055 C 35.612987,45.719055 44.898702,36.43334 44.898702,24.88572 C 44.898702,13.338101 35.612987,4.0523854 24.065367,4.0523854 L 24.065367,4.0523854 z M 24.065367,29.885721 C 21.327272,29.885721 19.065367,27.623816 19.065367,24.88572 C 19.065367,22.147625 21.327272,19.88572 24.065367,19.88572 C 26.803462,19.88572 29.065367,22.147625 29.065367,24.88572 C 29.065367,27.623816 26.803462,29.885721 24.065367,29.885721 z"
           id="path3298" />
        <path
           inkscape:r_cy="true"
           inkscape:r_cx="true"
           id="path3300"
           d="M 24.552356,4.2237564 C 13.004736,4.2237564 3.7190215,13.509471 3.7190215,25.05709 C 3.7190215,36.60471 13.004736,45.890425 24.552356,45.890425 C 36.099976,45.890425 45.385691,36.60471 45.385691,25.05709 C 45.385691,13.509471 36.099976,4.2237564 24.552356,4.2237564 L 24.552356,4.2237564 z M 24.552356,30.057091 C 21.81426,30.057091 19.552355,27.795186 19.552355,25.05709 C 19.552355,22.318995 21.81426,20.05709 24.552356,20.05709 C 27.29045,20.05709 29.552355,22.318995 29.552355,25.05709 C 29.552355,27.795186 27.29045,30.057091 24.552356,30.057091 z"
           style="opacity:0.62285713;fill:url(#radialGradient10454);fill-opacity:1;fill-rule:nonzero;stroke:none;stroke-miterlimit:4;stroke-opacity:1" />
        <path
           inkscape:r_cy="true"
           inkscape:r_cx="true"
           style="opacity:0.37142861;fill:url(#radialGradient10456);fill-opacity:1;fill-rule:nonzero;stroke:none;stroke-miterlimit:4;stroke-opacity:1"
           d="M 24.500501,4.0327794 C 12.952881,4.0327794 3.6671666,13.318494 3.6671666,24.866113 C 3.6671666,36.413733 12.952881,45.699448 24.500501,45.699448 C 36.048121,45.699448 45.333836,36.413733 45.333836,24.866113 C 45.333836,13.318494 36.048121,4.0327794 24.500501,4.0327794 L 24.500501,4.0327794 z M 24.500501,29.866114 C 21.762406,29.866114 19.500501,27.604209 19.500501,24.866113 C 19.500501,22.128018 21.762406,19.866113 24.500501,19.866113 C 27.238596,19.866113 29.500501,22.128018 29.500501,24.866113 C 29.500501,27.604209 27.238596,29.866114 24.500501,29.866114 z"
           id="path3302" />
        <path
           inkscape:r_cy="true"
           inkscape:r_cx="true"
           id="path3304"
           d="M 24.29729,4.4932628 C 12.74967,4.4932628 3.4639568,13.778976 3.4639568,25.326596 C 3.4639568,36.874216 12.74967,46.15993 24.29729,46.15993 C 35.84491,46.15993 45.130625,36.874216 45.130625,25.326596 C 45.130625,13.778976 35.84491,4.4932628 24.29729,4.4932628 L 24.29729,4.4932628 z M 24.29729,30.326597 C 21.559195,30.326597 19.29729,28.064692 19.29729,25.326596 C 19.29729,22.588501 21.559195,20.326595 24.29729,20.326595 C 27.035385,20.326595 29.29729,22.588501 29.29729,25.326596 C 29.29729,28.064692 27.035385,30.326597 24.29729,30.326597 z"
           style="opacity:0.23428572;fill:url(#radialGradient10458);fill-opacity:1;fill-rule:nonzero;stroke:none;stroke-miterlimit:4;stroke-opacity:1" />
      </g>
      <g
         id="g10296"
         transform="matrix(4.3168704,0,0,4.3168704,20.204232,10.085004)">
        <path
           transform="matrix(1,0,0,1.066291,1,-2.885106)"
           inkscape:r_cy="true"
           inkscape:r_cx="true"
           d="M 45.961941,41.63604 A 22.627417,5.6568542 0 1 1 0.70710754,41.63604 A 22.627417,5.6568542 0 1 1 45.961941,41.63604 z"
           sodipodi:ry="5.6568542"
           sodipodi:rx="22.627417"
           sodipodi:cy="41.63604"
           sodipodi:cx="23.334524"
           id="path10298"
           style="opacity:0.55;fill:url(#radialGradient10460);fill-opacity:1;fill-rule:evenodd;stroke:none;stroke-width:2;stroke-linecap:butt;stroke-linejoin:miter;marker:none;marker-start:none;marker-mid:none;marker-end:none;stroke-miterlimit:4;stroke-dasharray:none;stroke-dashoffset:0;stroke-opacity:1;visibility:visible;display:inline;overflow:visible"
           sodipodi:type="arc" />
        <path
           style="opacity:0.10999995;fill-rule:nonzero;stroke:none;stroke-miterlimit:4"
           d="M 24.347006,14.895835 C 18.70442,14.895835 14.24284,19.488638 14.24284,25 C 14.24284,30.642588 18.835644,35.104166 24.347006,35.104166 C 29.989592,35.104166 34.451172,30.511364 34.451172,25 C 34.451172,19.357414 29.858368,14.895835 24.347006,14.895835 L 24.347006,14.895835 z M 24.347006,30.511364 C 21.328879,30.511364 18.835644,28.018129 18.835644,25 C 18.835644,21.981873 21.328879,19.488638 24.347006,19.488638 C 27.365133,19.488638 29.858368,21.981873 29.858368,25 C 29.858368,28.018129 27.365133,30.511364 24.347006,30.511364 z"
           id="path10300"
           inkscape:r_cx="true"
           inkscape:r_cy="true" />
        <path
           inkscape:r_cy="true"
           inkscape:r_cx="true"
           id="path10302"
           d="M 24.347006,4.3282823 C 12.799386,4.3282823 3.5136723,13.613997 3.5136723,25.161616 C 3.5136723,36.709236 12.799386,45.994951 24.347006,45.994951 C 35.894626,45.994951 45.180341,36.709236 45.180341,25.161616 C 45.180341,13.613997 35.894626,4.3282823 24.347006,4.3282823 L 24.347006,4.3282823 z M 24.347006,30.161617 C 21.608911,30.161617 19.347006,27.899712 19.347006,25.161616 C 19.347006,22.423521 21.608911,20.161616 24.347006,20.161616 C 27.085101,20.161616 29.347006,22.423521 29.347006,25.161616 C 29.347006,27.899712 27.085101,30.161617 24.347006,30.161617 z"
           style="opacity:1;fill:none;fill-opacity:1;fill-rule:nonzero;stroke:url(#linearGradient10462);stroke-width:0.1;stroke-miterlimit:4;stroke-dasharray:none;stroke-opacity:1" />
        <path
           transform="translate(8.838835e-2,8.838865e-2)"
           d="M 30.405591,24.930641 A 6.0987959,6.0987959 0 1 1 18.207999,24.930641 A 6.0987959,6.0987959 0 1 1 30.405591,24.930641 z"
           sodipodi:ry="6.0987959"
           sodipodi:rx="6.0987959"
           sodipodi:cy="24.930641"
           sodipodi:cx="24.306795"
           id="path10304"
           style="opacity:0.67213111;fill:none;fill-opacity:0.31638417;fill-rule:nonzero;stroke:url(#linearGradient10464);stroke-width:0.93053865;stroke-linecap:butt;stroke-linejoin:miter;marker:none;marker-start:none;marker-mid:none;marker-end:none;stroke-miterlimit:4;stroke-dashoffset:0;stroke-opacity:1;visibility:visible;display:inline;overflow:visible"
           sodipodi:type="arc"
           inkscape:r_cx="true"
           inkscape:r_cy="true" />
        <path
           id="path10306"
           d="M 24.023774,4.0858585 C 12.476154,4.0858585 3.1904398,13.371572 3.1904398,24.919191 C 3.1904398,36.466811 12.476154,45.752526 24.023774,45.752526 C 35.571394,45.752526 44.857109,36.466811 44.857109,24.919191 C 44.857109,13.371572 35.571394,4.0858585 24.023774,4.0858585 L 24.023774,4.0858585 z M 24.023774,29.919192 C 21.285679,29.919192 19.023774,27.657287 19.023774,24.919191 C 19.023774,22.181096 21.285679,19.919191 24.023774,19.919191 C 26.761869,19.919191 29.023774,22.181096 29.023774,24.919191 C 29.023774,27.657287 26.761869,29.919192 24.023774,29.919192 z"
           style="opacity:0.1142857;fill:url(#radialGradient10466);fill-opacity:1;fill-rule:nonzero;stroke:none;stroke-miterlimit:4;stroke-opacity:1"
           inkscape:r_cx="true"
           inkscape:r_cy="true" />
        <path
           style="opacity:0;fill:url(#radialGradient10468);fill-opacity:1;fill-rule:nonzero;stroke:none;stroke-miterlimit:4;stroke-opacity:1"
           d="M 24.347006,4.3282823 C 12.799386,4.3282823 3.5136723,13.613997 3.5136723,25.161616 C 3.5136723,36.709236 12.799386,45.994951 24.347006,45.994951 C 35.894626,45.994951 45.180341,36.709236 45.180341,25.161616 C 45.180341,13.613997 35.894626,4.3282823 24.347006,4.3282823 L 24.347006,4.3282823 z M 24.347006,30.161617 C 21.608911,30.161617 19.347006,27.899712 19.347006,25.161616 C 19.347006,22.423521 21.608911,20.161616 24.347006,20.161616 C 27.085101,20.161616 29.347006,22.423521 29.347006,25.161616 C 29.347006,27.899712 27.085101,30.161617 24.347006,30.161617 z"
           id="path10308"
           inkscape:r_cx="true"
           inkscape:r_cy="true" />
        <path
           id="path10310"
           d="M 24.065367,4.0523854 C 12.517747,4.0523854 3.2320337,13.338101 3.2320337,24.88572 C 3.2320337,36.43334 12.517747,45.719055 24.065367,45.719055 C 35.612987,45.719055 44.898702,36.43334 44.898702,24.88572 C 44.898702,13.338101 35.612987,4.0523854 24.065367,4.0523854 L 24.065367,4.0523854 z M 24.065367,29.885721 C 21.327272,29.885721 19.065367,27.623816 19.065367,24.88572 C 19.065367,22.147625 21.327272,19.88572 24.065367,19.88572 C 26.803462,19.88572 29.065367,22.147625 29.065367,24.88572 C 29.065367,27.623816 26.803462,29.885721 24.065367,29.885721 z"
           style="opacity:0.71428576;fill:url(#radialGradient10470);fill-opacity:1;fill-rule:nonzero;stroke:none;stroke-miterlimit:4;stroke-opacity:1"
           inkscape:r_cx="true"
           inkscape:r_cy="true" />
        <path
           style="opacity:0.62285713;fill:url(#radialGradient10472);fill-opacity:1;fill-rule:nonzero;stroke:none;stroke-miterlimit:4;stroke-opacity:1"
           d="M 24.552356,4.2237564 C 13.004736,4.2237564 3.7190215,13.509471 3.7190215,25.05709 C 3.7190215,36.60471 13.004736,45.890425 24.552356,45.890425 C 36.099976,45.890425 45.385691,36.60471 45.385691,25.05709 C 45.385691,13.509471 36.099976,4.2237564 24.552356,4.2237564 L 24.552356,4.2237564 z M 24.552356,30.057091 C 21.81426,30.057091 19.552355,27.795186 19.552355,25.05709 C 19.552355,22.318995 21.81426,20.05709 24.552356,20.05709 C 27.29045,20.05709 29.552355,22.318995 29.552355,25.05709 C 29.552355,27.795186 27.29045,30.057091 24.552356,30.057091 z"
           id="path10312"
           inkscape:r_cx="true"
           inkscape:r_cy="true" />
        <path
           id="path10314"
           d="M 24.500501,4.0327794 C 12.952881,4.0327794 3.6671666,13.318494 3.6671666,24.866113 C 3.6671666,36.413733 12.952881,45.699448 24.500501,45.699448 C 36.048121,45.699448 45.333836,36.413733 45.333836,24.866113 C 45.333836,13.318494 36.048121,4.0327794 24.500501,4.0327794 L 24.500501,4.0327794 z M 24.500501,29.866114 C 21.762406,29.866114 19.500501,27.604209 19.500501,24.866113 C 19.500501,22.128018 21.762406,19.866113 24.500501,19.866113 C 27.238596,19.866113 29.500501,22.128018 29.500501,24.866113 C 29.500501,27.604209 27.238596,29.866114 24.500501,29.866114 z"
           style="opacity:0.37142861;fill:url(#radialGradient10474);fill-opacity:1;fill-rule:nonzero;stroke:none;stroke-miterlimit:4;stroke-opacity:1"
           inkscape:r_cx="true"
           inkscape:r_cy="true" />
        <path
           style="opacity:0.23428572;fill:url(#radialGradient10476);fill-opacity:1;fill-rule:nonzero;stroke:none;stroke-miterlimit:4;stroke-opacity:1"
           d="M 24.29729,4.4932628 C 12.74967,4.4932628 3.4639568,13.778976 3.4639568,25.326596 C 3.4639568,36.874216 12.74967,46.15993 24.29729,46.15993 C 35.84491,46.15993 45.130625,36.874216 45.130625,25.326596 C 45.130625,13.778976 35.84491,4.4932628 24.29729,4.4932628 L 24.29729,4.4932628 z M 24.29729,30.326597 C 21.559195,30.326597 19.29729,28.064692 19.29729,25.326596 C 19.29729,22.588501 21.559195,20.326595 24.29729,20.326595 C 27.035385,20.326595 29.29729,22.588501 29.29729,25.326596 C 29.29729,28.064692 27.035385,30.326597 24.29729,30.326597 z"
           id="path10316"
           inkscape:r_cx="true"
           inkscape:r_cy="true" />
      </g>
    </g>
  </g>
</svg>
