<?xml version="1.0" encoding="UTF-8" standalone="no"?>
<!-- Created with Inkscape (http://www.inkscape.org/) -->

<svg
   xmlns:dc="http://purl.org/dc/elements/1.1/"
   xmlns:cc="http://creativecommons.org/ns#"
   xmlns:rdf="http://www.w3.org/1999/02/22-rdf-syntax-ns#"
   xmlns:svg="http://www.w3.org/2000/svg"
   xmlns="http://www.w3.org/2000/svg"
   xmlns:xlink="http://www.w3.org/1999/xlink"
   xmlns:sodipodi="http://sodipodi.sourceforge.net/DTD/sodipodi-0.dtd"
   xmlns:inkscape="http://www.inkscape.org/namespaces/inkscape"
   width="256"
   height="256"
   id="svg2"
   sodipodi:version="0.32"
   inkscape:version="0.48.0 r9654"
   version="1.0"
   sodipodi:docname="file-browser.svg"
   inkscape:output_extension="org.inkscape.output.svg.inkscape">
  <defs
     id="defs4">
    <linearGradient
       inkscape:collect="always"
       id="linearGradient4613">
      <stop
         style="stop-color:#000000;stop-opacity:1;"
         offset="0"
         id="stop4615" />
      <stop
         style="stop-color:#000000;stop-opacity:0;"
         offset="1"
         id="stop4617" />
    </linearGradient>
    <linearGradient
       inkscape:collect="always"
       id="linearGradient4605">
      <stop
         style="stop-color:#f70000;stop-opacity:1;"
         offset="0"
         id="stop4607" />
      <stop
         style="stop-color:#000000;stop-opacity:1"
         offset="1"
         id="stop4609" />
    </linearGradient>
    <linearGradient
       id="linearGradient4591"
       inkscape:collect="always">
      <stop
         id="stop4593"
         offset="0"
         style="stop-color:#ffffff;stop-opacity:1" />
      <stop
         id="stop4595"
         offset="1"
         style="stop-color:#ffffff;stop-opacity:0;" />
    </linearGradient>
    <mask
       maskUnits="userSpaceOnUse"
       x="122.963"
       y="97.149"
       width="576.609"
       height="587.491"
       id="XMLID_23_">
      <g
         id="g31"
         style="filter:url(#Adobe_OpacityMaskFilter)">
        <radialGradient
           id="XMLID_24_"
           cx="88.977501"
           cy="-20.899401"
           r="673.11609"
           fx="88.977501"
           fy="-20.899401"
           gradientUnits="userSpaceOnUse">
          <stop
             offset="0.309"
             style="stop-color:#FFFFFF"
             id="stop34" />
          <stop
             offset="1"
             style="stop-color:#000000"
             id="stop3816" />
        </radialGradient>
        <ellipse
           sodipodi:ry="349.10599"
           sodipodi:rx="512.93402"
           sodipodi:cy="286.172"
           sodipodi:cx="295.89499"
           cx="295.89499"
           cy="286.172"
           rx="512.93402"
           ry="349.10599"
           id="ellipse38"
           style="fill:url(#XMLID_24_)" />
      </g>
    </mask>
    <linearGradient
       inkscape:collect="always"
       xlink:href="#linearGradient4591"
       id="linearGradient3196"
       x1="99.881126"
       y1="68.792747"
       x2="171.01328"
       y2="46.998337"
       gradientUnits="userSpaceOnUse"
       gradientTransform="matrix(0.8301257,0,0,0.9649488,-179.55402,176.05704)" />
    <linearGradient
       inkscape:collect="always"
       xlink:href="#linearGradient4591"
       id="linearGradient4599"
       gradientUnits="userSpaceOnUse"
       gradientTransform="matrix(0.9457809,0,0,1.1075807,6.5485589,0.4212711)"
       x1="104.92213"
       y1="71.555038"
       x2="161.92285"
       y2="35.137646" />
    <linearGradient
       inkscape:collect="always"
       xlink:href="#linearGradient4605"
       id="linearGradient4611"
       x1="168.56552"
       y1="-13.762122"
       x2="206.93968"
       y2="23.825462"
       gradientUnits="userSpaceOnUse" />
    <linearGradient
       inkscape:collect="always"
       xlink:href="#linearGradient4613"
       id="linearGradient4619"
       x1="168.56552"
       y1="-13.762122"
       x2="351.36194"
       y2="165.28738"
       gradientUnits="userSpaceOnUse" />
    <linearGradient
       gradientUnits="userSpaceOnUse"
       gradientTransform="matrix(2.3824619,0,0,0.67399259,27.180407,33.197181)"
       id="linearGradient1506"
       x1="58.144119"
       x2="57.688267"
       xlink:href="#linearGradient1806"
       y1="263.44437"
       y2="202.89287" />
    <linearGradient
       id="linearGradient1806">
      <stop
         id="stop1807"
         offset="0.0000000"
         style="stop-color:#000000;stop-opacity:0.40677965;" />
      <stop
         id="stop3276"
         offset="0.64777780"
         style="stop-color:#000000;stop-opacity:0.073446326;" />
      <stop
         id="stop1808"
         offset="1.0000000"
         style="stop-color:#000000;stop-opacity:0.0000000;" />
    </linearGradient>
    <linearGradient
       gradientUnits="userSpaceOnUse"
       gradientTransform="matrix(3.8326477,0,0,0.41896928,27.180407,33.197181)"
       id="linearGradient1516"
       x1="27.728149"
       x2="28.471336"
       xlink:href="#linearGradient1517"
       y1="216.39954"
       y2="179.42838" />
    <linearGradient
       id="linearGradient1517">
      <stop
         id="stop1518"
         offset="0.0000000"
         style="stop-color:#ffffff;stop-opacity:0.0000000;" />
      <stop
         id="stop1519"
         offset="1.0000000"
         style="stop-color:#ffffff;stop-opacity:1.0000000;" />
    </linearGradient>
    <linearGradient
       gradientTransform="matrix(1.7563076,0,0,0.9142827,27.180416,33.197182)"
       gradientUnits="userSpaceOnUse"
       id="linearGradient1507"
       x1="68.708969"
       x2="68.708969"
       xlink:href="#linearGradient1511"
       y1="111.90047"
       y2="191.01146" />
    <linearGradient
       id="linearGradient1511">
      <stop
         id="stop1512"
         offset="0.0000000"
         style="stop-color:#bab5ab;stop-opacity:1.0000000;" />
      <stop
         id="stop1513"
         offset="1.0000000"
         style="stop-color:#eae8e3;stop-opacity:1.0000000;" />
    </linearGradient>
    <linearGradient
       gradientUnits="userSpaceOnUse"
       gradientTransform="matrix(0.19709627,0,0,0.20150128,26.311997,54.853398)"
       id="linearGradient1499"
       x1="687.96375"
       x2="330.88034"
       xlink:href="#linearGradient1501"
       y1="236.12772"
       y2="418.53635" />
    <linearGradient
       id="linearGradient1501">
      <stop
         id="stop1502"
         offset="0.0000000"
         style="stop-color:#ffffff;stop-opacity:1.0000000;" />
      <stop
         id="stop1504"
         offset="1.0000000"
         style="stop-color:#ffffff;stop-opacity:0.0000000;" />
    </linearGradient>
    <linearGradient
       gradientUnits="userSpaceOnUse"
       gradientTransform="matrix(0.64175902,0,0,0.70303796,74.134357,77.73032)"
       id="linearGradient1495"
       x1="141.7587"
       x2="29.829756"
       xlink:href="#linearGradient1492"
       y1="35.720387"
       y2="172.13377" />
    <linearGradient
       id="linearGradient1492">
      <stop
         id="stop1493"
         offset="0.0000000"
         style="stop-color:#c0c0c0;stop-opacity:1.0000000;" />
      <stop
         id="stop1496"
         offset="0.34923077"
         style="stop-color:#f1f1f1;stop-opacity:1.0000000;" />
      <stop
         id="stop1494"
         offset="1.0000000"
         style="stop-color:#f0f0f0;stop-opacity:1.0000000;" />
    </linearGradient>
    <radialGradient
       gradientUnits="userSpaceOnUse"
       cx="24.825565"
       cy="176.56438"
       fx="27.010122"
       fy="137.43433"
       id="radialGradient1505"
       r="51.667702"
       xlink:href="#linearGradient1806" />
    <linearGradient
       id="linearGradient3131">
      <stop
         id="stop3133"
         offset="0.0000000"
         style="stop-color:#000000;stop-opacity:0.40677965;" />
      <stop
         id="stop3135"
         offset="0.64777780"
         style="stop-color:#000000;stop-opacity:0.073446326;" />
      <stop
         id="stop3137"
         offset="1.0000000"
         style="stop-color:#000000;stop-opacity:0.0000000;" />
    </linearGradient>
    <linearGradient
       gradientUnits="userSpaceOnUse"
       gradientTransform="matrix(1.4555233,0,0,1.1032194,27.180416,33.197182)"
       y2="55.645184"
       x2="71.570862"
       y1="21.297535"
       x1="71.570862"
       id="linearGradient3154"
       xlink:href="#linearGradient1520"
       inkscape:collect="always" />
    <linearGradient
       id="linearGradient1520">
      <stop
         id="stop1522"
         offset="0.0000000"
         style="stop-color:#bab5ab;stop-opacity:1.0000000;" />
      <stop
         id="stop1523"
         offset="1.0000000"
         style="stop-color:#807d74;stop-opacity:1.0000000;" />
    </linearGradient>
    <filter
       color-interpolation-filters="sRGB"
       inkscape:collect="always"
       id="filter4527">
      <feGaussianBlur
         inkscape:collect="always"
         stdDeviation="2.0688067"
         id="feGaussianBlur4529" />
    </filter>
  </defs>
  <sodipodi:namedview
     id="base"
     pagecolor="#ffffff"
     bordercolor="#666666"
     borderopacity="1.0"
     gridtolerance="10000"
     guidetolerance="10"
     objecttolerance="10"
     inkscape:pageopacity="0.0"
     inkscape:pageshadow="2"
     inkscape:zoom="1.8203125"
     inkscape:cx="155.93435"
     inkscape:cy="140.22834"
     inkscape:document-units="px"
     inkscape:current-layer="layer1"
     showgrid="false"
     showguides="true"
     inkscape:guide-bbox="true"
     inkscape:window-width="773"
     inkscape:window-height="676"
     inkscape:window-x="468"
     inkscape:window-y="104"
     inkscape:window-maximized="0" />
  <metadata
     id="metadata7">
    <rdf:RDF>
      <cc:Work
         rdf:about="">
        <dc:format>image/svg+xml</dc:format>
        <dc:type
           rdf:resource="http://purl.org/dc/dcmitype/StillImage" />
        <dc:title></dc:title>
      </cc:Work>
    </rdf:RDF>
  </metadata>
  <g
     inkscape:label="Layer 1"
     inkscape:groupmode="layer"
     id="layer1">
    <rect
       style="opacity:1;fill:url(#linearGradient4619);fill-opacity:1;stroke:url(#linearGradient4611);stroke-width:2;stroke-miterlimit:4;stroke-dasharray:none;stroke-opacity:1"
       id="rect2383"
       width="209.543"
       height="209.543"
       x="75.938042"
       y="-106.63853"
       ry="61.030819"
       transform="matrix(0.6997472,0.7143906,-0.7143906,0.6997472,0,0)" />
    <rect
       style="opacity:0.26851852;fill:url(#linearGradient4599);fill-opacity:1;stroke:none;stroke-width:2;stroke-miterlimit:4;stroke-dasharray:none;stroke-opacity:1"
       id="rect4597"
       width="198.18179"
       height="232.08572"
       x="78.369324"
       y="-117.6895"
       ry="67.596573"
       transform="matrix(0.7600468,0.6498684,-0.7370851,0.6758,0,0)" />
    <rect
       transform="matrix(-0.796691,0.6043868,0.6617245,0.7497471,0,0)"
       ry="58.891621"
       y="73.156349"
       x="-116.51585"
       height="202.19823"
       width="173.94705"
       id="rect3188"
       style="opacity:0.27777778;fill:url(#linearGradient3196);fill-opacity:1;stroke:none;stroke-width:2;stroke-miterlimit:4;stroke-dasharray:none;stroke-opacity:1" />
    <path
       sodipodi:nodetypes="ccc"
       id="path2276"
       d="m 109.44466,43.545056 0,-4.454435 0,4.454435 z"
       style="fill:#ffffff;fill-opacity:0.75688076;fill-rule:nonzero;stroke:none"
       inkscape:connector-curvature="0" />
    <path
       sodipodi:type="arc"
       style="opacity:0.88793137;fill:#000000;fill-opacity:1;stroke:none"
       id="path3047"
       sodipodi:cx="86.875504"
       sodipodi:cy="126.20081"
       sodipodi:rx="7.7108436"
       sodipodi:ry="6.9397593"
       d="m 94.586347,126.20081 a 7.7108436,6.9397593 0 1 1 -15.421687,0 7.7108436,6.9397593 0 1 1 15.421687,0 z"
       transform="matrix(0.94862541,0,0,0.94862541,9.1398492,14.969884)" />
    <path
       transform="matrix(0.94862541,0,0,0.94862541,63.268647,15.45753)"
       d="m 94.586347,126.20081 a 7.7108436,6.9397593 0 1 1 -15.421687,0 7.7108436,6.9397593 0 1 1 15.421687,0 z"
       sodipodi:ry="6.9397593"
       sodipodi:rx="7.7108436"
       sodipodi:cy="126.20081"
       sodipodi:cx="86.875504"
       id="path3049"
       style="opacity:0.88793137;fill:#000000;fill-opacity:1;stroke:none"
       sodipodi:type="arc" />
    <rect
       transform="matrix(1.1427437,0.6597634,-0.6597634,1.1427437,124.02644,1.7154031)"
       y="78.610489"
       x="-2.8486323"
       height="7.7504797"
       width="53.090786"
       id="rect3739"
       style="fill:#000000;fill-opacity:1;stroke:none;filter:url(#filter4527)" />
    <rect
       style="fill:#000000;fill-opacity:1;stroke:none;filter:url(#filter4527)"
       id="rect3741"
       width="53.090786"
       height="7.7504797"
       x="-98.519241"
       y="79.345421"
       transform="matrix(1.1427437,-0.6597634,0.6597634,1.1427437,124.02644,1.7154031)" />
    <rect
       y="93.167717"
       x="-0.9637441"
       height="5.0378122"
       width="5.0378118"
       id="rect3743"
       style="fill:#000000;fill-opacity:1;stroke:none;filter:url(#filter4527)"
       transform="matrix(1.3195267,0,0,1.3195267,124.02644,1.7154031)" />
    <rect
       y="116.18289"
       x="8.733757"
       height="7.7504797"
       width="53.090786"
       id="rect3745"
       style="fill:#000000;fill-opacity:1;stroke:none;filter:url(#filter4527)"
       transform="matrix(1.3195267,0,0,1.3195267,124.02644,1.7154031)" />
    <path
       inkscape:connector-curvature="0"
       d="m 61.614913,157.6499 0,-90.255845 c 0,-9.12132 4.496959,-15.706888 13.945708,-15.706888 l 46.185809,0 c 9.44874,0 10.59511,15.406619 20.04384,15.406619 l 52.61507,0 c 4.26606,0 7.51645,4.412775 7.51645,9.48321 l 0,81.072904 -140.306877,0 z"
       id="path1502"
       sodipodi:nodetypes="cczzzzzcc"
       style="fill:url(#linearGradient3154);fill-rule:evenodd;stroke:#565248;stroke-width:1.58398318;stroke-opacity:0.33962265" />
    <path
       d="m 82.055313,175.83524 a 56.143108,56.143108 0 1 1 -112.286217,0 56.143108,56.143108 0 1 1 112.286217,0 z"
       id="path1809"
       sodipodi:cx="25.912205"
       sodipodi:cy="175.83524"
       sodipodi:rx="56.143108"
       sodipodi:ry="56.143108"
       sodipodi:type="arc"
       style="fill:url(#radialGradient1505);fill-opacity:1;fill-rule:evenodd;stroke-width:1pt"
       transform="matrix(1.6762701,0,0,0.41070585,86.7432,106.84943)" />
    <g
       id="g1527"
       style="fill-opacity:0.03773582"
       transform="matrix(1.1746059,0,0,1.3175941,-45.432303,-28.996409)">
      <path
         inkscape:connector-curvature="0"
         d="m 77.77611,171.71342 5.824529,-15.8773 c 0.534542,-1.45715 4.92402,-3.11375 9.313997,-3.11375 l 114.096544,0 c 3.88007,0 6.35374,1.83352 6.98551,3.11375 l 7.8352,15.8773 c 1.40595,2.84906 -3.32163,5.71031 -10.23774,5.71031 l -123.580301,0 c -6.916108,0 -11.288954,-2.84478 -10.237739,-5.71031 z"
         id="path2363"
         sodipodi:nodetypes="czzzzzzzz"
         style="fill-rule:evenodd;stroke-width:1.2259742;stroke-opacity:0.2827225" />
      <path
         inkscape:connector-curvature="0"
         d="m 81.210337,170.03356 5.546998,-14.03787 c 0.509073,-1.28832 4.689398,-2.753 8.870199,-2.753 l 108.660016,0 c 3.69519,0 6.05099,1.62109 6.65265,2.753 l 7.46187,14.03787 c 1.33896,2.51899 -3.16336,5.04876 -9.74992,5.04876 l -117.691888,0 c -6.586565,0 -10.751051,-2.51521 -9.749925,-5.04876 z"
         id="path1525"
         sodipodi:nodetypes="czzzzzzzz"
         style="fill-rule:evenodd;stroke-width:1.2259742;stroke-opacity:0.2827225" />
      <path
         inkscape:connector-curvature="0"
         d="m 88.078791,168.67401 4.991937,-12.03122 c 0.458133,-1.10417 4.220154,-2.35948 7.982602,-2.35948 l 97.78695,0 c 3.32543,0 5.44549,1.38937 5.98695,2.35948 l 6.7152,12.03122 c 1.20497,2.15891 -2.84682,4.32706 -8.7743,4.32706 l -105.915041,0 c -5.92748,0 -9.675247,-2.15567 -8.774298,-4.32706 z"
         id="path1526"
         sodipodi:nodetypes="czzzzzzzz"
         style="fill-rule:evenodd;stroke-width:1.2259742;stroke-opacity:0.2827225" />
    </g>
    <path
       inkscape:connector-curvature="0"
       d="m 85.660318,81.981707 0,24.677753 0,24.67774 0,24.67777 0,24.67773 22.520502,0 22.52054,0 22.52053,0 22.52051,0 0,-24.67773 0,-24.67777 0,-24.67774 -22.52051,-24.677753 -22.52053,0 -22.52054,0 -22.520502,0 z"
       id="path930"
       sodipodi:nodetypes="cccccccccccccccc"
       style="fill:#ffffff;fill-rule:evenodd;stroke-width:0.42649043;stroke-opacity:0.36477984" />
    <g
       id="g1552"
       style="fill-opacity:0.06918233"
       transform="matrix(0.2043123,0,0,0.19987967,49.480282,2.1721218)">
      <path
         inkscape:connector-curvature="0"
         d="m 173.35959,408.8126 0,122.261 0,122.261 0,122.261 0,122.261 108.76228,0 108.7623,0 108.76229,0 108.76228,0 0,-122.261 0,-122.261 0,-122.261 -108.76228,-122.261 -108.76229,0 -108.7623,0 -108.76228,0 z"
         id="path1505"
         sodipodi:nodetypes="cccccccccccccccc"
         style="fill-rule:evenodd;stroke-width:0.95407495pt" />
      <path
         inkscape:connector-curvature="0"
         d="m 170.125,407.1875 c 0,164.63542 0,329.27083 0,493.90625 147.17708,0 294.35417,0 441.53125,0 0,-123.76042 0,-247.52083 0,-371.28125 -36.84707,-41.42272 -73.68021,-82.85915 -110.5625,-124.25 -110.32292,0 -220.64583,0 -330.96875,0 0,0.33333 0,1.41667 0,1.625 z"
         id="path1538"
         style="fill-rule:evenodd;stroke-width:0.95407495pt" />
      <path
         inkscape:connector-curvature="0"
         d="m 166.875,403.9375 c 0,166.80208 0,333.60417 0,500.40625 149.34375,0 298.6875,0 448.03125,0 0,-125.26042 0,-250.52083 0,-375.78125 -37.45108,-42.08952 -74.88871,-84.19233 -112.375,-126.25 -111.88542,0 -223.77083,0 -335.65625,0 0,0.33333 0,1.41667 0,1.625 z"
         id="path1543"
         style="fill-rule:evenodd;stroke-width:0.95407495pt" />
    </g>
    <path
       inkscape:connector-curvature="0"
       d="m 175.88701,82.240763 0,24.677757 0,24.67774 0,24.67775 0,24.67775 -22.5205,0 -22.52052,0 -22.52052,0 -22.520519,0 0,-24.67775 0,-24.67775 0.09726,-49.355497 44.943764,0 22.52052,0 22.5205,0 z"
       id="path989"
       sodipodi:nodetypes="ccccccccccccccc"
       style="fill:#ffffff;fill-rule:evenodd;stroke-width:0.22607063;stroke-opacity:0.36477984" />
    <path
       inkscape:connector-curvature="0"
       d="m 175.77937,82.10407 0,24.67777 0,24.67773 0,24.67775 0,24.67777 -22.52053,0 -22.52051,0 -22.52052,0 -22.520507,0 0,-24.67777 0,-24.67775 0.09727,-49.3555 44.943757,0 22.52051,0 22.52053,0 z"
       id="rect900"
       sodipodi:nodetypes="ccccccccccccccc"
       style="fill:url(#linearGradient1495);fill-opacity:1;fill-rule:evenodd;stroke:#000000;stroke-width:0.28647363;stroke-opacity:0.36477984" />
    <path
       inkscape:connector-curvature="0"
       d="m 86.358358,89.710357 -0.405719,90.475273 88.446661,0 0.0507,-22.36526 c -1.97786,0.76074 -21.95952,-27.53815 -47.11406,-26.32099 -25.17737,1.21827 -18.66304,-38.137557 -40.977556,-41.789023 z"
       id="path1500"
       sodipodi:nodetypes="cccczc"
       style="fill:url(#linearGradient1499);fill-opacity:1;fill-rule:evenodd;stroke-width:1pt" />
    <path
       inkscape:connector-curvature="0"
       d="m 47.886391,129.31455 6.741586,55.12639 c 0.618703,5.05917 5.699295,10.81091 10.780468,10.81091 l 132.060805,0 c 4.49098,0 7.35414,-6.36601 8.08536,-10.81091 l 9.06882,-55.12639 c 1.62733,-9.89198 -3.84461,-19.82628 -11.84965,-19.82628 l -143.037744,0 c -8.005034,0 -13.06637,9.87708 -11.849645,19.82628 z"
       id="path1501"
       sodipodi:nodetypes="czzzzzzzz"
       style="fill:url(#linearGradient1507);fill-rule:evenodd;stroke:#807d74;stroke-width:1.58646631;stroke-opacity:0.33962265" />
    <path
       inkscape:connector-curvature="0"
       d="m 49.183533,127.94638 c -0.277477,1.20061 4.90808,-10.58324 13.699795,-10.58324 l 134.300872,0 c 10.81546,0 14.27734,11.78385 14.55482,10.58324 0.2775,-1.2006 5.80368,-17.78694 -14.33136,-17.78694 l -133.892779,0 c -17.038406,0 -14.053878,16.58634 -14.331348,17.78694 z"
       id="path1503"
       sodipodi:nodetypes="czzzzzz"
       style="fill:url(#linearGradient1516);fill-rule:evenodd;stroke-width:0.90415878pt" />
    <path
       inkscape:connector-curvature="0"
       d="m 59.815782,150.20625 3.263537,28.37496 c 0.600492,5.22103 4.397095,11.45727 12.311821,11.41165 l 107.05169,-0.61685 c 9.66607,-0.0559 18.53126,-5.01728 18.63748,-11.41164 l 0.4662,-28.06655 -141.730728,0.30843 z"
       id="path2521"
       sodipodi:nodetypes="czzzzcc"
       style="fill:url(#linearGradient1506);fill-opacity:1;fill-rule:evenodd;stroke-width:1pt" />
  </g>
</svg>
