<?xml version="1.0" encoding="UTF-8" standalone="no"?>
<!-- Created with Inkscape (http://www.inkscape.org/) -->

<svg
   xmlns:dc="http://purl.org/dc/elements/1.1/"
   xmlns:cc="http://creativecommons.org/ns#"
   xmlns:rdf="http://www.w3.org/1999/02/22-rdf-syntax-ns#"
   xmlns:svg="http://www.w3.org/2000/svg"
   xmlns="http://www.w3.org/2000/svg"
   xmlns:xlink="http://www.w3.org/1999/xlink"
   xmlns:sodipodi="http://sodipodi.sourceforge.net/DTD/sodipodi-0.dtd"
   xmlns:inkscape="http://www.inkscape.org/namespaces/inkscape"
   width="256"
   height="256"
   id="svg2"
   sodipodi:version="0.32"
   inkscape:version="0.47pre0 r21549"
   version="1.0"
   sodipodi:docname="firefox-3.0.svg"
   inkscape:output_extension="org.inkscape.output.svg.inkscape">
  <defs
     id="defs4">
    <filter
       inkscape:collect="always"
       id="filter3997"
       x="-0.29494259"
       width="1.5898852"
       y="-0.28522035"
       height="1.5704406">
      <feGaussianBlur
         inkscape:collect="always"
         stdDeviation="8.9388823"
         id="feGaussianBlur3999" />
    </filter>
    <linearGradient
       inkscape:collect="always"
       id="linearGradient3432">
      <stop
         style="stop-color:#fef4f4;stop-opacity:1;"
         offset="0"
         id="stop3434" />
      <stop
         style="stop-color:#fef4f4;stop-opacity:0;"
         offset="1"
         id="stop3436" />
    </linearGradient>
    <linearGradient
       inkscape:collect="always"
       xlink:href="#linearGradient3432"
       id="linearGradient4012"
       gradientUnits="userSpaceOnUse"
       x1="438.63504"
       y1="161.81172"
       x2="415.89233"
       y2="732.50494" />
    <filter
       inkscape:collect="always"
       id="filter3410">
      <feGaussianBlur
         inkscape:collect="always"
         stdDeviation="6.2623725"
         id="feGaussianBlur3412" />
    </filter>
    <linearGradient
       inkscape:collect="always"
       id="linearGradient3254">
      <stop
         style="stop-color:#fffd00;stop-opacity:1;"
         offset="0"
         id="stop3256" />
      <stop
         style="stop-color:#fffd00;stop-opacity:0;"
         offset="1"
         id="stop3258" />
    </linearGradient>
    <linearGradient
       inkscape:collect="always"
       xlink:href="#linearGradient3254"
       id="linearGradient4010"
       gradientUnits="userSpaceOnUse"
       x1="414.02133"
       y1="27.532812"
       x2="389.64221"
       y2="593.24713" />
    <linearGradient
       inkscape:collect="always"
       id="linearGradient3244">
      <stop
         style="stop-color:#f73924;stop-opacity:1;"
         offset="0"
         id="stop3246" />
      <stop
         style="stop-color:#f73924;stop-opacity:0;"
         offset="1"
         id="stop3248" />
    </linearGradient>
    <radialGradient
       inkscape:collect="always"
       xlink:href="#linearGradient3244"
       id="radialGradient4008"
       gradientUnits="userSpaceOnUse"
       gradientTransform="matrix(-2.0799059,0.4085072,-0.4280988,-2.179656,1024.2351,1062.8932)"
       cx="215.88316"
       cy="400.11893"
       fx="215.88316"
       fy="400.11893"
       r="347.04944" />
    <linearGradient
       inkscape:collect="always"
       id="linearGradient4613">
      <stop
         style="stop-color:#000000;stop-opacity:1;"
         offset="0"
         id="stop4615" />
      <stop
         style="stop-color:#000000;stop-opacity:0;"
         offset="1"
         id="stop4617" />
    </linearGradient>
    <linearGradient
       inkscape:collect="always"
       id="linearGradient4605">
      <stop
         style="stop-color:#f70000;stop-opacity:1;"
         offset="0"
         id="stop4607" />
      <stop
         style="stop-color:#000000;stop-opacity:1"
         offset="1"
         id="stop4609" />
    </linearGradient>
    <linearGradient
       id="linearGradient4591"
       inkscape:collect="always">
      <stop
         id="stop4593"
         offset="0"
         style="stop-color:#ffffff;stop-opacity:1" />
      <stop
         id="stop4595"
         offset="1"
         style="stop-color:#ffffff;stop-opacity:0;" />
    </linearGradient>
    <mask
       maskUnits="userSpaceOnUse"
       x="122.963"
       y="97.149"
       width="576.609"
       height="587.491"
       id="XMLID_23_">
      <g
         id="g31"
         style="filter:url(#Adobe_OpacityMaskFilter)">
        <radialGradient
           id="XMLID_24_"
           cx="88.977501"
           cy="-20.899401"
           r="673.11609"
           fx="88.977501"
           fy="-20.899401"
           gradientUnits="userSpaceOnUse">
          <stop
             offset="0.309"
             style="stop-color:#FFFFFF"
             id="stop34" />
          <stop
             offset="1"
             style="stop-color:#000000"
             id="stop3816" />
        </radialGradient>
        <ellipse
           sodipodi:ry="349.10599"
           sodipodi:rx="512.93402"
           sodipodi:cy="286.172"
           sodipodi:cx="295.89499"
           cx="295.89499"
           cy="286.172"
           rx="512.93402"
           ry="349.10599"
           id="ellipse38"
           style="fill:url(#XMLID_24_)" />
      </g>
    </mask>
    <linearGradient
       inkscape:collect="always"
       xlink:href="#linearGradient4591"
       id="linearGradient3196"
       x1="99.881126"
       y1="68.792747"
       x2="171.01328"
       y2="46.998337"
       gradientUnits="userSpaceOnUse"
       gradientTransform="matrix(0.8301257,0,0,0.9649488,-179.55402,176.05704)" />
    <linearGradient
       inkscape:collect="always"
       xlink:href="#linearGradient4591"
       id="linearGradient4599"
       gradientUnits="userSpaceOnUse"
       gradientTransform="matrix(0.9457809,0,0,1.1075807,6.5485589,0.4212711)"
       x1="104.92213"
       y1="71.555038"
       x2="161.92285"
       y2="35.137646" />
    <linearGradient
       inkscape:collect="always"
       xlink:href="#linearGradient4605"
       id="linearGradient4611"
       x1="168.56552"
       y1="-13.762122"
       x2="206.93968"
       y2="23.825462"
       gradientUnits="userSpaceOnUse" />
    <linearGradient
       inkscape:collect="always"
       xlink:href="#linearGradient4613"
       id="linearGradient4619"
       x1="168.56552"
       y1="-13.762122"
       x2="351.36194"
       y2="165.28738"
       gradientUnits="userSpaceOnUse" />
  </defs>
  <sodipodi:namedview
     id="base"
     pagecolor="#ffffff"
     bordercolor="#666666"
     borderopacity="1.0"
     gridtolerance="10000"
     guidetolerance="10"
     objecttolerance="10"
     inkscape:pageopacity="0.0"
     inkscape:pageshadow="2"
     inkscape:zoom="1.2871553"
     inkscape:cx="128"
     inkscape:cy="97.383295"
     inkscape:document-units="px"
     inkscape:current-layer="layer1"
     showgrid="false"
     showguides="true"
     inkscape:guide-bbox="true"
     inkscape:window-width="773"
     inkscape:window-height="676"
     inkscape:window-x="301"
     inkscape:window-y="111" />
  <metadata
     id="metadata7">
    <rdf:RDF>
      <cc:Work
         rdf:about="">
        <dc:format>image/svg+xml</dc:format>
        <dc:type
           rdf:resource="http://purl.org/dc/dcmitype/StillImage" />
      </cc:Work>
    </rdf:RDF>
  </metadata>
  <g
     inkscape:label="Layer 1"
     inkscape:groupmode="layer"
     id="layer1">
    <rect
       style="opacity:1;fill:url(#linearGradient4619);fill-opacity:1;stroke:url(#linearGradient4611);stroke-width:2;stroke-miterlimit:4;stroke-dasharray:none;stroke-opacity:1"
       id="rect2383"
       width="209.543"
       height="209.543"
       x="75.938042"
       y="-106.63853"
       ry="61.030819"
       transform="matrix(0.6997472,0.7143906,-0.7143906,0.6997472,0,0)" />
    <rect
       style="opacity:0.26851852;fill:url(#linearGradient4599);fill-opacity:1;stroke:none;stroke-width:2;stroke-miterlimit:4;stroke-dasharray:none;stroke-opacity:1"
       id="rect4597"
       width="198.18179"
       height="232.08572"
       x="78.369324"
       y="-117.6895"
       ry="67.596573"
       transform="matrix(0.7600468,0.6498684,-0.7370851,0.6758,0,0)" />
    <rect
       transform="matrix(-0.796691,0.6043868,0.6617245,0.7497471,0,0)"
       ry="58.891621"
       y="73.156349"
       x="-116.51585"
       height="202.19823"
       width="173.94705"
       id="rect3188"
       style="opacity:0.27777778;fill:url(#linearGradient3196);fill-opacity:1;stroke:none;stroke-width:2;stroke-miterlimit:4;stroke-dasharray:none;stroke-opacity:1" />
    <path
       sodipodi:nodetypes="ccc"
       id="path2276"
       d="M 108.10388,41.662742 L 108.10388,37.156303 L 108.10388,41.662742 z"
       style="fill:#ffffff;fill-opacity:0.75688076;fill-rule:nonzero;stroke:none;stroke-width:0.5;stroke-linecap:round;stroke-linejoin:round;stroke-miterlimit:4;stroke-dasharray:none;stroke-dashoffset:4;stroke-opacity:1" />
    <g
       id="g3380"
       transform="matrix(0.1995235,0,0,0.1995235,51.221861,58.983215)"
       style="opacity:0.96759259">
      <g
         transform="translate(5.7142857,-38.857143)"
         id="g4001">
        <path
           style="fill:#000000"
           d="M 323.52439,680.58044 C 305.80798,678.86444 278.9888,672.61964 253.29417,664.22754 C 238.3973,659.36204 191.18105,636.51133 188.61499,632.92546 C 188.0166,632.08926 183.61028,629.0605 178.82317,626.19492 C 174.03607,623.32933 169.62975,620.44347 169.03136,619.78191 C 168.43297,619.12033 162.55789,614.05331 155.97561,608.52185 C 136.86304,592.46043 127.25774,582.69194 113.44442,565.26809 C 106.32855,556.29226 99.980738,548.45881 99.338188,547.86042 C 98.695628,547.26204 94.807039,541.38695 90.696865,534.80468 C 86.586691,528.2224 82.682167,522.34732 82.020147,521.74893 C 81.358127,521.15054 79.647349,518.213 78.218421,515.22105 C 76.789491,512.22911 72.85025,504.88525 69.464548,498.90137 C 54.868189,473.10377 40.135975,432.10198 35.063764,403.15921 C 32.781282,390.13503 29.945116,380.43938 27.998979,379.00771 C 25.304244,377.0253 24.958225,372.18207 25.978014,350.72025 C 26.654769,336.47771 28.4427,318.22051 29.951196,310.14871 C 32.160142,298.32888 32.158534,294.47234 29.942933,290.33245 C 27.62691,286.00493 27.949067,282.494 31.980481,268.12691 C 37.585836,248.15061 51.499055,215.22799 59.35143,203.35947 C 64.392226,195.74053 64.908222,192.73336 65.511998,167.45616 C 65.87443,152.28283 67.424946,134.97237 68.957585,128.98849 C 74.716604,106.50355 93.16105,72.523593 97.109048,77.125423 C 97.965958,78.124233 99.898848,83.347763 101.40437,88.733263 C 104.27583,99.004963 112.45949,112.89898 123.19244,125.72455 L 129.5657,133.3404 L 167.25019,133.3802 C 187.97665,133.40209 208.47832,134.22139 212.80944,135.20086 C 220.12828,136.85599 221.51078,136.27165 232.39306,126.92344 C 238.83292,121.39139 245.12575,116.06934 246.3771,115.09667 C 251.31494,111.25847 283.88192,99.925833 294.14896,98.473043 L 305.02875,96.933553 L 292.55627,109.15981 C 278.86081,122.58491 267.75543,143.17258 265.55693,159.21248 C 264.32166,168.22478 264.78926,169.35982 273.75808,179.11973 C 286.16548,192.62154 293.18453,195.32122 316.38264,195.51406 C 364.28212,195.91224 372.58,202.37786 352.60207,223.73589 C 347.05281,229.6685 341.65726,234.52246 340.61198,234.52246 C 339.56669,234.52246 333.5808,238.13845 327.31,242.55799 C 321.03919,246.97753 311.706,253.43927 306.56957,256.9174 C 291.59521,267.05725 289.82744,271.14764 292.75591,288.88024 C 295.69496,306.67679 295.93694,317.20886 293.4068,317.20886 C 292.40023,317.20886 286.76994,315.75069 280.89504,313.96847 C 266.6025,309.63268 260.70289,309.86244 252.13081,315.08868 C 239.19979,322.97252 235.20554,341.11418 242.80105,357.46409 C 251.71355,376.64892 282.12266,397.68322 305.61698,400.91451 C 316.13908,402.36168 342.10912,398.98672 346.37196,395.61814 C 351.90089,391.2491 382.98276,382.48761 392.95324,382.48761 C 407.58405,382.48761 423.31427,388.72131 434.27571,398.86322 C 447.92103,411.48834 444.81663,421.61042 427.27097,421.70264 C 417.38883,421.75458 402.46455,427.61256 396.00748,433.97398 C 390.83562,439.06922 377.18157,448.0121 365.38678,454.02937 C 352.34241,460.6841 325.92099,465.35268 301.22082,465.36733 C 274.39905,465.38321 273.78273,467.84072 296.86891,482.71975 C 342.48754,512.12092 375.38892,522.83214 414.91464,521.15015 C 443.56015,519.93115 458.21899,516.70636 474.53646,508.03395 C 490.62545,499.48298 518.59909,473.39183 534.074,452.50302 C 540.56674,443.73881 546.32683,437.01592 546.87419,437.56331 C 547.42157,438.11069 545.86126,446.42372 543.40684,456.03675 C 538.17092,476.54381 537.83865,482.58168 541.94608,482.58168 C 546.31784,482.58168 559.14664,465.81014 564.41576,453.20625 C 575.02904,427.81891 581.81009,380.20139 579.05713,350.39223 C 577.8594,337.42308 578.15887,334.61653 580.7405,334.61653 C 584.75285,334.61653 592.39073,342.91859 594.367,349.42799 C 596.45921,356.31921 602.3942,354.67194 604.61269,346.5843 C 610.68666,324.44134 612.97349,267.61532 608.94723,238.87437 C 607.85748,231.09532 607.40129,224.24925 607.93351,223.66088 C 608.46571,223.07251 613.28791,227.23403 618.64952,232.9087 C 624.01112,238.58337 629.32322,243.22629 630.45418,243.22629 C 634.30417,243.22629 632.52391,233.38432 625.72358,217.07358 C 609.45433,178.0515 578.61321,144.38764 540.8116,124.39007 C 536.79263,122.26397 522.7872,116.92065 509.68843,112.51602 L 485.87251,104.50761 L 497.72066,101.96646 C 504.23716,100.56883 518.66907,98.827473 529.79159,98.096773 C 546.70527,96.985613 549.90632,96.199853 549.35424,93.294733 C 548.16801,87.052713 526.48537,77.726753 494.88291,69.865963 C 477.82784,65.623693 462.94348,61.279093 461.80654,60.211293 C 457.96628,56.604573 481.29816,58.195973 509.92152,63.493083 C 547.8543,70.513033 579.86691,80.684483 597.38175,91.282063 C 621.76664,106.03647 644.81944,131.19112 658.35991,157.81993 C 667.84532,176.47406 672.58654,166.3218 666.48948,140.41227 C 664.87013,133.5308 664.16826,127.90051 664.9298,127.90051 C 666.81585,127.90051 681.85956,160.0156 687.14307,175.32118 C 691.75199,188.67247 702.40004,239.87479 706.46856,268.24981 C 710.27453,294.7938 710.48588,295.44928 715.23832,295.44928 C 718.9907,295.44928 719.54879,296.93675 719.54879,306.93804 C 719.54879,322.71726 713.74546,368.37199 708.56246,393.3674 C 692.01243,473.18126 659.4411,538.48818 613.01146,584.95133 C 588.68111,609.29925 584.24409,613.0414 563.6466,626.58557 C 498.56113,669.38334 411.06054,689.05914 323.52439,680.58044 z"
           id="path2470" />
        <path
           id="path2472"
           d="M 323.52439,680.58044 C 305.80798,678.86444 278.9888,672.61964 253.29417,664.22754 C 238.3973,659.36204 191.18105,636.51133 188.61499,632.92546 C 188.0166,632.08926 183.61028,629.0605 178.82317,626.19492 C 174.03607,623.32933 169.62975,620.44347 169.03136,619.78191 C 168.43297,619.12033 162.55789,614.05331 155.97561,608.52185 C 136.86304,592.46043 127.25774,582.69194 113.44442,565.26809 C 106.32855,556.29226 99.980738,548.45881 99.338188,547.86042 C 98.695628,547.26204 94.807039,541.38695 90.696865,534.80468 C 86.586691,528.2224 82.682167,522.34732 82.020147,521.74893 C 81.358127,521.15054 79.647349,518.213 78.218421,515.22105 C 76.789491,512.22911 72.85025,504.88525 69.464548,498.90137 C 54.868189,473.10377 40.135975,432.10198 35.063764,403.15921 C 32.781282,390.13503 29.945116,380.43938 27.998979,379.00771 C 25.304244,377.0253 24.958225,372.18207 25.978014,350.72025 C 26.654769,336.47771 28.4427,318.22051 29.951196,310.14871 C 32.160142,298.32888 32.158534,294.47234 29.942933,290.33245 C 27.62691,286.00493 27.949067,282.494 31.980481,268.12691 C 37.585836,248.15061 51.499055,215.22799 59.35143,203.35947 C 64.392226,195.74053 64.908222,192.73336 65.511998,167.45616 C 65.87443,152.28283 67.424946,134.97237 68.957585,128.98849 C 74.716604,106.50355 93.16105,72.523593 97.109048,77.125423 C 97.965958,78.124233 99.898848,83.347763 101.40437,88.733263 C 104.27583,99.004963 112.45949,112.89898 123.19244,125.72455 L 129.5657,133.3404 L 167.25019,133.3802 C 187.97665,133.40209 208.47832,134.22139 212.80944,135.20086 C 220.12828,136.85599 221.51078,136.27165 232.39306,126.92344 C 238.83292,121.39139 245.12575,116.06934 246.3771,115.09667 C 251.31494,111.25847 283.88192,99.925833 294.14896,98.473043 L 305.02875,96.933553 L 292.55627,109.15981 C 278.86081,122.58491 267.75543,143.17258 265.55693,159.21248 C 264.32166,168.22478 264.78926,169.35982 273.75808,179.11973 C 286.16548,192.62154 293.18453,195.32122 316.38264,195.51406 C 364.28212,195.91224 372.58,202.37786 352.60207,223.73589 C 347.05281,229.6685 341.65726,234.52246 340.61198,234.52246 C 339.56669,234.52246 333.5808,238.13845 327.31,242.55799 C 321.03919,246.97753 311.706,253.43927 306.56957,256.9174 C 291.59521,267.05725 289.82744,271.14764 292.75591,288.88024 C 295.69496,306.67679 295.93694,317.20886 293.4068,317.20886 C 292.40023,317.20886 286.76994,315.75069 280.89504,313.96847 C 266.6025,309.63268 260.70289,309.86244 252.13081,315.08868 C 239.19979,322.97252 235.20554,341.11418 242.80105,357.46409 C 251.71355,376.64892 282.12266,397.68322 305.61698,400.91451 C 316.13908,402.36168 342.10912,398.98672 346.37196,395.61814 C 351.90089,391.2491 382.98276,382.48761 392.95324,382.48761 C 407.58405,382.48761 423.31427,388.72131 434.27571,398.86322 C 447.92103,411.48834 444.81663,421.61042 427.27097,421.70264 C 417.38883,421.75458 402.46455,427.61256 396.00748,433.97398 C 390.83562,439.06922 377.18157,448.0121 365.38678,454.02937 C 352.34241,460.6841 325.92099,465.35268 301.22082,465.36733 C 274.39905,465.38321 273.78273,467.84072 296.86891,482.71975 C 342.48754,512.12092 375.38892,522.83214 414.91464,521.15015 C 443.56015,519.93115 458.21899,516.70636 474.53646,508.03395 C 490.62545,499.48298 518.59909,473.39183 534.074,452.50302 C 540.56674,443.73881 546.32683,437.01592 546.87419,437.56331 C 547.42157,438.11069 545.86126,446.42372 543.40684,456.03675 C 538.17092,476.54381 537.83865,482.58168 541.94608,482.58168 C 546.31784,482.58168 559.14664,465.81014 564.41576,453.20625 C 575.02904,427.81891 581.81009,380.20139 579.05713,350.39223 C 577.8594,337.42308 578.15887,334.61653 580.7405,334.61653 C 584.75285,334.61653 592.39073,342.91859 594.367,349.42799 C 596.45921,356.31921 602.3942,354.67194 604.61269,346.5843 C 610.68666,324.44134 612.97349,267.61532 608.94723,238.87437 C 607.85748,231.09532 607.40129,224.24925 607.93351,223.66088 C 608.46571,223.07251 613.28791,227.23403 618.64952,232.9087 C 624.01112,238.58337 629.32322,243.22629 630.45418,243.22629 C 634.30417,243.22629 632.52391,233.38432 625.72358,217.07358 C 609.45433,178.0515 578.61321,144.38764 540.8116,124.39007 C 536.79263,122.26397 522.7872,116.92065 509.68843,112.51602 L 485.87251,104.50761 L 497.72066,101.96646 C 504.23716,100.56883 518.66907,98.827473 529.79159,98.096773 C 546.70527,96.985613 549.90632,96.199853 549.35424,93.294733 C 548.16801,87.052713 526.48537,77.726753 494.88291,69.865963 C 477.82784,65.623693 462.94348,61.279093 461.80654,60.211293 C 457.96628,56.604573 481.29816,58.195973 509.92152,63.493083 C 547.8543,70.513033 579.86691,80.684483 597.38175,91.282063 C 621.76664,106.03647 644.81944,131.19112 658.35991,157.81993 C 667.84532,176.47406 672.58654,166.3218 666.48948,140.41227 C 664.87013,133.5308 664.16826,127.90051 664.9298,127.90051 C 666.81585,127.90051 681.85956,160.0156 687.14307,175.32118 C 691.75199,188.67247 702.40004,239.87479 706.46856,268.24981 C 710.27453,294.7938 710.48588,295.44928 715.23832,295.44928 C 718.9907,295.44928 719.54879,296.93675 719.54879,306.93804 C 719.54879,322.71726 713.74546,368.37199 708.56246,393.3674 C 692.01243,473.18126 659.4411,538.48818 613.01146,584.95133 C 588.68111,609.29925 584.24409,613.0414 563.6466,626.58557 C 498.56113,669.38334 411.06054,689.05914 323.52439,680.58044 z"
           style="fill:url(#radialGradient4008);fill-opacity:1" />
        <path
           style="fill:url(#linearGradient4010);fill-opacity:1;stroke:none;stroke-width:6.77535152000000007;stroke-miterlimit:4;stroke-dasharray:none;stroke-opacity:1;filter:url(#filter3410)"
           d="M 323.52439,680.58044 C 305.80798,678.86444 278.9888,672.61964 253.29417,664.22754 C 238.3973,659.36204 191.18105,636.51133 188.61499,632.92546 C 188.0166,632.08926 183.61028,629.0605 178.82317,626.19492 C 174.03607,623.32933 169.62975,620.44347 169.03136,619.78191 C 168.43297,619.12033 162.55789,614.05331 155.97561,608.52185 C 136.86304,592.46043 127.25774,582.69194 113.44442,565.26809 C 106.32855,556.29226 99.980738,548.45881 99.338188,547.86042 C 98.695628,547.26204 94.807039,541.38695 90.696865,534.80468 C 86.586691,528.2224 82.682167,522.34732 82.020147,521.74893 C 81.358127,521.15054 79.647349,518.213 78.218421,515.22105 C 76.789491,512.22911 72.85025,504.88525 69.464548,498.90137 C 54.868189,473.10377 40.135975,432.10198 35.063764,403.15921 C 32.781282,390.13503 29.945116,380.43938 27.998979,379.00771 C 25.304244,377.0253 24.958225,372.18207 25.978014,350.72025 C 26.654769,336.47771 28.4427,318.22051 29.951196,310.14871 C 32.160142,298.32888 32.158534,294.47234 29.942933,290.33245 C 27.62691,286.00493 27.949067,282.494 31.980481,268.12691 C 37.585836,248.15061 51.499055,215.22799 59.35143,203.35947 C 64.392226,195.74053 64.908222,192.73336 65.511998,167.45616 C 65.87443,152.28283 67.424946,134.97237 68.957585,128.98849 C 74.716604,106.50355 93.16105,72.523593 97.109048,77.125423 C 97.965958,78.124233 99.898848,83.347763 101.40437,88.733263 C 104.27583,99.004963 112.45949,112.89898 123.19244,125.72455 L 129.5657,133.3404 L 167.25019,133.3802 C 187.97665,133.40209 208.47832,134.22139 212.80944,135.20086 C 220.12828,136.85599 221.51078,136.27165 232.39306,126.92344 C 238.83292,121.39139 245.12575,116.06934 246.3771,115.09667 C 251.31494,111.25847 283.88192,99.925833 294.14896,98.473043 L 305.02875,96.933553 L 292.55627,109.15981 C 278.86081,122.58491 267.75543,143.17258 265.55693,159.21248 C 264.32166,168.22478 264.78926,169.35982 273.75808,179.11973 C 286.16548,192.62154 293.18453,195.32122 316.38264,195.51406 C 364.28212,195.91224 372.58,202.37786 352.60207,223.73589 C 347.05281,229.6685 341.65726,234.52246 340.61198,234.52246 C 339.56669,234.52246 333.5808,238.13845 327.31,242.55799 C 321.03919,246.97753 311.706,253.43927 306.56957,256.9174 C 291.59521,267.05725 289.82744,271.14764 292.75591,288.88024 C 295.69496,306.67679 295.93694,317.20886 293.4068,317.20886 C 292.40023,317.20886 286.76994,315.75069 280.89504,313.96847 C 266.6025,309.63268 260.70289,309.86244 252.13081,315.08868 C 239.19979,322.97252 235.20554,341.11418 242.80105,357.46409 C 251.71355,376.64892 282.12266,397.68322 305.61698,400.91451 C 316.13908,402.36168 342.10912,398.98672 346.37196,395.61814 C 351.90089,391.2491 382.98276,382.48761 392.95324,382.48761 C 407.58405,382.48761 423.31427,388.72131 434.27571,398.86322 C 447.92103,411.48834 444.81663,421.61042 427.27097,421.70264 C 417.38883,421.75458 402.46455,427.61256 396.00748,433.97398 C 390.83562,439.06922 377.18157,448.0121 365.38678,454.02937 C 352.34241,460.6841 325.92099,465.35268 301.22082,465.36733 C 274.39905,465.38321 273.78273,467.84072 296.86891,482.71975 C 342.48754,512.12092 375.38892,522.83214 414.91464,521.15015 C 443.56015,519.93115 458.21899,516.70636 474.53646,508.03395 C 490.62545,499.48298 518.59909,473.39183 534.074,452.50302 C 540.56674,443.73881 546.32683,437.01592 546.87419,437.56331 C 547.42157,438.11069 545.86126,446.42372 543.40684,456.03675 C 538.17092,476.54381 537.83865,482.58168 541.94608,482.58168 C 546.31784,482.58168 559.14664,465.81014 564.41576,453.20625 C 575.02904,427.81891 581.81009,380.20139 579.05713,350.39223 C 577.8594,337.42308 578.15887,334.61653 580.7405,334.61653 C 584.75285,334.61653 592.39073,342.91859 594.367,349.42799 C 596.45921,356.31921 602.3942,354.67194 604.61269,346.5843 C 610.68666,324.44134 612.97349,267.61532 608.94723,238.87437 C 607.85748,231.09532 607.40129,224.24925 607.93351,223.66088 C 608.46571,223.07251 613.28791,227.23403 618.64952,232.9087 C 624.01112,238.58337 629.32322,243.22629 630.45418,243.22629 C 634.30417,243.22629 632.52391,233.38432 625.72358,217.07358 C 609.45433,178.0515 578.61321,144.38764 540.8116,124.39007 C 536.79263,122.26397 522.7872,116.92065 509.68843,112.51602 L 485.87251,104.50761 L 497.72066,101.96646 C 504.23716,100.56883 518.66907,98.827473 529.79159,98.096773 C 546.70527,96.985613 549.90632,96.199853 549.35424,93.294733 C 548.16801,87.052713 526.48537,77.726753 494.88291,69.865963 C 477.82784,65.623693 462.94348,61.279093 461.80654,60.211293 C 457.96628,56.604573 481.29816,58.195973 509.92152,63.493083 C 547.8543,70.513033 579.86691,80.684483 597.38175,91.282063 C 621.76664,106.03647 644.81944,131.19112 658.35991,157.81993 C 667.84532,176.47406 672.58654,166.3218 666.48948,140.41227 C 664.87013,133.5308 664.16826,127.90051 664.9298,127.90051 C 666.81585,127.90051 681.85956,160.0156 687.14307,175.32118 C 691.75199,188.67247 702.40004,239.87479 706.46856,268.24981 C 710.27453,294.7938 710.48588,295.44928 715.23832,295.44928 C 718.9907,295.44928 719.54879,296.93675 719.54879,306.93804 C 719.54879,322.71726 713.74546,368.37199 708.56246,393.3674 C 692.01243,473.18126 659.4411,538.48818 613.01146,584.95133 C 588.68111,609.29925 584.24409,613.0414 563.6466,626.58557 C 498.56113,669.38334 411.06054,689.05914 323.52439,680.58044 z"
           id="path3252"
           transform="matrix(0.987651,0,0,0.9862692,3.1714236,6.51434)" />
        <path
           transform="matrix(0.987651,0,0,0.9862692,3.1714236,6.51434)"
           id="path3422"
           d="M 323.52439,680.58044 C 305.80798,678.86444 278.9888,672.61964 253.29417,664.22754 C 238.3973,659.36204 191.18105,636.51133 188.61499,632.92546 C 188.0166,632.08926 183.61028,629.0605 178.82317,626.19492 C 174.03607,623.32933 169.62975,620.44347 169.03136,619.78191 C 168.43297,619.12033 162.55789,614.05331 155.97561,608.52185 C 136.86304,592.46043 127.25774,582.69194 113.44442,565.26809 C 106.32855,556.29226 99.980738,548.45881 99.338188,547.86042 C 98.695628,547.26204 94.807039,541.38695 90.696865,534.80468 C 86.586691,528.2224 82.682167,522.34732 82.020147,521.74893 C 81.358127,521.15054 79.647349,518.213 78.218421,515.22105 C 76.789491,512.22911 72.85025,504.88525 69.464548,498.90137 C 54.868189,473.10377 40.135975,432.10198 35.063764,403.15921 C 32.781282,390.13503 29.945116,380.43938 27.998979,379.00771 C 25.304244,377.0253 24.958225,372.18207 25.978014,350.72025 C 26.654769,336.47771 28.4427,318.22051 29.951196,310.14871 C 32.160142,298.32888 32.158534,294.47234 29.942933,290.33245 C 27.62691,286.00493 27.949067,282.494 31.980481,268.12691 C 37.585836,248.15061 51.499055,215.22799 59.35143,203.35947 C 64.392226,195.74053 64.908222,192.73336 65.511998,167.45616 C 65.87443,152.28283 67.424946,134.97237 68.957585,128.98849 C 74.716604,106.50355 93.16105,72.523593 97.109048,77.125423 C 97.965958,78.124233 99.898848,83.347763 101.40437,88.733263 C 104.27583,99.004963 112.45949,112.89898 123.19244,125.72455 L 129.5657,133.3404 L 167.25019,133.3802 C 187.97665,133.40209 208.47832,134.22139 212.80944,135.20086 C 220.12828,136.85599 221.51078,136.27165 232.39306,126.92344 C 238.83292,121.39139 245.12575,116.06934 246.3771,115.09667 C 251.31494,111.25847 283.88192,99.925833 294.14896,98.473043 L 305.02875,96.933553 L 292.55627,109.15981 C 278.86081,122.58491 267.75543,143.17258 265.55693,159.21248 C 264.32166,168.22478 264.78926,169.35982 273.75808,179.11973 C 286.16548,192.62154 293.18453,195.32122 316.38264,195.51406 C 364.28212,195.91224 372.58,202.37786 352.60207,223.73589 C 347.05281,229.6685 341.65726,234.52246 340.61198,234.52246 C 339.56669,234.52246 333.5808,238.13845 327.31,242.55799 C 321.03919,246.97753 311.706,253.43927 306.56957,256.9174 C 291.59521,267.05725 289.82744,271.14764 292.75591,288.88024 C 295.69496,306.67679 295.93694,317.20886 293.4068,317.20886 C 292.40023,317.20886 286.76994,315.75069 280.89504,313.96847 C 266.6025,309.63268 260.70289,309.86244 252.13081,315.08868 C 239.19979,322.97252 235.20554,341.11418 242.80105,357.46409 C 251.71355,376.64892 282.12266,397.68322 305.61698,400.91451 C 316.13908,402.36168 342.10912,398.98672 346.37196,395.61814 C 351.90089,391.2491 382.98276,382.48761 392.95324,382.48761 C 407.58405,382.48761 423.31427,388.72131 434.27571,398.86322 C 447.92103,411.48834 444.81663,421.61042 427.27097,421.70264 C 417.38883,421.75458 402.46455,427.61256 396.00748,433.97398 C 390.83562,439.06922 377.18157,448.0121 365.38678,454.02937 C 352.34241,460.6841 325.92099,465.35268 301.22082,465.36733 C 274.39905,465.38321 273.78273,467.84072 296.86891,482.71975 C 342.48754,512.12092 375.38892,522.83214 414.91464,521.15015 C 443.56015,519.93115 458.21899,516.70636 474.53646,508.03395 C 490.62545,499.48298 518.59909,473.39183 534.074,452.50302 C 540.56674,443.73881 546.32683,437.01592 546.87419,437.56331 C 547.42157,438.11069 545.86126,446.42372 543.40684,456.03675 C 538.17092,476.54381 537.83865,482.58168 541.94608,482.58168 C 546.31784,482.58168 559.14664,465.81014 564.41576,453.20625 C 575.02904,427.81891 581.81009,380.20139 579.05713,350.39223 C 577.8594,337.42308 578.15887,334.61653 580.7405,334.61653 C 584.75285,334.61653 592.39073,342.91859 594.367,349.42799 C 596.45921,356.31921 602.3942,354.67194 604.61269,346.5843 C 610.68666,324.44134 612.97349,267.61532 608.94723,238.87437 C 607.85748,231.09532 607.40129,224.24925 607.93351,223.66088 C 608.46571,223.07251 613.28791,227.23403 618.64952,232.9087 C 624.01112,238.58337 629.32322,243.22629 630.45418,243.22629 C 634.30417,243.22629 632.52391,233.38432 625.72358,217.07358 C 609.45433,178.0515 578.61321,144.38764 540.8116,124.39007 C 536.79263,122.26397 522.7872,116.92065 509.68843,112.51602 L 485.87251,104.50761 L 497.72066,101.96646 C 504.23716,100.56883 518.66907,98.827473 529.79159,98.096773 C 546.70527,96.985613 549.90632,96.199853 549.35424,93.294733 C 548.16801,87.052713 526.48537,77.726753 494.88291,69.865963 C 477.82784,65.623693 462.94348,61.279093 461.80654,60.211293 C 457.96628,56.604573 481.29816,58.195973 509.92152,63.493083 C 547.8543,70.513033 579.86691,80.684483 597.38175,91.282063 C 621.76664,106.03647 644.81944,131.19112 658.35991,157.81993 C 667.84532,176.47406 672.58654,166.3218 666.48948,140.41227 C 664.87013,133.5308 664.16826,127.90051 664.9298,127.90051 C 666.81585,127.90051 681.85956,160.0156 687.14307,175.32118 C 691.75199,188.67247 702.40004,239.87479 706.46856,268.24981 C 710.27453,294.7938 710.48588,295.44928 715.23832,295.44928 C 718.9907,295.44928 719.54879,296.93675 719.54879,306.93804 C 719.54879,322.71726 713.74546,368.37199 708.56246,393.3674 C 692.01243,473.18126 659.4411,538.48818 613.01146,584.95133 C 588.68111,609.29925 584.24409,613.0414 563.6466,626.58557 C 498.56113,669.38334 411.06054,689.05914 323.52439,680.58044 z"
           style="fill:none;fill-opacity:1;stroke:url(#linearGradient4012);stroke-width:6.77535152000000007;stroke-miterlimit:4;stroke-dasharray:none;stroke-opacity:1" />
        <path
           style="opacity:1;fill:#ac2f14;fill-opacity:1;stroke:none;stroke-width:6.68699979999999972;stroke-linecap:round;stroke-linejoin:round;stroke-miterlimit:4;stroke-dasharray:none;stroke-opacity:1;filter:url(#filter3997)"
           d="M 252.06557,309.75191 C 220.51894,303.51404 201.25229,315.09728 209.0418,335.60384 C 216.53706,355.33572 246.36556,376.17602 276.71428,383.27986 C 263.52385,373.59483 253.48596,362.35854 249.32622,351.40768 C 241.96537,332.02965 255.24387,319.47385 280.05021,319.17234 C 271.13302,314.92909 261.58803,311.63484 252.06557,309.75191 z"
           id="path3442" />
      </g>
    </g>
  </g>
</svg>
