<?xml version="1.0" encoding="UTF-8" standalone="no"?>
<!-- Created with Inkscape (http://www.inkscape.org/) -->

<svg
   xmlns:dc="http://purl.org/dc/elements/1.1/"
   xmlns:cc="http://creativecommons.org/ns#"
   xmlns:rdf="http://www.w3.org/1999/02/22-rdf-syntax-ns#"
   xmlns:svg="http://www.w3.org/2000/svg"
   xmlns="http://www.w3.org/2000/svg"
   xmlns:xlink="http://www.w3.org/1999/xlink"
   xmlns:sodipodi="http://sodipodi.sourceforge.net/DTD/sodipodi-0.dtd"
   xmlns:inkscape="http://www.inkscape.org/namespaces/inkscape"
   width="256"
   height="256"
   id="svg2"
   sodipodi:version="0.32"
   inkscape:version="0.47pre0 r21549"
   version="1.0"
   sodipodi:docname="fusion.svg"
   inkscape:output_extension="org.inkscape.output.svg.inkscape">
  <defs
     id="defs4">
    <linearGradient
       inkscape:collect="always"
       id="linearGradient4704">
      <stop
         style="stop-color:#ffffff;stop-opacity:1;"
         offset="0"
         id="stop4706" />
      <stop
         style="stop-color:#ffffff;stop-opacity:0;"
         offset="1"
         id="stop4708" />
    </linearGradient>
    <radialGradient
       inkscape:collect="always"
       xlink:href="#linearGradient4704"
       id="radialGradient2536"
       gradientUnits="userSpaceOnUse"
       gradientTransform="matrix(0.9997208,2.3627079e-2,-5.5454165e-2,2.3464045,3.164378,-101.24479)"
       cx="79.375244"
       cy="73.701958"
       fx="79.375244"
       fy="73.701958"
       r="25.089266" />
    <linearGradient
       inkscape:collect="always"
       id="linearGradient4712">
      <stop
         style="stop-color:#ffffff;stop-opacity:1;"
         offset="0"
         id="stop4714" />
      <stop
         style="stop-color:#ffffff;stop-opacity:0;"
         offset="1"
         id="stop4716" />
    </linearGradient>
    <radialGradient
       inkscape:collect="always"
       xlink:href="#linearGradient4712"
       id="radialGradient2534"
       gradientUnits="userSpaceOnUse"
       gradientTransform="matrix(1.5407597,-2.0714803e-2,4.3884634e-2,3.2641239,-97.297995,-344.39943)"
       cx="166.65843"
       cy="163.51553"
       fx="166.65843"
       fy="163.51553"
       r="30.862188" />
    <linearGradient
       id="linearGradient4690">
      <stop
         style="stop-color:#ffffff;stop-opacity:1;"
         offset="0"
         id="stop4692" />
      <stop
         style="stop-color:#ffffff;stop-opacity:0;"
         offset="1"
         id="stop4694" />
    </linearGradient>
    <linearGradient
       inkscape:collect="always"
       xlink:href="#linearGradient4690"
       id="linearGradient2532"
       gradientUnits="userSpaceOnUse"
       x1="188.9375"
       y1="9.625"
       x2="148.58968"
       y2="214.90286" />
    <linearGradient
       inkscape:collect="always"
       xlink:href="#linearGradient6423"
       id="linearGradient2530"
       gradientUnits="userSpaceOnUse"
       gradientTransform="matrix(-0.7321061,0,0,-1.0886946,322.53878,268.04839)"
       x1="98.380074"
       y1="13.493117"
       x2="182.49374"
       y2="234.84828" />
    <filter
       inkscape:collect="always"
       x="-0.1437856"
       width="1.2875712"
       y="-0.016747089"
       height="1.0334942"
       id="filter10611">
      <feGaussianBlur
         inkscape:collect="always"
         stdDeviation="1.5777183"
         id="feGaussianBlur10613" />
    </filter>
    <linearGradient
       inkscape:collect="always"
       xlink:href="#linearGradient6204"
       id="linearGradient2528"
       gradientUnits="userSpaceOnUse"
       gradientTransform="matrix(1.0886946,0,0,-1.0886946,-249.03228,286.40942)"
       x1="408.72308"
       y1="73.896111"
       x2="393.00787"
       y2="73.978256" />
    <filter
       inkscape:collect="always"
       id="filter4526">
      <feGaussianBlur
         inkscape:collect="always"
         stdDeviation="5.1445312"
         id="feGaussianBlur4528" />
    </filter>
    <filter
       inkscape:collect="always"
       id="filter6401">
      <feGaussianBlur
         inkscape:collect="always"
         stdDeviation="3.3265654"
         id="feGaussianBlur6403" />
    </filter>
    <radialGradient
       inkscape:collect="always"
       xlink:href="#linearGradient6434"
       id="radialGradient2526"
       gradientUnits="userSpaceOnUse"
       gradientTransform="matrix(1.8308992,8.9302682e-2,-8.7589893e-2,1.7957949,-74.135296,-177.87312)"
       cx="103.09141"
       cy="155.05023"
       fx="103.09141"
       fy="155.05023"
       r="99.226646" />
    <linearGradient
       id="linearGradient6423">
      <stop
         style="stop-color:#ffffff;stop-opacity:1;"
         offset="0"
         id="stop6425" />
      <stop
         style="stop-color:#ffffff;stop-opacity:0;"
         offset="1"
         id="stop6427" />
    </linearGradient>
    <linearGradient
       id="linearGradient6204">
      <stop
         id="stop6206"
         offset="0"
         style="stop-color:#1d1717;stop-opacity:1;" />
      <stop
         style="stop-color:#464646;stop-opacity:1;"
         offset="0.34567901"
         id="stop6214" />
      <stop
         id="stop6216"
         offset="0.44444445"
         style="stop-color:#242424;stop-opacity:1;" />
      <stop
         id="stop6208"
         offset="1"
         style="stop-color:#242424;stop-opacity:1;" />
    </linearGradient>
    <linearGradient
       id="linearGradient6434">
      <stop
         style="stop-color:#ffffff;stop-opacity:1;"
         offset="0"
         id="stop6436" />
      <stop
         id="stop8227"
         offset="0.25"
         style="stop-color:#ffbd7c;stop-opacity:1;" />
      <stop
         id="stop8223"
         offset="0.5"
         style="stop-color:#fa0000;stop-opacity:1;" />
      <stop
         style="stop-color:#c80000;stop-opacity:1;"
         offset="1"
         id="stop6438" />
    </linearGradient>
    <linearGradient
       inkscape:collect="always"
       id="linearGradient4613">
      <stop
         style="stop-color:#000000;stop-opacity:1;"
         offset="0"
         id="stop4615" />
      <stop
         style="stop-color:#000000;stop-opacity:0;"
         offset="1"
         id="stop4617" />
    </linearGradient>
    <linearGradient
       inkscape:collect="always"
       id="linearGradient4605">
      <stop
         style="stop-color:#f70000;stop-opacity:1;"
         offset="0"
         id="stop4607" />
      <stop
         style="stop-color:#000000;stop-opacity:1"
         offset="1"
         id="stop4609" />
    </linearGradient>
    <linearGradient
       id="linearGradient4591"
       inkscape:collect="always">
      <stop
         id="stop4593"
         offset="0"
         style="stop-color:#ffffff;stop-opacity:1" />
      <stop
         id="stop4595"
         offset="1"
         style="stop-color:#ffffff;stop-opacity:0;" />
    </linearGradient>
    <mask
       maskUnits="userSpaceOnUse"
       x="122.963"
       y="97.149"
       width="576.609"
       height="587.491"
       id="XMLID_23_">
      <g
         id="g31"
         style="filter:url(#Adobe_OpacityMaskFilter)">
        <radialGradient
           id="XMLID_24_"
           cx="88.977501"
           cy="-20.899401"
           r="673.11609"
           fx="88.977501"
           fy="-20.899401"
           gradientUnits="userSpaceOnUse">
          <stop
             offset="0.309"
             style="stop-color:#FFFFFF"
             id="stop34" />
          <stop
             offset="1"
             style="stop-color:#000000"
             id="stop3816" />
        </radialGradient>
        <ellipse
           sodipodi:ry="349.10599"
           sodipodi:rx="512.93402"
           sodipodi:cy="286.172"
           sodipodi:cx="295.89499"
           cx="295.89499"
           cy="286.172"
           rx="512.93402"
           ry="349.10599"
           id="ellipse38"
           style="fill:url(#XMLID_24_)" />
      </g>
    </mask>
    <linearGradient
       inkscape:collect="always"
       xlink:href="#linearGradient4591"
       id="linearGradient3196"
       x1="99.881126"
       y1="68.792747"
       x2="171.01328"
       y2="46.998337"
       gradientUnits="userSpaceOnUse"
       gradientTransform="matrix(0.8301257,0,0,0.9649488,-179.55402,176.05704)" />
    <linearGradient
       inkscape:collect="always"
       xlink:href="#linearGradient4591"
       id="linearGradient4599"
       gradientUnits="userSpaceOnUse"
       gradientTransform="matrix(0.9457809,0,0,1.1075807,6.5485589,0.4212711)"
       x1="104.92213"
       y1="71.555038"
       x2="161.92285"
       y2="35.137646" />
    <linearGradient
       inkscape:collect="always"
       xlink:href="#linearGradient4605"
       id="linearGradient4611"
       x1="168.56552"
       y1="-13.762122"
       x2="206.93968"
       y2="23.825462"
       gradientUnits="userSpaceOnUse" />
    <linearGradient
       inkscape:collect="always"
       xlink:href="#linearGradient4613"
       id="linearGradient4619"
       x1="168.56552"
       y1="-13.762122"
       x2="351.36194"
       y2="165.28738"
       gradientUnits="userSpaceOnUse" />
  </defs>
  <sodipodi:namedview
     id="base"
     pagecolor="#ffffff"
     bordercolor="#666666"
     borderopacity="1.0"
     gridtolerance="10000"
     guidetolerance="10"
     objecttolerance="10"
     inkscape:pageopacity="0.0"
     inkscape:pageshadow="2"
     inkscape:zoom="1.2871553"
     inkscape:cx="128"
     inkscape:cy="97.383295"
     inkscape:document-units="px"
     inkscape:current-layer="layer1"
     showgrid="false"
     showguides="true"
     inkscape:guide-bbox="true"
     inkscape:window-width="773"
     inkscape:window-height="676"
     inkscape:window-x="301"
     inkscape:window-y="111" />
  <metadata
     id="metadata7">
    <rdf:RDF>
      <cc:Work
         rdf:about="">
        <dc:format>image/svg+xml</dc:format>
        <dc:type
           rdf:resource="http://purl.org/dc/dcmitype/StillImage" />
      </cc:Work>
    </rdf:RDF>
  </metadata>
  <g
     inkscape:label="Layer 1"
     inkscape:groupmode="layer"
     id="layer1">
    <rect
       style="opacity:1;fill:url(#linearGradient4619);fill-opacity:1;stroke:url(#linearGradient4611);stroke-width:2;stroke-miterlimit:4;stroke-dasharray:none;stroke-opacity:1"
       id="rect2383"
       width="209.543"
       height="209.543"
       x="75.938042"
       y="-106.63853"
       ry="61.030819"
       transform="matrix(0.6997472,0.7143906,-0.7143906,0.6997472,0,0)" />
    <rect
       style="opacity:0.26851852;fill:url(#linearGradient4599);fill-opacity:1;stroke:none;stroke-width:2;stroke-miterlimit:4;stroke-dasharray:none;stroke-opacity:1"
       id="rect4597"
       width="198.18179"
       height="232.08572"
       x="78.369324"
       y="-117.6895"
       ry="67.596573"
       transform="matrix(0.7600468,0.6498684,-0.7370851,0.6758,0,0)" />
    <rect
       transform="matrix(-0.796691,0.6043868,0.6617245,0.7497471,0,0)"
       ry="58.891621"
       y="73.156349"
       x="-116.51585"
       height="202.19823"
       width="173.94705"
       id="rect3188"
       style="opacity:0.27777778;fill:url(#linearGradient3196);fill-opacity:1;stroke:none;stroke-width:2;stroke-miterlimit:4;stroke-dasharray:none;stroke-opacity:1" />
    <path
       sodipodi:nodetypes="ccc"
       id="path2276"
       d="M 108.10388,41.662742 L 108.10388,37.156303 L 108.10388,41.662742 z"
       style="fill:#ffffff;fill-opacity:0.75688076;fill-rule:nonzero;stroke:none;stroke-width:0.5;stroke-linecap:round;stroke-linejoin:round;stroke-miterlimit:4;stroke-dasharray:none;stroke-dashoffset:4;stroke-opacity:1" />
    <g
       id="g2514"
       transform="matrix(0.640046,0,0,0.640046,44.703481,56.005345)">
      <path
         transform="matrix(1.0678988,0,0,1.0469533,-5.3635909,-9.8664912)"
         style="fill:url(#radialGradient2526);fill-opacity:1;fill-rule:evenodd;stroke:none;stroke-width:3;stroke-linecap:butt;stroke-linejoin:miter;stroke-miterlimit:4;stroke-dasharray:none;stroke-opacity:1;filter:url(#filter6401)"
         d="M 181.28188,18.948615 L 224.14866,42.654942 L 224.14866,181.34242 L 181.28188,200.59462 L 29.69536,177.79655 L 31.05774,41.292562 L 181.28188,18.948615 z"
         id="path3262"
         sodipodi:nodetypes="ccccccc" />
      <path
         transform="matrix(0.9924708,0,0,0.9707596,1.7319513,0.5107924)"
         sodipodi:nodetypes="ccsccccccsccccccccssssc"
         style="fill:#aa0000;fill-opacity:1;fill-rule:evenodd;stroke:none;stroke-width:1px;stroke-linecap:butt;stroke-linejoin:miter;stroke-opacity:1;filter:url(#filter4526)"
         d="M 188.65625,17.46875 L 123.5,22.65625 C 112.11163,30.799732 91.415825,45.077833 74.84375,79.03125 C 59.036577,111.41751 92.9375,129.96875 92.9375,129.96875 C 92.937502,129.96876 38.503105,115.86276 37.0625,66 C 36.622996,50.976861 40.84796,44.686164 45.75,35.625 L 28.625,42.875 L 29.1875,183.6875 L 61.5625,189.28125 C 77.84146,179.71792 119.25655,153.91426 130,132.875 C 148.26087,97.114134 105.3125,78.96875 105.3125,78.96875 C 105.3125,78.968752 169.46603,91.533967 171.03125,147.46875 C 171.79395,174.38583 159.63177,193.4228 152.21875,202.46875 L 187.5625,207.625 L 230.03125,186.40625 L 230.03125,42.53125 L 188.65625,17.46875 z M 93.28125,84.90625 C 99.783636,85.026765 107.42159,88.41063 113.625,94.5 C 123.55045,104.24299 126.09805,117.29105 119.3125,123.625 C 112.52695,129.95896 98.9567,127.18049 89.03125,117.4375 C 79.105801,107.69451 76.558199,94.646453 83.34375,88.3125 C 85.888332,85.937268 89.379818,84.833941 93.28125,84.90625 z"
         id="path3555" />
      <path
         sodipodi:nodetypes="ccsccccccsccccccccssssc"
         id="path3538"
         d="M 189.16172,7.4468462 L 124.00547,16.634346 C 94.416792,33.632035 81.591392,59.288641 75.349222,77.009346 C 63.375872,111.00016 93.442972,127.94685 93.442972,127.94685 C 93.442982,127.94686 39.008582,113.84086 37.567972,63.978096 C 37.128472,48.954957 41.353432,36.66426 46.255472,27.603096 L 23.130472,30.853096 L 23.692972,181.6656 L 62.067972,187.25935 C 78.346932,177.69602 119.76202,151.89236 130.50547,130.8531 C 148.76634,95.092232 105.81797,76.946846 105.81797,76.946846 C 105.81797,76.946848 169.9715,89.512062 171.53672,145.44685 C 172.29942,172.36393 160.13724,191.4009 152.72422,200.44685 L 188.06797,205.6031 L 236.53672,184.38435 L 236.53672,32.509346 L 189.16172,7.4468462 z M 93.786722,82.884346 C 100.28911,83.004861 107.92706,86.388726 114.13047,92.478092 C 124.05592,102.22109 126.60352,115.26915 119.81797,121.6031 C 113.03242,127.93706 99.462172,125.15859 89.536722,115.4156 C 79.611272,105.67261 77.063672,92.624552 83.849222,86.290596 C 86.393812,83.915364 89.885292,82.812037 93.786722,82.884346 z"
         style="fill:url(#linearGradient2528);fill-opacity:1;fill-rule:evenodd;stroke:#000000;stroke-width:1px;stroke-linecap:butt;stroke-linejoin:miter;stroke-opacity:1" />
      <path
         transform="matrix(1.0886946,0,0,1.0886946,-10.024937,-10.657431)"
         sodipodi:nodetypes="cccccccc"
         id="path5671"
         d="M 181.91309,17.172788 L 170.04663,19.017358 C 170.04663,19.017358 179.78028,19.595168 179.89884,22.130641 L 182.24246,205.58979 L 183.4781,197.49245 L 184.64864,25.896281 C 184.64864,23.452371 191.99206,21.63064 191.99206,21.63064 L 181.91309,17.172788 z"
         style="opacity:0.3;fill:#ffffff;fill-opacity:1;fill-rule:evenodd;stroke:none;stroke-width:1px;stroke-linecap:butt;stroke-linejoin:miter;stroke-opacity:1;filter:url(#filter10611)" />
      <path
         sodipodi:nodetypes="cccsccc"
         id="path9728"
         d="M 188.934,9.6195059 L 188.934,10.470049 L 188.934,124.20461 C 188.934,124.20461 192.29477,115.23419 200.09312,108.92887 C 207.85155,102.65581 227.76998,111.12529 236.02004,113.75995 L 236.02004,34.523395 L 188.934,9.6195059 z"
         style="opacity:0.3;fill:url(#linearGradient2530);fill-opacity:1;fill-rule:evenodd;stroke:none;stroke-width:1px;stroke-linecap:butt;stroke-linejoin:miter;stroke-opacity:1" />
      <path
         sodipodi:nodetypes="cccsccssscccccccccccccc"
         id="path4683"
         d="M 188.9375,9.625 L 131.4375,17.53125 L 123.5,18.65625 C 93.911316,35.653939 81.085917,61.310545 74.84375,79.03125 C 69.839873,93.236607 72.175698,104.45997 76.59375,112.71875 C 80.165043,117.18535 84.253763,117.62203 85.21875,113.03125 C 78.590873,104.05947 77.540117,93.729884 83.34375,88.3125 C 85.888332,85.937268 89.379818,84.833941 93.28125,84.90625 C 99.783636,85.026765 107.42159,88.41063 113.625,94.5 C 119.76754,100.52962 123.0973,107.81351 123.125,114 C 126.72925,109.52548 130.69158,109.03324 134.46875,114.09375 C 133.22536,90.777077 105.3125,78.96875 105.3125,78.96875 C 105.3125,78.968752 142.08676,86.17562 160.625,113.96875 C 163.72726,115.66254 168.48082,115.87893 171.40625,115.8125 C 189.47267,115.43887 188.93749,98.218747 188.9375,98.21875 L 188.9375,10.46875 L 188.9375,9.625 z M 45.75,29.625 L 22.625,32.875 L 22.90625,109.78125 C 36.106809,108.16038 44.819642,115.52647 59.5,111.96875 C 47.932808,102.0309 37.677257,87.278196 37.0625,66 C 36.622996,50.976861 40.84796,38.686164 45.75,29.625 z"
         style="opacity:0.3;fill:url(#linearGradient2532);fill-opacity:1;fill-rule:evenodd;stroke:none;stroke-width:1px;stroke-linecap:butt;stroke-linejoin:miter;stroke-opacity:1" />
      <path
         sodipodi:nodetypes="cscsc"
         id="path4698"
         d="M 113.53538,79.592497 C 113.53538,79.592497 163.73377,96.488284 170.08696,130.43478 C 178.50134,175.39468 155.56523,201.73913 155.56523,201.73913 C 155.56523,201.73913 182.10912,172.62691 173.56521,130.08696 C 166.4486,94.653486 113.53538,79.592497 113.53538,79.592497 z"
         style="opacity:0.2;fill:url(#radialGradient2534);fill-opacity:1;fill-rule:evenodd;stroke:none;stroke-width:1px;stroke-linecap:butt;stroke-linejoin:miter;stroke-opacity:1" />
      <path
         style="opacity:0.2;fill:#000000;fill-rule:evenodd;stroke:none;stroke-width:1px;stroke-linecap:butt;stroke-linejoin:miter;stroke-opacity:1"
         d="M 89.45198,130.26087 C 89.45198,130.26087 49.320701,117.63066 39.841573,88.857781 C 28.396481,54.117424 43.693562,30.869566 43.693562,30.869566 C 43.693562,30.869566 27.021533,53.687293 37.271022,88.710392 C 46.673636,120.83967 89.45198,130.26087 89.45198,130.26087 z"
         id="path4700"
         sodipodi:nodetypes="cscsc" />
      <path
         sodipodi:nodetypes="cscsc"
         id="path4702"
         d="M 92.408502,128.26087 C 92.408502,128.26087 65.435901,111.21302 79.145924,76.857781 C 95.579823,35.676924 123.69355,18.869566 123.69355,18.869566 C 123.69355,18.869566 93.385334,36.65606 77.184062,76.710392 C 63.52318,110.48413 92.408502,128.26087 92.408502,128.26087 z"
         style="opacity:0.2;fill:url(#radialGradient2536);fill-opacity:1;fill-rule:evenodd;stroke:none;stroke-width:1px;stroke-linecap:butt;stroke-linejoin:miter;stroke-opacity:1" />
      <path
         style="opacity:0.2;fill:#000000;fill-opacity:1;fill-rule:evenodd;stroke:none;stroke-width:1px;stroke-linecap:butt;stroke-linejoin:miter;stroke-opacity:1"
         d="M 105.53538,79.592497 C 105.53538,79.592497 143.40971,102.29379 126.08696,130.43478 C 106.25157,162.65759 61.56523,185.73913 61.56523,185.73913 C 61.56523,185.73913 110.8785,163.43419 129.56521,130.08696 C 144.99409,102.55347 105.53538,79.592497 105.53538,79.592497 z"
         id="path4720"
         sodipodi:nodetypes="cscsc" />
    </g>
  </g>
</svg>
