<?xml version="1.0" encoding="UTF-8" standalone="no"?>
<!-- Created with Inkscape (http://www.inkscape.org/) -->

<svg
   xmlns:dc="http://purl.org/dc/elements/1.1/"
   xmlns:cc="http://creativecommons.org/ns#"
   xmlns:rdf="http://www.w3.org/1999/02/22-rdf-syntax-ns#"
   xmlns:svg="http://www.w3.org/2000/svg"
   xmlns="http://www.w3.org/2000/svg"
   xmlns:xlink="http://www.w3.org/1999/xlink"
   xmlns:sodipodi="http://sodipodi.sourceforge.net/DTD/sodipodi-0.dtd"
   xmlns:inkscape="http://www.inkscape.org/namespaces/inkscape"
   width="256"
   height="256"
   id="svg2"
   sodipodi:version="0.32"
   inkscape:version="0.47pre0 r21549"
   version="1.0"
   sodipodi:docname="gconf.svg"
   inkscape:output_extension="org.inkscape.output.svg.inkscape">
  <defs
     id="defs4">
    <linearGradient
       inkscape:collect="always"
       id="linearGradient2265-128-351">
      <stop
         style="stop-color:#000000;stop-opacity:1;"
         offset="0"
         id="stop4873" />
      <stop
         style="stop-color:#000000;stop-opacity:0;"
         offset="1"
         id="stop4875" />
    </linearGradient>
    <linearGradient
       inkscape:collect="always"
       xlink:href="#linearGradient2265-128-351"
       id="linearGradient18162"
       gradientUnits="userSpaceOnUse"
       gradientTransform="matrix(3.6399227,0.5025709,-0.5025709,3.6399227,47.87913,18.906505)"
       x1="14.017542"
       y1="36.942543"
       x2="15.415793"
       y2="38.268368" />
    <linearGradient
       inkscape:collect="always"
       id="linearGradient18781">
      <stop
         style="stop-color:#d2c8ca;stop-opacity:1;"
         offset="0"
         id="stop18783" />
      <stop
         style="stop-color:#d2c8ca;stop-opacity:0;"
         offset="1"
         id="stop18785" />
    </linearGradient>
    <linearGradient
       inkscape:collect="always"
       xlink:href="#linearGradient18781"
       id="linearGradient18787"
       x1="40.512862"
       y1="156.44688"
       x2="122.85316"
       y2="156.44688"
       gradientUnits="userSpaceOnUse" />
    <linearGradient
       inkscape:collect="always"
       id="linearGradient2257-725">
      <stop
         style="stop-color:#000000;stop-opacity:1;"
         offset="0"
         id="stop4661" />
      <stop
         style="stop-color:#000000;stop-opacity:0;"
         offset="1"
         id="stop4663" />
    </linearGradient>
    <linearGradient
       inkscape:collect="always"
       xlink:href="#linearGradient2257-725"
       id="linearGradient18166"
       gradientUnits="userSpaceOnUse"
       gradientTransform="matrix(4.1795458,0.5496582,-0.5496582,4.1795458,48.130637,2.0509611)"
       x1="12.004697"
       y1="35.688461"
       x2="10.650805"
       y2="33.194965" />
    <linearGradient
       id="linearGradient3087">
      <stop
         style="stop-color:#346ea4;stop-opacity:1;"
         offset="0"
         id="stop3089" />
      <stop
         id="stop3095"
         offset="0"
         style="stop-color:#9fc1e1;stop-opacity:1;" />
      <stop
         style="stop-color:#6b9cca;stop-opacity:1;"
         offset="0"
         id="stop2242" />
      <stop
         id="stop2244"
         offset="0.75"
         style="stop-color:#3d73a5;stop-opacity:1;" />
      <stop
         style="stop-color:#3878b4;stop-opacity:1;"
         offset="1"
         id="stop3091" />
    </linearGradient>
    <linearGradient
       inkscape:collect="always"
       xlink:href="#linearGradient3087"
       id="linearGradient18170"
       gradientUnits="userSpaceOnUse"
       gradientTransform="matrix(3.629302,0.57427,-0.57427,3.629302,48.833397,22.86879)"
       x1="9.7503242"
       y1="32.28376"
       x2="16.915297"
       y2="39.443218" />
    <linearGradient
       id="linearGradient2250">
      <stop
         style="stop-color:#b9b9b9;stop-opacity:1;"
         offset="0"
         id="stop2252" />
      <stop
         style="stop-color:#ffffff;stop-opacity:0;"
         offset="1"
         id="stop2254" />
    </linearGradient>
    <linearGradient
       inkscape:collect="always"
       xlink:href="#linearGradient2250"
       id="linearGradient18173"
       gradientUnits="userSpaceOnUse"
       gradientTransform="matrix(4.1323306,0.653865,-0.653865,4.1323306,43.245987,-3.1636515)"
       x1="31.177404"
       y1="19.821514"
       x2="40.859177"
       y2="9.6568537" />
    <linearGradient
       inkscape:collect="always"
       id="linearGradient18773">
      <stop
         style="stop-color:#d2c8ca;stop-opacity:1;"
         offset="0"
         id="stop18775" />
      <stop
         style="stop-color:#ffffff;stop-opacity:1"
         offset="1"
         id="stop18777" />
    </linearGradient>
    <linearGradient
       inkscape:collect="always"
       xlink:href="#linearGradient18773"
       id="linearGradient18779"
       x1="187.04805"
       y1="60.859539"
       x2="195.01083"
       y2="73.494728"
       gradientUnits="userSpaceOnUse" />
    <linearGradient
       inkscape:collect="always"
       id="linearGradient18733">
      <stop
         style="stop-color:#fcf6ca;stop-opacity:1;"
         offset="0"
         id="stop18735" />
      <stop
         style="stop-color:#fcf6ca;stop-opacity:0;"
         offset="1"
         id="stop18737" />
    </linearGradient>
    <linearGradient
       inkscape:collect="always"
       xlink:href="#linearGradient18733"
       id="linearGradient18739"
       x1="115.28724"
       y1="48.550819"
       x2="59.344292"
       y2="71.134102"
       gradientUnits="userSpaceOnUse" />
    <linearGradient
       inkscape:collect="always"
       id="linearGradient18725">
      <stop
         style="stop-color:#d2c8ca;stop-opacity:1;"
         offset="0"
         id="stop18727" />
      <stop
         style="stop-color:#d2c8ca;stop-opacity:0;"
         offset="1"
         id="stop18729" />
    </linearGradient>
    <linearGradient
       inkscape:collect="always"
       xlink:href="#linearGradient18725"
       id="linearGradient18731"
       x1="4.1999998"
       y1="62.9"
       x2="59.344292"
       y2="71.134102"
       gradientUnits="userSpaceOnUse" />
    <linearGradient
       inkscape:collect="always"
       id="linearGradient4613">
      <stop
         style="stop-color:#000000;stop-opacity:1;"
         offset="0"
         id="stop4615" />
      <stop
         style="stop-color:#000000;stop-opacity:0;"
         offset="1"
         id="stop4617" />
    </linearGradient>
    <linearGradient
       inkscape:collect="always"
       id="linearGradient4605">
      <stop
         style="stop-color:#f70000;stop-opacity:1;"
         offset="0"
         id="stop4607" />
      <stop
         style="stop-color:#000000;stop-opacity:1"
         offset="1"
         id="stop4609" />
    </linearGradient>
    <linearGradient
       id="linearGradient4591"
       inkscape:collect="always">
      <stop
         id="stop4593"
         offset="0"
         style="stop-color:#ffffff;stop-opacity:1" />
      <stop
         id="stop4595"
         offset="1"
         style="stop-color:#ffffff;stop-opacity:0;" />
    </linearGradient>
    <mask
       maskUnits="userSpaceOnUse"
       x="122.963"
       y="97.149"
       width="576.609"
       height="587.491"
       id="XMLID_23_">
      <g
         id="g31"
         style="filter:url(#Adobe_OpacityMaskFilter)">
        <radialGradient
           id="XMLID_24_"
           cx="88.977501"
           cy="-20.899401"
           r="673.11609"
           fx="88.977501"
           fy="-20.899401"
           gradientUnits="userSpaceOnUse">
          <stop
             offset="0.309"
             style="stop-color:#FFFFFF"
             id="stop34" />
          <stop
             offset="1"
             style="stop-color:#000000"
             id="stop3816" />
        </radialGradient>
        <ellipse
           sodipodi:ry="349.10599"
           sodipodi:rx="512.93402"
           sodipodi:cy="286.172"
           sodipodi:cx="295.89499"
           cx="295.89499"
           cy="286.172"
           rx="512.93402"
           ry="349.10599"
           id="ellipse38"
           style="fill:url(#XMLID_24_)" />
      </g>
    </mask>
    <linearGradient
       inkscape:collect="always"
       xlink:href="#linearGradient4591"
       id="linearGradient3196"
       x1="99.881126"
       y1="68.792747"
       x2="171.01328"
       y2="46.998337"
       gradientUnits="userSpaceOnUse"
       gradientTransform="matrix(0.8301257,0,0,0.9649488,-179.55402,176.05704)" />
    <linearGradient
       inkscape:collect="always"
       xlink:href="#linearGradient4591"
       id="linearGradient4599"
       gradientUnits="userSpaceOnUse"
       gradientTransform="matrix(0.9457809,0,0,1.1075807,6.5485589,0.4212711)"
       x1="104.92213"
       y1="71.555038"
       x2="161.92285"
       y2="35.137646" />
    <linearGradient
       inkscape:collect="always"
       xlink:href="#linearGradient4605"
       id="linearGradient4611"
       x1="168.56552"
       y1="-13.762122"
       x2="206.93968"
       y2="23.825462"
       gradientUnits="userSpaceOnUse" />
    <linearGradient
       inkscape:collect="always"
       xlink:href="#linearGradient4613"
       id="linearGradient4619"
       x1="168.56552"
       y1="-13.762122"
       x2="351.36194"
       y2="165.28738"
       gradientUnits="userSpaceOnUse" />
    <linearGradient
       inkscape:collect="always"
       xlink:href="#linearGradient18725"
       id="linearGradient18847"
       gradientUnits="userSpaceOnUse"
       x1="4.1999998"
       y1="62.9"
       x2="59.344292"
       y2="71.134102" />
    <linearGradient
       inkscape:collect="always"
       xlink:href="#linearGradient18733"
       id="linearGradient18849"
       gradientUnits="userSpaceOnUse"
       x1="115.28724"
       y1="48.550819"
       x2="59.344292"
       y2="71.134102" />
    <linearGradient
       inkscape:collect="always"
       xlink:href="#linearGradient18725"
       id="linearGradient18851"
       gradientUnits="userSpaceOnUse"
       x1="4.1999998"
       y1="62.9"
       x2="59.344292"
       y2="71.134102" />
    <linearGradient
       inkscape:collect="always"
       xlink:href="#linearGradient18733"
       id="linearGradient18853"
       gradientUnits="userSpaceOnUse"
       x1="115.28724"
       y1="48.550819"
       x2="59.344292"
       y2="71.134102" />
    <linearGradient
       inkscape:collect="always"
       xlink:href="#linearGradient18725"
       id="linearGradient18855"
       gradientUnits="userSpaceOnUse"
       x1="4.1999998"
       y1="62.9"
       x2="59.344292"
       y2="71.134102" />
    <linearGradient
       inkscape:collect="always"
       xlink:href="#linearGradient18733"
       id="linearGradient18857"
       gradientUnits="userSpaceOnUse"
       x1="115.28724"
       y1="48.550819"
       x2="59.344292"
       y2="71.134102" />
  </defs>
  <sodipodi:namedview
     id="base"
     pagecolor="#ffffff"
     bordercolor="#666666"
     borderopacity="1.0"
     gridtolerance="10000"
     guidetolerance="10"
     objecttolerance="10"
     inkscape:pageopacity="0.0"
     inkscape:pageshadow="2"
     inkscape:zoom="1.2871553"
     inkscape:cx="128"
     inkscape:cy="97.383295"
     inkscape:document-units="px"
     inkscape:current-layer="layer1"
     showgrid="false"
     showguides="true"
     inkscape:guide-bbox="true"
     inkscape:window-width="773"
     inkscape:window-height="676"
     inkscape:window-x="304"
     inkscape:window-y="113" />
  <metadata
     id="metadata7">
    <rdf:RDF>
      <cc:Work
         rdf:about="">
        <dc:format>image/svg+xml</dc:format>
        <dc:type
           rdf:resource="http://purl.org/dc/dcmitype/StillImage" />
      </cc:Work>
    </rdf:RDF>
  </metadata>
  <g
     inkscape:label="Layer 1"
     inkscape:groupmode="layer"
     id="layer1">
    <rect
       style="opacity:1;fill:url(#linearGradient4619);fill-opacity:1;stroke:url(#linearGradient4611);stroke-width:2;stroke-miterlimit:4;stroke-dasharray:none;stroke-opacity:1"
       id="rect2383"
       width="209.543"
       height="209.543"
       x="75.938042"
       y="-106.63853"
       ry="61.030819"
       transform="matrix(0.6997472,0.7143906,-0.7143906,0.6997472,0,0)" />
    <rect
       style="opacity:0.26851852;fill:url(#linearGradient4599);fill-opacity:1;stroke:none;stroke-width:2;stroke-miterlimit:4;stroke-dasharray:none;stroke-opacity:1"
       id="rect4597"
       width="198.18179"
       height="232.08572"
       x="78.369324"
       y="-117.6895"
       ry="67.596573"
       transform="matrix(0.7600468,0.6498684,-0.7370851,0.6758,0,0)" />
    <rect
       transform="matrix(-0.796691,0.6043868,0.6617245,0.7497471,0,0)"
       ry="58.891621"
       y="73.156349"
       x="-116.51585"
       height="202.19823"
       width="173.94705"
       id="rect3188"
       style="opacity:0.27777778;fill:url(#linearGradient3196);fill-opacity:1;stroke:none;stroke-width:2;stroke-miterlimit:4;stroke-dasharray:none;stroke-opacity:1" />
    <path
       sodipodi:nodetypes="ccc"
       id="path2276"
       d="M 108.10388,41.662742 L 108.10388,37.156303 L 108.10388,41.662742 z"
       style="fill:#ffffff;fill-opacity:0.75688076;fill-rule:nonzero;stroke:none;stroke-width:0.5;stroke-linecap:round;stroke-linejoin:round;stroke-miterlimit:4;stroke-dasharray:none;stroke-dashoffset:4;stroke-opacity:1" />
    <g
       id="g18789"
       transform="matrix(0.8418466,0,0,0.8418466,24.602953,23.791414)">
      <g
         style="fill:url(#linearGradient18731);fill-opacity:1;stroke:url(#linearGradient18739);stroke-width:1.51259279;stroke-miterlimit:4;stroke-dasharray:none;stroke-opacity:1"
         transform="matrix(0.9475518,0.922196,-0.922196,0.9475518,123.85823,2.7865616)"
         id="g5021">
        <path
           d="M 120.748,50.389 L 115.941,50.389 C 114.164,50.389 112.257,49.017 111.691,47.331 L 108.736,40.175 C 107.943,38.591 108.318,36.275 109.576,35.017 L 112.972,31.62 C 113.546,31.046 113.863,30.28 113.863,29.461 C 113.863,28.643 113.547,27.877 112.972,27.303 L 99.596,13.927 C 99.024,13.353 98.256,13.037 97.439,13.037 C 96.621,13.037 95.854,13.353 95.28,13.927 L 91.884,17.324 C 90.626,18.581 88.31,18.957 86.719,18.161 L 79.564,15.205 C 77.884,14.642 76.511,12.736 76.511,10.958 L 76.511,6.152 C 76.511,4.469 75.142,3.1 73.459,3.1 L 54.542,3.1 C 52.858,3.1 51.489,4.469 51.489,6.152 L 51.489,10.958 C 51.489,12.736 50.117,14.642 48.431,15.208 C 48.431,15.208 41.275,18.164 41.275,18.164 C 39.691,18.956 37.374,18.581 36.117,17.324 L 32.72,13.927 C 32.146,13.353 31.38,13.037 30.561,13.037 C 29.743,13.037 28.977,13.353 28.403,13.927 L 15.026,27.304 C 13.836,28.494 13.836,30.43 15.026,31.62 L 18.423,35.017 C 19.68,36.274 20.056,38.591 19.26,40.182 C 19.26,40.182 16.304,47.338 16.304,47.338 C 15.741,49.018 13.836,50.389 12.057,50.389 L 8.5,50.389 C 6.841,50.389 4.2,51.786 4.2,53.442 L 4.2,72.358 C 4.2,74.042 5.569,75.411 7.252,75.411 L 12.058,75.411 C 13.836,75.411 15.742,76.783 16.307,78.47 L 19.264,85.626 C 20.056,87.21 19.681,89.526 18.424,90.784 L 15.027,94.18 C 13.837,95.37 13.837,97.307 15.027,98.496 L 28.404,111.873 C 28.977,112.447 29.744,112.764 30.562,112.764 C 31.38,112.764 32.147,112.448 32.721,111.873 L 36.118,108.477 C 37.375,107.219 39.692,106.844 41.283,107.639 C 41.283,107.639 48.439,110.594 48.439,110.594 C 50.119,111.157 51.49,113.064 51.49,114.842 L 51.49,119.647 C 51.49,121.331 52.859,122.7 54.543,122.7 L 73.459,122.7 C 75.142,122.7 76.511,121.331 76.511,119.647 L 76.511,114.842 C 76.511,113.064 77.884,111.156 79.57,110.592 C 79.57,110.591 86.726,107.636 86.726,107.636 C 88.31,106.844 90.626,107.219 91.884,108.477 L 95.28,111.873 C 95.854,112.447 96.621,112.764 97.439,112.764 C 98.256,112.764 99.024,112.448 99.596,111.873 L 112.973,98.496 C 113.547,97.923 113.864,97.156 113.864,96.338 C 113.864,95.52 113.548,94.754 112.973,94.18 L 109.577,90.784 C 108.319,89.526 107.944,87.209 108.739,85.618 L 111.695,78.463 C 112.258,76.783 114.165,75.411 115.942,75.411 L 120.749,75.411 C 122.432,75.411 123.801,74.042 123.801,72.358 L 123.801,53.442 C 123.8,51.759 122.431,50.389 120.748,50.389 z M 64,93.9 C 46.962,93.9 33.1,80.038 33.1,63 C 33.1,45.962 46.962,32.1 64,32.1 C 81.038,32.1 94.9,45.962 94.9,63 C 94.9,80.038 81.038,93.9 64,93.9 z"
           id="path15"
           style="fill:url(#linearGradient18847);fill-opacity:1;stroke:url(#linearGradient18849);stroke-width:1.51259279;stroke-miterlimit:4;stroke-dasharray:none;stroke-opacity:1" />
        <path
           d="M 64,21.395 C 41.059,21.395 22.395,40.059 22.395,63 C 22.395,85.941 41.059,104.605 64,104.605 C 86.941,104.605 105.605,85.941 105.605,63 C 105.605,40.059 86.941,21.395 64,21.395 z M 64,93.6 C 47.099,93.6 33.4,79.902 33.4,63 C 33.4,46.098 47.099,32.4 64,32.4 C 80.901,32.4 94.6,46.099 94.6,63 C 94.6,79.901 80.901,93.6 64,93.6 z"
           id="path28"
           style="fill:url(#linearGradient18851);fill-opacity:1;stroke:url(#linearGradient18853);stroke-width:1.51259279;stroke-miterlimit:4;stroke-dasharray:none;stroke-opacity:1" />
        <path
           d="M 64,32 C 46.879,32 33,45.879 33,63 C 33,80.121 46.879,94 64,94 C 81.121,94 95,80.121 95,63 C 95,45.879 81.121,32 64,32 z M 64,83.5 C 52.677,83.5 43.5,74.322 43.5,63 C 43.5,51.677 52.677,42.5 64,42.5 C 75.322,42.5 84.5,51.677 84.5,63 C 84.5,74.322 75.322,83.5 64,83.5 z"
           id="path35"
           style="fill:url(#linearGradient18855);fill-opacity:1;stroke:url(#linearGradient18857);stroke-width:1.51259279;stroke-miterlimit:4;stroke-dasharray:none;stroke-opacity:1" />
      </g>
      <path
         style="opacity:0.98611109;fill:url(#linearGradient18779);fill-opacity:1;fill-rule:nonzero;stroke:url(#linearGradient18173);stroke-width:3.1730001;stroke-linecap:butt;stroke-linejoin:round;marker:none;marker-start:none;marker-mid:none;marker-end:none;stroke-miterlimit:4;stroke-dasharray:none;stroke-dashoffset:0;stroke-opacity:1;visibility:visible;display:inline;overflow:visible"
         d="M 116.80044,131.67494 C 119.83561,129.80698 179.27208,85.5212 179.27208,85.5212 L 191.53611,86.41129 L 212.65163,65.769095 L 202.377,53.346336 L 176.66138,69.259547 L 175.43882,81.142154 L 114.36558,127.78197 C 112.12316,129.41169 114.00216,133.39712 116.80044,131.67494 z"
         id="path3085"
         sodipodi:nodetypes="ccccccccc" />
      <path
         sodipodi:nodetypes="ccccccscc"
         id="path2142"
         d="M 48.063307,186.4344 C 52.545822,193.35008 67.224685,198.4808 75.78205,187.81333 C 79.513166,183.16219 87.509912,169.74895 116.71843,150.7838 C 121.62335,147.60295 127.56935,139.49205 124.46695,134.11843 L 116.06561,122.55861 C 112.70048,117.37593 101.01678,117.69629 95.355881,123.30939 C 78.471096,140.10621 53.403406,151.63714 48.000936,152.65428 C 37.662948,154.60063 36.48196,169.19864 41.869978,177.08404 L 48.063307,186.4344 z"
         style="fill:url(#linearGradient18170);fill-opacity:1;fill-rule:nonzero;stroke:#205587;stroke-width:2.64446592;stroke-linecap:round;stroke-linejoin:round;marker:none;marker-start:none;marker-mid:none;marker-end:none;stroke-miterlimit:4;stroke-dasharray:none;stroke-dashoffset:0;stroke-opacity:1;visibility:visible;display:inline;overflow:visible" />
      <path
         transform="matrix(2.3590483,0.3732758,-0.3732758,2.3590483,72.072094,53.16118)"
         d="M 20.771261,28.20101 A 1.767767,1.767767 0 1 1 17.235727,28.20101 A 1.767767,1.767767 0 1 1 20.771261,28.20101 z"
         sodipodi:ry="1.767767"
         sodipodi:rx="1.767767"
         sodipodi:cy="28.20101"
         sodipodi:cx="19.003494"
         id="path3101"
         style="opacity:0.60227272;fill:#ffffff;fill-opacity:1;fill-rule:nonzero;stroke:none;stroke-width:1;stroke-linecap:butt;stroke-linejoin:miter;marker:none;marker-start:none;marker-mid:none;marker-end:none;stroke-miterlimit:4;stroke-dasharray:none;stroke-dashoffset:0;stroke-opacity:1;visibility:visible;display:inline;overflow:visible"
         sodipodi:type="arc" />
      <path
         sodipodi:nodetypes="cc"
         id="path3103"
         d="M 99.414703,135.31482 C 99.414703,135.31482 65.013381,160.79109 50.32477,163.70842"
         style="fill:none;fill-opacity:1;fill-rule:nonzero;stroke:url(#linearGradient18166);stroke-width:9.59963417;stroke-linecap:round;stroke-linejoin:round;marker:none;marker-start:none;marker-mid:none;marker-end:none;stroke-miterlimit:4;stroke-dasharray:none;stroke-dashoffset:0;stroke-opacity:1;visibility:visible;display:inline;overflow:visible" />
      <path
         style="opacity:0.19886367;fill:url(#linearGradient18787);fill-opacity:1;fill-rule:nonzero;stroke:#000000;stroke-width:4.18373966;stroke-linecap:butt;stroke-linejoin:miter;marker:none;marker-start:none;marker-mid:none;marker-end:none;stroke-miterlimit:4;stroke-dasharray:none;stroke-dashoffset:0;stroke-opacity:1;visibility:visible;display:inline;overflow:visible"
         d="M 50.206664,182.00883 C 55.021054,190.16469 67.800307,193.94721 73.553501,184.13329 C 77.506293,177.39054 91.033789,162.90013 113.99563,147.99095 C 117.85155,145.49038 122.52592,139.11412 120.08701,134.88972 L 113.48242,125.80214 C 110.83698,121.72786 101.65201,121.97971 97.201776,126.39236 C 83.928058,139.59693 56.692848,155.30719 50.551575,156.30963 C 41.043184,157.86169 41.102162,168.45919 45.337872,174.65818 L 50.206664,182.00883 z"
         id="path2270"
         sodipodi:nodetypes="csccccscc" />
      <path
         sodipodi:nodetypes="cc"
         id="path2247"
         d="M 107.21157,143.47921 C 107.21157,143.47921 72.6246,166.03641 63.275989,182.52811"
         style="opacity:0.27840911;fill:none;fill-opacity:1;fill-rule:nonzero;stroke:url(#linearGradient18162);stroke-width:9.59963417;stroke-linecap:round;stroke-linejoin:round;marker:none;marker-start:none;marker-mid:none;marker-end:none;stroke-miterlimit:4;stroke-dashoffset:0;stroke-opacity:1;visibility:visible;display:inline;overflow:visible" />
    </g>
  </g>
</svg>
