<?xml version="1.0" encoding="UTF-8" standalone="no"?>
<!-- Created with Inkscape (http://www.inkscape.org/) -->

<svg
   xmlns:dc="http://purl.org/dc/elements/1.1/"
   xmlns:cc="http://creativecommons.org/ns#"
   xmlns:rdf="http://www.w3.org/1999/02/22-rdf-syntax-ns#"
   xmlns:svg="http://www.w3.org/2000/svg"
   xmlns="http://www.w3.org/2000/svg"
   xmlns:xlink="http://www.w3.org/1999/xlink"
   xmlns:sodipodi="http://sodipodi.sourceforge.net/DTD/sodipodi-0.dtd"
   xmlns:inkscape="http://www.inkscape.org/namespaces/inkscape"
   width="256"
   height="256"
   id="svg2"
   sodipodi:version="0.32"
   inkscape:version="0.47pre0 r21549"
   version="1.0"
   sodipodi:docname="gimp.svg"
   inkscape:output_extension="org.inkscape.output.svg.inkscape">
  <defs
     id="defs4">
    <linearGradient
       inkscape:collect="always"
       id="linearGradient3971">
      <stop
         style="stop-color:#ffffff;stop-opacity:1;"
         offset="0"
         id="stop3973" />
      <stop
         style="stop-color:#ffffff;stop-opacity:0;"
         offset="1"
         id="stop3975" />
    </linearGradient>
    <radialGradient
       inkscape:collect="always"
       xlink:href="#linearGradient3971"
       id="radialGradient3977"
       cx="130.79053"
       cy="113.26683"
       fx="130.79053"
       fy="113.26683"
       r="117.24806"
       gradientTransform="matrix(0.9970198,-0.3472281,0.2191975,0.6289394,-36.882227,95.001037)"
       gradientUnits="userSpaceOnUse" />
    <linearGradient
       inkscape:collect="always"
       id="linearGradient4613">
      <stop
         style="stop-color:#000000;stop-opacity:1;"
         offset="0"
         id="stop4615" />
      <stop
         style="stop-color:#000000;stop-opacity:0;"
         offset="1"
         id="stop4617" />
    </linearGradient>
    <linearGradient
       inkscape:collect="always"
       id="linearGradient4605">
      <stop
         style="stop-color:#f70000;stop-opacity:1;"
         offset="0"
         id="stop4607" />
      <stop
         style="stop-color:#000000;stop-opacity:1"
         offset="1"
         id="stop4609" />
    </linearGradient>
    <linearGradient
       id="linearGradient4591"
       inkscape:collect="always">
      <stop
         id="stop4593"
         offset="0"
         style="stop-color:#ffffff;stop-opacity:1" />
      <stop
         id="stop4595"
         offset="1"
         style="stop-color:#ffffff;stop-opacity:0;" />
    </linearGradient>
    <mask
       maskUnits="userSpaceOnUse"
       x="122.963"
       y="97.149"
       width="576.609"
       height="587.491"
       id="XMLID_23_">
      <g
         id="g31"
         style="filter:url(#Adobe_OpacityMaskFilter)">
        <radialGradient
           id="XMLID_24_"
           cx="88.977501"
           cy="-20.899401"
           r="673.11609"
           fx="88.977501"
           fy="-20.899401"
           gradientUnits="userSpaceOnUse">
          <stop
             offset="0.309"
             style="stop-color:#FFFFFF"
             id="stop34" />
          <stop
             offset="1"
             style="stop-color:#000000"
             id="stop3816" />
        </radialGradient>
        <ellipse
           sodipodi:ry="349.10599"
           sodipodi:rx="512.93402"
           sodipodi:cy="286.172"
           sodipodi:cx="295.89499"
           cx="295.89499"
           cy="286.172"
           rx="512.93402"
           ry="349.10599"
           id="ellipse38"
           style="fill:url(#XMLID_24_)" />
      </g>
    </mask>
    <linearGradient
       inkscape:collect="always"
       xlink:href="#linearGradient4591"
       id="linearGradient3196"
       x1="99.881126"
       y1="68.792747"
       x2="171.01328"
       y2="46.998337"
       gradientUnits="userSpaceOnUse"
       gradientTransform="matrix(0.8301257,0,0,0.9649488,-177.80175,174.64451)" />
    <linearGradient
       inkscape:collect="always"
       xlink:href="#linearGradient4591"
       id="linearGradient4599"
       gradientUnits="userSpaceOnUse"
       gradientTransform="matrix(0.9457809,0,0,1.1075807,6.5485589,0.4212711)"
       x1="104.92213"
       y1="71.555038"
       x2="161.92285"
       y2="35.137646" />
    <linearGradient
       inkscape:collect="always"
       xlink:href="#linearGradient4605"
       id="linearGradient4611"
       x1="168.56552"
       y1="-13.762122"
       x2="206.93968"
       y2="23.825462"
       gradientUnits="userSpaceOnUse" />
    <linearGradient
       inkscape:collect="always"
       xlink:href="#linearGradient4613"
       id="linearGradient4619"
       x1="168.56552"
       y1="-13.762122"
       x2="351.36194"
       y2="165.28738"
       gradientUnits="userSpaceOnUse" />
  </defs>
  <sodipodi:namedview
     id="base"
     pagecolor="#ffffff"
     bordercolor="#666666"
     borderopacity="1.0"
     gridtolerance="10000"
     guidetolerance="10"
     objecttolerance="10"
     inkscape:pageopacity="0.0"
     inkscape:pageshadow="2"
     inkscape:zoom="1.2871553"
     inkscape:cx="128"
     inkscape:cy="97.383295"
     inkscape:document-units="px"
     inkscape:current-layer="g4505"
     showgrid="false"
     showguides="true"
     inkscape:guide-bbox="true"
     inkscape:window-width="773"
     inkscape:window-height="676"
     inkscape:window-x="308"
     inkscape:window-y="135" />
  <metadata
     id="metadata7">
    <rdf:RDF>
      <cc:Work
         rdf:about="">
        <dc:format>image/svg+xml</dc:format>
        <dc:type
           rdf:resource="http://purl.org/dc/dcmitype/StillImage" />
      </cc:Work>
    </rdf:RDF>
  </metadata>
  <g
     inkscape:label="Layer 1"
     inkscape:groupmode="layer"
     id="layer1">
    <rect
       style="opacity:0.26851852;fill:url(#linearGradient4599);fill-opacity:1;stroke:none;stroke-width:2;stroke-miterlimit:4;stroke-dasharray:none;stroke-opacity:1"
       id="rect4597"
       width="198.18179"
       height="232.08572"
       x="78.369324"
       y="-117.6895"
       ry="67.596573"
       transform="matrix(0.7600468,0.6498684,-0.7370851,0.6758,0,0)" />
    <rect
       style="opacity:1;fill:url(#linearGradient4619);fill-opacity:1;stroke:url(#linearGradient4611);stroke-width:2;stroke-miterlimit:4;stroke-dasharray:none;stroke-opacity:1"
       id="rect2383"
       width="209.543"
       height="209.543"
       x="75.938042"
       y="-106.63853"
       ry="61.030819"
       transform="matrix(0.6997472,0.7143906,-0.7143906,0.6997472,0,0)" />
    <rect
       transform="matrix(-0.796691,0.6043868,0.6617245,0.7497471,0,0)"
       ry="58.891621"
       y="71.743813"
       x="-114.76358"
       height="202.19823"
       width="173.94705"
       id="rect3188"
       style="opacity:0.27777782;fill:url(#linearGradient3196);fill-opacity:1;stroke:none;stroke-width:2;stroke-miterlimit:4;stroke-dasharray:none;stroke-opacity:1" />
    <path
       sodipodi:nodetypes="ccc"
       id="path2276"
       d="M 108.10388,41.662742 L 108.10388,37.156303 L 108.10388,41.662742 z"
       style="fill:#ffffff;fill-opacity:0.75688076;fill-rule:nonzero;stroke:none;stroke-width:0.5;stroke-linecap:round;stroke-linejoin:round;stroke-miterlimit:4;stroke-dasharray:none;stroke-dashoffset:4;stroke-opacity:1" />
    <g
       id="g4505"
       transform="matrix(1.4035349,0,0,1.4035349,-91.257768,-10.72096)" />
    <path
       sodipodi:nodetypes="cccccccc"
       id="path3139"
       d="M 195.36312,55.311104 C 193.82038,58.659436 192.59779,62.199138 191.15768,65.609999 C 189.21339,70.451951 187.01052,75.186893 184.08433,79.352344 C 180.35059,84.786411 175.8938,89.582362 170.98893,93.727911 C 165.8045,97.905872 159.99677,101.21738 153.74858,103.29135 C 143.93724,106.52147 133.1532,106.87554 122.7972,104.13313 C 112.46261,101.44207 102.58299,96.200852 93.741943,89.351289 C 87.716118,84.730085 82.195469,79.315763 77.082775,73.495027 C 74.426407,70.545901 71.849168,67.511109 69.223505,64.530422 C 68.544092,63.904358 67.692503,64.994307 68.211288,65.723124 C 70.690106,72.181197 73.166217,78.641442 75.743455,85.059505 C 77.852542,90.280998 80.316566,95.337921 82.570424,100.49208 C 82.895548,101.41954 83.455084,102.32359 83.534616,103.30401 C 83.290164,104.58773 81.914438,104.8266 81.006048,105.35434 C 77.976807,106.83523 74.80095,108.53656 73.038381,111.73959 C 71.326529,114.8574 71.220799,118.71192 70.83767,122.32134 C 70.677021,123.93487 68.841327,124.41715 67.609496,123.72771 C 66.502361,123.0066 65.218354,122.75303 64.025963,122.2545 C 60.782791,121.13317 57.4954,120.12406 54.162512,119.61674 C 50.833742,119.36261 47.583907,120.43293 44.918993,122.36494 C 41.407926,124.57539 38.515586,128.01348 37.07031,132.23328 C 35.443024,137.36864 36.212279,143.42888 38.850937,148.36973 C 41.380323,153.31292 45.466554,157.27986 50.066877,159.73722 C 52.849661,161.20984 55.871293,161.84435 58.679973,163.21788 C 62.510613,165.21259 66.014568,167.95665 69.861093,169.91752 C 78.013715,174.26818 86.568471,177.4854 95.217636,179.98449 C 102.60176,182.05225 110.09284,183.5402 117.59547,184.24532 C 127.22959,185.09814 136.9709,184.83163 146.13948,182.21804 C 152.65288,180.33244 158.92878,177.3468 164.09209,172.73584 C 167.63344,169.5609 170.54696,165.5684 172.54805,161.00458 C 174.77389,156.10181 176.28097,150.81183 177.82886,145.57147 C 179.38808,139.92073 180.56651,134.12645 181.67039,128.31558 C 182.33558,125.61538 183.48053,123.07031 185.24823,121.1063 C 189.7378,115.53401 194.39719,109.91416 197.13989,102.94336 C 198.51715,99.284194 199.06089,95.236892 199.04015,91.182185 C 199.09732,85.184294 198.43805,79.152548 197.88551,73.143161 C 197.25066,67.289801 196.50952,61.44266 195.77216,55.595541 C 195.67947,55.456481 195.54792,55.17847 195.36312,55.311104 z"
       style="fill:url(#radialGradient3977);fill-opacity:1;fill-rule:nonzero;stroke:none;stroke-width:2.70000005;stroke-linecap:butt;stroke-linejoin:miter;marker:none;stroke-miterlimit:4;stroke-dashoffset:0;stroke-opacity:1;visibility:visible;display:inline;overflow:visible" />
  </g>
</svg>
