<?xml version="1.0" encoding="UTF-8" standalone="no"?>
<!-- Created with Inkscape (http://www.inkscape.org/) -->

<svg
   xmlns:dc="http://purl.org/dc/elements/1.1/"
   xmlns:cc="http://creativecommons.org/ns#"
   xmlns:rdf="http://www.w3.org/1999/02/22-rdf-syntax-ns#"
   xmlns:svg="http://www.w3.org/2000/svg"
   xmlns="http://www.w3.org/2000/svg"
   xmlns:xlink="http://www.w3.org/1999/xlink"
   xmlns:sodipodi="http://sodipodi.sourceforge.net/DTD/sodipodi-0.dtd"
   xmlns:inkscape="http://www.inkscape.org/namespaces/inkscape"
   width="256"
   height="256"
   id="svg2"
   sodipodi:version="0.32"
   inkscape:version="0.47pre0 r21549"
   version="1.0"
   sodipodi:docname="gnomebaker.svg"
   inkscape:output_extension="org.inkscape.output.svg.inkscape">
  <defs
     id="defs4">
    <linearGradient
       inkscape:collect="always"
       id="linearGradient3494">
      <stop
         style="stop-color:#01bdfb;stop-opacity:1;"
         offset="0"
         id="stop20773" />
      <stop
         style="stop-color:#01bdfb;stop-opacity:0;"
         offset="1"
         id="stop3498" />
    </linearGradient>
    <linearGradient
       inkscape:collect="always"
       xlink:href="#linearGradient3494"
       id="linearGradient2769"
       gradientUnits="userSpaceOnUse"
       gradientTransform="matrix(0.9407168,0,0,0.9407168,-118.51409,3.5207851)"
       x1="263.90302"
       y1="173.24051"
       x2="253.41721"
       y2="224.88" />
    <linearGradient
       inkscape:collect="always"
       id="linearGradient3486">
      <stop
         style="stop-color:#ff9202;stop-opacity:1;"
         offset="0"
         id="stop20768" />
      <stop
         style="stop-color:#ff9202;stop-opacity:0;"
         offset="1"
         id="stop3490" />
    </linearGradient>
    <linearGradient
       inkscape:collect="always"
       xlink:href="#linearGradient3486"
       id="linearGradient2767"
       gradientUnits="userSpaceOnUse"
       gradientTransform="matrix(0.9407168,0,0,0.9407168,9.1327018,2.4872084)"
       x1="128.21201"
       y1="174.33923"
       x2="117.72621"
       y2="225.97871" />
    <linearGradient
       inkscape:collect="always"
       id="linearGradient3747">
      <stop
         style="stop-color:#62d4ff;stop-opacity:1;"
         offset="0"
         id="stop3749" />
      <stop
         style="stop-color:#62d4ff;stop-opacity:0;"
         offset="1"
         id="stop3751" />
    </linearGradient>
    <linearGradient
       inkscape:collect="always"
       xlink:href="#linearGradient3747"
       id="linearGradient2774"
       gradientUnits="userSpaceOnUse"
       gradientTransform="matrix(0.9407168,0,0,0.9407168,17.975744,25.255236)"
       x1="52.238205"
       y1="81.354073"
       x2="79.057945"
       y2="171.98245" />
    <linearGradient
       inkscape:collect="always"
       id="linearGradient4155">
      <stop
         style="stop-color:#f4d30f;stop-opacity:1;"
         offset="0"
         id="stop4157" />
      <stop
         style="stop-color:#f4d30f;stop-opacity:0;"
         offset="1"
         id="stop4159" />
    </linearGradient>
    <radialGradient
       inkscape:collect="always"
       xlink:href="#linearGradient4155"
       id="radialGradient2772"
       gradientUnits="userSpaceOnUse"
       gradientTransform="matrix(1.2831546,0.4876052,-0.3559035,0.9365758,79.37923,-20.185837)"
       cx="38.848557"
       cy="166.82494"
       fx="38.848557"
       fy="166.82494"
       r="53.112825" />
    <linearGradient
       inkscape:collect="always"
       id="linearGradient3739">
      <stop
         style="stop-color:#62d4ff;stop-opacity:1;"
         offset="0"
         id="stop3741" />
      <stop
         style="stop-color:#62d4ff;stop-opacity:0;"
         offset="1"
         id="stop3743" />
    </linearGradient>
    <linearGradient
       inkscape:collect="always"
       xlink:href="#linearGradient3739"
       id="linearGradient2779"
       gradientUnits="userSpaceOnUse"
       gradientTransform="matrix(0.9407168,0,0,0.9407168,4.2419093,22.116074)"
       x1="197.26825"
       y1="112.65198"
       x2="157.06654"
       y2="174.72923" />
    <linearGradient
       inkscape:collect="always"
       id="linearGradient3370">
      <stop
         style="stop-color:#ffaa00;stop-opacity:1;"
         offset="0"
         id="stop3372" />
      <stop
         style="stop-color:#ffaa00;stop-opacity:0;"
         offset="1"
         id="stop3374" />
    </linearGradient>
    <radialGradient
       inkscape:collect="always"
       xlink:href="#linearGradient3370"
       id="radialGradient2777"
       gradientUnits="userSpaceOnUse"
       gradientTransform="matrix(1.6198869,6.407265e-2,-5.215192e-2,1.3185065,-103.37857,-40.426448)"
       cx="169.47641"
       cy="143.4816"
       fx="169.47641"
       fy="143.4816"
       r="40.328331" />
    <linearGradient
       inkscape:collect="always"
       id="linearGradient3727">
      <stop
         style="stop-color:#5fdeff;stop-opacity:1;"
         offset="0"
         id="stop3729" />
      <stop
         style="stop-color:#5fdeff;stop-opacity:0;"
         offset="1"
         id="stop3731" />
    </linearGradient>
    <linearGradient
       inkscape:collect="always"
       xlink:href="#linearGradient3727"
       id="linearGradient3563"
       gradientUnits="userSpaceOnUse"
       gradientTransform="matrix(0.9407168,0,0,0.9407168,13.267,11.129006)"
       x1="56.123398"
       y1="66.468346"
       x2="495.62741"
       y2="282.10364" />
    <linearGradient
       inkscape:collect="always"
       id="linearGradient3286">
      <stop
         style="stop-color:#bec1ff;stop-opacity:1;"
         offset="0"
         id="stop3288" />
      <stop
         style="stop-color:#bec1ff;stop-opacity:0;"
         offset="1"
         id="stop3290" />
    </linearGradient>
    <linearGradient
       inkscape:collect="always"
       xlink:href="#linearGradient3286"
       id="linearGradient3561"
       gradientUnits="userSpaceOnUse"
       gradientTransform="matrix(0.9407168,0,0,0.9407168,88.201354,-17.294367)"
       x1="-23.533258"
       y1="96.682938"
       x2="102.31249"
       y2="104.59554" />
    <linearGradient
       inkscape:collect="always"
       id="linearGradient3352">
      <stop
         style="stop-color:#ffbd18;stop-opacity:1;"
         offset="0"
         id="stop3354" />
      <stop
         style="stop-color:#ffbd18;stop-opacity:0;"
         offset="1"
         id="stop3356" />
    </linearGradient>
    <linearGradient
       inkscape:collect="always"
       xlink:href="#linearGradient3352"
       id="linearGradient2782"
       gradientUnits="userSpaceOnUse"
       gradientTransform="matrix(0.9407168,0,0,0.9407168,-93.652605,30.853947)"
       x1="209.32727"
       y1="123.33047"
       x2="289.51074"
       y2="123.33047" />
    <linearGradient
       inkscape:collect="always"
       id="linearGradient4613">
      <stop
         style="stop-color:#000000;stop-opacity:1;"
         offset="0"
         id="stop4615" />
      <stop
         style="stop-color:#000000;stop-opacity:0;"
         offset="1"
         id="stop4617" />
    </linearGradient>
    <linearGradient
       inkscape:collect="always"
       id="linearGradient4605">
      <stop
         style="stop-color:#f70000;stop-opacity:1;"
         offset="0"
         id="stop4607" />
      <stop
         style="stop-color:#000000;stop-opacity:1"
         offset="1"
         id="stop4609" />
    </linearGradient>
    <linearGradient
       id="linearGradient4591"
       inkscape:collect="always">
      <stop
         id="stop4593"
         offset="0"
         style="stop-color:#ffffff;stop-opacity:1" />
      <stop
         id="stop4595"
         offset="1"
         style="stop-color:#ffffff;stop-opacity:0;" />
    </linearGradient>
    <mask
       maskUnits="userSpaceOnUse"
       x="122.963"
       y="97.149"
       width="576.609"
       height="587.491"
       id="XMLID_23_">
      <g
         id="g31"
         style="filter:url(#Adobe_OpacityMaskFilter)">
        <radialGradient
           id="XMLID_24_"
           cx="88.977501"
           cy="-20.899401"
           r="673.11609"
           fx="88.977501"
           fy="-20.899401"
           gradientUnits="userSpaceOnUse">
          <stop
             offset="0.309"
             style="stop-color:#FFFFFF"
             id="stop34" />
          <stop
             offset="1"
             style="stop-color:#000000"
             id="stop3816" />
        </radialGradient>
        <ellipse
           sodipodi:ry="349.10599"
           sodipodi:rx="512.93402"
           sodipodi:cy="286.172"
           sodipodi:cx="295.89499"
           cx="295.89499"
           cy="286.172"
           rx="512.93402"
           ry="349.10599"
           id="ellipse38"
           style="fill:url(#XMLID_24_)" />
      </g>
    </mask>
    <linearGradient
       inkscape:collect="always"
       xlink:href="#linearGradient4591"
       id="linearGradient3196"
       x1="99.881126"
       y1="68.792747"
       x2="171.01328"
       y2="46.998337"
       gradientUnits="userSpaceOnUse"
       gradientTransform="matrix(0.8301257,0,0,0.9649488,-179.55402,176.05704)" />
    <linearGradient
       inkscape:collect="always"
       xlink:href="#linearGradient4591"
       id="linearGradient4599"
       gradientUnits="userSpaceOnUse"
       gradientTransform="matrix(0.9457809,0,0,1.1075807,6.5485589,0.4212711)"
       x1="104.92213"
       y1="71.555038"
       x2="161.92285"
       y2="35.137646" />
    <linearGradient
       inkscape:collect="always"
       xlink:href="#linearGradient4605"
       id="linearGradient4611"
       x1="168.56552"
       y1="-13.762122"
       x2="206.93968"
       y2="23.825462"
       gradientUnits="userSpaceOnUse" />
    <linearGradient
       inkscape:collect="always"
       xlink:href="#linearGradient4613"
       id="linearGradient4619"
       x1="168.56552"
       y1="-13.762122"
       x2="351.36194"
       y2="165.28738"
       gradientUnits="userSpaceOnUse" />
  </defs>
  <sodipodi:namedview
     id="base"
     pagecolor="#ffffff"
     bordercolor="#666666"
     borderopacity="1.0"
     gridtolerance="10000"
     guidetolerance="10"
     objecttolerance="10"
     inkscape:pageopacity="0.0"
     inkscape:pageshadow="2"
     inkscape:zoom="1.2871553"
     inkscape:cx="128"
     inkscape:cy="97.383295"
     inkscape:document-units="px"
     inkscape:current-layer="layer1"
     showgrid="false"
     showguides="true"
     inkscape:guide-bbox="true"
     inkscape:window-width="773"
     inkscape:window-height="676"
     inkscape:window-x="304"
     inkscape:window-y="113" />
  <metadata
     id="metadata7">
    <rdf:RDF>
      <cc:Work
         rdf:about="">
        <dc:format>image/svg+xml</dc:format>
        <dc:type
           rdf:resource="http://purl.org/dc/dcmitype/StillImage" />
      </cc:Work>
    </rdf:RDF>
  </metadata>
  <g
     inkscape:label="Layer 1"
     inkscape:groupmode="layer"
     id="layer1">
    <rect
       style="opacity:1;fill:url(#linearGradient4619);fill-opacity:1;stroke:url(#linearGradient4611);stroke-width:2;stroke-miterlimit:4;stroke-dasharray:none;stroke-opacity:1"
       id="rect2383"
       width="209.543"
       height="209.543"
       x="75.938042"
       y="-106.63853"
       ry="61.030819"
       transform="matrix(0.6997472,0.7143906,-0.7143906,0.6997472,0,0)" />
    <rect
       style="opacity:0.26851852;fill:url(#linearGradient4599);fill-opacity:1;stroke:none;stroke-width:2;stroke-miterlimit:4;stroke-dasharray:none;stroke-opacity:1"
       id="rect4597"
       width="198.18179"
       height="232.08572"
       x="78.369324"
       y="-117.6895"
       ry="67.596573"
       transform="matrix(0.7600468,0.6498684,-0.7370851,0.6758,0,0)" />
    <rect
       transform="matrix(-0.796691,0.6043868,0.6617245,0.7497471,0,0)"
       ry="58.891621"
       y="73.156349"
       x="-116.51585"
       height="202.19823"
       width="173.94705"
       id="rect3188"
       style="opacity:0.27777778;fill:url(#linearGradient3196);fill-opacity:1;stroke:none;stroke-width:2;stroke-miterlimit:4;stroke-dasharray:none;stroke-opacity:1" />
    <path
       sodipodi:nodetypes="ccc"
       id="path2276"
       d="M 108.10388,41.662742 L 108.10388,37.156303 L 108.10388,41.662742 z"
       style="fill:#ffffff;fill-opacity:0.75688076;fill-rule:nonzero;stroke:none;stroke-width:0.5;stroke-linecap:round;stroke-linejoin:round;stroke-miterlimit:4;stroke-dasharray:none;stroke-dashoffset:4;stroke-opacity:1" />
    <g
       id="g20710"
       transform="matrix(0.845555,0,0,0.845555,18.918171,25.970519)">
      <path
         transform="matrix(0.8647028,0,0,0.8647028,112.01009,13.013052)"
         d="M 53.287554,113.16738 A 32.412018,32.412018 0 1 1 -11.536482,113.16738 A 32.412018,32.412018 0 1 1 53.287554,113.16738 z"
         sodipodi:ry="32.412018"
         sodipodi:rx="32.412018"
         sodipodi:cy="113.16738"
         sodipodi:cx="20.875536"
         id="path3300"
         style="fill:none;fill-opacity:1;stroke:#7d949a;stroke-width:2.17581534;stroke-linecap:round;stroke-linejoin:round;stroke-miterlimit:4;stroke-dasharray:none;stroke-opacity:1"
         sodipodi:type="arc" />
      <path
         style="fill:url(#linearGradient2782);fill-opacity:1;fill-rule:evenodd;stroke:none;stroke-width:1px;stroke-linecap:butt;stroke-linejoin:miter;stroke-opacity:1"
         d="M 154.92271,97.519674 C 154.14398,98.924139 150.36255,102.14804 148.20445,102.68756 C 146.5499,103.1012 144.35061,105.38967 142.51978,106.30508 C 141.09059,107.01967 139.58881,109.58308 138.90226,110.95618 C 137.80224,113.15621 135.37659,114.99864 133.73437,116.64085 C 132.40874,117.96649 132.18401,120.93268 132.18401,123.35911 C 132.18401,124.59524 130.94889,128.29957 130.63364,129.56058 C 130.22693,131.18741 128.61928,134.31354 127.53292,135.76203 C 126.64318,136.94833 127.27466,142.48084 127.53292,143.51386 C 128.06547,145.64412 126.91198,148.68567 126.49933,150.7489 C 125.81281,154.18152 127.14933,151.79853 126.49933,149.19853 C 125.99292,147.17287 127.06193,145.24746 126.49933,142.99707 C 126.00038,141.00122 123.7027,138.43738 122.88182,136.7956 C 122.06288,135.15775 120.90215,133.48022 119.2643,132.66129 C 117.31536,131.68683 120.80298,136.74885 121.33145,138.86276 C 121.99223,141.50593 122.5502,143.28994 121.84824,146.0978 C 121.16207,148.84249 120.66313,151.05195 119.78108,152.81605 C 118.75763,154.86297 115.68657,155.877 114.0964,157.46716 C 112.751,158.81258 115.07468,153.62838 114.6132,151.78249 C 114.14628,149.91481 112.72932,146.46434 112.02926,145.06422 C 111.21675,143.43922 107.32601,142.33805 105.82779,141.9635 C 102.2781,141.07607 102.71606,140.57071 105.31101,144.03065 C 106.74214,145.93883 107.37816,147.86203 107.37816,150.7489 C 107.37816,153.11988 108.14607,154.39554 107.37816,157.46716 C 106.89409,159.40346 106.32816,161.15039 105.82779,163.15183 C 105.17487,165.76351 104.40974,168.30729 103.76064,170.90366 C 103.15777,173.31513 104.35848,176.75042 105.31101,178.6555 C 106.34575,180.72496 106.34342,182.78747 107.37816,184.85694 C 108.6116,187.32383 110.30039,188.81278 112.02926,190.54163 C 113.91175,192.42412 117.12362,194.14076 119.2643,194.67593 C 122.63726,195.51918 125.34011,196.2263 129.08328,196.2263 C 132.24709,196.2263 134.84556,195.70951 137.86869,195.70951 C 139.30217,195.70951 142.96837,193.41807 144.58694,192.60879 C 147.27823,191.26313 149.84685,188.89923 151.82198,186.9241 C 153.78781,184.95827 156.26988,182.99299 157.50666,181.75623 C 158.53597,180.72689 159.2309,176.40961 159.5738,175.03798 C 160.19595,172.54939 160.94715,170.74092 162.15775,168.31971 C 163.22983,166.17557 162.67454,162.96388 162.67454,160.56789 C 162.67454,157.86906 162.00823,155.48131 162.67454,152.81605 C 163.26414,150.45765 163.70812,148.08273 163.70812,145.58102 C 163.70812,143.35289 162.27085,140.63932 161.64096,139.37956 C 160.45993,137.0175 158.69216,135.39717 156.98987,133.69488 C 155.21348,131.9185 154.29159,129.84871 153.37235,128.0102 C 152.3063,125.87813 151.30519,124.43806 151.30519,121.80874 C 151.30519,119.10855 151.21164,116.49825 151.82198,114.05691 C 152.42628,111.63973 153.2539,110.39636 153.88913,107.85545 C 154.44949,105.61404 155.56745,103.98203 156.47307,102.17077 C 157.18944,100.73805 155.3527,98.236328 154.92271,97.519674 z"
         id="path3350" />
      <g
         id="g20687">
        <path
           id="path3284"
           d="M 128.75638,25.853066 C 80.68885,25.853066 41.681295,64.402249 41.681295,111.89925 C 41.681295,159.39625 80.68885,197.94543 128.75638,197.94543 C 176.82393,197.94543 215.86087,159.39626 215.86088,111.89925 C 215.86088,64.402244 176.82393,25.853065 128.75638,25.853066 z M 128.75638,82.972208 C 144.58872,82.972208 157.44824,95.709798 157.44824,111.3995 C 157.44824,127.08918 144.58872,139.79738 128.75638,139.79738 C 112.92405,139.79738 100.09392,127.08918 100.09392,111.3995 C 100.09392,95.709784 112.92405,82.972208 128.75638,82.972208 z"
           style="opacity:1;fill:url(#linearGradient3561);fill-opacity:1;stroke:url(#linearGradient3563);stroke-width:1.88143349;stroke-linecap:round;stroke-linejoin:round;stroke-miterlimit:4;stroke-dasharray:none;stroke-opacity:1" />
        <path
           sodipodi:type="arc"
           style="fill:none;fill-opacity:0.97877305;stroke:#7d949a;stroke-width:2;stroke-linecap:round;stroke-linejoin:round;stroke-miterlimit:4;stroke-dasharray:none;stroke-opacity:1"
           id="path3529"
           sodipodi:cx="120.30901"
           sodipodi:cy="117.01288"
           sodipodi:rx="12.635193"
           sodipodi:ry="12.635193"
           d="M 132.94421,117.01288 A 12.635193,12.635193 0 1 1 107.67382,117.01288 A 12.635193,12.635193 0 1 1 132.94421,117.01288 z"
           transform="matrix(0.9407168,0,0,0.9407168,16.88452,0.7932336)" />
        <path
           id="path3368"
           d="M 198.03765,98.083993 C 197.43248,98.537412 193.24741,100.22071 191.31939,101.18472 C 189.39123,102.14881 188.47453,104.11657 187.18509,105.83582 C 186.17301,107.18527 185.40622,108.87677 184.60114,110.48693 C 183.6165,112.45622 184.3021,115.21933 183.56756,116.68839 C 182.48429,118.85494 181.51587,121.27762 180.98362,123.40664 C 180.45365,125.52652 179.45762,126.92674 178.91647,129.09131 C 178.41919,131.08043 176.46931,133.60562 175.29894,134.77599 C 173.89556,136.17939 172.86169,138.61692 172.19822,139.94388 C 171.20066,141.939 169.82484,143.65704 168.58069,146.14534 C 167.54881,148.2091 166.60181,149.06953 165.47997,151.31322 C 164.93522,152.4027 163.75734,153.03586 162.89601,153.89717 C 161.18636,155.60682 163.41281,149.07996 163.41281,146.66213 C 163.41281,144.76833 162.24645,141.99665 161.86244,140.46067 C 161.29998,138.21082 161.78148,135.48573 161.34566,133.74241 C 160.87855,131.87396 160.31208,137.50113 160.31208,139.42709 C 160.31208,142.87284 159.65446,146.28618 157.21135,148.72929 C 155.44815,150.49248 153.976,153.60475 152.56025,155.96433 C 151.16785,158.28499 149.69287,160.38208 147.90915,162.16579 C 145.97401,164.10092 142.55232,166.39456 141.70769,166.81689 C 139.91086,167.7153 144.32119,163.59793 144.80842,161.64899 C 145.38701,159.33466 146.77124,156.89845 147.39237,154.41396 C 148.176,151.27939 147.60289,149.05459 146.87558,146.14534 C 146.13018,143.16374 145.842,140.60959 145.842,145.11176 C 145.842,147.51246 144.37511,151.66305 143.25806,153.89717 C 141.98273,156.44782 140.92124,159.08759 139.64053,161.64899 C 138.52831,163.87344 136.66634,165.65676 134.98944,167.33367 C 132.64784,169.67527 131.21565,171.62425 129.30476,173.53514 C 127.35453,175.48538 125.59748,178.36575 124.65366,180.25339 C 123.30393,182.95286 123.10329,184.2776 123.10329,187.48842 C 123.10329,189.88194 124.57714,192.86703 125.17045,195.24026 C 125.82551,197.8605 128.61453,200.75149 130.33834,202.4753 C 131.82093,203.95788 136.92948,203.50887 139.12374,203.50887 C 142.08968,203.50887 147.48619,203.46196 149.45951,202.4753 C 152.42777,200.99117 153.99267,201.03058 156.69456,199.37456 C 163.56007,195.16662 164.52553,194.68389 167.54712,193.1731 C 170.13006,191.88163 171.03181,188.49242 173.74858,186.45485 C 176.68744,184.2507 176.12268,183.28939 178.39968,180.25339 C 181.24097,176.465 181.02079,177.14336 176.84931,178.18623 C 174.14776,178.86162 170.91505,177.73624 168.58069,177.15265 C 164.33659,176.09163 168.11991,176.23427 170.64785,175.60229 C 173.26626,174.94769 175.77142,173.05158 177.88289,171.46798 C 179.70161,170.10394 181.65605,168.7284 183.56756,166.81689 C 185.35046,165.03398 186.21006,164.69119 188.21866,162.68258 C 190.1599,160.74135 192.06761,159.44553 193.90334,156.9979 C 195.25292,155.19846 195.67688,151.90045 196.48728,150.27965 C 197.28081,148.69259 197.00407,145.8857 197.00407,143.5614 C 197.00407,141.68156 195.97049,139.34287 195.97049,136.84315 C 195.97049,135.15958 194.22732,131.42081 193.90334,130.12489 C 193.23527,127.45261 192.97242,125.88445 192.35298,123.40664 C 191.65706,120.623 190.93124,118.75328 190.28581,116.17161 C 189.6136,113.48276 190.28581,111.93209 190.28581,109.45335 C 190.28581,107.09229 192.07023,103.81736 192.86977,102.21831 C 193.79416,100.3695 195.47749,99.620092 198.03765,98.083993 z"
           style="fill:url(#radialGradient2777);fill-opacity:1;fill-rule:evenodd;stroke:url(#linearGradient2779);stroke-width:0.94071674px;stroke-linecap:butt;stroke-linejoin:miter;stroke-opacity:1"
           sodipodi:nodetypes="cssssssssssssssssssssssssssssssssssssssssssssssssssssc" />
        <path
           style="fill:url(#radialGradient2772);fill-opacity:1;fill-rule:evenodd;stroke:url(#linearGradient2774);stroke-width:0.94071674px;stroke-linecap:butt;stroke-linejoin:miter;stroke-opacity:1"
           d="M 58.285259,102.25673 C 58.890423,102.71015 63.075492,104.39346 65.00351,105.35747 C 66.931679,106.32155 67.848379,108.28931 69.137819,110.00857 C 70.149898,111.358 70.916686,113.04951 71.721761,114.65966 C 72.706409,116.62895 72.020815,119.39206 72.755345,120.86112 C 73.838618,123.02768 74.80703,125.45036 75.339287,127.57938 C 75.869259,129.69926 76.86529,131.09947 77.406437,133.26405 C 77.903719,135.25317 79.853589,137.77837 81.023963,138.94872 C 82.427353,140.35212 83.461219,142.78966 84.124688,144.11661 C 85.122253,146.11174 86.49807,147.82978 87.742215,150.31808 C 88.774096,152.38184 89.721096,153.24227 90.842939,155.48596 C 91.387689,156.57545 92.56557,157.20859 93.42689,158.0699 C 95.136549,159.77956 92.910098,153.25269 92.910098,150.83486 C 92.910098,148.94106 94.076465,146.16939 94.460465,144.6334 C 95.022929,142.38356 94.541424,139.65847 94.977248,137.91515 C 95.444361,136.0467 96.010832,141.67387 96.010832,143.59983 C 96.010832,147.04558 96.66845,150.45891 99.111557,152.90202 C 100.87476,154.66521 102.3469,157.77748 103.76265,160.13706 C 105.15506,162.45773 106.63003,164.55481 108.41376,166.33852 C 110.34889,168.27366 113.77058,170.56729 114.61521,170.98962 C 116.41203,171.88804 112.00171,167.77067 111.51448,165.82173 C 110.9359,163.5074 109.55166,161.07119 108.93054,158.5867 C 108.1469,155.45212 108.72002,153.22733 109.44733,150.31808 C 110.19272,147.33648 110.48091,144.78233 110.48091,149.28449 C 110.48091,151.6852 111.94779,155.83579 113.06484,158.0699 C 114.34017,160.62055 115.40166,163.26033 116.68237,165.82173 C 117.79459,168.04618 119.65656,169.82951 121.33346,171.5064 C 123.67507,173.84801 125.10725,175.79699 127.01814,177.70787 C 128.96838,179.65811 130.72542,182.53848 131.66924,184.42612 C 133.01897,187.12559 133.2196,188.45034 133.2196,191.66116 C 133.2196,194.05467 131.74575,197.03976 131.15244,199.41299 C 130.49739,202.03324 127.70837,204.92423 125.98456,206.64804 C 124.50197,208.13061 119.39341,207.68162 117.19915,207.68162 C 114.23322,207.68162 111.42065,206.08433 109.44733,205.09767 C 106.47908,203.61354 103.49637,202.89737 100.66192,201.48014 C 97.41393,199.85615 94.898105,197.82305 91.876523,196.31226 C 89.293588,195.0208 87.358252,192.66516 84.64148,190.62758 C 81.702615,188.42344 80.200225,187.46212 77.923229,184.42612 C 75.081935,180.63774 75.302119,181.3161 79.473596,182.35897 C 82.175146,183.03435 85.407854,181.90899 87.742215,181.32539 C 91.986324,180.26437 88.202997,180.40701 85.675055,179.77503 C 83.056645,179.12043 80.551488,177.22432 78.440022,175.64072 C 76.621296,174.27668 74.666863,172.90114 72.755345,170.98962 C 70.972443,169.20672 70.112853,168.86392 68.104244,166.85531 C 66.163009,164.91408 64.255292,163.61827 62.419568,161.17064 C 61.069988,159.3712 60.646026,156.07318 59.835626,154.45239 C 59.042103,152.86533 59.318843,150.05844 59.318843,147.73413 C 59.318843,145.85429 60.352418,143.51561 60.352418,141.01588 C 60.352418,139.33231 62.095594,135.59355 62.419568,134.29763 C 63.087637,131.62535 63.350483,130.05718 63.969935,127.57938 C 64.665849,124.79574 65.391669,122.92601 66.037095,120.34434 C 66.709303,117.65549 66.037095,116.10482 66.037095,113.62608 C 66.037095,111.26502 64.252677,107.9901 63.453143,106.39104 C 62.528748,104.54225 60.845419,103.79283 58.285259,102.25673 z"
           id="path3366" />
        <path
           style="fill:url(#linearGradient2767);fill-opacity:1;fill-rule:evenodd;stroke:url(#linearGradient2769);stroke-width:0.94071674px;stroke-linecap:butt;stroke-linejoin:miter;stroke-opacity:1"
           d="M 109.90647,166.3092 C 109.38969,165.44788 108.8729,164.58657 108.3561,163.72525 C 106.93682,161.35977 106.6934,159.99539 105.25538,158.55736 C 103.37102,156.67301 102.12416,156.21657 99.570704,154.93985 C 97.458272,153.88363 95.551373,153.90627 92.852457,153.90627 C 91.261714,153.90627 95.335629,155.92304 96.469974,156.49021 C 98.576925,157.54369 99.954064,159.45751 101.12107,160.62452 C 102.81513,162.31859 103.56679,164.20596 104.2218,166.82599 C 104.90812,169.57127 104.3635,170.91031 103.70501,173.54424 C 103.15181,175.75707 103.05533,178.18055 103.70501,180.77928 C 104.36168,183.40593 105.43942,185.15898 106.80575,186.98074 C 108.45394,189.17833 108.76131,192.86801 111.45684,194.21577 C 114.43812,195.70641 115.08581,197.06097 118.17509,197.8333 C 120.86489,198.50575 125.81596,197.67637 128.51086,198.35009 C 131.41779,199.07682 134.93205,199.07034 137.81306,198.35009 C 140.251,197.7406 141.98347,196.52327 144.53131,195.24935 C 147.09944,193.96529 148.83043,192.06621 151.76635,190.59826 C 154.83069,189.06609 155.58577,186.36701 157.45103,183.88 C 159.04716,181.75184 160.20164,179.89558 159.51818,177.16175 C 158.86128,174.53415 158.94101,172.3899 157.96781,170.4435 C 157.09234,168.69255 155.46205,173.09547 154.35029,174.57781 C 152.48274,177.06789 152.43977,177.60023 149.18241,179.22891 C 147.13048,180.25487 143.48981,179.61452 141.94737,179.22891 C 139.22394,178.54805 137.87125,176.76135 136.77949,174.57781 C 135.67203,172.3629 134.5294,170.07765 133.67875,168.37635 C 132.72787,166.47459 133.16195,163.40937 133.16195,161.14131 C 133.16195,157.87038 133.89271,155.8604 135.7459,153.38948 C 137.2653,151.36362 136.82175,147.87387 136.2627,145.63765 C 135.99768,144.57763 131.69457,141.95317 131.09481,141.50334 C 129.43535,140.25875 132.53926,145.84948 131.61159,147.70481 C 130.58075,149.76648 130.14431,152.02359 129.54444,154.42306 C 129.13679,156.05365 126.12001,158.64444 125.41013,159.59094 C 124.22964,161.16493 123.85977,164.27462 123.85977,166.82599 C 123.85977,169.36189 121.81477,171.94956 120.75903,174.06103 C 119.84798,175.88313 117.64477,181.3502 118.69188,177.16175 C 119.30739,174.69972 119.19203,172.44412 118.69188,170.4435 C 118.13568,168.21868 116.5764,167.97668 114.04078,167.34278 C 112.44438,166.94367 111.83189,166.69427 109.90647,166.3092 z"
           id="path3484"
           sodipodi:nodetypes="cssssssssssssssssssssssssssssssssssssc" />
      </g>
    </g>
  </g>
</svg>
