<?xml version="1.0" encoding="UTF-8" standalone="no"?>
<!-- Created with Inkscape (http://www.inkscape.org/) -->

<svg
   xmlns:dc="http://purl.org/dc/elements/1.1/"
   xmlns:cc="http://creativecommons.org/ns#"
   xmlns:rdf="http://www.w3.org/1999/02/22-rdf-syntax-ns#"
   xmlns:svg="http://www.w3.org/2000/svg"
   xmlns="http://www.w3.org/2000/svg"
   xmlns:xlink="http://www.w3.org/1999/xlink"
   xmlns:sodipodi="http://sodipodi.sourceforge.net/DTD/sodipodi-0.dtd"
   xmlns:inkscape="http://www.inkscape.org/namespaces/inkscape"
   width="256"
   height="256"
   id="svg2"
   sodipodi:version="0.32"
   inkscape:version="0.47pre0 r21549"
   version="1.0"
   sodipodi:docname="googleearth.svg"
   inkscape:output_extension="org.inkscape.output.svg.inkscape">
  <defs
     id="defs4">
    <linearGradient
       inkscape:collect="always"
       id="linearGradient20406">
      <stop
         style="stop-color:#ffffff;stop-opacity:1;"
         offset="0"
         id="stop20408" />
      <stop
         style="stop-color:#ffffff;stop-opacity:0;"
         offset="1"
         id="stop20410" />
    </linearGradient>
    <linearGradient
       id="linearGradient4224">
      <stop
         style="stop-color:#95d2f8;stop-opacity:1;"
         offset="0"
         id="stop4226" />
      <stop
         id="stop4240"
         offset="0.41"
         style="stop-color:#357bb5;stop-opacity:1;" />
      <stop
         style="stop-color:#13324e;stop-opacity:1;"
         offset="1"
         id="stop4228" />
    </linearGradient>
    <linearGradient
       inkscape:collect="always"
       id="linearGradient4613">
      <stop
         style="stop-color:#000000;stop-opacity:1;"
         offset="0"
         id="stop4615" />
      <stop
         style="stop-color:#000000;stop-opacity:0;"
         offset="1"
         id="stop4617" />
    </linearGradient>
    <linearGradient
       inkscape:collect="always"
       id="linearGradient4605">
      <stop
         style="stop-color:#f70000;stop-opacity:1;"
         offset="0"
         id="stop4607" />
      <stop
         style="stop-color:#000000;stop-opacity:1"
         offset="1"
         id="stop4609" />
    </linearGradient>
    <linearGradient
       id="linearGradient4591"
       inkscape:collect="always">
      <stop
         id="stop4593"
         offset="0"
         style="stop-color:#ffffff;stop-opacity:1" />
      <stop
         id="stop4595"
         offset="1"
         style="stop-color:#ffffff;stop-opacity:0;" />
    </linearGradient>
    <mask
       maskUnits="userSpaceOnUse"
       x="122.963"
       y="97.149"
       width="576.609"
       height="587.491"
       id="XMLID_23_">
      <g
         id="g31"
         style="filter:url(#Adobe_OpacityMaskFilter)">
        <radialGradient
           id="XMLID_24_"
           cx="88.977501"
           cy="-20.899401"
           r="673.11609"
           fx="88.977501"
           fy="-20.899401"
           gradientUnits="userSpaceOnUse">
          <stop
             offset="0.309"
             style="stop-color:#FFFFFF"
             id="stop34" />
          <stop
             offset="1"
             style="stop-color:#000000"
             id="stop3816" />
        </radialGradient>
        <ellipse
           sodipodi:ry="349.10599"
           sodipodi:rx="512.93402"
           sodipodi:cy="286.172"
           sodipodi:cx="295.89499"
           cx="295.89499"
           cy="286.172"
           rx="512.93402"
           ry="349.10599"
           id="ellipse38"
           style="fill:url(#XMLID_24_)" />
      </g>
    </mask>
    <linearGradient
       inkscape:collect="always"
       xlink:href="#linearGradient4591"
       id="linearGradient3196"
       x1="99.881126"
       y1="68.792747"
       x2="171.01328"
       y2="46.998337"
       gradientUnits="userSpaceOnUse"
       gradientTransform="matrix(0.8301257,0,0,0.9649488,-179.55402,176.05704)" />
    <linearGradient
       inkscape:collect="always"
       xlink:href="#linearGradient4591"
       id="linearGradient4599"
       gradientUnits="userSpaceOnUse"
       gradientTransform="matrix(0.9457809,0,0,1.1075807,6.5485589,0.4212711)"
       x1="104.92213"
       y1="71.555038"
       x2="161.92285"
       y2="35.137646" />
    <linearGradient
       inkscape:collect="always"
       xlink:href="#linearGradient4605"
       id="linearGradient4611"
       x1="168.56552"
       y1="-13.762122"
       x2="206.93968"
       y2="23.825462"
       gradientUnits="userSpaceOnUse" />
    <linearGradient
       inkscape:collect="always"
       xlink:href="#linearGradient4613"
       id="linearGradient4619"
       x1="168.56552"
       y1="-13.762122"
       x2="351.36194"
       y2="165.28738"
       gradientUnits="userSpaceOnUse" />
    <radialGradient
       inkscape:collect="always"
       xlink:href="#linearGradient4224"
       id="radialGradient20400"
       gradientUnits="userSpaceOnUse"
       gradientTransform="matrix(1.3889127,0,0,1.3201738,43.240107,145.35761)"
       cx="46.972088"
       cy="-33.92337"
       fx="46.972088"
       fy="-33.92337"
       r="60.306107" />
    <linearGradient
       inkscape:collect="always"
       xlink:href="#linearGradient20406"
       id="linearGradient20412"
       x1="228.41068"
       y1="45.069756"
       x2="70.698547"
       y2="151.50601"
       gradientUnits="userSpaceOnUse" />
  </defs>
  <sodipodi:namedview
     id="base"
     pagecolor="#ffffff"
     bordercolor="#666666"
     borderopacity="1.0"
     gridtolerance="10000"
     guidetolerance="10"
     objecttolerance="10"
     inkscape:pageopacity="0.0"
     inkscape:pageshadow="2"
     inkscape:zoom="1.2871553"
     inkscape:cx="128"
     inkscape:cy="97.383295"
     inkscape:document-units="px"
     inkscape:current-layer="layer1"
     showgrid="false"
     showguides="true"
     inkscape:guide-bbox="true"
     inkscape:window-width="773"
     inkscape:window-height="676"
     inkscape:window-x="304"
     inkscape:window-y="113" />
  <metadata
     id="metadata7">
    <rdf:RDF>
      <cc:Work
         rdf:about="">
        <dc:format>image/svg+xml</dc:format>
        <dc:type
           rdf:resource="http://purl.org/dc/dcmitype/StillImage" />
      </cc:Work>
    </rdf:RDF>
  </metadata>
  <g
     inkscape:label="Layer 1"
     inkscape:groupmode="layer"
     id="layer1">
    <rect
       style="opacity:1;fill:url(#linearGradient4619);fill-opacity:1;stroke:url(#linearGradient4611);stroke-width:2;stroke-miterlimit:4;stroke-dasharray:none;stroke-opacity:1"
       id="rect2383"
       width="209.543"
       height="209.543"
       x="75.938042"
       y="-106.63853"
       ry="61.030819"
       transform="matrix(0.6997472,0.7143906,-0.7143906,0.6997472,0,0)" />
    <rect
       style="opacity:0.26851852;fill:url(#linearGradient4599);fill-opacity:1;stroke:none;stroke-width:2;stroke-miterlimit:4;stroke-dasharray:none;stroke-opacity:1"
       id="rect4597"
       width="198.18179"
       height="232.08572"
       x="78.369324"
       y="-117.6895"
       ry="67.596573"
       transform="matrix(0.7600468,0.6498684,-0.7370851,0.6758,0,0)" />
    <rect
       transform="matrix(-0.796691,0.6043868,0.6617245,0.7497471,0,0)"
       ry="58.891621"
       y="73.156349"
       x="-116.51585"
       height="202.19823"
       width="173.94705"
       id="rect3188"
       style="opacity:0.27777778;fill:url(#linearGradient3196);fill-opacity:1;stroke:none;stroke-width:2;stroke-miterlimit:4;stroke-dasharray:none;stroke-opacity:1" />
    <path
       sodipodi:nodetypes="ccc"
       id="path2276"
       d="M 108.10388,41.662742 L 108.10388,37.156303 L 108.10388,41.662742 z"
       style="fill:#ffffff;fill-opacity:0.75688076;fill-rule:nonzero;stroke:none;stroke-width:0.5;stroke-linecap:round;stroke-linejoin:round;stroke-miterlimit:4;stroke-dasharray:none;stroke-dashoffset:4;stroke-opacity:1" />
    <path
       sodipodi:type="arc"
       style="opacity:0.96759261;fill:url(#linearGradient20412);fill-opacity:1;stroke:none;stroke-width:2;stroke-miterlimit:4;stroke-dasharray:none;stroke-opacity:1"
       id="path20404"
       sodipodi:cx="119.25523"
       sodipodi:cy="120.42973"
       sodipodi:rx="66.425552"
       sodipodi:ry="66.425552"
       d="M 185.68079,120.42973 A 66.425552,66.425552 0 1 1 52.829681,120.42973 A 66.425552,66.425552 0 1 1 185.68079,120.42973 z"
       transform="matrix(1.0292398,0,0,1.0292398,5.4474358,-4.6866977)" />
    <path
       style="fill:url(#radialGradient20400);fill-opacity:1;fill-rule:evenodd;stroke:none;stroke-width:2;stroke-linecap:round;stroke-linejoin:miter;marker:none;marker-start:none;marker-mid:none;marker-end:none;stroke-miterlimit:4;stroke-dasharray:none;stroke-dashoffset:0;stroke-opacity:0.42105264;visibility:visible;display:inline;overflow:visible;enable-background:accumulate"
       d="M 126.87066,48.9375 C 88.131241,50.053449 57.026906,81.80459 57.026907,120.8125 C 57.026907,160.52513 89.251769,192.75 128.96441,192.75 C 168.67704,192.75 200.90191,160.52513 200.90191,120.8125 C 200.90191,112.46161 199.45969,104.45907 196.83941,97 C 196.06628,99.882047 194.54067,102.46875 191.58941,102.46875 C 188.79525,102.46874 189.6005,102.88457 183.55816,97.6875 C 173.63326,89.151002 172.61776,77.993297 160.93316,68.8125 C 158.22222,66.682469 155.60671,64.80832 152.96441,63.1875 C 152.08364,62.647227 151.19976,62.144288 150.30816,61.65625 C 139.60893,55.799802 127.7997,53.616636 106.90191,53.25 C 113.17801,50.870161 119.88145,49.392169 126.87066,48.9375 z M 103.65191,61.4375 C 115.66201,61.437501 138.05833,87.977574 146.96441,95.78125 C 158.66126,106.03024 167.65591,114.31212 175.74566,120.15625 C 176.75688,120.88677 177.75898,121.56458 178.74566,122.21875 C 185.65238,126.79802 192.03052,129.48814 199.12066,130 C 198.64034,132.66453 198.02304,135.29479 197.24566,137.84375 C 178.29484,135.815 155.324,122.18571 140.18316,112.3125 C 109.41913,92.251545 107.28442,84.781251 90.495657,84.78125 C 81.086593,84.78125 74.529494,89.300366 67.370657,97.6875 C 66.347966,98.88566 65.334765,100.17779 64.276907,101.53125 C 65.378368,96.956242 66.938219,92.575791 68.901907,88.40625 C 69.149469,87.945711 69.416673,87.456861 69.651907,87.03125 C 73.350002,80.340321 84.658798,65.758178 97.870657,62.21875 C 98.342508,62.092342 98.831729,61.972392 99.308157,61.875 C 100.73745,61.582824 102.19076,61.437499 103.65191,61.4375 z M 79.589407,140.15625 C 85.850034,140.15625 91.081449,143.2215 93.120657,144.28125 C 100.80838,148.27651 127.41138,160.71876 156.58941,160.71875 C 171.69304,160.71875 183.2861,157.04272 189.55816,154.5 C 186.65198,159.09171 183.24626,163.32023 179.37066,167.09375 C 169.55799,170.87903 156.17156,172.46876 145.43316,172.46875 C 123.96417,172.46875 111.13172,166.34375 107.24566,166.34375 C 104.32777,166.34375 101.74566,167.93215 101.74566,171.9375 C 101.74566,175.38033 103.12903,178.37787 104.55816,180.59375 C 104.76233,180.91031 104.94908,181.21622 105.15191,181.5 C 89.850598,175.21303 77.301978,163.58827 69.839407,148.9375 C 70.28631,142.86758 74.266184,140.15625 79.589407,140.15625 z"
       id="path3253" />
  </g>
</svg>
