<?xml version="1.0" encoding="UTF-8" standalone="no"?>
<!-- Created with Inkscape (http://www.inkscape.org/) -->

<svg
   xmlns:dc="http://purl.org/dc/elements/1.1/"
   xmlns:cc="http://creativecommons.org/ns#"
   xmlns:rdf="http://www.w3.org/1999/02/22-rdf-syntax-ns#"
   xmlns:svg="http://www.w3.org/2000/svg"
   xmlns="http://www.w3.org/2000/svg"
   xmlns:xlink="http://www.w3.org/1999/xlink"
   xmlns:sodipodi="http://sodipodi.sourceforge.net/DTD/sodipodi-0.dtd"
   xmlns:inkscape="http://www.inkscape.org/namespaces/inkscape"
   width="256"
   height="256"
   id="svg2"
   sodipodi:version="0.32"
   inkscape:version="0.47pre0 r21549"
   version="1.0"
   sodipodi:docname="graphics.svg"
   inkscape:output_extension="org.inkscape.output.svg.inkscape">
  <defs
     id="defs4">
    <linearGradient
       inkscape:collect="always"
       id="linearGradient3829">
      <stop
         style="stop-color:#58aac8;stop-opacity:1;"
         offset="0"
         id="stop3831" />
      <stop
         style="stop-color:#58aac8;stop-opacity:0;"
         offset="1"
         id="stop3833" />
    </linearGradient>
    <linearGradient
       inkscape:collect="always"
       xlink:href="#linearGradient3829"
       id="linearGradient3835"
       x1="161.77632"
       y1="201.9507"
       x2="189.56118"
       y2="201.9507"
       gradientUnits="userSpaceOnUse" />
    <linearGradient
       id="linearGradient3280"
       inkscape:collect="always">
      <stop
         id="stop3282"
         offset="0"
         style="stop-color:#000000;stop-opacity:1;" />
      <stop
         id="stop3284"
         offset="1"
         style="stop-color:#000000;stop-opacity:0;" />
    </linearGradient>
    <linearGradient
       inkscape:collect="always"
       xlink:href="#linearGradient3280"
       id="linearGradient2887"
       gradientUnits="userSpaceOnUse"
       gradientTransform="matrix(1.086544,-9.11518e-2,-0.132743,1.144289,8.908611,-9.844197)"
       x1="59.634602"
       y1="106.41199"
       x2="50.843105"
       y2="95.266502" />
    <radialGradient
       inkscape:collect="always"
       xlink:href="#linearGradient3225"
       id="radialGradient2885"
       gradientUnits="userSpaceOnUse"
       gradientTransform="matrix(1.076084,0.86061,0.402574,-0.496821,-3.078406,50.29781)"
       cx="49.009884"
       cy="8.4953122"
       fx="48.361217"
       fy="9.4356842"
       r="3.9750405" />
    <radialGradient
       inkscape:collect="always"
       xlink:href="#linearGradient3225"
       id="radialGradient2883"
       gradientUnits="userSpaceOnUse"
       gradientTransform="matrix(1.05859,0.846463,0.402535,-0.496852,-5.327913,54.90227)"
       cx="49.009884"
       cy="8.4953122"
       fx="48.025326"
       fy="9.788682"
       r="3.9750405" />
    <radialGradient
       inkscape:collect="always"
       xlink:href="#linearGradient3225"
       id="radialGradient2881"
       gradientUnits="userSpaceOnUse"
       gradientTransform="matrix(1.023607,0.818166,0.402456,-0.496915,-6.729909,60.21586)"
       cx="49.009884"
       cy="8.4953122"
       fx="47.424515"
       fy="9.6082344"
       r="3.9750405" />
    <radialGradient
       inkscape:collect="always"
       xlink:href="#linearGradient3225"
       id="radialGradient2879"
       gradientUnits="userSpaceOnUse"
       gradientTransform="matrix(1.006114,0.804017,0.402416,-0.496946,-8.95131,64.78593)"
       cx="49.009884"
       cy="8.4953122"
       fx="47.356842"
       fy="9.7852488"
       r="3.9750405" />
    <radialGradient
       inkscape:collect="always"
       xlink:href="#linearGradient3225"
       id="radialGradient2897"
       gradientUnits="userSpaceOnUse"
       gradientTransform="matrix(-1.7254665,1.3670046,0.4948944,0.6733349,142.19724,-24.201658)"
       cx="49.009884"
       cy="8.4953122"
       fx="47.370888"
       fy="6.7701697"
       r="3.9750405" />
    <linearGradient
       id="linearGradient3565"
       inkscape:collect="always">
      <stop
         id="stop3567"
         offset="0"
         style="stop-color:#ffffff;stop-opacity:1;" />
      <stop
         id="stop3569"
         offset="1"
         style="stop-color:#ffffff;stop-opacity:0;" />
    </linearGradient>
    <linearGradient
       inkscape:collect="always"
       xlink:href="#linearGradient3565"
       id="linearGradient2900"
       gradientUnits="userSpaceOnUse"
       gradientTransform="matrix(-4.0414778,-0.7242233,-0.7051386,4.1508612,176.50969,-12.053588)"
       x1="24.086939"
       y1="16.355263"
       x2="26.619194"
       y2="20.057724" />
    <linearGradient
       inkscape:collect="always"
       id="linearGradient3311">
      <stop
         style="stop-color:#f00000;stop-opacity:1;"
         offset="0"
         id="stop3313" />
      <stop
         style="stop-color:#f00000;stop-opacity:0;"
         offset="1"
         id="stop3315" />
    </linearGradient>
    <linearGradient
       inkscape:collect="always"
       xlink:href="#linearGradient3311"
       id="linearGradient2903"
       gradientUnits="userSpaceOnUse"
       x1="11.160621"
       y1="47.657185"
       x2="83.90919"
       y2="47.657185"
       gradientTransform="matrix(1.5815212,0,0,1.6243254,24.214431,22.778641)" />
    <linearGradient
       id="linearGradient2663">
      <stop
         id="stop2665"
         offset="0"
         style="stop-color:#ae6f10;stop-opacity:1;" />
      <stop
         id="stop2667"
         offset="1"
         style="stop-color:#281900;stop-opacity:1;" />
    </linearGradient>
    <radialGradient
       inkscape:collect="always"
       xlink:href="#linearGradient2663"
       id="radialGradient2907"
       gradientUnits="userSpaceOnUse"
       gradientTransform="matrix(-0.6037853,0.5450359,2.6155356,3.0564346,59.278338,8.8354951)"
       cx="34.699203"
       cy="23.848236"
       fx="25.839911"
       fy="27.013157"
       r="18.765305" />
    <linearGradient
       inkscape:collect="always"
       xlink:href="#linearGradient6031"
       id="linearGradient2915"
       gradientUnits="userSpaceOnUse"
       gradientTransform="matrix(1.7547357,0,0,1.802228,6.3153592,3.368992)"
       x1="114.10702"
       y1="107.33141"
       x2="114.10702"
       y2="122.09117" />
    <linearGradient
       id="linearGradient1648">
      <stop
         style="stop-color:#b4942a;stop-opacity:1;"
         offset="0"
         id="stop1650" />
      <stop
         style="stop-color:#e4dcc9;stop-opacity:1"
         offset="1"
         id="stop1652" />
    </linearGradient>
    <radialGradient
       inkscape:collect="always"
       xlink:href="#linearGradient1648"
       id="radialGradient2923"
       gradientUnits="userSpaceOnUse"
       gradientTransform="matrix(-0.8386127,0.8613083,2.6014268,2.671835,-77.325524,-119.50028)"
       cx="37.368698"
       cy="110.8646"
       fx="43.500916"
       fy="111.97002"
       r="11.61476" />
    <linearGradient
       id="linearGradient2616">
      <stop
         id="stop2618"
         offset="0"
         style="stop-color:#554513;stop-opacity:1;" />
      <stop
         id="stop2620"
         offset="1"
         style="stop-color:#b59e69;stop-opacity:1;" />
    </linearGradient>
    <linearGradient
       inkscape:collect="always"
       xlink:href="#linearGradient2616"
       id="linearGradient2926"
       gradientUnits="userSpaceOnUse"
       gradientTransform="matrix(-4.9748299,-0.9920226,-0.8679863,5.6857675,177.21467,-89.144656)"
       x1="-8.7620945"
       y1="52.858494"
       x2="-11.719011"
       y2="48.873039" />
    <linearGradient
       inkscape:collect="always"
       id="linearGradient6949">
      <stop
         style="stop-color:#000000;stop-opacity:1;"
         offset="0"
         id="stop6951" />
      <stop
         style="stop-color:#000000;stop-opacity:0;"
         offset="1"
         id="stop6953" />
    </linearGradient>
    <linearGradient
       inkscape:collect="always"
       xlink:href="#linearGradient6949"
       id="linearGradient2959"
       gradientUnits="userSpaceOnUse"
       gradientTransform="matrix(1.5815212,0,0,1.6243254,26.763987,25.556769)"
       x1="34.330593"
       y1="118.87337"
       x2="29.423252"
       y2="106.62148" />
    <linearGradient
       id="linearGradient5490">
      <stop
         style="stop-color:#000000;stop-opacity:0;"
         offset="0"
         id="stop5492" />
      <stop
         id="stop5504"
         offset="0.44935718"
         style="stop-color:#000000;stop-opacity:0;" />
      <stop
         id="stop25032"
         offset="0.50785339"
         style="stop-color:#000000;stop-opacity:1;" />
      <stop
         style="stop-color:#000000;stop-opacity:0;"
         offset="0.5980373"
         id="stop5506" />
      <stop
         style="stop-color:#000000;stop-opacity:0;"
         offset="1"
         id="stop5494" />
    </linearGradient>
    <radialGradient
       inkscape:collect="always"
       xlink:href="#linearGradient5490"
       id="radialGradient2962"
       gradientUnits="userSpaceOnUse"
       gradientTransform="matrix(2.1818145,0.5745954,-0.5198634,2.0822942,72.298037,-42.797227)"
       spreadMethod="reflect"
       cx="22.210812"
       cy="121.22048"
       fx="22.210812"
       fy="121.22048"
       r="11.187891" />
    <radialGradient
       inkscape:collect="always"
       xlink:href="#linearGradient3225"
       id="radialGradient2965"
       gradientUnits="userSpaceOnUse"
       gradientTransform="matrix(-1.4552589,-1.3249557,0.1811807,-0.2099181,84.790868,246.29134)"
       spreadMethod="reflect"
       cx="17.496065"
       cy="77.604561"
       fx="17.496065"
       fy="77.604561"
       r="11.462803" />
    <radialGradient
       inkscape:collect="always"
       xlink:href="#linearGradient3225"
       id="radialGradient2968"
       gradientUnits="userSpaceOnUse"
       gradientTransform="matrix(-2.9378796,-2.493268,3.8005141,-4.8097185,233.95767,303.76826)"
       cx="51.36319"
       cy="7.5789285"
       fx="49.724194"
       fy="5.8537841"
       r="3.9750405" />
    <linearGradient
       inkscape:collect="always"
       id="linearGradient4480">
      <stop
         style="stop-color:#dadada;stop-opacity:1;"
         offset="0"
         id="stop4482" />
      <stop
         style="stop-color:#dadada;stop-opacity:0;"
         offset="1"
         id="stop4484" />
    </linearGradient>
    <linearGradient
       inkscape:collect="always"
       xlink:href="#linearGradient4480"
       id="linearGradient2971"
       gradientUnits="userSpaceOnUse"
       gradientTransform="matrix(-0.2688396,-1.600685,1.5585037,-0.2761158,65.295741,258.31508)"
       x1="66.82003"
       y1="45.390396"
       x2="52.22506"
       y2="59.465969" />
    <linearGradient
       inkscape:collect="always"
       xlink:href="#linearGradient4102"
       id="linearGradient2974"
       gradientUnits="userSpaceOnUse"
       gradientTransform="matrix(-0.6432426,-3.8298978,3.7289724,-0.6606521,26.380508,648.85359)"
       spreadMethod="reflect"
       x1="139.7972"
       y1="76.892853"
       x2="145.40347"
       y2="66.489067" />
    <linearGradient
       id="linearGradient3695">
      <stop
         id="stop3697"
         offset="0"
         style="stop-color:#ffffff;stop-opacity:1;" />
      <stop
         id="stop3699"
         offset="1"
         style="stop-color:#aeaeae;stop-opacity:1;" />
    </linearGradient>
    <radialGradient
       inkscape:collect="always"
       xlink:href="#linearGradient3695"
       id="radialGradient2977"
       gradientUnits="userSpaceOnUse"
       gradientTransform="matrix(-2.9378796,-2.493268,3.8005141,-4.8097185,214.82712,327.40544)"
       cx="51.356403"
       cy="7.9091048"
       fx="49.717407"
       fy="6.1839604"
       r="3.9750404" />
    <linearGradient
       id="linearGradient4142">
      <stop
         id="stop4144"
         offset="0"
         style="stop-color:#ffffff;stop-opacity:1;" />
      <stop
         style="stop-color:#ffffff;stop-opacity:0.79136693;"
         offset="0.5"
         id="stop4148" />
      <stop
         id="stop4146"
         offset="1"
         style="stop-color:#ffffff;stop-opacity:0;" />
    </linearGradient>
    <radialGradient
       inkscape:collect="always"
       xlink:href="#linearGradient4142"
       id="radialGradient2980"
       gradientUnits="userSpaceOnUse"
       gradientTransform="matrix(2.7733488,-9.1525719e-2,1.3625514e-2,0.417262,54.839768,-130.48351)"
       cx="45.431717"
       cy="118.93744"
       fx="39.490993"
       fy="128.91806"
       r="15.5" />
    <linearGradient
       inkscape:collect="always"
       xlink:href="#linearGradient4102"
       id="linearGradient2984"
       gradientUnits="userSpaceOnUse"
       gradientTransform="matrix(-1.3830956,-1.174782,1.1438241,-1.4205294,126.25771,280.43498)"
       x1="45.480206"
       y1="108.20477"
       x2="46.65696"
       y2="118.30448" />
    <linearGradient
       inkscape:collect="always"
       xlink:href="#linearGradient4102"
       id="linearGradient2987"
       gradientUnits="userSpaceOnUse"
       gradientTransform="matrix(3.825973,0,0,3.8451941,-583.98036,-259.60456)"
       spreadMethod="reflect"
       x1="104.49763"
       y1="93.95005"
       x2="105.66235"
       y2="99.431656" />
    <linearGradient
       inkscape:collect="always"
       id="linearGradient3359">
      <stop
         style="stop-color:#000000;stop-opacity:1;"
         offset="0"
         id="stop3361" />
      <stop
         style="stop-color:#000000;stop-opacity:0;"
         offset="1"
         id="stop3363" />
    </linearGradient>
    <linearGradient
       inkscape:collect="always"
       xlink:href="#linearGradient3359"
       id="linearGradient3012"
       gradientUnits="userSpaceOnUse"
       x1="17.902985"
       y1="129.0088"
       x2="28.735706"
       y2="120.99289" />
    <linearGradient
       inkscape:collect="always"
       id="linearGradient3376">
      <stop
         style="stop-color:#000000;stop-opacity:1;"
         offset="0"
         id="stop3378" />
      <stop
         style="stop-color:#000000;stop-opacity:0;"
         offset="1"
         id="stop3380" />
    </linearGradient>
    <radialGradient
       inkscape:collect="always"
       xlink:href="#linearGradient3376"
       id="radialGradient3010"
       gradientUnits="userSpaceOnUse"
       gradientTransform="matrix(1,0,0,0.9413016,0,6.7614849)"
       cx="26.413234"
       cy="115.19022"
       fx="26.413234"
       fy="115.19022"
       r="12.46989" />
    <linearGradient
       inkscape:collect="always"
       id="linearGradient6031">
      <stop
         style="stop-color:#ffffff;stop-opacity:1;"
         offset="0"
         id="stop6033" />
      <stop
         style="stop-color:#ffffff;stop-opacity:0;"
         offset="1"
         id="stop6035" />
    </linearGradient>
    <linearGradient
       inkscape:collect="always"
       xlink:href="#linearGradient6031"
       id="linearGradient3008"
       gradientUnits="userSpaceOnUse"
       gradientTransform="matrix(0.454108,8.83625e-3,0.109263,0.494904,-14.44223,124.5398)"
       spreadMethod="reflect"
       x1="41.746742"
       y1="-29.900099"
       x2="41.548233"
       y2="-10.981362" />
    <linearGradient
       inkscape:collect="always"
       id="linearGradient6959">
      <stop
         style="stop-color:#000000;stop-opacity:1;"
         offset="0"
         id="stop6961" />
      <stop
         style="stop-color:#000000;stop-opacity:0;"
         offset="1"
         id="stop6963" />
    </linearGradient>
    <radialGradient
       inkscape:collect="always"
       xlink:href="#linearGradient6959"
       id="radialGradient3006"
       gradientUnits="userSpaceOnUse"
       gradientTransform="matrix(1,0,0,0.167506,0,97.63452)"
       cx="64.161209"
       cy="117.27959"
       fx="64.161209"
       fy="117.27959"
       r="64" />
    <linearGradient
       inkscape:collect="always"
       id="linearGradient4102">
      <stop
         style="stop-color:#ffffff;stop-opacity:1;"
         offset="0"
         id="stop4104" />
      <stop
         style="stop-color:#ffffff;stop-opacity:0;"
         offset="1"
         id="stop4106" />
    </linearGradient>
    <linearGradient
       inkscape:collect="always"
       xlink:href="#linearGradient4102"
       id="linearGradient2994"
       gradientUnits="userSpaceOnUse"
       gradientTransform="matrix(-1.3830956,-1.174782,1.1438241,-1.4205294,126.39394,280.43498)"
       x1="51.425694"
       y1="118.64987"
       x2="50.780857"
       y2="84.151138" />
    <linearGradient
       id="linearGradient2935">
      <stop
         style="stop-color:#006066;stop-opacity:1;"
         offset="0"
         id="stop2937" />
      <stop
         style="stop-color:#004448;stop-opacity:1;"
         offset="1"
         id="stop2939" />
    </linearGradient>
    <radialGradient
       inkscape:collect="always"
       xlink:href="#linearGradient2935"
       id="radialGradient2997"
       gradientUnits="userSpaceOnUse"
       gradientTransform="matrix(0.6053525,0.5100333,-1.171768,1.4670761,169.17885,-8.5268362)"
       cx="79.183899"
       cy="57.748138"
       fx="56.70742"
       fy="21.307173"
       r="48.882573" />
    <radialGradient
       inkscape:collect="always"
       xlink:href="#linearGradient3225"
       id="radialGradient3000"
       gradientUnits="userSpaceOnUse"
       gradientTransform="matrix(0.5104723,0.1789357,-1.7381614,5.2307014,227.45762,-310.01477)"
       cx="35.842823"
       cy="92.839737"
       fx="35.842823"
       fy="92.839737"
       r="9.5113354" />
    <linearGradient
       id="linearGradient3225">
      <stop
         style="stop-color:#ffffff;stop-opacity:1;"
         offset="0"
         id="stop3227" />
      <stop
         style="stop-color:#aeaeae;stop-opacity:1;"
         offset="1"
         id="stop3229" />
    </linearGradient>
    <radialGradient
       inkscape:collect="always"
       xlink:href="#linearGradient3225"
       id="radialGradient3004"
       gradientUnits="userSpaceOnUse"
       gradientTransform="matrix(-1.4552589,-1.3249557,0.1811807,-0.2099181,84.790868,246.29134)"
       spreadMethod="reflect"
       cx="17.496065"
       cy="77.604561"
       fx="17.496065"
       fy="77.604561"
       r="11.462803" />
    <linearGradient
       inkscape:collect="always"
       id="linearGradient4613">
      <stop
         style="stop-color:#000000;stop-opacity:1;"
         offset="0"
         id="stop4615" />
      <stop
         style="stop-color:#000000;stop-opacity:0;"
         offset="1"
         id="stop4617" />
    </linearGradient>
    <linearGradient
       inkscape:collect="always"
       id="linearGradient4605">
      <stop
         style="stop-color:#f70000;stop-opacity:1;"
         offset="0"
         id="stop4607" />
      <stop
         style="stop-color:#000000;stop-opacity:1"
         offset="1"
         id="stop4609" />
    </linearGradient>
    <linearGradient
       id="linearGradient4591"
       inkscape:collect="always">
      <stop
         id="stop4593"
         offset="0"
         style="stop-color:#ffffff;stop-opacity:1" />
      <stop
         id="stop4595"
         offset="1"
         style="stop-color:#ffffff;stop-opacity:0;" />
    </linearGradient>
    <mask
       maskUnits="userSpaceOnUse"
       x="122.963"
       y="97.149"
       width="576.609"
       height="587.491"
       id="XMLID_23_">
      <g
         id="g31"
         style="filter:url(#Adobe_OpacityMaskFilter)">
        <radialGradient
           id="XMLID_24_"
           cx="88.977501"
           cy="-20.899401"
           r="673.11609"
           fx="88.977501"
           fy="-20.899401"
           gradientUnits="userSpaceOnUse">
          <stop
             offset="0.309"
             style="stop-color:#FFFFFF"
             id="stop34" />
          <stop
             offset="1"
             style="stop-color:#000000"
             id="stop3816" />
        </radialGradient>
        <ellipse
           sodipodi:ry="349.10599"
           sodipodi:rx="512.93402"
           sodipodi:cy="286.172"
           sodipodi:cx="295.89499"
           cx="295.89499"
           cy="286.172"
           rx="512.93402"
           ry="349.10599"
           id="ellipse38"
           style="fill:url(#XMLID_24_)" />
      </g>
    </mask>
    <linearGradient
       inkscape:collect="always"
       xlink:href="#linearGradient4591"
       id="linearGradient3196"
       x1="99.881126"
       y1="68.792747"
       x2="171.01328"
       y2="46.998337"
       gradientUnits="userSpaceOnUse"
       gradientTransform="matrix(0.8301257,0,0,0.9649488,-179.55402,176.05704)" />
    <linearGradient
       inkscape:collect="always"
       xlink:href="#linearGradient4591"
       id="linearGradient4599"
       gradientUnits="userSpaceOnUse"
       gradientTransform="matrix(0.9457809,0,0,1.1075807,6.5485589,0.4212711)"
       x1="104.92213"
       y1="71.555038"
       x2="161.92285"
       y2="35.137646" />
    <linearGradient
       inkscape:collect="always"
       xlink:href="#linearGradient4605"
       id="linearGradient4611"
       x1="168.56552"
       y1="-13.762122"
       x2="206.93968"
       y2="23.825462"
       gradientUnits="userSpaceOnUse" />
    <linearGradient
       inkscape:collect="always"
       xlink:href="#linearGradient4613"
       id="linearGradient4619"
       x1="168.56552"
       y1="-13.762122"
       x2="351.36194"
       y2="165.28738"
       gradientUnits="userSpaceOnUse" />
  </defs>
  <sodipodi:namedview
     id="base"
     pagecolor="#ffffff"
     bordercolor="#666666"
     borderopacity="1.0"
     gridtolerance="10000"
     guidetolerance="10"
     objecttolerance="10"
     inkscape:pageopacity="0.0"
     inkscape:pageshadow="2"
     inkscape:zoom="1.2871553"
     inkscape:cx="128"
     inkscape:cy="97.383295"
     inkscape:document-units="px"
     inkscape:current-layer="layer1"
     showgrid="false"
     showguides="true"
     inkscape:guide-bbox="true"
     inkscape:window-width="773"
     inkscape:window-height="676"
     inkscape:window-x="304"
     inkscape:window-y="113" />
  <metadata
     id="metadata7">
    <rdf:RDF>
      <cc:Work
         rdf:about="">
        <dc:format>image/svg+xml</dc:format>
        <dc:type
           rdf:resource="http://purl.org/dc/dcmitype/StillImage" />
      </cc:Work>
    </rdf:RDF>
  </metadata>
  <g
     inkscape:label="Layer 1"
     inkscape:groupmode="layer"
     id="layer1">
    <rect
       style="opacity:1;fill:url(#linearGradient4619);fill-opacity:1;stroke:url(#linearGradient4611);stroke-width:2;stroke-miterlimit:4;stroke-dasharray:none;stroke-opacity:1"
       id="rect2383"
       width="209.543"
       height="209.543"
       x="75.938042"
       y="-106.63853"
       ry="61.030819"
       transform="matrix(0.6997472,0.7143906,-0.7143906,0.6997472,0,0)" />
    <rect
       style="opacity:0.26851852;fill:url(#linearGradient4599);fill-opacity:1;stroke:none;stroke-width:2;stroke-miterlimit:4;stroke-dasharray:none;stroke-opacity:1"
       id="rect4597"
       width="198.18179"
       height="232.08572"
       x="78.369324"
       y="-117.6895"
       ry="67.596573"
       transform="matrix(0.7600468,0.6498684,-0.7370851,0.6758,0,0)" />
    <rect
       transform="matrix(-0.796691,0.6043868,0.6617245,0.7497471,0,0)"
       ry="58.891621"
       y="73.156349"
       x="-116.51585"
       height="202.19823"
       width="173.94705"
       id="rect3188"
       style="opacity:0.27777778;fill:url(#linearGradient3196);fill-opacity:1;stroke:none;stroke-width:2;stroke-miterlimit:4;stroke-dasharray:none;stroke-opacity:1" />
    <path
       sodipodi:nodetypes="ccc"
       id="path2276"
       d="M 108.10388,41.662742 L 108.10388,37.156303 L 108.10388,41.662742 z"
       style="fill:#ffffff;fill-opacity:0.75688076;fill-rule:nonzero;stroke:none;stroke-width:0.5;stroke-linecap:round;stroke-linejoin:round;stroke-miterlimit:4;stroke-dasharray:none;stroke-dashoffset:4;stroke-opacity:1" />
    <g
       id="g24931"
       transform="matrix(0.6564454,0,0,0.6694917,44.129365,32.696213)">
      <path
         style="fill:url(#radialGradient3004);fill-opacity:1;fill-rule:nonzero;stroke:#000000;stroke-width:0.4984647;stroke-linecap:round;stroke-linejoin:round;stroke-miterlimit:4;stroke-dasharray:none;stroke-dashoffset:4;stroke-opacity:1"
         d="M 78.71959,214.02814 C 75.896812,210.68226 69.97213,205.28807 66.523753,202.92432 C 66.096291,202.63131 65.866052,201.69625 66.64224,201.35462 C 67.418429,201.01299 70.073199,200.69938 70.073199,200.69938 C 70.073199,200.69938 69.526467,197.85547 70.588533,196.66071 C 71.650598,195.46595 74.32146,195.92034 74.32146,195.92034 C 74.32146,195.92034 74.471548,193.01842 74.753031,192.16545 C 75.034513,191.31249 75.831138,191.55991 76.256123,191.85638 C 79.820429,194.34314 85.518044,199.64016 88.45196,202.9602 C 88.79698,203.35066 89.109656,204.18827 88.333474,204.5299 C 87.557292,204.87153 84.902513,205.18515 84.902513,205.18515 C 84.902513,205.18515 85.449243,208.02907 84.387177,209.22383 C 83.325111,210.41858 80.654251,209.96418 80.654251,209.96418 C 80.654251,209.96418 80.504164,212.8661 80.222684,213.71907 C 79.941203,214.57203 79.056062,214.42696 78.71959,214.02814 z"
         id="path5479"
         sodipodi:nodetypes="cszczczsszczczs" />
      <path
         style="fill:#787878;fill-opacity:1;fill-rule:evenodd;stroke:#000000;stroke-width:0.15339644;stroke-linecap:butt;stroke-linejoin:miter;stroke-miterlimit:4;stroke-dasharray:none;stroke-opacity:1"
         d="M 101.29704,205.43736 C 93.786586,201.90723 76.312515,186.70197 72.136617,180.66891 L 98.372322,147.47659 L 127.53276,172.24504 L 101.29704,205.43736 z"
         id="path3170"
         sodipodi:nodetypes="ccccc" />
      <path
         sodipodi:nodetypes="ccccc"
         id="path4538"
         d="M 72.162774,180.65169 L 88.718189,185.02706 L 101.32596,205.32519 L 78.190835,201.98868 L 72.162774,180.65169 z"
         style="fill:url(#radialGradient3000);fill-opacity:1;fill-rule:evenodd;stroke:#000000;stroke-width:0.32055607;stroke-linecap:round;stroke-linejoin:round;stroke-miterlimit:4;stroke-dasharray:none;stroke-opacity:1" />
      <path
         sodipodi:nodetypes="ccccccc"
         id="path1420"
         d="M 101.29704,205.43736 C 139.5582,159.89637 176.20585,109.5402 219.51955,73.861014 L 226.75427,64.876105 L 183.01365,27.723462 L 175.77893,36.708353 C 149.39994,89.201637 107.41206,134.1057 72.136617,180.66891 C 78.703,183.7553 96.504163,198.51293 101.29704,205.43736 z"
         style="fill:url(#radialGradient2997);fill-opacity:1;fill-rule:evenodd;stroke:none;stroke-width:0.03;stroke-linecap:butt;stroke-linejoin:miter;stroke-miterlimit:4;stroke-dasharray:none;stroke-opacity:1" />
      <path
         sodipodi:nodetypes="ccccc"
         style="opacity:0.2465116;fill:url(#linearGradient2994);fill-opacity:1;fill-rule:evenodd;stroke:none;stroke-width:1px;stroke-linecap:butt;stroke-linejoin:miter;stroke-opacity:1"
         d="M 219.65578,73.861014 C 202.96955,70.965181 181.81651,52.998085 175.91516,36.708353 C 156.73333,91.022106 154.24607,88.012758 119.62734,134.25794 C 122.9971,137.12017 126.36688,139.98241 129.73663,142.84462 C 169.5407,95.960473 171.31355,103.40632 219.65578,73.861014 z"
         id="path4047" />
      <g
         id="g24893">
        <g
           id="g6066"
           transform="matrix(1.5815212,0,0,1.6243254,24.214431,22.778641)">
          <path
             transform="matrix(1,0,0,0.451128,0,70.25563)"
             d="M 128.16121,117.27959 A 64,10.720403 0 1 1 0.16120911,117.27959 A 64,10.720403 0 1 1 128.16121,117.27959 z"
             sodipodi:ry="10.720403"
             sodipodi:rx="64"
             sodipodi:cy="117.27959"
             sodipodi:cx="64.161209"
             id="path6957"
             style="opacity:0.32093027;fill:url(#radialGradient3006);fill-opacity:1;fill-rule:nonzero;stroke:none;stroke-width:0.31099999;stroke-linecap:round;stroke-linejoin:round;stroke-miterlimit:4;stroke-dasharray:none;stroke-dashoffset:4;stroke-opacity:1"
             sodipodi:type="arc" />
          <path
             style="fill:#ffffff;fill-opacity:0.75688076;fill-rule:nonzero;stroke:none;stroke-width:0.5;stroke-linecap:round;stroke-linejoin:round;stroke-miterlimit:4;stroke-dasharray:none;stroke-dashoffset:4;stroke-opacity:1"
             d="M 50.892799,3.2812959 L 50.892799,0.48658747 L 50.892799,3.2812959 z"
             id="path21439"
             sodipodi:nodetypes="ccc" />
          <path
             sodipodi:nodetypes="cssscccccssss"
             id="path6011"
             d="M 3.3602981,108.44849 C 3.2046864,108.72443 3.0586908,108.9889 2.9214052,109.24311 C 2.6468353,109.75153 2.4071134,110.21885 2.1950183,110.65437 C 1.7708295,111.52543 1.4571509,112.26936 1.1962152,112.96079 C -0.90478001,118.52791 1.4164144,126.58118 6.1830483,126.59675 C 22.214533,126.82916 10.408804,126.6748 26.440287,126.90722 C 35.963593,127.46634 32.153096,116.69502 38.883124,109.62462 C 35.790995,108.94774 37.39539,105.82458 33.294195,103.45229 C 31.136509,106.3828 26.111559,113.0292 21.901103,112.89879 C 10.817789,112.74042 7.8478707,112.9654 6.1864898,112.16442 C 5.355799,111.76392 4.8627926,111.22283 4.5610687,110.48088 C 4.4102055,110.10991 4.3071651,109.68872 4.2336434,109.2098 C 4.160122,108.73085 3.5159111,108.17256 3.3602981,108.44849 z"
             style="fill:#000000;fill-opacity:1;fill-rule:evenodd;stroke:none;stroke-width:1px;stroke-linecap:butt;stroke-linejoin:miter;stroke-opacity:1" />
          <path
             sodipodi:nodetypes="ccsccsc"
             id="rect6021"
             d="M 6.580022,113.21081 L 22.751491,113.38009 C 28.728089,112.74871 29.834263,102.86014 30.869869,103.99979 C 33.072178,106.42336 26.461019,117.82247 22.654894,117.97286 L 6.8041053,118.23798 C 4.7687335,118.19837 2.4668307,113.42511 3.5929824,110.92592 C 4.0903338,109.82217 4.2435768,113.17121 6.580022,113.21081 z"
             style="opacity:1;fill:url(#linearGradient3008);fill-opacity:1;fill-rule:nonzero;stroke:none;stroke-width:0.31099999;stroke-linecap:round;stroke-linejoin:round;stroke-miterlimit:4;stroke-dashoffset:4;stroke-opacity:1" />
          <path
             style="fill:url(#radialGradient3010);fill-opacity:1;fill-rule:evenodd;stroke:none;stroke-width:1px;stroke-linecap:butt;stroke-linejoin:miter;stroke-opacity:1"
             d="M 26.440287,126.90722 C 35.963593,127.46634 32.153096,116.69502 38.883124,109.62462 C 35.790995,108.94774 37.250784,105.82458 33.149587,103.45229 C 30.991901,106.3828 26.111559,113.0292 21.901103,112.89879 C 10.817789,112.74042 10.408804,126.6748 26.440287,126.90722 z"
             id="path6064"
             sodipodi:nodetypes="ccccc" />
          <path
             sodipodi:nodetypes="cccccc"
             id="path6044"
             d="M 1.818457,118.83831 C 1.967704,122.7142 3.964339,126.34614 7.166664,126.36125 C 22.314197,126.59283 10.742828,126.21661 25.890358,126.44822 C 30.511374,126.71144 32.783703,123.73341 33.987513,119.61612 L 1.903812,118.84094 C 1.875917,118.84008 1.84629,118.83957 1.818457,118.83831 z"
             style="fill:url(#linearGradient3012);fill-opacity:1;fill-rule:evenodd;stroke:none;stroke-width:1px;stroke-linecap:butt;stroke-linejoin:miter;stroke-opacity:1" />
        </g>
        <path
           sodipodi:nodetypes="ccccc"
           id="path4065"
           d="M 101.0093,205.31296 C 95.746204,197.49937 79.271286,183.27427 72.918049,179.92911 C 108.89808,135.98937 145.69572,90.570682 175.32014,40.829291 C 190.26231,54.331319 199.22757,62.432546 214.16974,75.934585 C 172.5916,114.87436 139.89207,162.23737 101.0093,205.31296 z"
           style="opacity:0.66976743;fill:#e00000;fill-opacity:1;fill-rule:evenodd;stroke:none;stroke-width:0.04;stroke-linecap:butt;stroke-linejoin:miter;stroke-miterlimit:4;stroke-dasharray:none;stroke-opacity:1" />
      </g>
      <rect
         transform="matrix(-0.7621702,-0.6473767,0.6271663,-0.7788854,0,0)"
         style="fill:url(#linearGradient2987);fill-opacity:1;fill-rule:nonzero;stroke:none;stroke-width:0.03;stroke-linecap:round;stroke-linejoin:round;stroke-miterlimit:4;stroke-dasharray:none;stroke-dashoffset:4;stroke-opacity:1"
         id="rect4110"
         width="53.750153"
         height="9.9246378"
         x="-214.99577"
         y="86.462845"
         rx="0.78761357"
         ry="0.91071087" />
      <path
         sodipodi:nodetypes="cczc"
         id="path4122"
         d="M 217.36617,73.297502 C 203.29194,61.343081 190.8005,51.07904 176.72627,39.124609 C 179.22275,44.365737 183.39906,51.539323 193.08072,59.762792 C 202.76242,67.986276 211.26653,71.985956 217.36617,73.297502 z"
         style="fill:url(#linearGradient2984);fill-opacity:1;fill-rule:evenodd;stroke:none;stroke-width:1px;stroke-linecap:butt;stroke-linejoin:miter;stroke-opacity:1" />
      <rect
         transform="matrix(0.7656303,0.6432808,-0.623024,0.7822028,0,0)"
         ry="0.36642051"
         rx="0.78750455"
         y="-84.623199"
         x="161.0759"
         height="0.90257508"
         width="56.75227"
         id="rect4132"
         style="fill:url(#radialGradient2980);fill-opacity:1;fill-rule:nonzero;stroke:none;stroke-width:0.03;stroke-linecap:round;stroke-linejoin:round;stroke-miterlimit:4;stroke-dasharray:none;stroke-dashoffset:4;stroke-opacity:1" />
      <path
         sodipodi:nodetypes="cccccccccc"
         id="path2274"
         d="M 117.4285,186.2316 L 127.18193,174.13335 L 102.53676,153.58091 L 92.750315,165.53628 L 117.4285,186.2316 z M 92.774806,165.55156 L 105.12378,155.83172 L 96.989095,149.12209 L 87.454125,161.09158 L 92.774806,165.55156 z"
         style="fill:url(#radialGradient2977);fill-opacity:1;fill-rule:nonzero;stroke:none;stroke-width:0.5;stroke-linecap:round;stroke-linejoin:round;stroke-miterlimit:4;stroke-dasharray:none;stroke-dashoffset:4;stroke-opacity:1" />
      <path
         sodipodi:nodetypes="cccccccccccc"
         id="rect4337"
         d="M 183.9949,30.506939 C 186.36476,32.352867 188.64758,34.430673 190.98374,36.36634 C 201.9848,45.701542 212.60131,54.77043 223.60238,64.105647 C 224.50149,64.757375 224.2783,65.303214 223.80791,65.83799 C 222.36839,67.587031 220.16785,70.465437 218.67545,72.163805 C 219.71492,72.075192 220.16484,70.858715 220.88706,70.200298 C 222.27081,68.508854 223.09101,67.79699 224.38936,66.044215 C 225.05726,65.300696 224.9532,64.303789 223.94177,63.570638 C 210.95361,52.650074 197.68018,41.286132 184.67676,30.386139 C 184.49838,30.300415 184.04799,30.311208 183.9949,30.506939 z M 218.67545,72.163805 C 218.59691,72.006882 218.59711,72.248444 218.67545,72.163805 z"
         style="fill:url(#linearGradient2974);fill-opacity:1;fill-rule:nonzero;stroke:none;stroke-width:0.03;stroke-linecap:round;stroke-linejoin:round;stroke-miterlimit:4;stroke-dasharray:none;stroke-dashoffset:4;stroke-opacity:1" />
      <path
         sodipodi:nodetypes="ccccccccccccccccccccccscccccccccccccccccccccccccccccccccccscccccccsccccccscccccsccccccccccscccccccc"
         id="path4363"
         d="M 111.11642,135.97943 C 111.47798,136.28469 111.86256,136.81798 112.12335,136.12521 C 112.53778,135.59447 112.95221,135.06374 113.36664,134.533 C 113.19457,135.47976 113.0225,136.42652 112.85043,137.37327 C 113.1969,137.54145 113.61113,138.36554 113.8743,137.72722 C 114.56161,136.84847 115.24892,135.96972 115.93622,135.09097 C 115.57466,134.78571 115.19008,134.25242 114.92929,134.94519 C 114.51486,135.47592 114.10042,136.00665 113.68599,136.53738 C 113.87438,135.58832 114.06277,134.63925 114.25117,133.69018 C 113.88793,133.52773 113.44649,132.71521 113.17833,133.34317 C 112.49103,134.22192 111.80372,135.10068 111.11642,135.97943 z M 116.13742,139.48914 C 116.97994,140.18952 117.82247,140.8899 118.665,141.59029 C 119.42907,140.59374 120.19315,139.5972 120.95722,138.60065 C 120.09837,137.90258 119.23952,137.20451 118.38068,136.50644 C 117.922,136.90565 117.933,137.24642 118.48784,137.51954 C 118.85457,137.82507 119.2213,138.1306 119.58803,138.43613 C 119.31392,138.82106 119.06232,139.39872 118.67089,138.77896 C 118.30184,138.47 117.9328,138.16104 117.56375,137.85208 C 117.18954,138.24012 116.94943,138.61041 117.57565,138.86608 C 117.86323,139.16887 118.45694,139.43953 118.5619,139.76148 C 118.28304,140.42632 117.90895,140.05007 117.53583,139.68445 C 117.18306,139.53826 116.76655,138.71362 116.46277,139.08898 C 116.35432,139.22236 116.24587,139.35575 116.13742,139.48914 z M 120.93317,142.84146 C 121.9286,144.20254 123.42511,145.64385 125.21404,145.43788 C 126.66799,145.15553 126.66506,143.1912 125.74774,142.30601 C 124.97359,141.42265 123.67913,140.18721 122.62536,140.35285 C 122.30322,140.75523 121.98107,141.1576 121.65893,141.55998 C 122.25776,142.0558 122.85659,142.55162 123.45542,143.04744 C 124.00197,142.64779 123.80396,142.3333 123.28066,142.05602 C 123.10406,141.27 124.33801,141.36291 124.62541,142.14394 C 125.2495,142.68344 125.3461,143.85208 124.51243,144.22983 C 123.39027,144.69188 122.36349,143.47906 121.71777,142.66994 C 121.4267,141.84425 121.27796,142.59105 120.93317,142.84146 z M 122.79038,136.64972 C 123.57494,137.29 124.3595,137.93029 125.14406,138.57058 C 125.58461,138.01276 126.02516,137.45495 126.46571,136.89714 C 125.7566,136.76183 124.30695,135.74122 125.22292,135.07495 C 126.17894,134.4868 126.72159,136.65181 127.2,136.22312 C 127.85537,135.38012 126.09419,134.50522 125.46673,134.10947 C 124.68756,133.71747 123.73709,134.40025 123.80314,135.27629 C 123.6954,136.19262 125.68503,136.80076 124.77537,137.33662 C 124.25437,136.91689 123.73337,136.49717 123.21236,136.07745 C 123.0717,136.26821 122.93104,136.45896 122.79038,136.64972 z M 125.56963,146.8982 C 125.99529,147.20726 126.37451,147.69227 126.82792,147.8962 C 127.40459,147.79805 127.98125,147.69989 128.55792,147.60174 C 128.60865,148.22653 128.65938,148.85132 128.71012,149.47611 C 129.12097,149.81069 129.53182,150.14528 129.94267,150.47988 C 129.83786,149.45282 129.73304,148.42577 129.62823,147.39871 C 129.95626,146.99351 130.28429,146.5883 130.61231,146.18309 C 130.23861,145.87739 129.8649,145.57169 129.49119,145.26599 C 129.13075,145.67344 128.84614,146.21998 128.43872,146.54126 C 127.48236,146.66024 126.52599,146.77922 125.56963,146.8982 z M 128.09161,140.01719 C 128.43852,140.84728 129.47812,141.87843 130.40472,141.63634 C 131.17611,141.48282 131.14614,140.30263 130.55846,139.87677 C 130.02707,139.27575 128.96186,138.54379 128.29072,139.27157 C 128.10019,139.47673 128.07761,139.74889 128.09161,140.01719 z M 128.96957,140.61006 C 128.74149,140.09053 129.3317,139.43286 129.80514,139.77419 C 130.44658,140.04303 130.17789,141.00762 129.51999,140.99318 C 129.28173,140.93588 129.16991,140.75596 128.96957,140.61006 z M 129.21067,138.32123 C 129.97666,138.94707 130.74265,139.57291 131.50863,140.19875 C 132.09681,139.77768 131.41681,139.52029 131.0934,139.21688 C 130.58286,138.79925 130.07232,138.38162 129.56178,137.96399 C 129.44474,138.08307 129.32771,138.20215 129.21067,138.32123 z M 130.82339,151.49796 C 131.21488,151.71264 131.53756,152.23853 131.97465,152.24694 C 132.4266,152.15205 132.87854,152.05717 133.33049,151.96229 C 133.3914,152.51241 133.30535,153.13898 133.45895,153.64088 C 133.72002,153.73799 134.38344,154.66142 134.34631,154.14611 C 134.32228,153.40772 134.29824,152.66934 134.27421,151.93095 C 135.08567,151.78171 135.89713,151.63247 136.70859,151.48324 C 136.32967,151.25056 136.03281,150.69301 135.59936,150.67616 C 135.09851,150.77828 134.59766,150.88039 134.09682,150.98251 C 134.03302,150.41535 134.11747,149.77336 133.96289,149.25203 C 133.6949,149.13115 133.04526,148.2036 133.06841,148.69809 C 133.09664,149.47001 133.12487,150.24193 133.15309,151.01386 C 132.37652,151.17522 131.59996,151.33659 130.82339,151.49796 z M 133.1234,143.74174 C 133.4973,144.82401 134.90991,144.47789 134.83163,145.25946 C 135.18275,145.48431 135.58104,146.17757 135.84085,145.49584 C 136.32839,144.88435 136.81593,144.27286 137.30347,143.66137 C 136.94695,143.52953 136.50809,142.72136 136.21455,143.10687 C 135.76678,143.56768 135.42163,144.53805 134.64458,144.29464 C 133.65245,143.85997 134.52347,143.10051 134.91337,142.59827 C 135.38049,142.21428 135.34975,141.87571 134.79666,141.6214 C 134.38173,141.01528 134.1252,141.68773 133.82886,142.03877 C 133.449,142.55912 132.89245,143.03916 133.1234,143.74174 z M 136.47155,156.46739 C 136.93234,157.54569 138.39525,158.27465 139.33505,157.35418 C 140.36972,156.60921 140.62098,154.86113 139.40371,154.15563 C 138.00306,152.91439 135.9596,154.88831 136.47155,156.46739 z M 137.24813,156.30602 C 137.04703,155.08732 139.14704,153.72697 139.37688,155.44048 C 139.38029,156.54276 137.75381,157.67746 137.24813,156.30602 z"
         style="font-size:12.3537302px;font-style:normal;font-variant:normal;font-weight:bold;font-stretch:normal;text-align:start;line-height:125%;writing-mode:lr-tb;text-anchor:start;fill:url(#linearGradient2971);fill-opacity:1;stroke:none;stroke-width:1px;stroke-linecap:butt;stroke-linejoin:miter;stroke-opacity:1;font-family:Bitstream Vera Sans" />
      <path
         sodipodi:nodetypes="cccccccccc"
         id="path4475"
         d="M 136.55903,162.59446 L 138.46087,159.94629 L 113.72777,139.36662 L 111.88084,141.89913 L 136.55903,162.59446 z M 111.90533,141.91441 L 113.81776,139.40584 L 108.26804,134.93503 L 106.54276,137.20501 L 111.90533,141.91441 z"
         style="fill:url(#radialGradient2968);fill-opacity:1;fill-rule:nonzero;stroke:none;stroke-width:0.5;stroke-linecap:round;stroke-linejoin:round;stroke-miterlimit:4;stroke-dasharray:none;stroke-dashoffset:4;stroke-opacity:1" />
      <path
         sodipodi:nodetypes="cszczczsszczczs"
         id="rect5461"
         d="M 78.71959,214.02814 C 75.896812,210.68226 69.97213,205.28807 66.523753,202.92432 C 66.096291,202.63131 65.866052,201.69625 66.64224,201.35462 C 67.418429,201.01299 70.073199,200.69938 70.073199,200.69938 C 70.073199,200.69938 69.526467,197.85547 70.588533,196.66071 C 71.650598,195.46595 74.32146,195.92034 74.32146,195.92034 C 74.32146,195.92034 74.471548,193.01842 74.753031,192.16545 C 75.034513,191.31249 75.803819,191.60615 76.256123,191.85638 C 80.017907,193.9375 86.307957,199.09929 88.45196,202.9602 C 88.706305,203.41823 89.109656,204.18827 88.333474,204.5299 C 87.557292,204.87153 84.902513,205.18515 84.902513,205.18515 C 84.902513,205.18515 85.449243,208.02907 84.387177,209.22383 C 83.325111,210.41858 80.654251,209.96418 80.654251,209.96418 C 80.654251,209.96418 80.504164,212.8661 80.222684,213.71907 C 79.941203,214.57203 79.056062,214.42696 78.71959,214.02814 z"
         style="fill:url(#radialGradient2965);fill-opacity:1;fill-rule:nonzero;stroke:none;stroke-width:0.11067946;stroke-linecap:round;stroke-linejoin:round;stroke-miterlimit:4;stroke-dashoffset:4;stroke-opacity:1" />
      <path
         id="path5485"
         d="M 72.183299,180.62908 L 75.346341,191.79633 C 75.148354,191.87267 74.931637,191.96641 74.753271,192.15165 C 72.247079,194.75435 68.863226,198.47165 66.647975,201.33924 C 66.345797,201.73041 66.203677,202.25567 66.302017,202.60824 C 66.304628,202.61563 66.299167,202.65174 66.302017,202.659 C 66.305109,202.66612 66.348104,202.70279 66.35144,202.70976 C 66.35502,202.71657 66.347612,202.75388 66.35144,202.76052 C 66.355768,202.76684 66.396281,202.80514 66.400862,202.81128 C 66.405956,202.81707 66.444931,202.85646 66.450285,202.86204 C 66.456163,202.86724 66.493565,202.9078 66.499707,202.9128 C 69.948085,205.27655 75.884294,210.6834 78.707074,214.02928 C 78.717588,214.04174 78.745307,214.06877 78.756497,214.08004 C 78.76801,214.09073 78.793782,214.12127 78.805919,214.1308 C 78.812136,214.13528 78.848979,214.12659 78.855342,214.1308 C 78.861845,214.13471 78.898125,214.17792 78.904764,214.18156 C 78.911663,214.18465 78.947165,214.17873 78.954187,214.18156 C 78.975608,214.18923 79.03062,214.22701 79.053032,214.23232 C 79.4058,214.29015 79.897306,214.07975 80.239173,213.72472 C 82.745359,211.12203 86.129208,207.40473 88.344469,204.53713 C 88.594095,204.214 88.709108,203.83888 88.690427,203.52193 L 101.3426,205.34929 L 88.739849,185.04522 L 72.183299,180.62908 z"
         style="opacity:0.30232556;fill:url(#radialGradient2962);fill-opacity:1;fill-rule:evenodd;stroke:none;stroke-width:0.2;stroke-linecap:round;stroke-linejoin:round;stroke-miterlimit:4;stroke-dasharray:none;stroke-opacity:1" />
      <path
         style="fill:url(#linearGradient2959);fill-opacity:1;fill-rule:evenodd;stroke:none;stroke-width:0.2;stroke-linecap:round;stroke-linejoin:round;stroke-miterlimit:4;stroke-dasharray:none;stroke-opacity:1"
         d="M 72.183299,180.62908 L 75.346341,191.79633 C 75.148354,191.87267 74.931637,191.96641 74.753271,192.15165 C 72.247079,194.75435 68.863226,198.47165 66.647975,201.33924 C 66.345797,201.73041 66.203677,202.25567 66.302017,202.60824 C 66.304628,202.61563 66.299167,202.65174 66.302017,202.659 C 66.305109,202.66612 66.348104,202.70279 66.35144,202.70976 C 66.35502,202.71657 66.347612,202.75388 66.35144,202.76052 C 66.355768,202.76684 66.396281,202.80514 66.400862,202.81128 C 66.405956,202.81707 66.444931,202.85646 66.450285,202.86204 C 66.456163,202.86724 66.493565,202.9078 66.499707,202.9128 C 69.948085,205.27655 75.884294,210.6834 78.707074,214.02928 C 78.717588,214.04174 78.745307,214.06877 78.756497,214.08004 C 78.76801,214.09073 78.793782,214.12127 78.805919,214.1308 C 78.812136,214.13528 78.848979,214.12659 78.855342,214.1308 C 78.861845,214.13471 78.898125,214.17792 78.904764,214.18156 C 78.911663,214.18465 78.947165,214.17873 78.954187,214.18156 C 78.975608,214.18923 79.03062,214.22701 79.053032,214.23232 C 79.4058,214.29015 80.008623,214.50545 80.239173,213.72472 C 80.469722,212.94399 80.669881,209.97007 80.669881,209.97007 C 80.669881,209.97007 83.339796,210.42474 84.400917,209.23026 C 85.462037,208.03578 84.914364,205.19214 84.914364,205.19214 C 84.914364,205.19214 87.675038,204.7836 88.344469,204.53713 C 89.0139,204.29065 88.709108,203.83888 88.690427,203.52193 L 101.3426,205.34929 L 88.739849,185.04522 L 72.183299,180.62908 z"
         id="path6074"
         sodipodi:nodetypes="ccsssssssssssssssszczczcccc" />
      <path
         sodipodi:nodetypes="cscscc"
         inkscape:r_cy="true"
         inkscape:r_cx="true"
         id="path1330"
         d="M 160.23415,188.6239 C 163.58904,197.71665 163.27521,207.30742 170.29881,215.90216 C 180.21761,228.0397 207.83597,232.87233 220.55673,222.4733 C 204.9719,220.14834 197.67223,208.04473 186.72839,197.6348 C 179.6522,190.90387 171.85479,186.83841 168.39546,182.17032 C 165.67502,184.32153 162.95459,186.47273 160.23415,188.6239 z"
         style="fill:url(#linearGradient2926);fill-opacity:1;fill-rule:evenodd;stroke:#000000;stroke-width:0;stroke-linecap:round;stroke-linejoin:round;stroke-miterlimit:4;stroke-dasharray:none;stroke-opacity:1" />
      <path
         style="fill:url(#radialGradient2923);fill-opacity:1;fill-rule:evenodd;stroke:#000000;stroke-width:0;stroke-linecap:round;stroke-linejoin:round;stroke-miterlimit:4;stroke-dasharray:none;stroke-opacity:1"
         d="M 162.68595,188.83343 C 164.74641,195.56172 168.36964,207.43697 172.83637,213.72295 C 179.14436,222.6001 202.00371,228.11996 211.04529,222.64004 C 199.60224,220.15937 191.95038,207.77197 185.16714,199.93472 C 182.76935,197.16433 170.1565,187.79751 167.96288,184.37657 C 166.15243,186.03569 164.4964,187.17429 162.68595,188.83343 z"
         id="path3530"
         inkscape:r_cx="true"
         inkscape:r_cy="true"
         sodipodi:nodetypes="cscscc" />
      <path
         style="fill:#000000;fill-opacity:1;fill-rule:evenodd;stroke:#000000;stroke-width:0;stroke-linecap:round;stroke-linejoin:round;stroke-miterlimit:4;stroke-dasharray:none;stroke-opacity:1"
         d="M 161.77632,189.65201 C 165.13121,198.74476 164.81738,208.33553 171.84098,216.93027 C 181.75978,229.06781 196.47939,208.97142 185.89627,198.17522 C 178.82009,190.95658 173.39696,187.86652 169.93763,183.19843 C 167.21719,185.34964 164.49676,187.50084 161.77632,189.65201 z"
         id="path2624"
         inkscape:r_cx="true"
         inkscape:r_cy="true"
         sodipodi:nodetypes="csscc" />
      <path
         id="path3648"
         d="M 186.32035,197.39362 C 184.84873,197.57533 190.1696,216.33054 173.02569,213.07851 C 176.38057,222.17126 163.28385,207.32634 170.30745,215.92108 C 174.70601,221.30356 182.59712,225.21944 191.11434,227.03756 C 191.86773,227.23055 192.74688,227.36038 193.68431,227.4944 C 196.63442,227.96835 199.6122,228.17243 202.53095,228.10352 C 205.47512,228.174 208.58534,228.20504 211.67412,228.20504 C 222.14413,228.20504 226.0732,224.72655 224.86993,218.86517 C 223.33211,211.37416 213.30746,208.41036 209.4501,199.62707 C 207.54625,204.36857 202.38402,209.13325 198.87368,210.33746 C 194.30266,205.94215 190.34512,201.23668 186.71573,197.64742 C 186.54887,197.48241 186.41846,197.3815 186.32035,197.39362 z"
         style="fill:#000000;fill-opacity:1;fill-rule:evenodd;stroke:#000000;stroke-width:0;stroke-linecap:round;stroke-linejoin:round;stroke-miterlimit:4;stroke-dasharray:none;stroke-opacity:1" />
      <path
         style="fill:#000000;fill-opacity:1;fill-rule:evenodd;stroke:#000000;stroke-width:0;stroke-linecap:round;stroke-linejoin:round;stroke-miterlimit:4;stroke-dasharray:none;stroke-opacity:1"
         d="M 175.03082,205.64045 C 177.09127,212.36875 168.36964,207.43697 172.83637,213.72295 C 179.14436,222.6001 202.00371,228.11996 211.04529,222.64004 C 199.60224,220.15937 191.95038,207.77197 185.16714,199.93472 C 182.76935,197.16433 185.5158,205.78396 183.89636,207.81794 C 182.08593,209.47704 176.84126,203.98132 175.03082,205.64045 z"
         id="path3646"
         inkscape:r_cx="true"
         inkscape:r_cy="true"
         sodipodi:nodetypes="cscscc" />
      <path
         sodipodi:nodetypes="csssc"
         id="path3600"
         d="M 209.55054,203.29644 C 213.40791,212.3519 223.5456,213.41811 225.08342,221.14124 C 224.86285,235.4976 194.34216,224.98696 185.7226,219.82421 C 183.51839,216.99437 194.22443,212.65175 197.53076,212.65175 C 200.83707,212.65175 207.34633,208.95611 209.55054,203.29644 z"
         style="fill:url(#linearGradient2915);fill-opacity:1;fill-rule:evenodd;stroke:none;stroke-width:1px;stroke-linecap:butt;stroke-linejoin:miter;stroke-opacity:1" />
      <path
         d="M 45.420258,135.79317 C 54.324744,133.29853 63.525987,138.69279 65.959727,147.84112 C 68.391047,156.98803 63.138941,166.4383 54.23931,168.93578 C 45.329637,171.43398 36.128394,166.03972 33.694638,156.89139 C 31.265738,147.7459 36.514032,138.2967 45.420258,135.79317 z"
         id="path92"
         style="opacity:0.7;fill:none" />
      <path
         d="M 53.864901,91.213884 C 62.797586,93.622776 68.135489,103.00857 65.790093,112.18302 C 63.43981,121.35463 54.298586,126.84199 45.367641,124.42421 C 36.437376,122.01674 31.096689,112.63592 33.444521,103.46289 C 35.785425,94.279199 44.930113,88.797169 53.864901,91.213884 z"
         id="path94"
         style="opacity:0.7;fill:none" />
      <circle
         transform="matrix(2.4232906,1.4206642,1.3832269,-2.4888775,-111.57862,195.56252)"
         cx="34.993"
         cy="70.773003"
         r="5.9920001"
         id="circle96"
         sodipodi:cx="34.993"
         sodipodi:cy="70.773003"
         sodipodi:rx="5.9920001"
         sodipodi:ry="5.9920001"
         style="opacity:0.7;fill:none" />
      <path
         d="M 124.7026,42.14345 C 127.13393,51.290357 121.88182,60.740631 112.97699,63.241673 C 104.0725,65.736316 94.869884,60.344543 92.434748,51.198704 C 90.000998,42.050375 95.257959,32.602942 104.16036,30.10048 C 113.06623,27.603348 122.26747,32.997608 124.7026,42.14345 z"
         id="path98"
         style="opacity:0.7;fill:none" />
      <circle
         transform="matrix(2.4232906,1.4206642,1.3832269,-2.4888775,-111.57862,195.56252)"
         cx="56.228001"
         cy="92.005997"
         r="5.9920001"
         id="circle100"
         sodipodi:cx="56.228001"
         sodipodi:cy="92.005997"
         sodipodi:rx="5.9920001"
         sodipodi:ry="5.9920001"
         style="opacity:0.7;fill:none" />
      <path
         sodipodi:nodetypes="czszszcc"
         inkscape:r_cy="true"
         inkscape:r_cx="true"
         id="path1324"
         d="M 158.23004,168.28269 C 148.26843,151.28531 145.76161,140.85805 128.3452,117.29057 C 110.9288,93.72308 78.50608,57.095109 53.731626,26.877804 C 52.153679,24.953188 48.492869,24.613889 45.807288,26.707415 C 43.019287,28.880789 42.599235,32.729079 43.835684,34.592131 C 65.499109,67.234207 91.136934,109.15174 108.55333,132.71923 C 125.96974,156.28671 135.07385,161.57109 148.33411,175.99702 C 151.63276,173.42558 154.9314,170.85414 158.23004,168.28269 z"
         style="fill:url(#radialGradient2907);fill-opacity:1;fill-rule:evenodd;stroke:#453500;stroke-width:1.97463179;stroke-linecap:butt;stroke-linejoin:miter;stroke-miterlimit:4;stroke-dasharray:none;stroke-opacity:1" />
      <path
         style="opacity:0.56435643;fill:#000000;fill-opacity:1;fill-rule:evenodd;stroke:none;stroke-width:0.375;stroke-linecap:butt;stroke-linejoin:miter;stroke-miterlimit:4;stroke-dasharray:none;stroke-opacity:1"
         d="M 158.23004,168.28269 C 148.26843,151.28531 145.76161,140.85805 128.3452,117.29057 C 110.9288,93.72308 78.50608,57.095109 53.731626,26.877804 C 52.153679,24.953188 48.492869,24.613889 45.807288,26.707415 C 43.019287,28.880789 42.599235,32.729079 43.835684,34.592131 C 65.499109,67.234207 91.136934,109.15174 108.55333,132.71923 C 125.96974,156.28671 135.07385,161.57109 148.33411,175.99702 C 151.63276,173.42558 154.9314,170.85414 158.23004,168.28269 z"
         id="path3534"
         inkscape:r_cx="true"
         inkscape:r_cy="true"
         sodipodi:nodetypes="czszszcc" />
      <path
         sodipodi:nodetypes="czszszcc"
         inkscape:r_cy="true"
         inkscape:r_cx="true"
         id="path3263"
         d="M 156.91859,167.83371 C 146.95698,150.83633 144.45016,140.40907 127.03375,116.84158 C 109.61735,93.274099 77.19463,56.646128 52.420177,26.428823 C 50.84223,24.504207 47.181419,24.164907 44.495838,26.258434 C 41.707838,28.431807 41.287786,32.280098 42.524235,34.143151 C 64.187659,66.785225 89.825484,108.70276 107.24189,132.27024 C 124.65829,155.83773 133.7624,161.12211 147.02266,175.54804 C 150.32131,172.9766 153.61995,170.40515 156.91859,167.83371 z"
         style="fill:url(#linearGradient2903);fill-opacity:1;fill-rule:evenodd;stroke:none;stroke-width:0.375;stroke-linecap:butt;stroke-linejoin:miter;stroke-miterlimit:4;stroke-dasharray:none;stroke-opacity:1" />
      <path
         sodipodi:nodetypes="cscsscsc"
         id="path3560"
         d="M 51.455707,25.418194 C 52.366141,25.670702 53.136626,26.224328 53.679041,26.885915 C 68.747111,45.264382 101.07801,83.031392 116.15134,102.83144 C 112.31232,101.93214 107.03719,100.48049 102.29075,96.323183 C 93.28977,88.439382 57.752043,38.608114 52.193708,32.292484 C 48.702136,28.325213 46.036909,31.849422 43.209323,31.826588 C 43.275541,30.053292 44.034165,28.031157 45.776654,26.672799 C 47.539069,25.298923 49.717583,24.936136 51.455707,25.418194 z"
         style="opacity:0.86976743;fill:url(#linearGradient2900);fill-opacity:1;fill-rule:evenodd;stroke:none;stroke-width:0.375;stroke-linecap:butt;stroke-linejoin:miter;stroke-miterlimit:4;stroke-dasharray:none;stroke-opacity:1"
         inkscape:r_cx="true"
         inkscape:r_cy="true" />
      <path
         style="fill:url(#radialGradient2897);fill-opacity:1;fill-rule:nonzero;stroke:none;stroke-width:0.5;stroke-linecap:round;stroke-linejoin:round;stroke-miterlimit:4;stroke-dasharray:none;stroke-dashoffset:4;stroke-opacity:1"
         d="M 66.442708,40.638882 C 68.123011,41.976312 70.006808,43.942308 70.754994,45.767075 L 59.6663,54.469658 L 55.731871,49.11659 L 66.442708,40.638882 z M 56.898148,48.192614 L 60.832625,53.54568 L 56.945009,56.625617 C 55.477357,55.502994 54.258668,53.106278 53.39927,50.980088 L 56.898148,48.192614 z"
         id="path2510"
         sodipodi:nodetypes="cccccccccc" />
      <path
         id="text3284"
         d="M 80.953726,85.297742 C 81.125362,85.532877 81.21404,85.750183 81.219804,85.949647 C 81.225555,86.149156 81.147795,86.312329 80.986524,86.439215 C 80.825947,86.565566 80.653935,86.598898 80.470514,86.539225 C 80.287085,86.479511 80.109564,86.332118 79.937937,86.096994 C 79.765325,85.86052 79.676157,85.642552 79.670394,85.443055 C 79.664644,85.243557 79.742067,85.080665 79.902649,84.954302 C 80.063926,84.827405 80.236269,84.793814 80.419687,84.853508 C 80.603109,84.913192 80.781125,85.061269 80.953726,85.297742 M 81.239713,85.072716 C 80.888646,84.591776 80.543279,84.270411 80.203574,84.108631 C 79.863886,83.946863 79.569998,83.963576 79.32195,84.15874 C 79.074578,84.353386 78.979977,84.642336 79.038132,85.025638 C 79.096297,85.40893 79.300904,85.841052 79.651962,86.322002 C 80.002041,86.8016 80.347407,87.122965 80.688092,87.286081 C 81.027784,87.447851 81.321314,87.431416 81.568699,87.236782 C 81.816743,87.041616 81.911695,86.752379 81.853528,86.369086 C 81.794392,85.984456 81.589781,85.552335 81.239713,85.072716 M 77.803516,82.040883 L 76.264756,81.617392 L 76.851314,82.420993 L 77.88456,82.709027 L 77.867901,83.81372 L 78.457376,84.621303 L 78.480763,82.968717 L 79.95848,83.37712 L 79.370465,82.571539 L 78.399127,82.304181 L 78.415304,81.262964 L 77.824365,80.453371 L 77.803516,82.040883 M 77.76293,80.369205 L 77.147125,79.525549 L 76.104496,79.273268 L 76.152473,78.162858 L 75.535205,77.317199 L 75.481876,79.154267 L 74.837122,79.661547 L 75.400286,80.433085 L 76.045029,79.925774 L 77.76293,80.369205 M 71.914297,75.41186 C 72.00691,75.641869 72.116795,75.869822 72.244012,76.095704 C 72.371277,76.321609 72.515322,76.544773 72.676226,76.765202 C 73.03996,77.263521 73.399171,77.602368 73.753906,77.781782 C 74.10929,77.960651 74.408972,77.954098 74.652922,77.762163 C 74.899639,77.568051 74.985453,77.267064 74.910425,76.859188 C 74.835382,76.4513 74.609651,75.989525 74.233265,75.473841 C 74.087971,75.27479 73.939434,75.091926 73.787672,74.925301 C 73.63496,74.757317 73.480809,74.607319 73.325219,74.475214 L 73.008488,74.724449 C 73.178913,74.853258 73.336527,74.991083 73.481378,75.137924 C 73.625218,75.283416 73.757623,75.439025 73.87853,75.604672 C 74.102821,75.911946 74.231826,76.183752 74.265592,76.420101 C 74.299025,76.654589 74.234088,76.836096 74.070764,76.964587 C 73.908816,77.092023 73.725233,77.110243 73.520078,77.019297 C 73.314923,76.928333 73.104581,76.735242 72.889067,76.439985 C 72.830567,76.359842 72.778851,76.283811 72.733888,76.2119 C 72.688641,76.138146 72.651491,76.069557 72.622454,76.006186 L 72.919717,75.772285 L 73.263461,76.243229 L 73.527907,76.035148 L 72.650257,74.832786 L 71.914297,75.41186 M 72.836482,73.619935 L 71.316703,71.537846 L 71.018428,71.772518 L 71.975074,73.083092 L 71.690084,73.307316 L 70.790531,72.074885 L 70.49224,72.309577 L 71.391825,73.542 L 71.041249,73.81783 L 70.052451,72.463175 L 69.754176,72.697861 L 71.306138,74.824054 L 72.836482,73.619935 M 70.788665,70.814408 L 70.159709,69.95271 L 68.31583,69.690432 L 69.365438,68.864567 L 68.831548,68.133139 L 67.301189,69.337257 L 67.93016,70.198956 L 69.774056,70.461222 L 68.724416,71.287089 L 69.258306,72.018526 L 70.788665,70.814408 M 67.243036,65.95685 L 66.614065,65.095172 L 64.770202,64.832877 L 65.819794,64.00703 L 65.285904,63.275578 L 63.755561,64.479698 L 64.384516,65.341397 L 66.228427,65.603665 L 65.178772,66.429542 L 65.712677,67.160968 L 67.243036,65.95685 M 64.196062,61.722799 C 63.988361,61.438243 63.786622,61.243633 63.59083,61.138984 C 63.394025,61.033018 63.230733,61.031103 63.10089,61.133265 C 62.971079,61.23542 62.928536,61.39823 62.973309,61.621696 C 63.018082,61.845168 63.144809,62.099847 63.353506,62.38574 C 63.562188,62.671642 63.764544,62.867853 63.960652,62.974355 C 64.155749,63.07954 64.318234,63.081049 64.448061,62.978887 C 64.577904,62.876735 64.620779,62.713654 64.576687,62.489646 C 64.531629,62.264302 64.404728,62.0087 64.196062,61.722799 M 63.82801,63.312184 L 62.624204,61.662935 L 62.419191,61.824238 L 63.622998,63.473482 L 63.82801,63.312184 M 64.021826,61.859904 C 64.103717,61.972128 64.14558,62.075897 64.147383,62.17122 C 64.148221,62.265217 64.108999,62.343392 64.029733,62.405765 C 63.950467,62.468137 63.867706,62.485935 63.78145,62.459148 C 63.694229,62.431028 63.60965,62.360867 63.527758,62.248627 C 63.4468,62.137759 63.405586,62.035584 63.404052,61.942127 C 63.401569,61.847339 63.439968,61.768761 63.519234,61.706389 C 63.598516,61.644026 63.682083,61.626626 63.77,61.654209 C 63.85692,61.680455 63.940868,61.749022 64.021826,61.859904 M 60.186684,57.810615 C 60.012764,57.62986 59.854644,57.513457 59.712307,57.461403 C 59.569685,57.407482 59.447434,57.420572 59.345615,57.500689 C 59.193916,57.620049 59.161321,57.824473 59.24783,58.113954 C 59.335019,58.402899 59.537565,58.765137 59.85545,59.200657 C 59.967612,59.354287 60.086732,59.503495 60.212843,59.64824 C 60.337261,59.792201 60.46723,59.929721 60.602688,60.060789 L 60.907146,59.821245 C 60.76492,59.706004 60.632562,59.585096 60.510058,59.45854 C 60.387284,59.330105 60.275661,59.19709 60.175218,59.059489 C 60.026002,58.85509 59.930035,58.684533 59.887255,58.54782 C 59.84351,58.409773 59.855466,58.314147 59.92314,58.260905 C 59.992821,58.20607 60.0864,58.220776 60.203844,58.30504 C 60.321003,58.387431 60.459038,58.537504 60.617997,58.755257 L 60.843253,59.063869 L 61.097451,58.863857 L 60.860491,58.539227 C 60.719103,58.345505 60.629146,58.189128 60.590684,58.070073 C 60.55287,57.950492 60.565759,57.865694 60.629289,57.815699 C 60.688074,57.769456 60.767166,57.77979 60.866564,57.846701 C 60.965947,57.913612 61.077096,58.031235 61.199949,58.199559 C 61.290665,58.323802 61.375134,58.455032 61.453419,58.593236 C 61.531721,58.731446 61.602699,58.874361 61.66634,59.021978 L 61.955378,58.79455 C 61.866086,58.625053 61.772286,58.46118 61.673994,58.302949 C 61.575734,58.144714 61.473916,57.993472 61.368618,57.849171 C 61.084846,57.460428 60.839963,57.19565 60.633923,57.054888 C 60.427597,56.912259 60.258849,56.892549 60.127662,56.995777 C 60.038132,57.066227 59.998341,57.170122 60.00821,57.307459 C 60.01879,57.444261 60.078271,57.611981 60.186684,57.810615"
         style="font-size:12px;font-style:normal;font-variant:normal;font-weight:bold;font-stretch:normal;text-align:start;line-height:125%;writing-mode:lr-tb;text-anchor:start;fill:#999999;fill-opacity:1;stroke:none;stroke-width:1px;stroke-linecap:butt;stroke-linejoin:miter;stroke-opacity:1;font-family:Bitstream Vera Sans" />
      <g
         transform="matrix(-1.5813773,-2.1958881e-2,-2.1380221e-2,1.6241776,234.58806,23.163691)"
         id="g2634">
        <path
           style="fill:url(#radialGradient2879);fill-opacity:1;fill-rule:nonzero;stroke:none;stroke-width:0.5;stroke-linecap:round;stroke-linejoin:round;stroke-miterlimit:4;stroke-dasharray:none;stroke-dashoffset:4;stroke-opacity:1"
           d="M 38.34944,98.879422 C 39.100451,97.429319 40.245026,95.686957 41.376668,94.733981 L 47.788963,99.921606 L 44.589716,103.87235 L 38.34944,98.879422 z M 43.909663,103.3289 L 47.108913,99.37812 L 49.375744,101.18964 C 48.749318,102.44484 47.279318,103.85323 45.959893,104.95541 L 43.909663,103.3289 z"
           id="path3213"
           sodipodi:nodetypes="cccccccccc" />
        <path
           sodipodi:nodetypes="cccccccccc"
           id="path3217"
           d="M 41.361775,94.94897 C 42.108412,93.495334 43.250303,91.750805 44.385839,90.800967 L 50.910159,96.079198 L 47.710595,100.0297 L 41.361775,94.94897 z M 47.018729,99.47668 L 50.218285,95.52615 L 52.524529,97.369552 C 51.902136,98.628011 50.428538,100.03348 49.104494,101.13193 L 47.018729,99.47668 z"
           style="fill:url(#radialGradient2881);fill-opacity:1;fill-rule:nonzero;stroke:none;stroke-width:0.5;stroke-linecap:round;stroke-linejoin:round;stroke-miterlimit:4;stroke-dasharray:none;stroke-dashoffset:4;stroke-opacity:1" />
        <path
           style="fill:url(#radialGradient2883);fill-opacity:1;fill-rule:nonzero;stroke:none;stroke-width:0.5;stroke-linecap:round;stroke-linejoin:round;stroke-miterlimit:4;stroke-dasharray:none;stroke-dashoffset:4;stroke-opacity:1"
           d="M 44.345464,90.914825 C 45.083365,89.454122 46.21989,87.705248 47.363201,86.761702 L 54.111573,92.221146 L 50.911382,96.17114 L 44.345464,90.914825 z M 50.195867,95.599 L 53.39605,91.64897 L 55.781114,93.556131 C 55.16679,94.821109 53.685987,96.220756 52.352723,97.311753 L 50.195867,95.599 z"
           id="path3221"
           sodipodi:nodetypes="cccccccccc" />
        <path
           sodipodi:nodetypes="cccccccccc"
           id="path3225"
           d="M 47.385861,86.950051 C 48.119393,85.485811 49.253231,83.734769 50.40043,82.79437 L 57.260835,88.344412 L 54.060325,92.294161 L 47.385861,86.950051 z M 53.332987,91.712457 L 56.533485,87.76268 L 58.957961,89.701712 C 58.347673,90.969952 56.86326,92.36669 55.525384,93.453958 L 53.332987,91.712457 z"
           style="fill:url(#radialGradient2885);fill-opacity:1;fill-rule:nonzero;stroke:none;stroke-width:0.5;stroke-linecap:round;stroke-linejoin:round;stroke-miterlimit:4;stroke-dasharray:none;stroke-dashoffset:4;stroke-opacity:1" />
        <path
           style="fill:url(#linearGradient2887);fill-opacity:1;fill-rule:nonzero;stroke:none;stroke-width:0.5;stroke-linecap:round;stroke-linejoin:round;stroke-miterlimit:4;stroke-dasharray:none;stroke-dashoffset:4;stroke-opacity:1"
           d="M 50.41561,82.77934 C 49.304261,83.690353 48.193593,85.381544 47.459111,86.816351 L 47.365545,86.753377 C 46.257962,87.667439 45.147654,89.358916 44.409048,90.790387 L 44.375093,90.793236 C 43.285688,91.704485 42.203179,93.376095 41.4567,94.791638 L 41.363132,94.728665 C 40.23149,95.681642 39.111243,97.425699 38.360234,98.875802 L 44.605879,103.87596 L 45.958839,104.96644 C 47.27827,103.86425 48.765041,102.42798 49.391466,101.17278 L 49.238285,101.04399 C 50.529062,99.961701 51.919709,98.588124 52.522652,97.368991 L 52.399279,97.273109 C 53.721588,96.187161 55.181733,94.805616 55.789658,93.553809 L 55.606671,93.392105 C 56.922218,92.315049 58.361371,90.953235 58.958947,89.711416 L 57.269822,88.330443 L 50.41561,82.77934 z"
           id="path3271" />
      </g>
      <path
         sodipodi:nodetypes="csscc"
         inkscape:r_cy="true"
         inkscape:r_cx="true"
         id="path3809"
         d="M 161.77632,189.65201 C 165.13121,198.74476 164.81738,208.33553 171.84098,216.93027 C 181.75978,229.06781 196.47939,208.97142 185.89627,198.17522 C 178.82009,190.95658 173.39696,187.86652 169.93763,183.19843 C 167.21719,185.34964 164.49676,187.50084 161.77632,189.65201 z"
         style="fill:url(#linearGradient3835);fill-opacity:1;fill-rule:evenodd;stroke:#000000;stroke-width:0;stroke-linecap:round;stroke-linejoin:round;stroke-miterlimit:4;stroke-dasharray:none;stroke-opacity:1" />
    </g>
  </g>
</svg>
