<?xml version="1.0" encoding="UTF-8" standalone="no"?>
<!-- Created with Inkscape (http://www.inkscape.org/) -->

<svg
   xmlns:dc="http://purl.org/dc/elements/1.1/"
   xmlns:cc="http://creativecommons.org/ns#"
   xmlns:rdf="http://www.w3.org/1999/02/22-rdf-syntax-ns#"
   xmlns:svg="http://www.w3.org/2000/svg"
   xmlns="http://www.w3.org/2000/svg"
   xmlns:xlink="http://www.w3.org/1999/xlink"
   xmlns:sodipodi="http://sodipodi.sourceforge.net/DTD/sodipodi-0.dtd"
   xmlns:inkscape="http://www.inkscape.org/namespaces/inkscape"
   width="256"
   height="256"
   id="svg2"
   sodipodi:version="0.32"
   inkscape:version="0.47pre0 r21549"
   version="1.0"
   sodipodi:docname="gsumi.svg"
   inkscape:output_extension="org.inkscape.output.svg.inkscape">
  <defs
     id="defs4">
    <linearGradient
       inkscape:collect="always"
       id="linearGradient4893">
      <stop
         style="stop-color:#000000;stop-opacity:1;"
         offset="0"
         id="stop4895" />
      <stop
         style="stop-color:#000000;stop-opacity:0;"
         offset="1"
         id="stop4897" />
    </linearGradient>
    <linearGradient
       id="linearGradient3280"
       inkscape:collect="always">
      <stop
         id="stop3282"
         offset="0"
         style="stop-color:#000000;stop-opacity:1;" />
      <stop
         id="stop3284"
         offset="1"
         style="stop-color:#000000;stop-opacity:0;" />
    </linearGradient>
    <linearGradient
       id="linearGradient3565"
       inkscape:collect="always">
      <stop
         id="stop3567"
         offset="0"
         style="stop-color:#ffffff;stop-opacity:1;" />
      <stop
         id="stop3569"
         offset="1"
         style="stop-color:#ffffff;stop-opacity:0;" />
    </linearGradient>
    <linearGradient
       inkscape:collect="always"
       id="linearGradient3311">
      <stop
         style="stop-color:#f00000;stop-opacity:1;"
         offset="0"
         id="stop3313" />
      <stop
         style="stop-color:#f00000;stop-opacity:0;"
         offset="1"
         id="stop3315" />
    </linearGradient>
    <linearGradient
       id="linearGradient2663">
      <stop
         id="stop2665"
         offset="0"
         style="stop-color:#ae6f10;stop-opacity:1;" />
      <stop
         id="stop2667"
         offset="1"
         style="stop-color:#281900;stop-opacity:1;" />
    </linearGradient>
    <linearGradient
       id="linearGradient3225">
      <stop
         style="stop-color:#ffffff;stop-opacity:1;"
         offset="0"
         id="stop3227" />
      <stop
         style="stop-color:#aeaeae;stop-opacity:1;"
         offset="1"
         id="stop3229" />
    </linearGradient>
    <linearGradient
       inkscape:collect="always"
       id="linearGradient4613">
      <stop
         style="stop-color:#000000;stop-opacity:1;"
         offset="0"
         id="stop4615" />
      <stop
         style="stop-color:#000000;stop-opacity:0;"
         offset="1"
         id="stop4617" />
    </linearGradient>
    <linearGradient
       inkscape:collect="always"
       id="linearGradient4605">
      <stop
         style="stop-color:#f70000;stop-opacity:1;"
         offset="0"
         id="stop4607" />
      <stop
         style="stop-color:#000000;stop-opacity:1"
         offset="1"
         id="stop4609" />
    </linearGradient>
    <linearGradient
       id="linearGradient4591"
       inkscape:collect="always">
      <stop
         id="stop4593"
         offset="0"
         style="stop-color:#ffffff;stop-opacity:1" />
      <stop
         id="stop4595"
         offset="1"
         style="stop-color:#ffffff;stop-opacity:0;" />
    </linearGradient>
    <mask
       maskUnits="userSpaceOnUse"
       x="122.963"
       y="97.149"
       width="576.609"
       height="587.491"
       id="XMLID_23_">
      <g
         id="g31"
         style="filter:url(#Adobe_OpacityMaskFilter)">
        <radialGradient
           id="XMLID_24_"
           cx="88.977501"
           cy="-20.899401"
           r="673.11609"
           fx="88.977501"
           fy="-20.899401"
           gradientUnits="userSpaceOnUse">
          <stop
             offset="0.309"
             style="stop-color:#FFFFFF"
             id="stop34" />
          <stop
             offset="1"
             style="stop-color:#000000"
             id="stop3816" />
        </radialGradient>
        <ellipse
           sodipodi:ry="349.10599"
           sodipodi:rx="512.93402"
           sodipodi:cy="286.172"
           sodipodi:cx="295.89499"
           cx="295.89499"
           cy="286.172"
           rx="512.93402"
           ry="349.10599"
           id="ellipse38"
           style="fill:url(#XMLID_24_)" />
      </g>
    </mask>
    <linearGradient
       inkscape:collect="always"
       xlink:href="#linearGradient4613"
       id="linearGradient4917"
       gradientUnits="userSpaceOnUse"
       x1="168.56552"
       y1="-13.762122"
       x2="351.36194"
       y2="165.28738" />
    <linearGradient
       inkscape:collect="always"
       xlink:href="#linearGradient4605"
       id="linearGradient4919"
       gradientUnits="userSpaceOnUse"
       x1="168.56552"
       y1="-13.762122"
       x2="206.93968"
       y2="23.825462" />
    <linearGradient
       inkscape:collect="always"
       xlink:href="#linearGradient4591"
       id="linearGradient4921"
       gradientUnits="userSpaceOnUse"
       gradientTransform="matrix(0.9457809,0,0,1.1075807,6.5485589,0.4212711)"
       x1="104.92213"
       y1="71.555038"
       x2="161.92285"
       y2="35.137646" />
    <linearGradient
       inkscape:collect="always"
       xlink:href="#linearGradient4591"
       id="linearGradient4923"
       gradientUnits="userSpaceOnUse"
       gradientTransform="matrix(0.8301257,0,0,0.9649488,-179.55402,176.05704)"
       x1="99.881126"
       y1="68.792747"
       x2="171.01328"
       y2="46.998337" />
    <linearGradient
       inkscape:collect="always"
       xlink:href="#linearGradient4893"
       id="linearGradient4942"
       gradientUnits="userSpaceOnUse"
       x1="133.61712"
       y1="186.09497"
       x2="167.60366"
       y2="186.09497" />
    <radialGradient
       inkscape:collect="always"
       xlink:href="#linearGradient2663"
       id="radialGradient4944"
       gradientUnits="userSpaceOnUse"
       gradientTransform="matrix(-0.4844008,0.2552074,1.2143841,2.4174594,96.830213,37.347952)"
       cx="34.699203"
       cy="23.848236"
       fx="25.839911"
       fy="27.013157"
       r="18.765305" />
    <linearGradient
       inkscape:collect="always"
       xlink:href="#linearGradient3311"
       id="linearGradient4946"
       gradientUnits="userSpaceOnUse"
       gradientTransform="matrix(1.0358593,0.2599181,-0.2650475,1.0563013,71.589019,40.652549)"
       x1="11.160621"
       y1="47.657185"
       x2="83.90919"
       y2="47.657185" />
    <linearGradient
       inkscape:collect="always"
       xlink:href="#linearGradient3565"
       id="linearGradient4948"
       gradientUnits="userSpaceOnUse"
       gradientTransform="matrix(-2.5288989,-1.135168,-1.1391615,2.5834241,177.02255,43.030348)"
       x1="24.086939"
       y1="16.355263"
       x2="26.619194"
       y2="20.057724" />
    <radialGradient
       inkscape:collect="always"
       xlink:href="#linearGradient3225"
       id="radialGradient4950"
       gradientUnits="userSpaceOnUse"
       gradientTransform="matrix(-1.3531996,0.6053901,0.2142735,0.519205,156.53095,29.491303)"
       cx="49.009884"
       cy="8.4953122"
       fx="47.370888"
       fy="6.7701697"
       r="3.9750405" />
    <radialGradient
       inkscape:collect="always"
       xlink:href="#linearGradient3225"
       id="radialGradient4952"
       gradientUnits="userSpaceOnUse"
       gradientTransform="matrix(1.006114,0.804017,0.402416,-0.496946,-8.95131,64.78593)"
       cx="49.009884"
       cy="8.4953122"
       fx="47.356842"
       fy="9.7852488"
       r="3.9750405" />
    <radialGradient
       inkscape:collect="always"
       xlink:href="#linearGradient3225"
       id="radialGradient4954"
       gradientUnits="userSpaceOnUse"
       gradientTransform="matrix(1.023607,0.818166,0.402456,-0.496915,-6.729909,60.21586)"
       cx="49.009884"
       cy="8.4953122"
       fx="47.424515"
       fy="9.6082344"
       r="3.9750405" />
    <radialGradient
       inkscape:collect="always"
       xlink:href="#linearGradient3225"
       id="radialGradient4956"
       gradientUnits="userSpaceOnUse"
       gradientTransform="matrix(1.05859,0.846463,0.402535,-0.496852,-5.327913,54.90227)"
       cx="49.009884"
       cy="8.4953122"
       fx="48.025326"
       fy="9.788682"
       r="3.9750405" />
    <radialGradient
       inkscape:collect="always"
       xlink:href="#linearGradient3225"
       id="radialGradient4958"
       gradientUnits="userSpaceOnUse"
       gradientTransform="matrix(1.076084,0.86061,0.402574,-0.496821,-3.078406,50.29781)"
       cx="49.009884"
       cy="8.4953122"
       fx="48.361217"
       fy="9.4356842"
       r="3.9750405" />
    <linearGradient
       inkscape:collect="always"
       xlink:href="#linearGradient3280"
       id="linearGradient4960"
       gradientUnits="userSpaceOnUse"
       gradientTransform="matrix(1.086544,-9.11518e-2,-0.132743,1.144289,8.908611,-9.844197)"
       x1="59.634602"
       y1="106.41199"
       x2="50.843105"
       y2="95.266502" />
  </defs>
  <sodipodi:namedview
     id="base"
     pagecolor="#ffffff"
     bordercolor="#666666"
     borderopacity="1.0"
     gridtolerance="10000"
     guidetolerance="10"
     objecttolerance="10"
     inkscape:pageopacity="0.0"
     inkscape:pageshadow="2"
     inkscape:zoom="1.8203125"
     inkscape:cx="128"
     inkscape:cy="128"
     inkscape:document-units="px"
     inkscape:current-layer="layer1"
     showgrid="false"
     showguides="true"
     inkscape:guide-bbox="true"
     inkscape:window-width="773"
     inkscape:window-height="676"
     inkscape:window-x="308"
     inkscape:window-y="135" />
  <metadata
     id="metadata7">
    <rdf:RDF>
      <cc:Work
         rdf:about="">
        <dc:format>image/svg+xml</dc:format>
        <dc:type
           rdf:resource="http://purl.org/dc/dcmitype/StillImage" />
      </cc:Work>
    </rdf:RDF>
  </metadata>
  <g
     inkscape:label="Layer 1"
     inkscape:groupmode="layer"
     id="layer1">
    <g
       id="g4911"
       transform="translate(0.5493532,-1.6480686)">
      <rect
         transform="matrix(0.6997472,0.7143906,-0.7143906,0.6997472,0,0)"
         ry="61.030819"
         y="-106.63853"
         x="75.938042"
         height="209.543"
         width="209.543"
         id="rect2383"
         style="opacity:1;fill:url(#linearGradient4917);fill-opacity:1;stroke:url(#linearGradient4919);stroke-width:2;stroke-miterlimit:4;stroke-dasharray:none;stroke-opacity:1" />
      <g
         id="g4903">
        <rect
           style="opacity:0.26851849;fill:url(#linearGradient4921);fill-opacity:1;stroke:none;stroke-width:2;stroke-miterlimit:4;stroke-dasharray:none;stroke-opacity:1"
           id="rect4597"
           width="198.18179"
           height="232.08572"
           x="78.369324"
           y="-117.6895"
           ry="67.596573"
           transform="matrix(0.7600468,0.6498684,-0.7370851,0.6758,0,0)" />
        <rect
           transform="matrix(-0.796691,0.6043868,0.6617245,0.7497471,0,0)"
           ry="58.891621"
           y="73.156349"
           x="-116.51585"
           height="202.19823"
           width="173.94705"
           id="rect3188"
           style="opacity:0.27777782;fill:url(#linearGradient4923);fill-opacity:1;stroke:none;stroke-width:2;stroke-miterlimit:4;stroke-dasharray:none;stroke-opacity:1" />
      </g>
    </g>
    <path
       sodipodi:nodetypes="ccc"
       id="path2276"
       d="M 205.73941,239.63668 L 208.35894,245.43606 L 205.73941,239.63668 z"
       style="fill:#ffffff;fill-opacity:0.75688076;fill-rule:nonzero;stroke:none;stroke-width:0.5;stroke-linecap:round;stroke-linejoin:round;stroke-miterlimit:4;stroke-dasharray:none;stroke-dashoffset:4;stroke-opacity:1" />
    <g
       id="g4925"
       transform="matrix(1.1337014,0,0,1.0172742,-6.5138692,-10.119477)">
      <path
         sodipodi:nodetypes="cscscc"
         inkscape:r_cy="true"
         inkscape:r_cx="true"
         id="path1330"
         d="M 133.61712,170.8564 C 134.33081,177.32079 132.56028,183.50611 135.75814,190.24959 C 140.27419,199.77278 157.57502,207.45443 167.60366,202.78255 C 157.77534,198.7093 154.96922,189.63862 149.49989,181.07044 C 145.96347,175.53036 141.51972,171.60511 140.01565,168.00091 C 137.8828,168.95275 135.74996,169.90459 133.61712,170.8564 z"
         style="fill:url(#linearGradient4942);fill-opacity:1;fill-rule:evenodd;stroke:#000000;stroke-width:0;stroke-linecap:round;stroke-linejoin:round;stroke-miterlimit:4;stroke-dasharray:none;stroke-opacity:1" />
      <circle
         transform="matrix(1.3553832,1.3221205,1.312101,-1.3911918,-45.546065,130.697)"
         cx="34.993"
         cy="70.773003"
         r="5.9920001"
         id="circle96"
         sodipodi:cx="34.993"
         sodipodi:cy="70.773003"
         sodipodi:rx="5.9920001"
         sodipodi:ry="5.9920001"
         style="opacity:0.7;fill:none" />
      <path
         d="M 134.24658,69.760433 C 134.34651,76.108263 129.36447,81.390627 123.1239,81.553571 C 116.88461,81.712414 111.73691,76.693715 111.63432,70.345956 C 111.53304,63.996802 116.51779,58.717087 122.75699,58.552818 C 128.9976,58.39258 134.14399,63.412675 134.24658,69.760433 z"
         id="path98"
         style="opacity:0.7;fill:none" />
      <path
         sodipodi:nodetypes="czszszcc"
         inkscape:r_cy="true"
         inkscape:r_cx="true"
         id="path1324"
         d="M 135.62364,157.29911 C 131.87255,144.60852 131.93208,137.41568 124.37035,119.22737 C 116.80862,101.03906 101.54922,71.891265 90.253215,48.169307 C 89.533748,46.658391 87.191364,45.836093 85.09076,46.756157 C 82.910046,47.711307 82.006982,50.144822 82.512818,51.559571 C 91.37552,76.347084 101.32786,107.81962 108.88958,126.00792 C 116.45133,144.19622 121.55203,149.12889 127.88326,160.68939 C 130.46339,159.5593 133.04352,158.42921 135.62364,157.29911 z"
         style="fill:url(#radialGradient4944);fill-opacity:1;fill-rule:evenodd;stroke:#453500;stroke-width:1.32866359;stroke-linecap:butt;stroke-linejoin:miter;stroke-miterlimit:4;stroke-dasharray:none;stroke-opacity:1" />
      <path
         style="opacity:0.56435643;fill:#000000;fill-opacity:1;fill-rule:evenodd;stroke:none;stroke-width:0.375;stroke-linecap:butt;stroke-linejoin:miter;stroke-miterlimit:4;stroke-dasharray:none;stroke-opacity:1"
         d="M 135.62364,157.29911 C 131.87255,144.60852 131.93208,137.41568 124.37035,119.22737 C 116.80862,101.03906 101.54922,71.891265 90.253215,48.169307 C 89.533748,46.658391 87.191364,45.836093 85.09076,46.756157 C 82.910046,47.711307 82.006982,50.144822 82.512818,51.559571 C 91.37552,76.347084 101.32786,107.81962 108.88958,126.00792 C 116.45133,144.19622 121.55203,149.12889 127.88326,160.68939 C 130.46339,159.5593 133.04352,158.42921 135.62364,157.29911 z"
         id="path3534"
         inkscape:r_cx="true"
         inkscape:r_cy="true"
         sodipodi:nodetypes="czszszcc" />
      <path
         sodipodi:nodetypes="czszszcc"
         inkscape:r_cy="true"
         inkscape:r_cx="true"
         id="path3263"
         d="M 134.83793,156.79161 C 131.08684,144.10103 131.14638,136.90816 123.58464,118.71986 C 116.02291,100.53157 100.76352,71.383753 89.467502,47.6618 C 88.748034,46.150885 86.405656,45.3286 84.305047,46.248651 C 82.124345,47.203795 81.221269,49.637316 81.727124,51.052072 C 90.58982,75.839572 100.54214,107.31211 108.10389,125.50042 C 115.66562,143.68871 120.76633,148.62139 127.09755,160.18188 C 129.67768,159.05179 132.2578,157.9217 134.83793,156.79161 z"
         style="fill:url(#linearGradient4946);fill-opacity:1;fill-rule:evenodd;stroke:none;stroke-width:0.375;stroke-linecap:butt;stroke-linejoin:miter;stroke-miterlimit:4;stroke-dasharray:none;stroke-opacity:1" />
      <path
         sodipodi:nodetypes="cscsscsc"
         id="path3560"
         d="M 89.000716,46.846072 C 89.555822,47.159901 89.970133,47.646564 90.21745,48.165938 C 97.0878,62.593874 112.10119,92.467294 118.74301,107.82056 C 116.37529,106.60481 113.15707,104.79385 110.72664,101.31028 C 106.11762,94.704149 90.972416,56.458276 88.362383,51.437718 C 86.722829,48.28397 84.402123,50.137751 82.553843,49.658199 C 82.886566,48.515893 83.71341,47.32558 85.076349,46.728609 C 86.454865,46.124819 87.940944,46.246932 89.000716,46.846072 z"
         style="opacity:0.86976743;fill:url(#linearGradient4948);fill-opacity:1;fill-rule:evenodd;stroke:none;stroke-width:0.375;stroke-linecap:butt;stroke-linejoin:miter;stroke-miterlimit:4;stroke-dasharray:none;stroke-opacity:1"
         inkscape:r_cx="true"
         inkscape:r_cy="true" />
      <path
         style="fill:url(#radialGradient4950);fill-opacity:1;fill-rule:nonzero;stroke:none;stroke-width:0.5;stroke-linecap:round;stroke-linejoin:round;stroke-miterlimit:4;stroke-dasharray:none;stroke-dashoffset:4;stroke-opacity:1"
         d="M 96.333229,59.207173 C 97.215546,60.353059 98.1286,61.941149 98.320885,63.250758 L 89.638015,67.087677 L 87.934537,62.959954 L 96.333229,59.207173 z M 88.849185,62.550767 L 90.552696,66.678492 L 87.503837,68.042462 C 86.725738,67.071215 86.318606,65.312337 86.102661,63.788433 L 88.849185,62.550767 z"
         id="path2510"
         sodipodi:nodetypes="cccccccccc" />
      <path
         id="text3284"
         d="M 98.550444,90.633743 C 98.624493,90.814867 98.647119,90.970751 98.618345,91.101414 C 98.589552,91.232103 98.511993,91.325426 98.385661,91.381436 C 98.259875,91.437214 98.141767,91.430613 98.031369,91.361665 C 97.920971,91.292686 97.828753,91.167663 97.75471,90.986553 C 97.680234,90.804414 97.657401,90.648003 97.686169,90.517327 C 97.714968,90.386652 97.792257,90.29345 97.918056,90.237666 C 98.044382,90.181644 98.162747,90.188128 98.273152,90.257089 C 98.383543,90.326055 98.475981,90.451598 98.550444,90.633743 M 98.774472,90.534411 C 98.623007,90.163954 98.449239,89.898213 98.253148,89.737181 C 98.057045,89.576154 97.861841,89.538726 97.667525,89.62487 C 97.47373,89.710794 97.364622,89.883151 97.340171,90.141972 C 97.315732,90.400787 97.37923,90.715422 97.530682,91.085885 C 97.681721,91.455295 97.85549,91.721036 98.052019,91.883109 C 98.248104,92.044129 98.443043,92.081692 98.636826,91.995774 C 98.831142,91.90963 98.940526,91.737132 98.964971,91.47833 C 98.989002,91.218475 98.925504,90.90384 98.774472,90.534411 M 97.018561,87.998081 L 96.079806,87.469786 L 96.332868,88.088768 L 96.962614,88.445893 L 96.771455,89.16154 L 97.025761,89.783586 L 97.310739,88.712754 L 98.21197,89.221197 L 97.95828,88.600686 L 97.365713,88.267179 L 97.546203,87.592748 L 97.291257,86.969147 L 97.018561,87.998081 M 97.264746,86.904314 L 96.999079,86.254474 L 96.357341,85.919067 L 96.569956,85.204853 L 96.303655,84.553471 L 95.968968,85.739353 L 95.463895,85.963274 L 95.706857,86.557564 L 96.211918,86.333617 L 97.264746,86.904314 M 94.242944,82.719334 C 94.266078,82.88413 94.300844,83.050428 94.347307,83.218229 C 94.393813,83.386057 94.451739,83.554847 94.521166,83.72464 C 94.678083,84.10847 94.858063,84.38786 95.061131,84.562832 C 95.264721,84.737552 95.462072,84.782548 95.653173,84.697826 C 95.846441,84.61214 95.951761,84.430507 95.969171,84.152942 C 95.986576,83.875364 95.914084,83.53797 95.751697,83.140759 C 95.689015,82.987443 95.62156,82.844107 95.549355,82.710804 C 95.476749,82.576474 95.400253,82.4536 95.319901,82.342121 L 95.071783,82.452133 C 95.162387,82.563908 95.243129,82.679441 95.314046,82.798745 C 95.384519,82.916996 95.44585,83.039948 95.498012,83.167538 C 95.594772,83.404225 95.634914,83.602182 95.618463,83.76143 C 95.602106,83.919412 95.529954,84.026764 95.40202,84.083482 C 95.275153,84.139748 95.151934,84.121418 95.03241,84.028562 C 94.91288,83.935694 94.806612,83.775553 94.713633,83.548129 C 94.688397,83.486393 94.666923,83.428458 94.649219,83.374305 C 94.631614,83.318899 94.618476,83.2682 94.609791,83.222215 L 94.842663,83.118966 L 94.990956,83.481714 L 95.198125,83.389857 L 94.81948,82.463722 L 94.242944,82.719334 M 95.139351,81.705602 L 94.483671,80.10185 L 94.25002,80.205435 L 94.66275,81.214923 L 94.439494,81.313906 L 94.05141,80.364608 L 93.817734,80.468205 L 94.20585,81.417504 L 93.931225,81.539256 L 93.504627,80.495809 L 93.27097,80.599413 L 93.940524,82.237138 L 95.139351,81.705602 M 94.255864,79.544611 L 93.984525,78.880877 L 92.819621,78.407287 L 93.641844,78.04273 L 93.411518,77.479331 L 92.21269,78.010867 L 92.484042,78.674595 L 93.648946,79.148185 L 92.826711,79.512748 L 93.057036,80.076147 L 94.255864,79.544611 M 92.726193,75.80302 L 92.454829,75.139298 L 91.28995,74.665697 L 92.11216,74.301145 L 91.881829,73.737733 L 90.683001,74.269269 L 90.954353,74.932998 L 92.119276,75.406594 L 91.297008,75.771156 L 91.527366,76.334556 L 92.726193,75.80302 M 91.42138,72.548849 C 91.331767,72.329666 91.231398,72.16996 91.120229,72.069736 C 91.00862,71.96847 90.901977,71.940391 90.800267,71.985495 C 90.69857,72.030594 90.644145,72.129475 90.636997,72.28215 C 90.629868,72.434832 90.671304,72.621281 90.761351,72.841493 C 90.851384,73.06171 90.951898,73.222559 91.062973,73.32405 C 91.173589,73.424524 91.279774,73.452207 91.381471,73.407108 C 91.483186,73.362016 91.537882,73.263014 91.545552,73.110087 C 91.552807,72.956139 91.511401,72.769072 91.42138,72.548849 M 90.920962,73.521945 L 90.401618,72.251588 L 90.241013,72.322799 L 90.760371,73.593151 L 90.920962,73.521945 M 91.284891,72.609369 C 91.320219,72.695816 91.330706,72.77018 91.31632,72.832459 C 91.301537,72.893724 91.263094,72.938111 91.201001,72.965646 C 91.138896,72.993187 91.081793,72.991152 91.029672,72.959564 C 90.97713,72.926943 90.933182,72.867414 90.897853,72.780967 C 90.862919,72.695566 90.852596,72.622353 90.866845,72.561313 C 90.880685,72.499265 90.918657,72.454486 90.980749,72.426951 C 91.04286,72.399423 91.100429,72.401837 91.153517,72.434227 C 91.206153,72.465582 91.249957,72.523967 91.284891,72.609369 M 89.433696,69.345818 C 89.349274,69.199703 89.264713,69.098012 89.179974,69.040763 C 89.095354,68.982267 89.013145,68.970685 88.933395,69.006056 C 88.81455,69.058746 88.759854,69.186321 88.769274,69.388781 C 88.779228,69.591016 88.852789,69.859874 88.989935,70.195335 C 89.038322,70.313676 89.091997,70.430278 89.150974,70.545136 C 89.208971,70.659198 89.27166,70.769993 89.338992,70.877483 L 89.577499,70.771751 C 89.503151,70.673427 89.436183,70.573055 89.376603,70.470617 C 89.317148,70.366913 89.265733,70.262073 89.222402,70.156091 C 89.158025,69.998644 89.123006,69.871957 89.117294,69.776022 C 89.111161,69.679053 89.134599,69.618836 89.187608,69.595342 C 89.2422,69.571133 89.301081,69.596072 89.364255,69.670174 C 89.427549,69.742998 89.493473,69.863287 89.562059,70.031012 L 89.659233,70.26872 L 89.858361,70.180434 L 89.756137,69.930379 C 89.695139,69.781168 89.661739,69.664688 89.655971,69.580942 C 89.650716,69.496963 89.672992,69.44395 89.722766,69.42187 C 89.768816,69.401458 89.818927,69.421185 89.87312,69.481029 C 89.927294,69.540866 89.980901,69.635636 90.033898,69.765282 C 90.073039,69.860992 90.106948,69.960213 90.135675,70.062952 C 90.164401,70.165691 90.187575,70.270303 90.205178,70.37675 L 90.431592,70.276355 C 90.400775,70.151458 90.366069,70.029479 90.327513,69.910433 C 90.288982,69.791375 90.246964,69.676293 90.201549,69.565148 C 90.079112,69.265716 89.961925,69.05327 89.84994,68.927879 C 89.738074,68.80121 89.630772,68.76066 89.528002,68.806228 C 89.457869,68.837333 89.414852,68.898352 89.398906,68.989288 C 89.383507,69.079992 89.395103,69.198836 89.433696,69.345818"
         style="font-size:12px;font-style:normal;font-variant:normal;font-weight:bold;font-stretch:normal;text-align:start;line-height:125%;writing-mode:lr-tb;text-anchor:start;fill:#999999;fill-opacity:1;stroke:none;stroke-width:1px;stroke-linecap:butt;stroke-linejoin:miter;stroke-opacity:1;font-family:Bitstream Vera Sans" />
      <g
         transform="matrix(-1.0321819,-0.2741744,-0.2790269,1.0526914,209.31599,75.477207)"
         id="g2634">
        <path
           style="fill:url(#radialGradient4952);fill-opacity:1;fill-rule:nonzero;stroke:none;stroke-width:0.5;stroke-linecap:round;stroke-linejoin:round;stroke-miterlimit:4;stroke-dasharray:none;stroke-dashoffset:4;stroke-opacity:1"
           d="M 38.34944,98.879422 C 39.100451,97.429319 40.245026,95.686957 41.376668,94.733981 L 47.788963,99.921606 L 44.589716,103.87235 L 38.34944,98.879422 z M 43.909663,103.3289 L 47.108913,99.37812 L 49.375744,101.18964 C 48.749318,102.44484 47.279318,103.85323 45.959893,104.95541 L 43.909663,103.3289 z"
           id="path3213"
           sodipodi:nodetypes="cccccccccc" />
        <path
           sodipodi:nodetypes="cccccccccc"
           id="path3217"
           d="M 41.361775,94.94897 C 42.108412,93.495334 43.250303,91.750805 44.385839,90.800967 L 50.910159,96.079198 L 47.710595,100.0297 L 41.361775,94.94897 z M 47.018729,99.47668 L 50.218285,95.52615 L 52.524529,97.369552 C 51.902136,98.628011 50.428538,100.03348 49.104494,101.13193 L 47.018729,99.47668 z"
           style="fill:url(#radialGradient4954);fill-opacity:1;fill-rule:nonzero;stroke:none;stroke-width:0.5;stroke-linecap:round;stroke-linejoin:round;stroke-miterlimit:4;stroke-dasharray:none;stroke-dashoffset:4;stroke-opacity:1" />
        <path
           style="fill:url(#radialGradient4956);fill-opacity:1;fill-rule:nonzero;stroke:none;stroke-width:0.5;stroke-linecap:round;stroke-linejoin:round;stroke-miterlimit:4;stroke-dasharray:none;stroke-dashoffset:4;stroke-opacity:1"
           d="M 44.345464,90.914825 C 45.083365,89.454122 46.21989,87.705248 47.363201,86.761702 L 54.111573,92.221146 L 50.911382,96.17114 L 44.345464,90.914825 z M 50.195867,95.599 L 53.39605,91.64897 L 55.781114,93.556131 C 55.16679,94.821109 53.685987,96.220756 52.352723,97.311753 L 50.195867,95.599 z"
           id="path3221"
           sodipodi:nodetypes="cccccccccc" />
        <path
           sodipodi:nodetypes="cccccccccc"
           id="path3225"
           d="M 47.385861,86.950051 C 48.119393,85.485811 49.253231,83.734769 50.40043,82.79437 L 57.260835,88.344412 L 54.060325,92.294161 L 47.385861,86.950051 z M 53.332987,91.712457 L 56.533485,87.76268 L 58.957961,89.701712 C 58.347673,90.969952 56.86326,92.36669 55.525384,93.453958 L 53.332987,91.712457 z"
           style="fill:url(#radialGradient4958);fill-opacity:1;fill-rule:nonzero;stroke:none;stroke-width:0.5;stroke-linecap:round;stroke-linejoin:round;stroke-miterlimit:4;stroke-dasharray:none;stroke-dashoffset:4;stroke-opacity:1" />
        <path
           style="fill:url(#linearGradient4960);fill-opacity:1;fill-rule:nonzero;stroke:none;stroke-width:0.5;stroke-linecap:round;stroke-linejoin:round;stroke-miterlimit:4;stroke-dasharray:none;stroke-dashoffset:4;stroke-opacity:1"
           d="M 50.41561,82.77934 C 49.304261,83.690353 48.193593,85.381544 47.459111,86.816351 L 47.365545,86.753377 C 46.257962,87.667439 45.147654,89.358916 44.409048,90.790387 L 44.375093,90.793236 C 43.285688,91.704485 42.203179,93.376095 41.4567,94.791638 L 41.363132,94.728665 C 40.23149,95.681642 39.111243,97.425699 38.360234,98.875802 L 44.605879,103.87596 L 45.958839,104.96644 C 47.27827,103.86425 48.765041,102.42798 49.391466,101.17278 L 49.238285,101.04399 C 50.529062,99.961701 51.919709,98.588124 52.522652,97.368991 L 52.399279,97.273109 C 53.721588,96.187161 55.181733,94.805616 55.789658,93.553809 L 55.606671,93.392105 C 56.922218,92.315049 58.361371,90.953235 58.958947,89.711416 L 57.269822,88.330443 L 50.41561,82.77934 z"
           id="path3271" />
      </g>
    </g>
  </g>
</svg>
