<?xml version="1.0" encoding="UTF-8" standalone="no"?>
<!-- Created with Inkscape (http://www.inkscape.org/) -->

<svg
   xmlns:dc="http://purl.org/dc/elements/1.1/"
   xmlns:cc="http://creativecommons.org/ns#"
   xmlns:rdf="http://www.w3.org/1999/02/22-rdf-syntax-ns#"
   xmlns:svg="http://www.w3.org/2000/svg"
   xmlns="http://www.w3.org/2000/svg"
   xmlns:xlink="http://www.w3.org/1999/xlink"
   xmlns:sodipodi="http://sodipodi.sourceforge.net/DTD/sodipodi-0.dtd"
   xmlns:inkscape="http://www.inkscape.org/namespaces/inkscape"
   width="256"
   height="256"
   id="svg2"
   sodipodi:version="0.32"
   inkscape:version="0.47pre0 r21549"
   version="1.0"
   sodipodi:docname="inkscape.svg"
   inkscape:output_extension="org.inkscape.output.svg.inkscape">
  <defs
     id="defs4">
    <linearGradient
       inkscape:collect="always"
       xlink:href="#white"
       id="linearGradient3092"
       gradientUnits="userSpaceOnUse"
       x1="60"
       y1="20"
       x2="90"
       y2="50" />
    <linearGradient
       inkscape:collect="always"
       id="linearGradient3206">
      <stop
         style="stop-color:#fefeff;stop-opacity:1;"
         offset="0"
         id="stop3208" />
      <stop
         style="stop-color:#fefeff;stop-opacity:0;"
         offset="1"
         id="stop3210" />
    </linearGradient>
    <linearGradient
       inkscape:collect="always"
       xlink:href="#linearGradient3206"
       id="linearGradient3090"
       gradientUnits="userSpaceOnUse"
       x1="13.528977"
       y1="41.724186"
       x2="71.2"
       y2="41.724186" />
    <linearGradient
       inkscape:collect="always"
       id="linearGradient3296">
      <stop
         style="stop-color:#b818ec;stop-opacity:1;"
         offset="0"
         id="stop3298" />
      <stop
         style="stop-color:#b818ec;stop-opacity:0;"
         offset="1"
         id="stop3300" />
    </linearGradient>
    <linearGradient
       inkscape:collect="always"
       xlink:href="#linearGradient3296"
       id="linearGradient3088"
       gradientUnits="userSpaceOnUse"
       x1="7.4850902"
       y1="63.890827"
       x2="120.51176"
       y2="63.890827" />
    <linearGradient
       id="white"
       gradientUnits="userSpaceOnUse">
      <stop
         style="stop-color:#fff;stop-opacity:1"
         offset="0"
         id="stop7" />
      <stop
         style="stop-color:#fff;stop-opacity:0"
         offset="1"
         id="stop9" />
    </linearGradient>
    <linearGradient
       inkscape:collect="always"
       xlink:href="#white"
       id="linearGradient3086"
       gradientUnits="userSpaceOnUse"
       x1="0"
       y1="128"
       x2="0"
       y2="76" />
    <clipPath
       clipPathUnits="userSpaceOnUse"
       id="clipoutline1">
      <path
         id="outline1"
         d="M 54.1,12.5 L 12.9,54.7 C -2.7,70.3 23,69 32.3,74.9 C 36.6,77.7 18.5,81.3 22.2,85 C 25.8,88.7 43.9,92.1 47.5,95.7 C 51.1,99.4 40.2,103.3 43.8,107 C 47.3,110.7 55.7,107.2 57.2,115.6 C 58.3,121.8 72.6,118.7 79,113.4 C 83,110 72.1,110 75.7,106.3 C 84.7,97.2 92.7,102.2 96,93.8 C 97.8,89.3 82.4,86.1 86.5,83.2 C 96.3,76.3 132.3,72.8 115.7,56.2 L 73,12.5 C 67.7,7.5 59,7.5 54.1,12.5 z M 44.2,77.2 C 45.1,77.2 75,81.2 63.5,84.3 C 59.1,85.5 38.9,77.2 44.2,77.2 z M 101.4,93.8 C 101.4,95.9 117.7,97.1 116.8,93.3 C 115.5,86.9 103.2,87.4 101.4,93.8 z M 31.9,104.9 C 35.6,108.1 41.2,104.2 43,99.7 C 39.4,95 26.1,100 31.9,104.9 z M 99.4,98.2 C 94.8,102.4 100.2,106.8 104.7,103.9 C 105.9,103.1 104.6,99.2 99.4,98.2z" />
    </clipPath>
    <filter
       id="ShadowBlur"
       filterUnits="userSpaceOnUse"
       x="0"
       y="0">
      <feGaussianBlur
         in="SourceAlpha"
         stdDeviation="3"
         result="blur"
         id="feGaussianBlur24" />
    </filter>
    <linearGradient
       inkscape:collect="always"
       id="linearGradient4613">
      <stop
         style="stop-color:#000000;stop-opacity:1;"
         offset="0"
         id="stop4615" />
      <stop
         style="stop-color:#000000;stop-opacity:0;"
         offset="1"
         id="stop4617" />
    </linearGradient>
    <linearGradient
       inkscape:collect="always"
       id="linearGradient4605">
      <stop
         style="stop-color:#f70000;stop-opacity:1;"
         offset="0"
         id="stop4607" />
      <stop
         style="stop-color:#000000;stop-opacity:1"
         offset="1"
         id="stop4609" />
    </linearGradient>
    <linearGradient
       id="linearGradient4591"
       inkscape:collect="always">
      <stop
         id="stop4593"
         offset="0"
         style="stop-color:#ffffff;stop-opacity:1" />
      <stop
         id="stop4595"
         offset="1"
         style="stop-color:#ffffff;stop-opacity:0;" />
    </linearGradient>
    <mask
       maskUnits="userSpaceOnUse"
       x="122.963"
       y="97.149"
       width="576.609"
       height="587.491"
       id="XMLID_23_">
      <g
         id="g31"
         style="filter:url(#Adobe_OpacityMaskFilter)">
        <radialGradient
           id="XMLID_24_"
           cx="88.977501"
           cy="-20.899401"
           r="673.11609"
           fx="88.977501"
           fy="-20.899401"
           gradientUnits="userSpaceOnUse">
          <stop
             offset="0.309"
             style="stop-color:#FFFFFF"
             id="stop34" />
          <stop
             offset="1"
             style="stop-color:#000000"
             id="stop3816" />
        </radialGradient>
        <ellipse
           sodipodi:ry="349.10599"
           sodipodi:rx="512.93402"
           sodipodi:cy="286.172"
           sodipodi:cx="295.89499"
           cx="295.89499"
           cy="286.172"
           rx="512.93402"
           ry="349.10599"
           id="ellipse38"
           style="fill:url(#XMLID_24_)" />
      </g>
    </mask>
    <linearGradient
       inkscape:collect="always"
       xlink:href="#linearGradient4591"
       id="linearGradient3196"
       x1="99.881126"
       y1="68.792747"
       x2="171.01328"
       y2="46.998337"
       gradientUnits="userSpaceOnUse"
       gradientTransform="matrix(0.8301257,0,0,0.9649488,-179.55402,176.05704)" />
    <linearGradient
       inkscape:collect="always"
       xlink:href="#linearGradient4591"
       id="linearGradient4599"
       gradientUnits="userSpaceOnUse"
       gradientTransform="matrix(0.9457809,0,0,1.1075807,6.5485589,0.4212711)"
       x1="104.92213"
       y1="71.555038"
       x2="161.92285"
       y2="35.137646" />
    <linearGradient
       inkscape:collect="always"
       xlink:href="#linearGradient4605"
       id="linearGradient4611"
       x1="168.56552"
       y1="-13.762122"
       x2="206.93968"
       y2="23.825462"
       gradientUnits="userSpaceOnUse" />
    <linearGradient
       inkscape:collect="always"
       xlink:href="#linearGradient4613"
       id="linearGradient4619"
       x1="168.56552"
       y1="-13.762122"
       x2="351.36194"
       y2="165.28738"
       gradientUnits="userSpaceOnUse" />
  </defs>
  <sodipodi:namedview
     id="base"
     pagecolor="#ffffff"
     bordercolor="#666666"
     borderopacity="1.0"
     gridtolerance="10000"
     guidetolerance="10"
     objecttolerance="10"
     inkscape:pageopacity="0.0"
     inkscape:pageshadow="2"
     inkscape:zoom="1.2871553"
     inkscape:cx="128"
     inkscape:cy="97.383295"
     inkscape:document-units="px"
     inkscape:current-layer="layer1"
     showgrid="false"
     showguides="true"
     inkscape:guide-bbox="true"
     inkscape:window-width="773"
     inkscape:window-height="676"
     inkscape:window-x="304"
     inkscape:window-y="113" />
  <metadata
     id="metadata7">
    <rdf:RDF>
      <cc:Work
         rdf:about="">
        <dc:format>image/svg+xml</dc:format>
        <dc:type
           rdf:resource="http://purl.org/dc/dcmitype/StillImage" />
      </cc:Work>
    </rdf:RDF>
  </metadata>
  <g
     inkscape:label="Layer 1"
     inkscape:groupmode="layer"
     id="layer1">
    <rect
       style="opacity:1;fill:url(#linearGradient4619);fill-opacity:1;stroke:url(#linearGradient4611);stroke-width:2;stroke-miterlimit:4;stroke-dasharray:none;stroke-opacity:1"
       id="rect2383"
       width="209.543"
       height="209.543"
       x="75.938042"
       y="-106.63853"
       ry="61.030819"
       transform="matrix(0.6997472,0.7143906,-0.7143906,0.6997472,0,0)" />
    <rect
       style="opacity:0.26851852;fill:url(#linearGradient4599);fill-opacity:1;stroke:none;stroke-width:2;stroke-miterlimit:4;stroke-dasharray:none;stroke-opacity:1"
       id="rect4597"
       width="198.18179"
       height="232.08572"
       x="78.369324"
       y="-117.6895"
       ry="67.596573"
       transform="matrix(0.7600468,0.6498684,-0.7370851,0.6758,0,0)" />
    <rect
       transform="matrix(-0.796691,0.6043868,0.6617245,0.7497471,0,0)"
       ry="58.891621"
       y="73.156349"
       x="-116.51585"
       height="202.19823"
       width="173.94705"
       id="rect3188"
       style="opacity:0.27777778;fill:url(#linearGradient3196);fill-opacity:1;stroke:none;stroke-width:2;stroke-miterlimit:4;stroke-dasharray:none;stroke-opacity:1" />
    <path
       sodipodi:nodetypes="ccc"
       id="path2276"
       d="M 108.10388,41.662742 L 108.10388,37.156303 L 108.10388,41.662742 z"
       style="fill:#ffffff;fill-opacity:0.75688076;fill-rule:nonzero;stroke:none;stroke-width:0.5;stroke-linecap:round;stroke-linejoin:round;stroke-miterlimit:4;stroke-dasharray:none;stroke-dashoffset:4;stroke-opacity:1" />
    <g
       id="g3034"
       transform="matrix(1.5036129,0,0,1.5036129,31.94096,16.787714)">
      <g
         id="g3017">
        <g
           id="g3001">
          <g
             id="g2986">
            <g
               id="g2972">
              <g
                 id="g2959">
                <g
                   id="g2919">
                  <path
                     class="bs"
                     d="M 8,62.9 C 5.5,72.3 23.4,74 32.3,77.6 C 34.5,78.6 33.5,74.4 32.4,73.4 C 25.2,69.8 10.2,69 8,62.9 z M 119.6,63.9 C 116.9,72.8 94.6,77 86.6,81.7 C 84.5,82.9 83.4,88 87,86 C 96.6,80.7 122.8,75.3 119.6,63.9 z M 44.3,75.7 C 41,75.7 39,77.3 44.9,79.4 C 52.6,80 63.7,83 66,84 C 69.8,77.5 45,75.7 44.3,75.7 z M 23.2,84.2 C 21.8,83 20.3,85.2 22.3,87 C 25.8,90.8 44.9,94.9 48.6,98.5 C 50.4,99.4 49.8,96 48.7,94.9 C 45.3,91.5 28.2,87.6 23.2,84.2 z M 101.7,93.9 C 101.9,97.4 117.5,101.5 116.9,94 C 116.7,91.4 101.5,91.3 101.7,93.9 z M 95.6,93.7 C 92.2,100.8 84.3,96.2 75.8,104.8 C 73.5,106.5 74.5,111 76.8,108.6 C 85.5,100.4 93.2,104.9 96.2,96 C 96.4,95 96.2,94.4 95.6,93.7 z M 31.5,106 C 36,111 41.3,107.8 43,100.3 C 42.6,98.6 26.2,100.4 31.5,106 z M 98.7,100.2 C 93.3,104.6 102,109.6 104.7,106 C 108.3,101.3 101.3,102.6 98.7,100.2 z M 43.5,105 C 42.6,106.2 42.7,108 43.8,109.2 C 47.4,112.8 55.8,109.3 57.3,117.8 C 58.4,123.9 72.5,121.3 79.3,116.4 C 80.8,114.8 80.9,111 79,112 C 49.2,125.4 68.2,108.2 43.5,105 z"
                     id="path30"
                     style="opacity:0.70980392;fill:#000000;filter:url(#ShadowBlur)" />
                  <use
                     class="outline-big"
                     xlink:href="#outline1"
                     id="use32"
                     style="opacity:0.1;fill:none"
                     x="0"
                     y="0"
                     width="128"
                     height="128" />
                  <use
                     class="outline-small"
                     xlink:href="#outline1"
                     id="use34"
                     style="opacity:0.2;fill:none"
                     x="0"
                     y="0"
                     width="128"
                     height="128" />
                  <use
                     class="black"
                     xlink:href="#outline1"
                     id="use36"
                     style="fill:#000000"
                     x="0"
                     y="0"
                     width="128"
                     height="128" />
                  <use
                     clip-path="url(#clipoutline1)"
                     xlink:href="#outline1"
                     class="stroke-highlight"
                     id="use38"
                     style="opacity:0.2;fill:none"
                     x="0"
                     y="0"
                     width="128"
                     height="128" />
                  <use
                     style="opacity:0.5;fill:url(#linearGradient3086)"
                     class="specularity"
                     xlink:href="#outline1"
                     id="use40"
                     x="0"
                     y="0"
                     width="128"
                     height="128" />
                  <use
                     style="opacity:1;fill:url(#linearGradient3088);fill-opacity:1;stroke:none;stroke-opacity:1"
                     class="low-specularity"
                     xlink:href="#outline1"
                     id="use42"
                     x="0"
                     y="0"
                     width="128"
                     height="128" />
                  <path
                     class="specularity"
                     style="opacity:0.5;fill:url(#linearGradient3090);fill-opacity:1"
                     d="M 16.8,56.9 C 5.7,67.9 25.2,64.8 40.2,70.7 L 71.2,16.2 C 66.5,11.4 60.5,11.8 56.2,16.2 L 16.8,56.9 z"
                     id="path44" />
                  <path
                     style="fill:#0d040c;fill-opacity:1"
                     class="shade"
                     d="M 8.9,61.7 C 6.3,71.1 22.3,70.9 31.2,74.4 C 32.7,73.5 33.5,72.4 32.4,71.4 C 25.2,67.8 11,67.8 8.9,61.7 z M 120,62.7 C 117.3,71.6 94.5,75 86.6,79.7 C 85.5,80.8 86.2,81.8 87.5,82.8 C 97.3,77.9 123.2,74.1 120,62.7 z M 44.3,73.7 C 41.1,73.7 39.1,75.3 44.9,77.4 C 52.6,78 63.7,81.1 66.1,82.1 C 69.8,75.5 45.1,73.7 44.3,73.7 z M 23.2,82.2 C 21.9,83.1 21.2,84.1 22.3,85.1 C 25.8,88.8 43.8,92.2 47.5,95.8 C 48.4,94.6 48.7,93.4 47.6,92.2 C 44.2,88.8 28.2,85.6 23.2,82.2 z M 103,91.3 C 102.3,92.1 101.7,93 101.5,94 C 101.5,96.1 116.9,97.4 116.9,93.4 C 116.6,92.7 116.3,92 115.7,91.3 C 112.9,92.9 106,92.5 103,91.3 z M 95.6,91.7 C 92.2,98.8 84.3,94.2 75.8,102.8 C 74.4,104.3 75.2,105.1 76.5,105.8 C 85.2,97.6 93.2,102.9 96.2,94 C 96.4,93.1 96.2,92.4 95.6,91.7 z M 41.6,98.7 C 39.2,101.9 35,104 32,101.4 C 31.7,101.2 31.5,100.9 31.3,100.6 C 30.2,102 30.2,103.5 32,105.1 C 35.6,108.2 41.3,104.3 43,99.9 C 42.7,99.4 42.1,99 41.6,98.7 z M 98.3,99.7 C 96,103.4 100.6,106.4 104.7,104.1 C 105.3,103.4 105.2,102 104.1,100.6 C 101.7,101.8 99.4,101.1 98.3,99.7 z M 43.9,103.6 C 43,104.7 42.7,106 43.8,107.2 C 47.4,110.8 55.8,107.3 57.3,115.8 C 58.4,121.9 72,118.7 78.8,113.8 C 80.3,112.16 79.6,111.1 78.3,110.3 C 71.2,115.1 58.3,118 57.3,112.2 C 55.8,103.7 47.5,107.1 43.9,103.6 z"
                     id="path46" />
                  <path
                     class="full-specularity"
                     style="opacity:1;fill:url(#linearGradient3092)"
                     d="M 70.5,15.5 L 86.8,32.1 C 88.3,33.6 88.3,36.7 87.4,37.6 L 79.3,31 L 77.7,40.7 L 71,37.1 L 60.1,44 L 56.5,29.5 L 50.7,42.1 L 36.2,42 C 33.4,42 33.8,39.1 36.7,36.2 C 42.4,29.9 53.5,19.2 57,15.5 C 60.6,11.8 66.9,11.9 70.5,15.5 z"
                     id="path48" />
                </g>
              </g>
            </g>
          </g>
        </g>
      </g>
    </g>
  </g>
</svg>
