<?xml version="1.0" encoding="UTF-8" standalone="no"?>
<!-- Created with Inkscape (http://www.inkscape.org/) -->

<svg
   xmlns:dc="http://purl.org/dc/elements/1.1/"
   xmlns:cc="http://creativecommons.org/ns#"
   xmlns:rdf="http://www.w3.org/1999/02/22-rdf-syntax-ns#"
   xmlns:svg="http://www.w3.org/2000/svg"
   xmlns="http://www.w3.org/2000/svg"
   xmlns:xlink="http://www.w3.org/1999/xlink"
   xmlns:sodipodi="http://sodipodi.sourceforge.net/DTD/sodipodi-0.dtd"
   xmlns:inkscape="http://www.inkscape.org/namespaces/inkscape"
   width="256"
   height="256"
   id="svg2"
   sodipodi:version="0.32"
   inkscape:version="0.47pre0 r21549"
   version="1.0"
   sodipodi:docname="kde.svg"
   inkscape:output_extension="org.inkscape.output.svg.inkscape">
  <defs
     id="defs4">
    <linearGradient
       inkscape:collect="always"
       xlink:href="#XMLID_6_"
       id="linearGradient29411"
       gradientUnits="userSpaceOnUse"
       x1="92.049637"
       y1="109.93223"
       x2="-35.710068"
       y2="216.77003" />
    <linearGradient
       y2="104.0591"
       x2="63.9995"
       y1="21.941401"
       x1="63.9995"
       gradientUnits="userSpaceOnUse"
       id="linearGradient2193">
      <stop
         id="stop2195"
         style="stop-color:#dddddd;stop-opacity:1"
         offset="0" />
      <stop
         id="stop2197"
         style="stop-color:#E8E9EF"
         offset="1" />
    </linearGradient>
    <linearGradient
       xlink:href="#linearGradient2193"
       y2="104.0591"
       x2="63.9995"
       y1="21.941401"
       x1="63.9995"
       gradientUnits="userSpaceOnUse"
       id="linearGradient2199"
       spreadMethod="pad">
      <stop
         id="stop2201"
         style="stop-color:#FCFCFD"
         offset="0" />
      <stop
         id="stop2203"
         style="stop-color:#cccccc;stop-opacity:1"
         offset="1" />
    </linearGradient>
    <linearGradient
       id="XMLID_5_"
       gradientUnits="userSpaceOnUse"
       x1="63.9995"
       y1="21.941401"
       x2="63.9995"
       y2="104.0591"
       xlink:href="#linearGradient2199"
       spreadMethod="pad">
      <stop
         offset="0"
         style="stop-color:#dadada;stop-opacity:1"
         id="stop24" />
      <stop
         offset="1"
         style="stop-color:#cccccc;stop-opacity:1"
         id="stop26" />
    </linearGradient>
    <linearGradient
       inkscape:collect="always"
       xlink:href="#XMLID_5_"
       id="linearGradient29409"
       gradientUnits="userSpaceOnUse"
       x1="126.8584"
       y1="102.09082"
       x2="51.48325"
       y2="177.46597" />
    <linearGradient
       x1="116.01855"
       y1="112.93164"
       x2="56.763809"
       y2="172.18639"
       id="XMLID_6_"
       gradientUnits="userSpaceOnUse">
      <stop
         style="stop-color:#ffffff;stop-opacity:1.0000000;"
         offset="0.44999999"
         id="stop5286" />
      <stop
         style="stop-color:#a4cdec;stop-opacity:1.0000000;"
         offset="1.0000000"
         id="stop285" />
      <midPointStop
         offset="0.45"
         style="stop-color:#FFFFFF"
         id="midPointStop287" />
      <midPointStop
         offset="0.75"
         style="stop-color:#FFFFFF"
         id="midPointStop289" />
      <midPointStop
         offset="1"
         style="stop-color:#D4EEFF"
         id="midPointStop291" />
    </linearGradient>
    <linearGradient
       inkscape:collect="always"
       xlink:href="#XMLID_6_"
       id="linearGradient29407"
       gradientUnits="userSpaceOnUse"
       x1="103.71875"
       y1="107.75011"
       x2="223.05583"
       y2="-5.3456044" />
    <linearGradient
       x1="87.310547"
       y1="141.6543"
       x2="193.3839"
       y2="35.58094"
       id="XMLID_3_"
       gradientUnits="userSpaceOnUse">
      <stop
         style="stop-color:#001b7b;stop-opacity:1.0000000;"
         offset="0.0056200000"
         id="stop5278" />
      <stop
         style="stop-color:#0093dd;stop-opacity:1.0000000;"
         offset="1.0000000"
         id="stop224" />
      <midPointStop
         offset="0.00562"
         style="stop-color:#003399"
         id="midPointStop226" />
      <midPointStop
         offset="0.25"
         style="stop-color:#003399"
         id="midPointStop228" />
      <midPointStop
         offset="1"
         style="stop-color:#57ADFF"
         id="midPointStop230" />
    </linearGradient>
    <linearGradient
       inkscape:collect="always"
       xlink:href="#XMLID_3_"
       id="linearGradient29405"
       gradientUnits="userSpaceOnUse"
       x1="87.310547"
       y1="141.6543"
       x2="193.3839"
       y2="35.58094" />
    <linearGradient
       x1="112.49854"
       y1="6.1372099"
       x2="112.49853"
       y2="129.3468"
       id="path1082_2_"
       gradientUnits="userSpaceOnUse">
      <stop
         style="stop-color:#ffffff;stop-opacity:1.0000000;"
         offset="0.0000000"
         id="stop193" />
      <stop
         style="stop-color:#0093dd;stop-opacity:0.0000000;"
         offset="1.0000000"
         id="stop195" />
      <midPointStop
         offset="0"
         style="stop-color:#FFFFFF"
         id="midPointStop197" />
      <midPointStop
         offset="0.5"
         style="stop-color:#FFFFFF"
         id="midPointStop199" />
      <midPointStop
         offset="1"
         style="stop-color:#000000"
         id="midPointStop201" />
    </linearGradient>
    <linearGradient
       inkscape:collect="always"
       xlink:href="#path1082_2_"
       id="linearGradient29403"
       gradientUnits="userSpaceOnUse"
       x1="112.49854"
       y1="6.1372099"
       x2="112.49853"
       y2="129.3468" />
    <radialGradient
       cx="-1.36621"
       cy="223.93457"
       r="299.15564"
       fx="-1.36621"
       fy="223.93457"
       id="XMLID_2_"
       gradientUnits="userSpaceOnUse"
       gradientTransform="translate(0.2960526,0)">
      <stop
         style="stop-color:#ffffff;stop-opacity:1.0000000;"
         offset="0.0000000"
         id="stop166" />
      <stop
         style="stop-color:#418ade;stop-opacity:1.0000000;"
         offset="0.44999999"
         id="stop168" />
      <stop
         style="stop-color:#3c5cb2;stop-opacity:1.0000000;"
         offset="0.75000000"
         id="stop170" />
      <stop
         style="stop-color:#0068c6;stop-opacity:1.0000000;"
         offset="1.0000000"
         id="stop172" />
      <midPointStop
         offset="0"
         style="stop-color:#FFFFFF"
         id="midPointStop174" />
      <midPointStop
         offset="0.5"
         style="stop-color:#FFFFFF"
         id="midPointStop176" />
      <midPointStop
         offset="0.45"
         style="stop-color:#0083D7"
         id="midPointStop178" />
      <midPointStop
         offset="0.5"
         style="stop-color:#0083D7"
         id="midPointStop180" />
      <midPointStop
         offset="0.75"
         style="stop-color:#0053BD"
         id="midPointStop182" />
      <midPointStop
         offset="0.5"
         style="stop-color:#0053BD"
         id="midPointStop184" />
      <midPointStop
         offset="1"
         style="stop-color:#0066CC"
         id="midPointStop186" />
    </radialGradient>
    <radialGradient
       inkscape:collect="always"
       xlink:href="#XMLID_2_"
       id="radialGradient29401"
       gradientUnits="userSpaceOnUse"
       gradientTransform="translate(0.2960526,0)"
       cx="-1.36621"
       cy="223.93457"
       fx="-1.36621"
       fy="223.93457"
       r="299.15564" />
    <linearGradient
       x1="112.50049"
       y1="211.02246"
       x2="112.50048"
       y2="12.81396"
       id="path1067_2_"
       gradientUnits="userSpaceOnUse">
      <stop
         style="stop-color:#418ade;stop-opacity:1.0000000;"
         offset="0.0000000"
         id="stop117" />
      <stop
         style="stop-color:#a4cdec;stop-opacity:1.0000000;"
         offset="0.50000000"
         id="stop133" />
      <stop
         style="stop-color:#003399;stop-opacity:1.0000000;"
         offset="1.0000000"
         id="stop5249" />
      <midPointStop
         offset="0"
         style="stop-color:#0099FF"
         id="midPointStop151" />
      <midPointStop
         offset="0.25"
         style="stop-color:#0099FF"
         id="midPointStop153" />
      <midPointStop
         offset="0.5"
         style="stop-color:#B0D9FF"
         id="midPointStop155" />
      <midPointStop
         offset="0.75"
         style="stop-color:#B0D9FF"
         id="midPointStop157" />
      <midPointStop
         offset="1"
         style="stop-color:#003399"
         id="midPointStop159" />
    </linearGradient>
    <linearGradient
       inkscape:collect="always"
       xlink:href="#path1067_2_"
       id="linearGradient29399"
       gradientUnits="userSpaceOnUse"
       x1="112.50049"
       y1="211.02246"
       x2="112.50048"
       y2="12.81396" />
    <linearGradient
       x1="214.27441"
       y1="213.71484"
       x2="10.72779"
       y2="10.16822"
       id="XMLID_1_"
       gradientUnits="userSpaceOnUse"
       gradientTransform="matrix(0.9319767,0,0,0.9319767,7.4852368,7.4496049)">
      <stop
         style="stop-color:#0068c6;stop-opacity:1.0000000;"
         offset="0.0000000"
         id="stop100" />
      <stop
         style="stop-color:#3c5cb2;stop-opacity:1.0000000;"
         offset="1.0000000"
         id="stop5240" />
      <midPointStop
         offset="0"
         style="stop-color:#0066CC"
         id="midPointStop104" />
      <midPointStop
         offset="0.5"
         style="stop-color:#0066CC"
         id="midPointStop106" />
      <midPointStop
         offset="1"
         style="stop-color:#0053BD"
         id="midPointStop108" />
    </linearGradient>
    <linearGradient
       inkscape:collect="always"
       xlink:href="#XMLID_1_"
       id="linearGradient29397"
       gradientUnits="userSpaceOnUse"
       gradientTransform="matrix(0.9319767,0,0,0.9319767,7.4852368,7.4496049)"
       x1="214.27441"
       y1="213.71484"
       x2="10.72779"
       y2="10.16822" />
    <linearGradient
       inkscape:collect="always"
       id="linearGradient4613">
      <stop
         style="stop-color:#000000;stop-opacity:1;"
         offset="0"
         id="stop4615" />
      <stop
         style="stop-color:#000000;stop-opacity:0;"
         offset="1"
         id="stop4617" />
    </linearGradient>
    <linearGradient
       inkscape:collect="always"
       id="linearGradient4605">
      <stop
         style="stop-color:#f70000;stop-opacity:1;"
         offset="0"
         id="stop4607" />
      <stop
         style="stop-color:#000000;stop-opacity:1"
         offset="1"
         id="stop4609" />
    </linearGradient>
    <linearGradient
       id="linearGradient4591"
       inkscape:collect="always">
      <stop
         id="stop4593"
         offset="0"
         style="stop-color:#ffffff;stop-opacity:1" />
      <stop
         id="stop4595"
         offset="1"
         style="stop-color:#ffffff;stop-opacity:0;" />
    </linearGradient>
    <mask
       maskUnits="userSpaceOnUse"
       x="122.963"
       y="97.149"
       width="576.609"
       height="587.491"
       id="XMLID_23_">
      <g
         id="g31"
         style="filter:url(#Adobe_OpacityMaskFilter)">
        <radialGradient
           id="XMLID_24_"
           cx="88.977501"
           cy="-20.899401"
           r="673.11609"
           fx="88.977501"
           fy="-20.899401"
           gradientUnits="userSpaceOnUse">
          <stop
             offset="0.309"
             style="stop-color:#FFFFFF"
             id="stop34" />
          <stop
             offset="1"
             style="stop-color:#000000"
             id="stop3816" />
        </radialGradient>
        <ellipse
           sodipodi:ry="349.10599"
           sodipodi:rx="512.93402"
           sodipodi:cy="286.172"
           sodipodi:cx="295.89499"
           cx="295.89499"
           cy="286.172"
           rx="512.93402"
           ry="349.10599"
           id="ellipse38"
           style="fill:url(#XMLID_24_)" />
      </g>
    </mask>
    <linearGradient
       inkscape:collect="always"
       xlink:href="#linearGradient4591"
       id="linearGradient3196"
       x1="99.881126"
       y1="68.792747"
       x2="171.01328"
       y2="46.998337"
       gradientUnits="userSpaceOnUse"
       gradientTransform="matrix(0.8301257,0,0,0.9649488,-179.55402,176.05704)" />
    <linearGradient
       inkscape:collect="always"
       xlink:href="#linearGradient4591"
       id="linearGradient4599"
       gradientUnits="userSpaceOnUse"
       gradientTransform="matrix(0.9457809,0,0,1.1075807,6.5485589,0.4212711)"
       x1="104.92213"
       y1="71.555038"
       x2="161.92285"
       y2="35.137646" />
    <linearGradient
       inkscape:collect="always"
       xlink:href="#linearGradient4605"
       id="linearGradient4611"
       x1="168.56552"
       y1="-13.762122"
       x2="206.93968"
       y2="23.825462"
       gradientUnits="userSpaceOnUse" />
    <linearGradient
       inkscape:collect="always"
       xlink:href="#linearGradient4613"
       id="linearGradient4619"
       x1="168.56552"
       y1="-13.762122"
       x2="351.36194"
       y2="165.28738"
       gradientUnits="userSpaceOnUse" />
  </defs>
  <sodipodi:namedview
     id="base"
     pagecolor="#ffffff"
     bordercolor="#666666"
     borderopacity="1.0"
     gridtolerance="10000"
     guidetolerance="10"
     objecttolerance="10"
     inkscape:pageopacity="0.0"
     inkscape:pageshadow="2"
     inkscape:zoom="1.2871553"
     inkscape:cx="128"
     inkscape:cy="97.383295"
     inkscape:document-units="px"
     inkscape:current-layer="layer1"
     showgrid="false"
     showguides="true"
     inkscape:guide-bbox="true"
     inkscape:window-width="773"
     inkscape:window-height="676"
     inkscape:window-x="304"
     inkscape:window-y="113" />
  <metadata
     id="metadata7">
    <rdf:RDF>
      <cc:Work
         rdf:about="">
        <dc:format>image/svg+xml</dc:format>
        <dc:type
           rdf:resource="http://purl.org/dc/dcmitype/StillImage" />
      </cc:Work>
    </rdf:RDF>
  </metadata>
  <g
     inkscape:label="Layer 1"
     inkscape:groupmode="layer"
     id="layer1">
    <rect
       style="opacity:1;fill:url(#linearGradient4619);fill-opacity:1;stroke:url(#linearGradient4611);stroke-width:2;stroke-miterlimit:4;stroke-dasharray:none;stroke-opacity:1"
       id="rect2383"
       width="209.543"
       height="209.543"
       x="75.938042"
       y="-106.63853"
       ry="61.030819"
       transform="matrix(0.6997472,0.7143906,-0.7143906,0.6997472,0,0)" />
    <rect
       style="opacity:0.26851852;fill:url(#linearGradient4599);fill-opacity:1;stroke:none;stroke-width:2;stroke-miterlimit:4;stroke-dasharray:none;stroke-opacity:1"
       id="rect4597"
       width="198.18179"
       height="232.08572"
       x="78.369324"
       y="-117.6895"
       ry="67.596573"
       transform="matrix(0.7600468,0.6498684,-0.7370851,0.6758,0,0)" />
    <rect
       transform="matrix(-0.796691,0.6043868,0.6617245,0.7497471,0,0)"
       ry="58.891621"
       y="73.156349"
       x="-116.51585"
       height="202.19823"
       width="173.94705"
       id="rect3188"
       style="opacity:0.27777778;fill:url(#linearGradient3196);fill-opacity:1;stroke:none;stroke-width:2;stroke-miterlimit:4;stroke-dasharray:none;stroke-opacity:1" />
    <path
       sodipodi:nodetypes="ccc"
       id="path2276"
       d="M 108.10388,41.662742 L 108.10388,37.156303 L 108.10388,41.662742 z"
       style="fill:#ffffff;fill-opacity:0.75688076;fill-rule:nonzero;stroke:none;stroke-width:0.5;stroke-linecap:round;stroke-linejoin:round;stroke-miterlimit:4;stroke-dasharray:none;stroke-dashoffset:4;stroke-opacity:1" />
    <g
       id="g5209"
       transform="matrix(0.5959182,0,0,0.5959182,61.212351,53.479438)">
      <path
         id="path111"
         style="fill:url(#linearGradient29397)"
         d="M 28.094756,12.673773 L 196.57094,12.673773 C 205.05339,12.673773 211.97404,19.596701 211.97404,28.077326 L 211.97404,195.43041 C 211.97404,203.91195 205.05339,210.91997 196.57094,210.91997 L 28.094756,210.91997 C 19.614589,210.91997 12.691203,203.91195 12.691203,195.43041 L 12.691203,28.077326 C 12.69029,19.596701 19.614589,12.673773 28.094756,12.673773 z" />
      <path
         id="path1067_1_"
         style="fill:url(#linearGradient29399)"
         d="M 25.62744,12.81348 L 199.37305,12.81348 C 206.36035,12.81348 212.09571,18.54883 212.09571,25.62744 L 212.09571,198.2998 C 212.09571,205.28808 206.36133,211.02246 199.37305,211.02246 L 25.62744,211.02246 C 18.63867,211.02246 12.90527,205.28808 12.90527,198.2998 L 12.90527,25.62744 C 12.90527,18.54883 18.63867,12.81348 25.62744,12.81348 z" />
      <path
         id="path189"
         style="fill:url(#radialGradient29401);stroke:none"
         d="M 25.923493,15.30322 C 20.280423,15.30322 15.690093,19.93457 15.690093,25.62744 L 15.690093,198.2998 C 15.690093,203.9414 20.280423,208.53418 25.923493,208.53418 L 199.6691,208.53418 C 205.31168,208.53418 209.90348,203.94141 209.90348,198.2998 L 209.90348,25.62744 C 209.90348,19.93457 205.31168,15.30322 199.6691,15.30322 L 25.923493,15.30322 z" />
      <path
         id="path1082_1_"
         style="fill:url(#linearGradient29403)"
         d="M 25.62744,18.10547 C 21.53027,18.10547 18.19678,21.47901 18.19678,25.62744 C 18.19678,25.62744 18.19678,130.19433 18.19678,138.14551 C 27.30908,129.61133 57.16065,106.60498 114.41309,106.60498 C 177.06153,106.60498 203.46875,78.82227 206.80079,74.99609 C 206.80079,73.74023 206.80079,25.62841 206.80079,25.62841 C 206.80079,21.48046 203.46876,18.10693 199.3711,18.10693 L 25.62744,18.10693 L 25.62744,18.10547 z" />
      <path
         id="path233"
         style="fill:url(#linearGradient29405)"
         d="M 124.10938,26.55322 L 95.52247,29.29004 C 94.8838,29.35254 94.39649,29.88867 94.39649,30.53027 L 94.39649,148.22558 C 94.39649,148.58691 94.55469,148.93261 94.8296,149.16796 C 95.1045,149.40526 95.46827,149.50976 95.82618,149.45605 L 124.11134,145.19726 C 124.71876,145.10546 125.17189,144.58203 125.17189,143.96581 C 125.17189,143.96581 125.17189,104.63134 125.17189,97.81542 C 129.18947,103.69774 160.91212,150.1455 160.91212,150.1455 C 161.22071,150.59863 161.792,150.79491 162.31544,150.6289 L 192.11817,141.20117 C 192.49903,141.08008 192.79883,140.7832 192.92383,140.40332 C 192.96582,140.27539 192.98731,140.14355 192.98731,140.01465 C 192.98731,139.75391 192.90528,139.49805 192.74805,139.28223 C 192.74805,139.28223 155.44141,87.98291 154.3711,86.5127 C 155.48731,85.07715 193.03126,36.76807 193.03126,36.76807 C 193.20216,36.54639 193.29103,36.27735 193.29103,36.00391 C 193.29103,35.86377 193.26857,35.72315 193.21974,35.58692 C 193.07716,35.18604 192.74025,34.88672 192.32521,34.79102 L 161.91603,27.79786 C 161.43556,27.68751 160.93458,27.8711 160.63966,28.26563 C 160.63966,28.26563 129.19142,70.36329 125.19044,75.71924 C 125.2295,69.21973 125.47267,27.79541 125.47267,27.79297 C 125.47267,27.44287 125.32619,27.10986 125.06935,26.87451 C 124.80859,26.63721 124.46191,26.52051 124.10938,26.55322 z" />
      <polygon
         id="path5692_1_"
         style="fill:#ffffff"
         points="95.6416,148.22559 95.6416,30.53027 124.22754,27.79297 123.9248,79.49414 161.63672,29.01074 192.04785,36.00391 152.81543,86.4873 191.74219,140.01465 161.94043,149.44238 123.92676,93.78662 123.92676,143.96582 95.6416,148.22559 " />
      <path
         id="path256"
         style="fill:url(#linearGradient29407);fill-opacity:1"
         d="M 101.86377,36.18457 C 101.86377,45.77295 101.86377,128.91016 101.86377,140.99512 C 107.84668,140.09473 112.88086,139.33692 117.7041,138.61035 C 117.7041,130.90918 117.7041,104.72461 117.7041,98.21924 C 117.70215,98.22217 117.5918,98.36963 117.5918,98.36963 C 117.5918,98.36963 117.7041,79.26807 117.7041,79.2666 C 117.7041,77.0039 117.7041,73.64306 117.7041,73.64306 L 117.73633,73.69189 C 117.78223,65.9541 117.91309,43.66015 117.9668,34.64404 C 112.09473,35.20508 106.95605,35.69727 101.86377,36.18457 z M 128.90918,83.21777 C 128.90918,83.21777 127.29492,85.3789 126.47168,86.48144 C 127.38574,87.81933 159.94727,135.49121 164.4707,142.11621 C 168.79492,140.74707 174.76465,138.8584 181.62793,136.68652 C 173.94531,126.12304 145.03027,86.36328 145.03027,86.36328 C 145.03027,86.36328 172.55761,50.9414 181.15136,39.8833 C 173.8662,38.2085 168.02929,36.86523 164.19628,35.9834 C 159.94434,41.67236 128.90918,83.21777 128.90918,83.21777 z" />
      <path
         id="path271"
         style="fill:url(#linearGradient29409)"
         d="M 57.67578,56.01465 C 57.6748,56.01563 46.45947,67.23096 46.45947,67.23096 C 45.93847,67.75244 45.66943,68.4419 45.66943,69.13819 C 45.66943,69.61817 45.79687,70.10157 46.06054,70.53663 C 46.06054,70.53663 58.15527,90.45265 58.83544,91.57569 C 56.74511,95.2002 55.0581,99.04542 53.80517,103.03907 C 52.53271,103.30274 30.36474,107.91407 30.36474,107.91407 C 29.12011,108.17139 28.21826,109.28223 28.21826,110.55323 L 28.21826,126.417 C 28.21826,127.66309 29.06445,128.74122 30.27441,129.03419 C 30.27441,129.03419 51.72216,134.27833 52.99804,134.58888 C 54.20898,139.31251 55.98437,143.80861 58.28466,147.9922 C 57.56152,149.09474 45.12157,168.06837 45.12157,168.06837 C 44.82762,168.51759 44.68407,169.02931 44.68407,169.54103 C 44.68407,170.24025 44.95409,170.93556 45.47411,171.45412 L 56.68798,182.67092 C 57.57177,183.55276 58.93261,183.71584 59.99755,183.06838 C 59.99755,183.06838 79.54491,171.20022 80.64648,170.53225 C 84.54248,172.71291 88.66259,174.42776 92.92529,175.64455 C 93.1958,176.94826 97.73388,198.76564 97.73388,198.76564 C 97.99023,200.0088 99.10009,200.91408 100.37402,200.91408 L 116.23828,200.91408 C 117.4834,200.91408 118.56055,200.0674 118.85644,198.85646 C 118.85644,198.85646 124.22363,176.88869 124.52636,175.6465 C 128.94335,174.39064 133.19531,172.60158 137.20019,170.31837 C 138.32617,171.0586 157.52148,183.64552 157.52148,183.64552 C 158.583,184.34083 160.00586,184.19435 160.90429,183.30079 L 172.12499,172.08009 C 173.00683,171.19923 173.17089,169.83888 172.52245,168.77443 L 164.88378,156.18947 C 164.58495,155.69826 163.99218,155.47463 163.44433,155.64943 C 163.44433,155.64943 161.68554,156.20509 161.25097,156.34377 C 159.91796,154.3926 150.2539,140.24318 150.2539,140.24318 C 150.00585,139.8799 149.58593,139.67482 149.14452,139.70314 C 148.708,139.73048 148.31639,139.9883 148.1162,140.37892 C 140.51171,155.2588 125.42186,164.50197 108.73436,164.50197 C 96.92479,164.50197 85.82225,159.90334 77.47166,151.55177 C 69.12107,143.20118 64.52195,132.09767 64.52195,120.28907 C 64.52195,102.92335 74.76511,87.09376 90.61668,79.95997 C 91.06395,79.7588 91.35057,79.31446 91.35057,78.82423 L 91.35057,67.09863 C 91.35057,66.69482 91.15526,66.31689 90.82616,66.08398 C 90.49755,65.85058 90.07616,65.79052 89.69579,65.92382 C 86.94433,66.8872 84.33983,68.04296 81.89696,69.32763 C 80.80175,68.61034 61.062,55.66454 61.062,55.66454 C 59.99756,54.9668 58.57324,55.11523 57.67578,56.01465 z" />
      <path
         id="path273"
         style="fill:#ffffff"
         d="M 163.81934,156.83398 L 161.34961,157.61816 C 160.98828,157.72949 160.59961,157.5957 160.38477,157.28125 C 160.38477,157.28125 155.51368,150.15234 149.22461,140.94531 C 141.70313,155.66308 126.40137,165.74511 108.73438,165.74511 C 83.62989,165.74511 63.27735,145.39355 63.27735,120.28906 C 63.27735,101.82275 74.29346,85.94043 90.10645,78.82422 L 90.10645,67.09863 C 87.22852,68.10595 84.44825,69.31884 81.80567,70.7583 C 81.80079,70.75537 81.79688,70.75098 81.792,70.74805 L 60.38037,56.70508 C 59.8042,56.32813 59.04346,56.40625 58.55713,56.89356 L 47.33936,68.11084 C 46.86768,68.58398 46.7793,69.31885 47.12549,69.8916 L 60.25977,91.52246 C 57.92969,95.43945 56.06446,99.6626 54.73243,104.11719 L 30.6172,109.13282 C 29.9463,109.27149 29.46241,109.86573 29.46241,110.55323 L 29.46241,126.417 C 29.46241,127.0879 29.91944,127.66895 30.56886,127.82716 L 53.97023,133.54689 C 55.22023,138.70412 57.15187,143.59669 59.70802,148.09181 L 46.16309,168.75 C 45.78516,169.32617 45.86524,170.08691 46.35254,170.57324 L 57.56787,181.79101 C 58.04101,182.26269 58.77832,182.35253 59.34961,182.00488 L 80.58203,169.11523 C 84.74805,171.5205 89.24756,173.41503 93.99902,174.69824 L 98.95312,198.51172 C 99.09179,199.18457 99.68701,199.66895 100.37402,199.66895 L 116.23828,199.66895 C 116.9043,199.66895 117.48828,199.21192 117.64648,198.56055 L 123.47949,174.69239 C 128.37988,173.3711 133.01269,171.40235 137.28613,168.88673 L 158.2041,182.60548 C 158.78125,182.98146 159.53906,182.90431 160.02832,182.41798 L 171.24512,171.20021 C 171.71973,170.72658 171.80664,169.99318 171.45899,169.42189 L 163.81934,156.83398 z" />
      <path
         id="path294"
         style="fill:url(#linearGradient29411);fill-opacity:1"
         d="M 54.38721,69.86328 C 57.20459,74.50293 66.2334,89.37109 66.80371,90.30957 C 70.44922,85.2085 74.96582,80.73096 80.29346,77.20654 C 79.38428,76.60986 64.88672,67.10254 60.21387,64.03711 C 58.06104,66.18945 56.49023,67.76123 54.38721,69.86328 z M 55.99902,110.2085 C 55.99902,110.2085 41.0791,113.31348 35.68506,114.4336 C 35.68506,117.4795 35.68506,119.7002 35.68506,122.6709 C 40.88233,123.94043 56.62598,127.78809 57.69287,128.04981 C 57.31006,125.49805 57.05469,122.91602 57.05469,120.28907 C 57.05469,116.68751 57.55664,113.17677 58.28125,109.73438 C 57.21533,109.95557 55.99902,110.2085 55.99902,110.2085 z M 64.91211,151.50293 C 64.91211,151.50293 56.51904,164.30371 53.49512,168.91699 C 55.64893,171.07129 57.21875,172.6416 59.3208,174.74316 C 63.94238,171.9375 78.31055,163.21386 79.2085,162.66796 C 76.73389,160.93749 74.37256,159.01171 72.19239,156.83105 C 69.93897,154.5791 67.94923,152.13964 66.17628,149.57421 C 65.57373,150.49512 64.91211,151.50293 64.91211,151.50293 z M 138.63574,162.33105 C 139.58789,162.95507 153.73926,172.23632 158.37207,175.27343 C 160.52148,173.12499 162.09375,171.55175 164.19629,169.44921 C 162.90527,167.32128 162.22559,166.19823 160.7959,163.84374 C 158.5957,163.75487 156.53418,162.6787 155.24707,160.79101 C 155.24707,160.79101 152.26855,156.43359 149.31543,152.11035 C 146.2334,156.05566 142.64063,159.47656 138.63574,162.33105 z M 108.73438,171.96777 C 105.64014,171.96777 102.59815,171.6582 99.61329,171.12988 C 99.83888,172.21972 103.13868,188.0791 104.25587,193.44629 C 107.29884,193.44629 109.51857,193.44629 112.49073,193.44629 C 113.76661,188.21973 117.71192,172.08106 117.96485,171.04785 C 114.94531,171.58984 111.87793,171.96777 108.73438,171.96777 z" />
    </g>
  </g>
</svg>
