<?xml version="1.0" encoding="UTF-8" standalone="no"?>
<!-- Created with Inkscape (http://www.inkscape.org/) -->

<svg
   xmlns:dc="http://purl.org/dc/elements/1.1/"
   xmlns:cc="http://creativecommons.org/ns#"
   xmlns:rdf="http://www.w3.org/1999/02/22-rdf-syntax-ns#"
   xmlns:svg="http://www.w3.org/2000/svg"
   xmlns="http://www.w3.org/2000/svg"
   xmlns:xlink="http://www.w3.org/1999/xlink"
   xmlns:sodipodi="http://sodipodi.sourceforge.net/DTD/sodipodi-0.dtd"
   xmlns:inkscape="http://www.inkscape.org/namespaces/inkscape"
   width="256"
   height="256"
   id="svg2"
   sodipodi:version="0.32"
   inkscape:version="0.47pre0 r21549"
   version="1.0"
   sodipodi:docname="logoff.svg"
   inkscape:output_extension="org.inkscape.output.svg.inkscape">
  <defs
     id="defs4">
    <linearGradient
       id="linearGradient3954">
      <stop
         id="stop3956"
         offset="0"
         style="stop-color:#b3b3b3;stop-opacity:1;" />
      <stop
         style="stop-color:#ffffff;stop-opacity:1;"
         offset="0.52879584"
         id="stop3962" />
      <stop
         id="stop3958"
         offset="1"
         style="stop-color:#c5c5c5;stop-opacity:1;" />
    </linearGradient>
    <radialGradient
       inkscape:collect="always"
       xlink:href="#linearGradient3954"
       id="radialGradient10360"
       gradientUnits="userSpaceOnUse"
       gradientTransform="matrix(2.0209311,0,0,1.809911,1.1552238,12.265989)"
       cx="60.097603"
       cy="88.499367"
       fx="69.801033"
       fy="111.93269"
       r="47.937988" />
    <linearGradient
       inkscape:collect="always"
       id="linearGradient4613">
      <stop
         style="stop-color:#000000;stop-opacity:1;"
         offset="0"
         id="stop4615" />
      <stop
         style="stop-color:#000000;stop-opacity:0;"
         offset="1"
         id="stop4617" />
    </linearGradient>
    <linearGradient
       inkscape:collect="always"
       id="linearGradient4605">
      <stop
         style="stop-color:#f70000;stop-opacity:1;"
         offset="0"
         id="stop4607" />
      <stop
         style="stop-color:#000000;stop-opacity:1"
         offset="1"
         id="stop4609" />
    </linearGradient>
    <linearGradient
       id="linearGradient4591"
       inkscape:collect="always">
      <stop
         id="stop4593"
         offset="0"
         style="stop-color:#ffffff;stop-opacity:1" />
      <stop
         id="stop4595"
         offset="1"
         style="stop-color:#ffffff;stop-opacity:0;" />
    </linearGradient>
    <mask
       maskUnits="userSpaceOnUse"
       x="122.963"
       y="97.149"
       width="576.609"
       height="587.491"
       id="XMLID_23_">
      <g
         id="g31"
         style="filter:url(#Adobe_OpacityMaskFilter)">
        <radialGradient
           id="XMLID_24_"
           cx="88.977501"
           cy="-20.899401"
           r="673.11609"
           fx="88.977501"
           fy="-20.899401"
           gradientUnits="userSpaceOnUse">
          <stop
             offset="0.309"
             style="stop-color:#FFFFFF"
             id="stop34" />
          <stop
             offset="1"
             style="stop-color:#000000"
             id="stop3816" />
        </radialGradient>
        <ellipse
           sodipodi:ry="349.10599"
           sodipodi:rx="512.93402"
           sodipodi:cy="286.172"
           sodipodi:cx="295.89499"
           cx="295.89499"
           cy="286.172"
           rx="512.93402"
           ry="349.10599"
           id="ellipse38"
           style="fill:url(#XMLID_24_)" />
      </g>
    </mask>
    <linearGradient
       inkscape:collect="always"
       xlink:href="#linearGradient4591"
       id="linearGradient3196"
       x1="99.881126"
       y1="68.792747"
       x2="171.01328"
       y2="46.998337"
       gradientUnits="userSpaceOnUse"
       gradientTransform="matrix(0.8301257,0,0,0.9649488,-179.55402,176.05704)" />
    <linearGradient
       inkscape:collect="always"
       xlink:href="#linearGradient4591"
       id="linearGradient4599"
       gradientUnits="userSpaceOnUse"
       gradientTransform="matrix(0.9457809,0,0,1.1075807,6.5485589,0.4212711)"
       x1="104.92213"
       y1="71.555038"
       x2="161.92285"
       y2="35.137646" />
    <linearGradient
       inkscape:collect="always"
       xlink:href="#linearGradient4605"
       id="linearGradient4611"
       x1="168.56552"
       y1="-13.762122"
       x2="206.93968"
       y2="23.825462"
       gradientUnits="userSpaceOnUse" />
    <linearGradient
       inkscape:collect="always"
       xlink:href="#linearGradient4613"
       id="linearGradient4619"
       x1="168.56552"
       y1="-13.762122"
       x2="351.36194"
       y2="165.28738"
       gradientUnits="userSpaceOnUse" />
  </defs>
  <sodipodi:namedview
     id="base"
     pagecolor="#ffffff"
     bordercolor="#666666"
     borderopacity="1.0"
     gridtolerance="10000"
     guidetolerance="10"
     objecttolerance="10"
     inkscape:pageopacity="0.0"
     inkscape:pageshadow="2"
     inkscape:zoom="1.2871553"
     inkscape:cx="128"
     inkscape:cy="97.383295"
     inkscape:document-units="px"
     inkscape:current-layer="layer1"
     showgrid="false"
     showguides="true"
     inkscape:guide-bbox="true"
     inkscape:window-width="773"
     inkscape:window-height="676"
     inkscape:window-x="304"
     inkscape:window-y="113" />
  <metadata
     id="metadata7">
    <rdf:RDF>
      <cc:Work
         rdf:about="">
        <dc:format>image/svg+xml</dc:format>
        <dc:type
           rdf:resource="http://purl.org/dc/dcmitype/StillImage" />
      </cc:Work>
    </rdf:RDF>
  </metadata>
  <g
     inkscape:label="Layer 1"
     inkscape:groupmode="layer"
     id="layer1">
    <rect
       style="opacity:1;fill:url(#linearGradient4619);fill-opacity:1;stroke:url(#linearGradient4611);stroke-width:2;stroke-miterlimit:4;stroke-dasharray:none;stroke-opacity:1"
       id="rect2383"
       width="209.543"
       height="209.543"
       x="75.938042"
       y="-106.63853"
       ry="61.030819"
       transform="matrix(0.6997472,0.7143906,-0.7143906,0.6997472,0,0)" />
    <rect
       style="opacity:0.26851852;fill:url(#linearGradient4599);fill-opacity:1;stroke:none;stroke-width:2;stroke-miterlimit:4;stroke-dasharray:none;stroke-opacity:1"
       id="rect4597"
       width="198.18179"
       height="232.08572"
       x="78.369324"
       y="-117.6895"
       ry="67.596573"
       transform="matrix(0.7600468,0.6498684,-0.7370851,0.6758,0,0)" />
    <rect
       transform="matrix(-0.796691,0.6043868,0.6617245,0.7497471,0,0)"
       ry="58.891621"
       y="73.156349"
       x="-116.51585"
       height="202.19823"
       width="173.94705"
       id="rect3188"
       style="opacity:0.27777778;fill:url(#linearGradient3196);fill-opacity:1;stroke:none;stroke-width:2;stroke-miterlimit:4;stroke-dasharray:none;stroke-opacity:1" />
    <path
       sodipodi:nodetypes="ccc"
       id="path2276"
       d="M 108.10388,41.662742 L 108.10388,37.156303 L 108.10388,41.662742 z"
       style="fill:#ffffff;fill-opacity:0.75688076;fill-rule:nonzero;stroke:none;stroke-width:0.5;stroke-linecap:round;stroke-linejoin:round;stroke-miterlimit:4;stroke-dasharray:none;stroke-dashoffset:4;stroke-opacity:1" />
    <path
       style="fill:url(#radialGradient10360);fill-opacity:1;fill-rule:nonzero;stroke:#000000;stroke-width:2.01482677;stroke-linecap:round;stroke-linejoin:round;stroke-miterlimit:4;stroke-dasharray:none;stroke-dashoffset:4;stroke-opacity:1"
       d="M 92.854642,56.019884 C 90.631914,56.155686 88.468307,56.898281 86.608676,58.135455 C 78.290869,63.53432 70.876915,70.703205 64.999662,79.391877 C 53.24516,96.76921 49.618461,117.41778 53.313666,136.5626 C 57.00887,155.70742 68.072831,173.51654 85.450156,185.27103 C 102.82749,197.02554 123.47604,200.65225 142.62086,196.95703 C 161.76568,193.26183 179.62516,182.19786 191.37966,164.82055 C 203.13417,147.44322 206.76085,126.79466 203.06567,107.64982 C 199.37046,88.504999 188.3065,70.695889 170.92918,58.941386 C 165.14284,55.018911 157.27229,56.529875 153.34982,62.316223 C 149.42735,68.102563 150.93831,75.973102 156.72465,79.895585 C 168.43488,87.816707 175.7558,99.6011 178.23291,112.43505 C 180.71004,125.26898 178.3466,138.95616 170.42547,150.66639 C 162.50435,162.37663 150.66958,169.64717 137.83565,172.12428 C 125.00172,174.60142 111.31456,172.23797 99.604316,164.31684 C 87.89409,156.39572 80.623527,144.61133 78.146407,131.77739 C 75.66929,118.94345 78.032742,105.25626 85.953864,93.546035 C 89.914426,87.690913 94.864809,82.940908 100.41025,79.341503 C 105.19476,76.304614 107.379,70.46387 105.74954,65.036241 C 104.12007,59.608603 99.074782,55.919349 93.408723,56.019884 C 93.219457,56.022949 93.04301,56.008377 92.854642,56.019884 z M 127.40892,89.868974 C 124.28541,90.070976 121.33621,91.438203 119.14813,93.697146 C 116.81418,96.106684 115.51505,99.359386 115.57182,102.7135 C 115.57182,104.75568 115.57182,141.49892 115.57182,141.49892 C 115.35004,146.15034 117.7217,150.54098 121.71704,152.93306 C 125.71238,155.32517 130.66698,155.32517 134.66231,152.93306 C 138.65763,150.54098 141.02931,146.15034 140.80752,141.49892 C 140.80752,141.49892 140.80752,104.75553 140.80752,102.7135 C 140.86523,99.298318 139.54096,96.016387 137.13046,93.596408 C 134.71997,91.176421 131.42876,89.824698 128.01337,89.868974 C 127.80374,89.872099 127.61717,89.855502 127.40892,89.868974 z"
       id="path3570" />
  </g>
</svg>
