<?xml version="1.0" encoding="UTF-8" standalone="no"?>
<!-- Created with Inkscape (http://www.inkscape.org/) -->

<svg
   xmlns:dc="http://purl.org/dc/elements/1.1/"
   xmlns:cc="http://creativecommons.org/ns#"
   xmlns:rdf="http://www.w3.org/1999/02/22-rdf-syntax-ns#"
   xmlns:svg="http://www.w3.org/2000/svg"
   xmlns="http://www.w3.org/2000/svg"
   xmlns:xlink="http://www.w3.org/1999/xlink"
   xmlns:sodipodi="http://sodipodi.sourceforge.net/DTD/sodipodi-0.dtd"
   xmlns:inkscape="http://www.inkscape.org/namespaces/inkscape"
   width="256"
   height="256"
   id="svg2"
   sodipodi:version="0.32"
   inkscape:version="0.47pre0 r21549"
   version="1.0"
   sodipodi:docname="mypaint.svg"
   inkscape:output_extension="org.inkscape.output.svg.inkscape">
  <defs
     id="defs4">
    <linearGradient
       id="linearGradient3605">
      <stop
         style="stop-color:#ffffff;stop-opacity:1;"
         offset="0"
         id="stop3607" />
      <stop
         style="stop-color:#ffffff;stop-opacity:0;"
         offset="1"
         id="stop3609" />
    </linearGradient>
    <linearGradient
       inkscape:collect="always"
       xlink:href="#linearGradient3605"
       id="linearGradient3611"
       x1="121.76041"
       y1="19.887403"
       x2="126.97179"
       y2="159.71069"
       gradientUnits="userSpaceOnUse" />
    <linearGradient
       inkscape:collect="always"
       id="linearGradient3597">
      <stop
         style="stop-color:#ffffff;stop-opacity:1;"
         offset="0"
         id="stop3599" />
      <stop
         style="stop-color:#ffffff;stop-opacity:0;"
         offset="1"
         id="stop3601" />
    </linearGradient>
    <radialGradient
       inkscape:collect="always"
       xlink:href="#linearGradient3597"
       id="radialGradient3603"
       cx="126.97178"
       cy="85.6866"
       fx="126.97178"
       fy="85.6866"
       r="81.805749"
       gradientTransform="matrix(1.8985926,8.5258353e-8,-5.9046161e-8,1.3148812,-114.0959,-26.981113)"
       gradientUnits="userSpaceOnUse" />
    <linearGradient
       inkscape:collect="always"
       id="linearGradient4613">
      <stop
         style="stop-color:#000000;stop-opacity:1;"
         offset="0"
         id="stop4615" />
      <stop
         style="stop-color:#000000;stop-opacity:0;"
         offset="1"
         id="stop4617" />
    </linearGradient>
    <linearGradient
       inkscape:collect="always"
       id="linearGradient4605">
      <stop
         style="stop-color:#f70000;stop-opacity:1;"
         offset="0"
         id="stop4607" />
      <stop
         style="stop-color:#000000;stop-opacity:1"
         offset="1"
         id="stop4609" />
    </linearGradient>
    <linearGradient
       id="linearGradient4591"
       inkscape:collect="always">
      <stop
         id="stop4593"
         offset="0"
         style="stop-color:#ffffff;stop-opacity:1" />
      <stop
         id="stop4595"
         offset="1"
         style="stop-color:#ffffff;stop-opacity:0;" />
    </linearGradient>
    <mask
       maskUnits="userSpaceOnUse"
       x="122.963"
       y="97.149"
       width="576.609"
       height="587.491"
       id="XMLID_23_">
      <g
         id="g31"
         style="filter:url(#Adobe_OpacityMaskFilter)">
        <radialGradient
           id="XMLID_24_"
           cx="88.977501"
           cy="-20.899401"
           r="673.11609"
           fx="88.977501"
           fy="-20.899401"
           gradientUnits="userSpaceOnUse">
          <stop
             offset="0.309"
             style="stop-color:#FFFFFF"
             id="stop34" />
          <stop
             offset="1"
             style="stop-color:#000000"
             id="stop3816" />
        </radialGradient>
        <ellipse
           sodipodi:ry="349.10599"
           sodipodi:rx="512.93402"
           sodipodi:cy="286.172"
           sodipodi:cx="295.89499"
           cx="295.89499"
           cy="286.172"
           rx="512.93402"
           ry="349.10599"
           id="ellipse38"
           style="fill:url(#XMLID_24_)" />
      </g>
    </mask>
    <linearGradient
       inkscape:collect="always"
       xlink:href="#linearGradient4591"
       id="linearGradient3196"
       x1="99.881126"
       y1="68.792747"
       x2="171.01328"
       y2="46.998337"
       gradientUnits="userSpaceOnUse"
       gradientTransform="matrix(0.8301257,0,0,0.9649488,-179.55402,176.05704)" />
    <linearGradient
       inkscape:collect="always"
       xlink:href="#linearGradient4591"
       id="linearGradient4599"
       gradientUnits="userSpaceOnUse"
       gradientTransform="matrix(0.9457809,0,0,1.1075807,6.5485589,0.4212711)"
       x1="104.92213"
       y1="71.555038"
       x2="161.92285"
       y2="35.137646" />
    <linearGradient
       inkscape:collect="always"
       xlink:href="#linearGradient4605"
       id="linearGradient4611"
       x1="168.56552"
       y1="-13.762122"
       x2="206.93968"
       y2="23.825462"
       gradientUnits="userSpaceOnUse" />
    <linearGradient
       inkscape:collect="always"
       xlink:href="#linearGradient4613"
       id="linearGradient4619"
       x1="168.56552"
       y1="-13.762122"
       x2="351.36194"
       y2="165.28738"
       gradientUnits="userSpaceOnUse" />
  </defs>
  <sodipodi:namedview
     id="base"
     pagecolor="#ffffff"
     bordercolor="#666666"
     borderopacity="1.0"
     gridtolerance="10000"
     guidetolerance="10"
     objecttolerance="10"
     inkscape:pageopacity="0.0"
     inkscape:pageshadow="2"
     inkscape:zoom="1.2871553"
     inkscape:cx="128"
     inkscape:cy="97.383295"
     inkscape:document-units="px"
     inkscape:current-layer="layer1"
     showgrid="false"
     showguides="true"
     inkscape:guide-bbox="true"
     inkscape:window-width="773"
     inkscape:window-height="676"
     inkscape:window-x="304"
     inkscape:window-y="113" />
  <metadata
     id="metadata7">
    <rdf:RDF>
      <cc:Work
         rdf:about="">
        <dc:format>image/svg+xml</dc:format>
        <dc:type
           rdf:resource="http://purl.org/dc/dcmitype/StillImage" />
      </cc:Work>
    </rdf:RDF>
  </metadata>
  <g
     inkscape:label="Layer 1"
     inkscape:groupmode="layer"
     id="layer1">
    <rect
       style="opacity:1;fill:url(#linearGradient4619);fill-opacity:1;stroke:url(#linearGradient4611);stroke-width:2;stroke-miterlimit:4;stroke-dasharray:none;stroke-opacity:1"
       id="rect2383"
       width="209.543"
       height="209.543"
       x="75.938042"
       y="-106.63853"
       ry="61.030819"
       transform="matrix(0.6997472,0.7143906,-0.7143906,0.6997472,0,0)" />
    <rect
       style="opacity:0.26851852;fill:url(#linearGradient4599);fill-opacity:1;stroke:none;stroke-width:2;stroke-miterlimit:4;stroke-dasharray:none;stroke-opacity:1"
       id="rect4597"
       width="198.18179"
       height="232.08572"
       x="78.369324"
       y="-117.6895"
       ry="67.596573"
       transform="matrix(0.7600468,0.6498684,-0.7370851,0.6758,0,0)" />
    <rect
       transform="matrix(-0.796691,0.6043868,0.6617245,0.7497471,0,0)"
       ry="58.891621"
       y="73.156349"
       x="-116.51585"
       height="202.19823"
       width="173.94705"
       id="rect3188"
       style="opacity:0.27777778;fill:url(#linearGradient3196);fill-opacity:1;stroke:none;stroke-width:2;stroke-miterlimit:4;stroke-dasharray:none;stroke-opacity:1" />
    <path
       sodipodi:nodetypes="ccc"
       id="path2276"
       d="M 108.10388,41.662742 L 108.10388,37.156303 L 108.10388,41.662742 z"
       style="fill:#ffffff;fill-opacity:0.75688076;fill-rule:nonzero;stroke:none;stroke-width:0.5;stroke-linecap:round;stroke-linejoin:round;stroke-miterlimit:4;stroke-dasharray:none;stroke-dashoffset:4;stroke-opacity:1" />
    <g
       id="g17781"
       transform="matrix(0.8099283,0,0,0.8099283,25.664122,39.723284)">
      <rect
         style="opacity:1;fill:url(#radialGradient3603);fill-opacity:1;stroke:url(#linearGradient3611);stroke-width:5.09886456;stroke-linecap:round;stroke-linejoin:round;stroke-miterlimit:4;stroke-dasharray:none;stroke-opacity:1"
         id="rect3300"
         width="158.51263"
         height="109.2758"
         x="47.715466"
         y="31.0487"
         rx="0.72158176"
         ry="0.64391565" />
      <rect
         style="fill:#9b751f;fill-opacity:1;stroke:none;stroke-width:21.89999962;stroke-linecap:round;stroke-linejoin:round;stroke-miterlimit:4;stroke-dasharray:none;stroke-opacity:1"
         id="rect3302"
         width="168.30318"
         height="14.411288"
         x="-257.61389"
         y="331.39789"
         rx="0.76615036"
         ry="1.5851655"
         transform="matrix(1,0,0.9022069,0.4313034,0,0)" />
      <rect
         transform="matrix(-1,0,-0.9022069,0.4313034,0,0)"
         ry="1.5851655"
         rx="0.76615036"
         y="331.39789"
         x="-509.3905"
         height="14.411288"
         width="168.30318"
         id="rect3304"
         style="fill:#9b751f;fill-opacity:1;stroke:none;stroke-width:21.89999962;stroke-linecap:round;stroke-linejoin:round;stroke-miterlimit:4;stroke-dasharray:none;stroke-opacity:1" />
      <rect
         style="fill:#b2820e;fill-opacity:1;stroke:#856e0e;stroke-width:4.10438728;stroke-linecap:round;stroke-linejoin:round;stroke-miterlimit:4;stroke-dasharray:none;stroke-opacity:1"
         id="rect3306"
         width="17.230415"
         height="24.761648"
         x="115.97289"
         y="153.481"
         rx="0.65487283"
         ry="0.52601361" />
      <rect
         ry="0.80838042"
         rx="0.8510583"
         y="176.91972"
         x="52.78492"
         height="38.053829"
         width="22.392269"
         id="rect3308"
         style="fill:#b2820e;fill-opacity:1;stroke:#856e0e;stroke-width:5.80041313;stroke-linecap:round;stroke-linejoin:round;stroke-miterlimit:4;stroke-dasharray:none;stroke-opacity:1"
         transform="matrix(1,0,0.4910416,0.8711361,0,0)" />
      <rect
         transform="matrix(-1,0,-0.4910416,0.8711361,0,0)"
         style="fill:#b2820e;fill-opacity:1;stroke:#856e0e;stroke-width:5.80041313;stroke-linecap:round;stroke-linejoin:round;stroke-miterlimit:4;stroke-dasharray:none;stroke-opacity:1"
         id="rect3310"
         width="22.392269"
         height="38.053829"
         x="-196.10233"
         y="176.91972"
         rx="0.8510583"
         ry="0.80838042" />
      <rect
         style="fill:#624d1c;fill-opacity:1;stroke:none;stroke-width:21.89999962;stroke-linecap:round;stroke-linejoin:round;stroke-miterlimit:4;stroke-dasharray:none;stroke-opacity:1"
         id="rect3312"
         width="191.55008"
         height="6.2460961"
         x="-206.46751"
         y="149.87953"
         rx="0.87197495"
         ry="0.68703753"
         transform="matrix(-1,0,9.8636948e-2,0.9951235,0,0)" />
      <path
         style="fill:#5b7ea9;fill-opacity:1;stroke:none;stroke-width:21.89999962;stroke-linecap:round;stroke-linejoin:round;stroke-miterlimit:4;stroke-dasharray:none;stroke-opacity:1"
         id="path3314"
         d="M 84.113017,54.755281 C 76.104909,60.668143 83.63744,55.078438 108.58799,41.27279 C 108.86684,41.118499 108.03063,41.58231 107.7593,41.748412 C 106.88859,42.281449 106.08616,42.892568 105.28417,43.513891 C 103.76545,44.919889 102.05944,46.114084 100.43315,47.400144 C 97.428246,49.693325 94.7257,52.285039 92.190735,55.040788 C 91.00994,56.474178 89.723439,57.955422 89.243302,59.761703 C 89.351715,60.246828 89.927794,60.565837 90.281332,60.903698 C 91.179163,61.898842 92.295287,62.684419 93.167373,63.696631 C 93.268745,63.806391 93.876265,64.61305 94.197832,64.514563 C 94.32222,64.476468 94.309701,64.286815 94.388712,64.187374 C 95.835918,63.967501 97.414474,64.138934 98.857815,64.354793 C 100.82879,64.647091 102.82342,64.758123 104.81632,64.756084 C 105.51631,64.770862 106.21249,64.672444 106.91054,64.657798 C 107.28979,65.161024 107.73669,65.107697 108.24981,65.308342 C 108.87852,65.554189 109.35889,65.808624 110.03241,65.960807 C 110.53571,66.193583 111.16252,66.003652 111.67522,66.151234 C 112.19579,66.301081 112.63922,66.622082 113.1754,66.761907 C 114.48253,67.600362 115.21103,68.283718 115.67759,69.780371 C 115.9768,71.405096 115.27457,72.789764 114.52961,74.196148 C 113.56515,75.851029 112.34811,77.342267 111.26832,78.925548 C 110.07019,80.480574 109.33623,82.288902 108.44345,84.005173 C 108.19294,84.483992 108.07023,85.008434 107.88836,85.50982 C 108.0894,84.51072 106.48177,83.803565 106.36448,82.833267 C 106.34966,82.710619 106.59314,82.716322 106.71509,82.675706 C 107.20449,82.512707 108.16875,82.303705 108.59996,82.202844 C 112.49497,81.103109 116.09856,79.325571 119.73207,77.631532 C 120.94764,77.036719 122.08976,76.421911 123.40909,76.087929 C 123.61708,76.035276 123.84503,75.834606 124.03392,75.933109 C 125.17879,76.530164 125.42956,77.931958 125.83069,78.936571 C 125.75903,79.270604 125.74217,79.619838 125.61572,79.938676 C 125.08624,81.27373 123.56783,82.933255 122.72605,84.187763 C 122.23878,84.786703 122.02841,85.549392 121.63637,86.192023 C 116.39741,94.779608 103.79562,96.410253 94.796918,101.39149 C 86.33638,105.52502 75.502986,111.90021 115.35489,89.933558 C 116.21594,89.458947 113.63437,90.885893 112.78891,91.385454 C 109.97452,93.048399 109.59341,93.359776 106.82299,95.208926 C 102.63905,98.220736 98.601867,101.47157 95.3979,105.45434 C 94.912338,106.31303 94.005816,107.05913 94.000424,108.08283 C 94.315288,109.18494 94.680908,110.25839 95.357988,111.20543 C 95.475271,111.29823 95.561704,111.45026 95.709833,111.48381 C 95.866833,111.51937 96.496719,111.08229 96.51867,111.07286 C 97.697417,110.5663 99.031532,110.23184 100.24002,109.79857 C 100.91624,109.51255 101.59892,109.24009 102.2687,108.94051 C 103.67505,108.31148 106.12202,107.13154 107.42747,106.4356 C 108.43541,105.89826 111.41275,104.20849 110.41154,104.75721 C 90.167816,115.85183 83.676361,119.76477 93.925975,113.67071 C 100.54465,109.69699 106.62954,104.99761 112.75256,100.37358 C 117.02992,97.162421 121.28132,93.922194 125.48772,90.626509 C 126.78756,89.517308 128.24109,88.582023 129.55062,87.484942 C 138.32972,82.728151 147.10882,77.971361 155.88792,73.21457 C 156.00838,73.245475 156.15344,73.23099 156.2493,73.307279 C 156.52459,73.52638 156.69559,73.848235 156.96613,74.072687 C 157.15716,74.231178 156.82662,73.56659 156.97396,73.756493 C 157.25329,74.116495 157.48378,74.508895 157.73868,74.885094 C 158.76614,76.981093 159.09144,76.785278 157.47707,77.939572 C 156.36866,78.976524 155.05559,79.813424 153.78419,80.663589 C 152.39584,81.433005 151.1822,82.386424 150.06507,83.477442 C 148.74944,84.936122 147.69806,86.56501 146.7613,88.263305 C 146.44238,88.888617 146.10651,89.48528 146.63178,90.052806 C 147.6304,90.62874 148.60868,91.206749 149.74125,91.520795 C 150.16824,91.374638 152.01287,92.672148 152.29682,92.521921 C 152.39579,92.469564 152.30538,92.305792 152.30965,92.197728 C 143.6436,97.157862 135.12303,102.35809 126.31151,107.07813 C 126.05568,107.21518 126.08957,106.55862 125.9969,106.29261 C 125.92372,106.08253 125.61589,105.76539 125.81457,105.65163 C 134.6134,100.86209 143.41223,96.072548 152.21105,91.28301 C 152.73282,91.540651 152.46371,91.450596 153.01518,91.561742 C 154.44539,91.618625 155.83904,90.849195 157.09663,90.243132 L 133.81196,107.78372 C 132.10961,108.32864 130.37184,108.62742 128.57735,108.60723 C 128.09411,108.7281 128.26892,108.60005 128.01635,108.94083 C 136.6975,104.17842 145.37865,99.416006 154.0598,94.653593 C 154.23907,94.550429 153.8284,94.320141 153.70733,94.156976 C 153.56955,93.971302 153.48917,93.49269 153.28342,93.607272 C 144.5087,98.493929 135.97704,103.76908 127.32385,108.84998 C 126.71941,108.0791 125.74077,107.8336 124.85902,107.42959 C 123.39957,106.71931 121.89868,105.98716 120.7854,104.81075 C 119.66349,103.40859 119.19815,101.85497 119.69403,100.10743 C 120.45567,98.211289 121.54004,96.432583 122.70822,94.740703 C 123.54614,93.34698 124.54606,92.077598 125.91924,91.121657 C 127.14629,90.338237 128.34676,89.531409 129.59772,88.804367 C 130.79704,87.544357 130.4161,88.313119 131.46495,89.710258 C 131.68036,90.033472 131.9185,90.343831 132.1112,90.679904 C 132.20491,90.843348 131.62884,90.11354 131.69216,90.289823 C 131.77535,90.521388 131.98529,90.698146 132.07084,90.928917 C 132.09431,90.992228 132.0232,91.055297 131.99937,91.118487 C 140.60558,86.424897 149.21179,81.731306 157.818,77.037716 C 155.78689,77.945925 153.97038,79.244474 152.11233,80.426935 C 147.47718,83.823894 142.88188,87.268844 138.21664,90.628526 C 131.94365,95.313467 125.69997,100.05907 119.09126,104.30805 C 107.27268,111.75958 116.16049,106.24085 89.110096,121.24352 C 85.36404,123.32116 81.52017,125.27922 77.458178,126.73517 C 74.381745,127.64289 71.722809,128.56706 69.502114,125.72251 C 68.658242,124.5332 68.107122,123.21206 67.589668,121.86788 C 66.705738,119.70458 67.081,118.25115 68.63327,116.42988 C 72.257353,112.00682 76.825706,108.45332 81.323128,104.87525 C 92.684244,96.471397 105.36708,90.002451 118.04461,83.539765 C 109.77473,88.144595 101.47273,92.697098 93.234965,97.354249 C 93.072599,97.44604 93.607105,97.293525 93.790559,97.251587 C 94.646114,97.056001 94.947213,96.21825 95.453218,95.598854 C 96.057665,94.757767 96.651554,93.929821 97.292027,93.114266 C 97.639735,92.671509 97.851405,92.126251 98.263359,91.737122 C 98.363613,91.642422 98.528223,91.644962 98.660654,91.598881 C 98.976762,92.001603 99.301694,92.398132 99.608976,92.807051 C 99.794124,93.053438 100.05117,93.272126 100.13741,93.56409 C 100.1641,93.654437 99.951125,93.624819 99.862461,93.665164 C 98.9476,94.081479 98.031657,94.494061 97.093733,94.865247 C 93.250815,96.536651 89.347149,98.068573 85.393447,99.484949 C 85.328928,99.51163 82.498808,100.74964 82.390072,100.71404 C 82.020445,100.59302 81.741601,100.27686 81.504356,99.980062 C 80.276813,98.444382 80.278887,98.827068 80.323799,98.004798 C 80.510843,97.250767 80.961922,96.576682 81.246067,95.857043 C 82.121242,93.957122 83.364742,92.217171 84.178403,90.283371 C 85.211695,88.781601 86.173808,87.238288 87.195557,85.733123 C 87.68116,85.136399 87.890327,84.666041 88.29098,84.062371 C 88.49955,83.748117 88.891413,83.630417 88.898704,83.211888 C 88.93083,83.208979 89.386503,83.132796 89.22864,83.383747 C 89.183008,83.456283 89.102893,83.26145 89.025831,83.219779 C 88.775166,83.084243 88.46355,82.920057 88.168319,82.945791 C 87.232306,82.578388 86.20116,82.592723 85.270525,82.158071 C 84.926787,82.047086 82.761373,81.380504 82.460445,81.473902 C 82.371245,81.501585 82.371447,81.631762 82.326948,81.710692 C 81.68158,81.691428 81.045852,81.557648 80.411246,81.452766 C 78.541544,81.172198 76.663556,80.909053 74.771438,80.821411 C 73.010641,80.842643 71.140298,81.107914 69.437494,80.621264 C 68.568082,80.089929 67.892685,79.353857 67.369065,78.501823 C 66.561068,77.587407 65.619983,76.788436 64.65255,76.031975 C 63.622778,75.16246 62.737366,74.232513 62.533758,72.87816 C 62.186358,69.948591 63.855601,68.060014 65.59938,65.811879 C 67.950117,63.086889 70.405359,60.405021 73.160151,58.047713 C 74.620331,56.656918 76.175732,55.40678 77.794392,54.195145 C 86.346767,46.49324 96.840288,41.11919 107.74116,36.68458 L 84.113017,54.755281 z" />
      <path
         style="fill:#5b7ea9;fill-opacity:1;stroke:#000000;stroke-width:1.16186547;stroke-linecap:round;stroke-linejoin:round;stroke-miterlimit:4;stroke-dasharray:none;stroke-opacity:1"
         d="M 152.3797,95.073059 C 151.80857,97.814302 155.01257,98.954469 156.81129,100.32692 C 161.06432,103.88417 164.67343,109.00108 170.66487,109.86601 C 176.09017,110.89925 182.41261,106.27009 181.42298,100.74484 C 180.13869,94.3977 172.11242,91.092039 166.02673,93.103805 C 163.53511,93.647094 161.355,91.890324 158.85359,92.081102 C 156.58709,92.071971 153.67632,92.520442 152.51523,94.57602 C 152.46133,94.739657 152.41685,94.905236 152.3797,95.073059 z"
         id="path3318" />
      <rect
         ry="1.0958382"
         rx="0.29301187"
         y="209.61919"
         x="-18.815033"
         height="51.585663"
         width="7.7094612"
         id="rect3320"
         style="fill:#e6ad23;fill-opacity:1;stroke:#8c7924;stroke-width:3.96266365;stroke-linecap:round;stroke-linejoin:round;stroke-miterlimit:4;stroke-dasharray:none;stroke-opacity:1"
         transform="matrix(0.4704851,-0.8824079,0.89891,0.4381333,0,0)" />
      <rect
         style="fill:#282828;fill-opacity:1;stroke:none;stroke-width:1.1623807;stroke-linecap:round;stroke-linejoin:round;stroke-miterlimit:4;stroke-dasharray:none;stroke-opacity:1"
         id="rect3322"
         width="8.3666668"
         height="5.7277403"
         x="-19.704575"
         y="207.85138"
         rx="0.29298568"
         ry="1.0959313"
         transform="matrix(0.4683086,-0.883565,0.8999319,0.4360305,0,0)" />
    </g>
  </g>
</svg>
