<?xml version="1.0" encoding="UTF-8" standalone="no"?>
<!-- Created with Inkscape (http://www.inkscape.org/) -->

<svg
   xmlns:dc="http://purl.org/dc/elements/1.1/"
   xmlns:cc="http://creativecommons.org/ns#"
   xmlns:rdf="http://www.w3.org/1999/02/22-rdf-syntax-ns#"
   xmlns:svg="http://www.w3.org/2000/svg"
   xmlns="http://www.w3.org/2000/svg"
   xmlns:xlink="http://www.w3.org/1999/xlink"
   xmlns:sodipodi="http://sodipodi.sourceforge.net/DTD/sodipodi-0.dtd"
   xmlns:inkscape="http://www.inkscape.org/namespaces/inkscape"
   width="256"
   height="256"
   id="svg2"
   sodipodi:version="0.32"
   inkscape:version="0.47pre0 r21549"
   version="1.0"
   sodipodi:docname="pidgin.svg"
   inkscape:output_extension="org.inkscape.output.svg.inkscape">
  <defs
     id="defs4">
    <linearGradient
       inkscape:collect="always"
       id="linearGradient17911">
      <stop
         style="stop-color:#f6f6f9;stop-opacity:1;"
         offset="0"
         id="stop17913" />
      <stop
         style="stop-color:#f6f6f9;stop-opacity:0;"
         offset="1"
         id="stop17915" />
    </linearGradient>
    <linearGradient
       inkscape:collect="always"
       xlink:href="#linearGradient17911"
       id="linearGradient17917"
       x1="140.63521"
       y1="116.90971"
       x2="129.12968"
       y2="7.5878282"
       gradientUnits="userSpaceOnUse"
       gradientTransform="matrix(0.8974021,0,0,0.8974021,19.836777,8.1551646)" />
    <linearGradient
       inkscape:collect="always"
       id="linearGradient6283">
      <stop
         style="stop-color:#a2a4e6;stop-opacity:1;"
         offset="0"
         id="stop6285" />
      <stop
         style="stop-color:#a2a4e6;stop-opacity:0;"
         offset="1"
         id="stop6287" />
    </linearGradient>
    <radialGradient
       inkscape:collect="always"
       xlink:href="#linearGradient6283"
       id="radialGradient2396"
       gradientUnits="userSpaceOnUse"
       gradientTransform="matrix(1.2328446,-8.7808611e-8,1.0004536e-7,1.4046504,-24.127331,-58.303535)"
       cx="133.632"
       cy="129.024"
       fx="133.632"
       fy="129.024"
       r="69.37757" />
    <linearGradient
       inkscape:collect="always"
       id="linearGradient4613">
      <stop
         style="stop-color:#000000;stop-opacity:1;"
         offset="0"
         id="stop4615" />
      <stop
         style="stop-color:#000000;stop-opacity:0;"
         offset="1"
         id="stop4617" />
    </linearGradient>
    <linearGradient
       inkscape:collect="always"
       id="linearGradient4605">
      <stop
         style="stop-color:#f70000;stop-opacity:1;"
         offset="0"
         id="stop4607" />
      <stop
         style="stop-color:#000000;stop-opacity:1"
         offset="1"
         id="stop4609" />
    </linearGradient>
    <linearGradient
       id="linearGradient4591"
       inkscape:collect="always">
      <stop
         id="stop4593"
         offset="0"
         style="stop-color:#ffffff;stop-opacity:1" />
      <stop
         id="stop4595"
         offset="1"
         style="stop-color:#ffffff;stop-opacity:0;" />
    </linearGradient>
    <mask
       maskUnits="userSpaceOnUse"
       x="122.963"
       y="97.149"
       width="576.609"
       height="587.491"
       id="XMLID_23_">
      <g
         id="g31"
         style="filter:url(#Adobe_OpacityMaskFilter)">
        <radialGradient
           id="XMLID_24_"
           cx="88.977501"
           cy="-20.899401"
           r="673.11609"
           fx="88.977501"
           fy="-20.899401"
           gradientUnits="userSpaceOnUse">
          <stop
             offset="0.309"
             style="stop-color:#FFFFFF"
             id="stop34" />
          <stop
             offset="1"
             style="stop-color:#000000"
             id="stop3816" />
        </radialGradient>
        <ellipse
           sodipodi:ry="349.10599"
           sodipodi:rx="512.93402"
           sodipodi:cy="286.172"
           sodipodi:cx="295.89499"
           cx="295.89499"
           cy="286.172"
           rx="512.93402"
           ry="349.10599"
           id="ellipse38"
           style="fill:url(#XMLID_24_)" />
      </g>
    </mask>
    <linearGradient
       inkscape:collect="always"
       xlink:href="#linearGradient4591"
       id="linearGradient3196"
       x1="99.881126"
       y1="68.792747"
       x2="171.01328"
       y2="46.998337"
       gradientUnits="userSpaceOnUse"
       gradientTransform="matrix(0.8301257,0,0,0.9649488,-179.55402,176.05704)" />
    <linearGradient
       inkscape:collect="always"
       xlink:href="#linearGradient4591"
       id="linearGradient4599"
       gradientUnits="userSpaceOnUse"
       gradientTransform="matrix(0.9457809,0,0,1.1075807,6.5485589,0.4212711)"
       x1="104.92213"
       y1="71.555038"
       x2="161.92285"
       y2="35.137646" />
    <linearGradient
       inkscape:collect="always"
       xlink:href="#linearGradient4605"
       id="linearGradient4611"
       x1="168.56552"
       y1="-13.762122"
       x2="206.93968"
       y2="23.825462"
       gradientUnits="userSpaceOnUse" />
    <linearGradient
       inkscape:collect="always"
       xlink:href="#linearGradient4613"
       id="linearGradient4619"
       x1="168.56552"
       y1="-13.762122"
       x2="351.36194"
       y2="165.28738"
       gradientUnits="userSpaceOnUse" />
  </defs>
  <sodipodi:namedview
     id="base"
     pagecolor="#ffffff"
     bordercolor="#666666"
     borderopacity="1.0"
     gridtolerance="10000"
     guidetolerance="10"
     objecttolerance="10"
     inkscape:pageopacity="0.0"
     inkscape:pageshadow="2"
     inkscape:zoom="1.2871553"
     inkscape:cx="128"
     inkscape:cy="97.383295"
     inkscape:document-units="px"
     inkscape:current-layer="layer1"
     showgrid="false"
     showguides="true"
     inkscape:guide-bbox="true"
     inkscape:window-width="773"
     inkscape:window-height="676"
     inkscape:window-x="304"
     inkscape:window-y="113" />
  <metadata
     id="metadata7">
    <rdf:RDF>
      <cc:Work
         rdf:about="">
        <dc:format>image/svg+xml</dc:format>
        <dc:type
           rdf:resource="http://purl.org/dc/dcmitype/StillImage" />
      </cc:Work>
    </rdf:RDF>
  </metadata>
  <g
     inkscape:label="Layer 1"
     inkscape:groupmode="layer"
     id="layer1">
    <rect
       style="opacity:1;fill:url(#linearGradient4619);fill-opacity:1;stroke:url(#linearGradient4611);stroke-width:2;stroke-miterlimit:4;stroke-dasharray:none;stroke-opacity:1"
       id="rect2383"
       width="209.543"
       height="209.543"
       x="75.938042"
       y="-106.63853"
       ry="61.030819"
       transform="matrix(0.6997472,0.7143906,-0.7143906,0.6997472,0,0)" />
    <rect
       style="opacity:0.26851852;fill:url(#linearGradient4599);fill-opacity:1;stroke:none;stroke-width:2;stroke-miterlimit:4;stroke-dasharray:none;stroke-opacity:1"
       id="rect4597"
       width="198.18179"
       height="232.08572"
       x="78.369324"
       y="-117.6895"
       ry="67.596573"
       transform="matrix(0.7600468,0.6498684,-0.7370851,0.6758,0,0)" />
    <rect
       transform="matrix(-0.796691,0.6043868,0.6617245,0.7497471,0,0)"
       ry="58.891621"
       y="73.156349"
       x="-116.51585"
       height="202.19823"
       width="173.94705"
       id="rect3188"
       style="opacity:0.27777778;fill:url(#linearGradient3196);fill-opacity:1;stroke:none;stroke-width:2;stroke-miterlimit:4;stroke-dasharray:none;stroke-opacity:1" />
    <path
       sodipodi:nodetypes="ccc"
       id="path2276"
       d="M 108.10388,41.662742 L 108.10388,37.156303 L 108.10388,41.662742 z"
       style="fill:#ffffff;fill-opacity:0.75688076;fill-rule:nonzero;stroke:none;stroke-width:0.5;stroke-linecap:round;stroke-linejoin:round;stroke-miterlimit:4;stroke-dasharray:none;stroke-dashoffset:4;stroke-opacity:1" />
    <path
       style="opacity:0.93055558;fill:url(#radialGradient2396);fill-opacity:1;fill-rule:evenodd;stroke:url(#linearGradient17917);stroke-width:1.76307678;stroke-linecap:butt;stroke-linejoin:miter;stroke-miterlimit:4;stroke-dasharray:none;stroke-opacity:1"
       d="M 156.29673,107.4743 L 161.15425,102.61677 L 166.89497,96.43447 L 172.19408,89.368979 L 178.81799,84.511458 L 186.76666,83.628279 L 191.62418,85.836247 L 195.59851,88.927385 L 200.89762,91.135353 L 200.45603,93.784915 L 194.27374,93.343312 L 184.55868,101.292 L 181.90913,107.4743 L 180.58436,113.21502 L 177.93479,118.51414 L 174.84363,123.81324 L 173.07727,131.76193 L 168.66135,141.47697 L 164.687,147.21768 L 158.06309,152.0752 L 146.58167,160.02389 L 149.23123,165.32301 L 143.49053,172.83007 L 140.39937,174.59647 L 137.30821,171.06371 L 137.30821,165.32301 L 114.78698,174.59647 L 110.81265,177.246 L 92.265737,205.50797 L 89.174582,205.50797 L 89.174582,199.76727 L 86.966617,198.0009 L 87.849806,192.26019 L 85.200246,187.40266 L 87.408212,183.42832 L 84.758652,179.89557 L 88.732988,171.50531 L 86.083432,169.29734 L 85.200246,165.76459 L 86.083432,162.67345 L 88.732988,160.02389 L 87.849806,156.04955 L 88.732988,152.0752 L 92.265737,150.30884 L 97.564849,150.30884 L 105.07193,150.75044 L 112.13741,150.75044 L 116.99493,149.86724 L 118.76132,147.21768 L 113.90378,146.33451 L 109.92945,146.7761 L 106.8383,146.33451 L 103.74715,145.00972 L 101.53919,143.24335 L 99.331219,143.24335 L 97.564849,139.71061 L 94.91529,133.52829 L 93.148925,132.20352 L 91.38255,123.37167 L 89.616176,119.83891 L 89.616176,116.30618 L 88.291395,115.42298 L 86.525025,112.33183 L 86.966617,108.79909 L 86.966617,107.03272 L 85.641838,104.82474 L 84.758652,99.967219 L 82.109093,94.226509 L 83.875466,88.927385 L 81.6675,85.394654 L 82.550686,83.628279 L 84.31706,82.303489 L 80.342722,75.679598 L 81.225907,74.354818 L 84.758652,73.030038 L 82.992278,68.172515 L 82.550686,64.63977 L 84.758652,62.873396 L 86.083432,62.873396 L 84.31706,57.132686 L 84.31706,53.599942 L 86.966617,51.391974 L 90.940956,56.249501 L 87.849806,48.300824 L 87.408212,45.209672 L 88.291395,42.560113 L 92.265737,46.534451 L 97.123256,52.275162 L 94.032103,41.676927 L 97.123256,41.676927 L 101.0976,48.300824 L 102.42238,40.352148 L 111.25424,54.92472 L 110.81265,50.950382 L 112.57902,48.300824 L 116.55334,53.158348 L 135.10025,87.161019 L 138.63301,89.810572 L 145.2569,94.226509 L 150.11442,98.642438 L 153.20557,103.05836 L 156.29673,107.4743 z"
       id="path2592"
       sodipodi:nodetypes="cccccccccccccccccccccccccccccccccccccccccccccccccccccccccccccccccccccccccccccccccccccccccccccccccccccc" />
  </g>
</svg>
