<?xml version="1.0" encoding="UTF-8" standalone="no"?>
<!-- Created with Inkscape (http://www.inkscape.org/) -->

<svg
   xmlns:dc="http://purl.org/dc/elements/1.1/"
   xmlns:cc="http://creativecommons.org/ns#"
   xmlns:rdf="http://www.w3.org/1999/02/22-rdf-syntax-ns#"
   xmlns:svg="http://www.w3.org/2000/svg"
   xmlns="http://www.w3.org/2000/svg"
   xmlns:xlink="http://www.w3.org/1999/xlink"
   xmlns:sodipodi="http://sodipodi.sourceforge.net/DTD/sodipodi-0.dtd"
   xmlns:inkscape="http://www.inkscape.org/namespaces/inkscape"
   width="256"
   height="256"
   id="svg2"
   sodipodi:version="0.32"
   inkscape:version="0.47pre0 r21549"
   version="1.0"
   sodipodi:docname="rhythmnbox.svg"
   inkscape:output_extension="org.inkscape.output.svg.inkscape">
  <defs
     id="defs4">
    <linearGradient
       inkscape:collect="always"
       id="linearGradient4168">
      <stop
         style="stop-color:#e1e1e1;stop-opacity:1;"
         offset="0"
         id="stop4170" />
      <stop
         style="stop-color:#e1e1e1;stop-opacity:0;"
         offset="1"
         id="stop4172" />
    </linearGradient>
    <linearGradient
       inkscape:collect="always"
       id="linearGradient4145">
      <stop
         style="stop-color:#a4a4a4;stop-opacity:1;"
         offset="0"
         id="stop4147" />
      <stop
         style="stop-color:#a4a4a4;stop-opacity:0;"
         offset="1"
         id="stop4149" />
    </linearGradient>
    <linearGradient
       inkscape:collect="always"
       id="linearGradient4122">
      <stop
         style="stop-color:#2e2516;stop-opacity:1;"
         offset="0"
         id="stop4124" />
      <stop
         style="stop-color:#2e2516;stop-opacity:0;"
         offset="1"
         id="stop4126" />
    </linearGradient>
    <linearGradient
       inkscape:collect="always"
       id="linearGradient4089">
      <stop
         style="stop-color:#040404;stop-opacity:1;"
         offset="0"
         id="stop4091" />
      <stop
         style="stop-color:#040404;stop-opacity:0;"
         offset="1"
         id="stop4093" />
    </linearGradient>
    <linearGradient
       inkscape:collect="always"
       id="linearGradient4072">
      <stop
         style="stop-color:#050505;stop-opacity:1;"
         offset="0"
         id="stop4074" />
      <stop
         style="stop-color:#050505;stop-opacity:0;"
         offset="1"
         id="stop4076" />
    </linearGradient>
    <linearGradient
       inkscape:collect="always"
       id="linearGradient4613">
      <stop
         style="stop-color:#000000;stop-opacity:1;"
         offset="0"
         id="stop4615" />
      <stop
         style="stop-color:#000000;stop-opacity:0;"
         offset="1"
         id="stop4617" />
    </linearGradient>
    <linearGradient
       inkscape:collect="always"
       id="linearGradient4605">
      <stop
         style="stop-color:#f70000;stop-opacity:1;"
         offset="0"
         id="stop4607" />
      <stop
         style="stop-color:#000000;stop-opacity:1"
         offset="1"
         id="stop4609" />
    </linearGradient>
    <linearGradient
       id="linearGradient4591"
       inkscape:collect="always">
      <stop
         id="stop4593"
         offset="0"
         style="stop-color:#ffffff;stop-opacity:1" />
      <stop
         id="stop4595"
         offset="1"
         style="stop-color:#ffffff;stop-opacity:0;" />
    </linearGradient>
    <mask
       maskUnits="userSpaceOnUse"
       x="122.963"
       y="97.149"
       width="576.609"
       height="587.491"
       id="XMLID_23_">
      <g
         id="g31"
         style="filter:url(#Adobe_OpacityMaskFilter)">
        <radialGradient
           id="XMLID_24_"
           cx="88.977501"
           cy="-20.899401"
           r="673.11609"
           fx="88.977501"
           fy="-20.899401"
           gradientUnits="userSpaceOnUse">
          <stop
             offset="0.309"
             style="stop-color:#FFFFFF"
             id="stop34" />
          <stop
             offset="1"
             style="stop-color:#000000"
             id="stop3816" />
        </radialGradient>
        <ellipse
           sodipodi:ry="349.10599"
           sodipodi:rx="512.93402"
           sodipodi:cy="286.172"
           sodipodi:cx="295.89499"
           cx="295.89499"
           cy="286.172"
           rx="512.93402"
           ry="349.10599"
           id="ellipse38"
           style="fill:url(#XMLID_24_)" />
      </g>
    </mask>
    <linearGradient
       inkscape:collect="always"
       xlink:href="#linearGradient4591"
       id="linearGradient3196"
       x1="99.881126"
       y1="68.792747"
       x2="171.01328"
       y2="46.998337"
       gradientUnits="userSpaceOnUse"
       gradientTransform="matrix(0.8301257,0,0,0.9649488,-179.14101,175.7241)" />
    <linearGradient
       inkscape:collect="always"
       xlink:href="#linearGradient4591"
       id="linearGradient4599"
       gradientUnits="userSpaceOnUse"
       gradientTransform="matrix(0.9457809,0,0,1.1075807,6.5485589,0.4212711)"
       x1="104.92213"
       y1="71.555038"
       x2="161.92285"
       y2="35.137646" />
    <linearGradient
       inkscape:collect="always"
       xlink:href="#linearGradient4605"
       id="linearGradient4611"
       x1="168.56552"
       y1="-13.762122"
       x2="206.93968"
       y2="23.825462"
       gradientUnits="userSpaceOnUse" />
    <linearGradient
       inkscape:collect="always"
       xlink:href="#linearGradient4613"
       id="linearGradient4619"
       x1="168.56552"
       y1="-13.762122"
       x2="351.36194"
       y2="165.28738"
       gradientUnits="userSpaceOnUse" />
    <radialGradient
       inkscape:collect="always"
       xlink:href="#linearGradient4122"
       id="radialGradient4429"
       gradientUnits="userSpaceOnUse"
       gradientTransform="matrix(2.4153922,5.6352036e-2,-0.1053415,4.5152079,-1110.6018,-1115.9544)"
       cx="312.93607"
       cy="312.67905"
       fx="312.93607"
       fy="312.67905"
       r="70.271631" />
    <radialGradient
       inkscape:collect="always"
       xlink:href="#linearGradient4122"
       id="radialGradient4431"
       gradientUnits="userSpaceOnUse"
       gradientTransform="matrix(2.4153922,5.6352036e-2,-0.1053415,4.5152079,-440.90796,-1114.4006)"
       cx="312.93607"
       cy="312.67905"
       fx="312.93607"
       fy="312.67905"
       r="70.271631" />
    <linearGradient
       inkscape:collect="always"
       xlink:href="#linearGradient4089"
       id="linearGradient4433"
       gradientUnits="userSpaceOnUse"
       x1="152.27377"
       y1="293.29153"
       x2="158.06212"
       y2="382.63583" />
    <linearGradient
       inkscape:collect="always"
       xlink:href="#linearGradient4072"
       id="linearGradient4435"
       gradientUnits="userSpaceOnUse"
       x1="161.20821"
       y1="365.15543"
       x2="161.20821"
       y2="351.17111" />
    <linearGradient
       inkscape:collect="always"
       xlink:href="#linearGradient4145"
       id="linearGradient4437"
       gradientUnits="userSpaceOnUse"
       x1="335.62384"
       y1="287.08176"
       x2="335.62384"
       y2="434.69409" />
    <linearGradient
       inkscape:collect="always"
       xlink:href="#linearGradient4168"
       id="linearGradient4439"
       gradientUnits="userSpaceOnUse"
       x1="335.62384"
       y1="227.63983"
       x2="335.62384"
       y2="296.78455" />
  </defs>
  <sodipodi:namedview
     id="base"
     pagecolor="#ffffff"
     bordercolor="#666666"
     borderopacity="1.0"
     gridtolerance="10000"
     guidetolerance="10"
     objecttolerance="10"
     inkscape:pageopacity="0.0"
     inkscape:pageshadow="2"
     inkscape:zoom="1.2871553"
     inkscape:cx="128"
     inkscape:cy="97.383295"
     inkscape:document-units="px"
     inkscape:current-layer="layer1"
     showgrid="false"
     showguides="true"
     inkscape:guide-bbox="true"
     inkscape:window-width="773"
     inkscape:window-height="676"
     inkscape:window-x="304"
     inkscape:window-y="113" />
  <metadata
     id="metadata7">
    <rdf:RDF>
      <cc:Work
         rdf:about="">
        <dc:format>image/svg+xml</dc:format>
        <dc:type
           rdf:resource="http://purl.org/dc/dcmitype/StillImage" />
      </cc:Work>
    </rdf:RDF>
  </metadata>
  <g
     inkscape:label="Layer 1"
     inkscape:groupmode="layer"
     id="layer1">
    <rect
       style="opacity:0.26851852;fill:url(#linearGradient4599);fill-opacity:1;stroke:none;stroke-width:2;stroke-miterlimit:4;stroke-dasharray:none;stroke-opacity:1"
       id="rect4597"
       width="198.18179"
       height="232.08572"
       x="78.369324"
       y="-117.6895"
       ry="67.596573"
       transform="matrix(0.7600468,0.6498684,-0.7370851,0.6758,0,0)" />
    <rect
       style="opacity:1;fill:url(#linearGradient4619);fill-opacity:1;stroke:url(#linearGradient4611);stroke-width:2;stroke-miterlimit:4;stroke-dasharray:none;stroke-opacity:1"
       id="rect2383"
       width="209.543"
       height="209.543"
       x="75.938042"
       y="-106.63853"
       ry="61.030819"
       transform="matrix(0.6997472,0.7143906,-0.7143906,0.6997472,0,0)" />
    <rect
       transform="matrix(-0.796691,0.6043868,0.6617245,0.7497471,0,0)"
       ry="58.891621"
       y="72.82341"
       x="-116.10284"
       height="202.19823"
       width="173.94705"
       id="rect3188"
       style="opacity:0.27777782;fill:url(#linearGradient3196);fill-opacity:1;stroke:none;stroke-width:2;stroke-miterlimit:4;stroke-dasharray:none;stroke-opacity:1" />
    <g
       id="g4396"
       transform="matrix(0.8212717,0,0,0.8212717,27.931852,23.036617)">
      <g
         id="g4291"
         transform="matrix(0.7390901,0,0,0.7390901,-125.08602,-99.407353)"
         style="fill:none;stroke:#000000;stroke-width:1.35301507;stroke-miterlimit:4;stroke-dasharray:none;stroke-opacity:1">
        <rect
           style="fill:none;fill-opacity:1;stroke:#000000;stroke-width:1.35301507;stroke-miterlimit:4;stroke-dasharray:none;stroke-opacity:1"
           id="rect4293"
           width="139.84326"
           height="195.78058"
           x="264.92529"
           y="212.49319"
           rx="0" />
        <rect
           transform="scale(-1,1)"
           style="fill:none;fill-opacity:1;stroke:#000000;stroke-width:1.35301507;stroke-miterlimit:4;stroke-dasharray:none;stroke-opacity:1"
           id="rect4295"
           width="139.84326"
           height="195.78058"
           x="-404.76855"
           y="210.93938"
           rx="0" />
        <rect
           rx="0"
           y="212.49319"
           x="264.92529"
           height="195.78058"
           width="139.84326"
           id="rect4297"
           style="fill:none;fill-opacity:1;stroke:#000000;stroke-width:1.35301507;stroke-miterlimit:4;stroke-dasharray:none;stroke-opacity:1" />
        <g
           transform="matrix(0.903633,0,0,0.903633,32.581764,37.056916)"
           id="g4299"
           style="fill:none;stroke:#000000;stroke-width:1.49730587;stroke-miterlimit:4;stroke-dasharray:none;stroke-opacity:1">
          <path
             transform="translate(181.79624,-6.2152562)"
             d="M 204.32655,338.35214 A 52.052773,52.052773 0 1 1 100.221,338.35214 A 52.052773,52.052773 0 1 1 204.32655,338.35214 z"
             sodipodi:ry="52.052773"
             sodipodi:rx="52.052773"
             sodipodi:cy="338.35214"
             sodipodi:cx="152.27377"
             id="path4301"
             style="fill:none;fill-opacity:1;stroke:#000000;stroke-width:1.49730587;stroke-miterlimit:4;stroke-dasharray:none;stroke-opacity:1"
             sodipodi:type="arc" />
          <path
             transform="translate(173.25027,-17.091955)"
             d="M 181.01933,351.17111 A 19.811129,19.811129 0 1 1 141.39708,351.17111 A 19.811129,19.811129 0 1 1 181.01933,351.17111 z"
             sodipodi:ry="19.811129"
             sodipodi:rx="19.811129"
             sodipodi:cy="351.17111"
             sodipodi:cx="161.20821"
             id="path4303"
             style="fill:none;fill-opacity:1;stroke:#000000;stroke-width:1.49730587;stroke-miterlimit:4;stroke-dasharray:none;stroke-opacity:1"
             sodipodi:type="arc" />
          <g
             id="g4305"
             style="fill:none;stroke:#000000;stroke-width:1.49730587;stroke-miterlimit:4;stroke-dasharray:none;stroke-opacity:1">
            <path
               transform="translate(181.79624,-6.2152562)"
               d="M 204.32655,338.35214 A 52.052773,52.052773 0 1 1 100.221,338.35214 A 52.052773,52.052773 0 1 1 204.32655,338.35214 z"
               sodipodi:ry="52.052773"
               sodipodi:rx="52.052773"
               sodipodi:cy="338.35214"
               sodipodi:cx="152.27377"
               id="path4307"
               style="fill:none;fill-opacity:1;stroke:#000000;stroke-width:1.49730587;stroke-miterlimit:4;stroke-dasharray:none;stroke-opacity:1"
               sodipodi:type="arc" />
            <path
               transform="translate(173.25027,-17.091955)"
               d="M 181.01933,351.17111 A 19.811129,19.811129 0 1 1 141.39708,351.17111 A 19.811129,19.811129 0 1 1 181.01933,351.17111 z"
               sodipodi:ry="19.811129"
               sodipodi:rx="19.811129"
               sodipodi:cy="351.17111"
               sodipodi:cx="161.20821"
               id="path4309"
               style="fill:none;fill-opacity:1;stroke:#000000;stroke-width:1.49730587;stroke-miterlimit:4;stroke-dasharray:none;stroke-opacity:1"
               sodipodi:type="arc" />
          </g>
        </g>
        <path
           style="fill:none;fill-opacity:1;stroke:#000000;stroke-width:1.35301507;stroke-miterlimit:4;stroke-dasharray:none;stroke-opacity:1"
           d="M 335.62384,281.64322 C 304.74645,281.64322 279.68634,306.70332 279.68634,337.58072 C 279.68634,368.45811 304.74643,393.51823 335.62384,393.51822 C 366.50123,393.51822 391.56135,368.45811 391.56134,337.58072 C 391.56134,306.70333 366.50122,281.64323 335.62384,281.64322 z M 335.62384,293.20572 C 360.10844,293.20571 379.96759,313.09612 379.96759,337.58072 C 379.96758,362.06533 360.10844,381.92447 335.62384,381.92447 C 311.13924,381.92447 291.24884,362.06532 291.24884,337.58072 C 291.24885,313.09613 311.13924,293.20572 335.62384,293.20572 z"
           id="path4311" />
        <path
           id="path4313"
           d="M 335.62384,281.64322 C 304.74645,281.64322 279.68634,306.70332 279.68634,337.58072 C 279.68634,368.45811 304.74643,393.51823 335.62384,393.51822 C 366.50123,393.51822 391.56135,368.45811 391.56134,337.58072 C 391.56134,306.70333 366.50122,281.64323 335.62384,281.64322 z M 335.62384,293.20572 C 360.10844,293.20571 379.96759,313.09612 379.96759,337.58072 C 379.96758,362.06533 360.10844,381.92447 335.62384,381.92447 C 311.13924,381.92447 291.24884,362.06532 291.24884,337.58072 C 291.24885,313.09613 311.13924,293.20572 335.62384,293.20572 z"
           style="fill:none;fill-opacity:1;stroke:#000000;stroke-width:1.35301507;stroke-miterlimit:4;stroke-dasharray:none;stroke-opacity:1" />
        <path
           transform="translate(174.41563,-10.099791)"
           d="M 187.23459,257.16537 A 26.026386,26.026386 0 1 1 135.18182,257.16537 A 26.026386,26.026386 0 1 1 187.23459,257.16537 z"
           sodipodi:ry="26.026386"
           sodipodi:rx="26.026386"
           sodipodi:cy="257.16537"
           sodipodi:cx="161.20821"
           id="path4315"
           style="fill:none;fill-opacity:1;stroke:#000000;stroke-width:1.35301507;stroke-miterlimit:4;stroke-dasharray:none;stroke-opacity:1"
           sodipodi:type="arc" />
        <path
           id="path4317"
           d="M 335.625,221.03125 C 321.25843,221.03125 309.59376,232.69594 309.59375,247.0625 C 309.59375,261.42907 321.25843,273.09374 335.625,273.09375 C 349.99157,273.09375 361.65626,261.42907 361.65625,247.0625 C 361.65625,232.69593 349.99156,221.03125 335.625,221.03125 z M 335.625,231.90625 C 343.7732,231.90625 350.375,238.5393 350.375,246.6875 C 350.375,254.8357 343.7732,261.4375 335.625,261.4375 C 327.4768,261.43749 320.875,254.8357 320.875,246.6875 C 320.875,238.5393 327.4768,231.90625 335.625,231.90625 z"
           style="fill:none;fill-opacity:1;stroke:#000000;stroke-width:1.35301507;stroke-miterlimit:4;stroke-dasharray:none;stroke-opacity:1" />
      </g>
      <g
         style="opacity:1"
         transform="matrix(0.7390901,0,0,0.7390901,-128.53125,-97.160232)"
         id="g4215">
        <g
           id="g4176"
           transform="translate(4.6614422,-1.5538141)">
          <rect
             style="fill:#c47916;fill-opacity:1;stroke:#000000;stroke-width:0.69999999;stroke-miterlimit:4;stroke-dasharray:none;stroke-opacity:1"
             id="rect4120"
             width="139.84326"
             height="195.78058"
             x="264.92529"
             y="212.49319"
             rx="0" />
          <rect
             transform="scale(-1,1)"
             style="fill:url(#radialGradient4429);fill-opacity:1;stroke:#000000;stroke-width:0.69999999;stroke-miterlimit:4;stroke-dasharray:none;stroke-opacity:1"
             id="rect4130"
             width="139.84326"
             height="195.78058"
             x="-404.76855"
             y="210.93938"
             rx="0" />
          <rect
             rx="0"
             y="212.49319"
             x="264.92529"
             height="195.78058"
             width="139.84326"
             id="rect4064"
             style="fill:url(#radialGradient4431);fill-opacity:1;stroke:#000000;stroke-width:0.69999999;stroke-miterlimit:4;stroke-dasharray:none;stroke-opacity:1" />
          <g
             transform="matrix(0.903633,0,0,0.903633,32.581764,37.056916)"
             id="g4109">
            <path
               transform="translate(181.79624,-6.2152562)"
               d="M 204.32655,338.35214 A 52.052773,52.052773 0 1 1 100.221,338.35214 A 52.052773,52.052773 0 1 1 204.32655,338.35214 z"
               sodipodi:ry="52.052773"
               sodipodi:rx="52.052773"
               sodipodi:cy="338.35214"
               sodipodi:cx="152.27377"
               id="path4097"
               style="fill:#222222;fill-opacity:1;stroke:#000000;stroke-width:0.69999999;stroke-miterlimit:4;stroke-dasharray:none;stroke-opacity:1"
               sodipodi:type="arc" />
            <path
               transform="translate(173.25027,-17.091955)"
               d="M 181.01933,351.17111 A 19.811129,19.811129 0 1 1 141.39708,351.17111 A 19.811129,19.811129 0 1 1 181.01933,351.17111 z"
               sodipodi:ry="19.811129"
               sodipodi:rx="19.811129"
               sodipodi:cy="351.17111"
               sodipodi:cx="161.20821"
               id="path4099"
               style="fill:#161616;fill-opacity:1;stroke:#000000;stroke-width:0.69999999;stroke-miterlimit:4;stroke-dasharray:none;stroke-opacity:1"
               sodipodi:type="arc" />
            <g
               id="g4101">
              <path
                 transform="translate(181.79624,-6.2152562)"
                 d="M 204.32655,338.35214 A 52.052773,52.052773 0 1 1 100.221,338.35214 A 52.052773,52.052773 0 1 1 204.32655,338.35214 z"
                 sodipodi:ry="52.052773"
                 sodipodi:rx="52.052773"
                 sodipodi:cy="338.35214"
                 sodipodi:cx="152.27377"
                 id="path4068"
                 style="fill:url(#linearGradient4433);fill-opacity:1;stroke:#000000;stroke-width:0.69999999;stroke-miterlimit:4;stroke-dasharray:none;stroke-opacity:1"
                 sodipodi:type="arc" />
              <path
                 transform="translate(173.25027,-17.091955)"
                 d="M 181.01933,351.17111 A 19.811129,19.811129 0 1 1 141.39708,351.17111 A 19.811129,19.811129 0 1 1 181.01933,351.17111 z"
                 sodipodi:ry="19.811129"
                 sodipodi:rx="19.811129"
                 sodipodi:cy="351.17111"
                 sodipodi:cx="161.20821"
                 id="path4070"
                 style="fill:url(#linearGradient4435);fill-opacity:1;stroke:#000000;stroke-width:0.69999999;stroke-miterlimit:4;stroke-dasharray:none;stroke-opacity:1"
                 sodipodi:type="arc" />
            </g>
          </g>
          <path
             style="fill:#12141b;fill-opacity:1;stroke:#000000;stroke-width:0.69999999;stroke-miterlimit:4;stroke-dasharray:none;stroke-opacity:1"
             d="M 335.62384,281.64322 C 304.74645,281.64322 279.68634,306.70332 279.68634,337.58072 C 279.68634,368.45811 304.74643,393.51823 335.62384,393.51822 C 366.50123,393.51822 391.56135,368.45811 391.56134,337.58072 C 391.56134,306.70333 366.50122,281.64323 335.62384,281.64322 z M 335.62384,293.20572 C 360.10844,293.20571 379.96759,313.09612 379.96759,337.58072 C 379.96758,362.06533 360.10844,381.92447 335.62384,381.92447 C 311.13924,381.92447 291.24884,362.06532 291.24884,337.58072 C 291.24885,313.09613 311.13924,293.20572 335.62384,293.20572 z"
             id="path4143" />
          <path
             id="path4134"
             d="M 335.62384,281.64322 C 304.74645,281.64322 279.68634,306.70332 279.68634,337.58072 C 279.68634,368.45811 304.74643,393.51823 335.62384,393.51822 C 366.50123,393.51822 391.56135,368.45811 391.56134,337.58072 C 391.56134,306.70333 366.50122,281.64323 335.62384,281.64322 z M 335.62384,293.20572 C 360.10844,293.20571 379.96759,313.09612 379.96759,337.58072 C 379.96758,362.06533 360.10844,381.92447 335.62384,381.92447 C 311.13924,381.92447 291.24884,362.06532 291.24884,337.58072 C 291.24885,313.09613 311.13924,293.20572 335.62384,293.20572 z"
             style="fill:url(#linearGradient4437);fill-opacity:1;stroke:#000000;stroke-width:0.69999999;stroke-miterlimit:4;stroke-dasharray:none;stroke-opacity:1" />
          <path
             transform="translate(174.41563,-10.099791)"
             d="M 187.23459,257.16537 A 26.026386,26.026386 0 1 1 135.18182,257.16537 A 26.026386,26.026386 0 1 1 187.23459,257.16537 z"
             sodipodi:ry="26.026386"
             sodipodi:rx="26.026386"
             sodipodi:cy="257.16537"
             sodipodi:cx="161.20821"
             id="path4153"
             style="fill:#12141b;fill-opacity:1;stroke:#000000;stroke-width:0.69999999;stroke-miterlimit:4;stroke-dasharray:none;stroke-opacity:1"
             sodipodi:type="arc" />
          <path
             id="path4155"
             d="M 335.625,221.03125 C 321.25843,221.03125 309.59376,232.69594 309.59375,247.0625 C 309.59375,261.42907 321.25843,273.09374 335.625,273.09375 C 349.99157,273.09375 361.65626,261.42907 361.65625,247.0625 C 361.65625,232.69593 349.99156,221.03125 335.625,221.03125 z M 335.625,231.90625 C 343.7732,231.90625 350.375,238.5393 350.375,246.6875 C 350.375,254.8357 343.7732,261.4375 335.625,261.4375 C 327.4768,261.43749 320.875,254.8357 320.875,246.6875 C 320.875,238.5393 327.4768,231.90625 335.625,231.90625 z"
             style="fill:url(#linearGradient4439);fill-opacity:1;stroke:#000000;stroke-width:0.69999999;stroke-miterlimit:4;stroke-dasharray:none;stroke-opacity:1" />
        </g>
        <rect
           style="fill:#8a5b17;fill-opacity:1;stroke:none;stroke-width:0.49305302;stroke-miterlimit:4;stroke-dasharray:none;stroke-opacity:1"
           id="rect4211"
           width="82.972717"
           height="29.561621"
           x="466.66431"
           y="263.00784"
           ry="12.669268"
           transform="matrix(1,0,-0.6937878,0.7201795,0,0)" />
        <rect
           transform="matrix(-1,0,0.7657461,0.643143,0,0)"
           ry="14.195028"
           y="294.50168"
           x="-166.60139"
           height="33.121735"
           width="102.60729"
           id="rect4213"
           style="fill:#8a5b17;fill-opacity:1;stroke:none;stroke-width:0.46788514;stroke-miterlimit:4;stroke-dasharray:none;stroke-opacity:1" />
      </g>
    </g>
    <path
       sodipodi:nodetypes="ccc"
       id="path2276"
       d="M 108.10388,41.662742 L 108.10388,37.156303 L 108.10388,41.662742 z"
       style="fill:#ffffff;fill-opacity:0.75688076;fill-rule:nonzero;stroke:none;stroke-width:0.5;stroke-linecap:round;stroke-linejoin:round;stroke-miterlimit:4;stroke-dasharray:none;stroke-dashoffset:4;stroke-opacity:1" />
  </g>
</svg>
