<?xml version="1.0" encoding="UTF-8" standalone="no"?>
<!-- Created with Inkscape (http://www.inkscape.org/) -->

<svg
   xmlns:dc="http://purl.org/dc/elements/1.1/"
   xmlns:cc="http://creativecommons.org/ns#"
   xmlns:rdf="http://www.w3.org/1999/02/22-rdf-syntax-ns#"
   xmlns:svg="http://www.w3.org/2000/svg"
   xmlns="http://www.w3.org/2000/svg"
   xmlns:xlink="http://www.w3.org/1999/xlink"
   xmlns:sodipodi="http://sodipodi.sourceforge.net/DTD/sodipodi-0.dtd"
   xmlns:inkscape="http://www.inkscape.org/namespaces/inkscape"
   width="256"
   height="256"
   id="svg2"
   sodipodi:version="0.32"
   inkscape:version="0.47pre0 r21549"
   version="1.0"
   sodipodi:docname="system_monitor.svg"
   inkscape:output_extension="org.inkscape.output.svg.inkscape">
  <defs
     id="defs4">
    <radialGradient
       inkscape:collect="always"
       xlink:href="#linearGradient3368"
       id="radialGradient44779"
       gradientUnits="userSpaceOnUse"
       gradientTransform="matrix(1.5647827,-9.7785772e-2,6.023124e-2,0.9638294,-80.256183,7.6053692)"
       cx="129.02811"
       cy="114.63454"
       fx="129.02811"
       fy="114.63454"
       r="100.00693" />
    <linearGradient
       inkscape:collect="always"
       id="linearGradient3368">
      <stop
         style="stop-color:#00b3ff;stop-opacity:1;"
         offset="0"
         id="stop3370" />
      <stop
         style="stop-color:#00b3ff;stop-opacity:0;"
         offset="1"
         id="stop3372" />
    </linearGradient>
    <radialGradient
       inkscape:collect="always"
       xlink:href="#linearGradient3368"
       id="radialGradient3376"
       cx="129.02811"
       cy="114.63454"
       fx="129.02811"
       fy="114.63454"
       r="100.00693"
       gradientTransform="matrix(1.5647827,-9.7785772e-2,6.023124e-2,0.9638294,-79.706826,7.6053692)"
       gradientUnits="userSpaceOnUse" />
    <linearGradient
       inkscape:collect="always"
       id="linearGradient4613">
      <stop
         style="stop-color:#000000;stop-opacity:1;"
         offset="0"
         id="stop4615" />
      <stop
         style="stop-color:#000000;stop-opacity:0;"
         offset="1"
         id="stop4617" />
    </linearGradient>
    <linearGradient
       inkscape:collect="always"
       id="linearGradient4605">
      <stop
         style="stop-color:#f70000;stop-opacity:1;"
         offset="0"
         id="stop4607" />
      <stop
         style="stop-color:#000000;stop-opacity:1"
         offset="1"
         id="stop4609" />
    </linearGradient>
    <linearGradient
       id="linearGradient4591"
       inkscape:collect="always">
      <stop
         id="stop4593"
         offset="0"
         style="stop-color:#ffffff;stop-opacity:1" />
      <stop
         id="stop4595"
         offset="1"
         style="stop-color:#ffffff;stop-opacity:0;" />
    </linearGradient>
    <mask
       maskUnits="userSpaceOnUse"
       x="122.963"
       y="97.149"
       width="576.609"
       height="587.491"
       id="XMLID_23_">
      <g
         id="g31"
         style="filter:url(#Adobe_OpacityMaskFilter)">
        <radialGradient
           id="XMLID_24_"
           cx="88.977501"
           cy="-20.899401"
           r="673.11609"
           fx="88.977501"
           fy="-20.899401"
           gradientUnits="userSpaceOnUse">
          <stop
             offset="0.309"
             style="stop-color:#FFFFFF"
             id="stop34" />
          <stop
             offset="1"
             style="stop-color:#000000"
             id="stop3816" />
        </radialGradient>
        <ellipse
           sodipodi:ry="349.10599"
           sodipodi:rx="512.93402"
           sodipodi:cy="286.172"
           sodipodi:cx="295.89499"
           cx="295.89499"
           cy="286.172"
           rx="512.93402"
           ry="349.10599"
           id="ellipse38"
           style="fill:url(#XMLID_24_)" />
      </g>
    </mask>
    <linearGradient
       inkscape:collect="always"
       xlink:href="#linearGradient4591"
       id="linearGradient3196"
       x1="99.881126"
       y1="68.792747"
       x2="171.01328"
       y2="46.998337"
       gradientUnits="userSpaceOnUse"
       gradientTransform="matrix(0.8301257,0,0,0.9649488,-179.55402,176.05704)" />
    <linearGradient
       inkscape:collect="always"
       xlink:href="#linearGradient4591"
       id="linearGradient4599"
       gradientUnits="userSpaceOnUse"
       gradientTransform="matrix(0.9457809,0,0,1.1075807,6.5485589,0.4212711)"
       x1="104.92213"
       y1="71.555038"
       x2="161.92285"
       y2="35.137646" />
    <linearGradient
       inkscape:collect="always"
       xlink:href="#linearGradient4605"
       id="linearGradient4611"
       x1="168.56552"
       y1="-13.762122"
       x2="206.93968"
       y2="23.825462"
       gradientUnits="userSpaceOnUse" />
    <linearGradient
       inkscape:collect="always"
       xlink:href="#linearGradient4613"
       id="linearGradient4619"
       x1="168.56552"
       y1="-13.762122"
       x2="351.36194"
       y2="165.28738"
       gradientUnits="userSpaceOnUse" />
  </defs>
  <sodipodi:namedview
     id="base"
     pagecolor="#ffffff"
     bordercolor="#666666"
     borderopacity="1.0"
     gridtolerance="10000"
     guidetolerance="10"
     objecttolerance="10"
     inkscape:pageopacity="0.0"
     inkscape:pageshadow="2"
     inkscape:zoom="1.2871553"
     inkscape:cx="128"
     inkscape:cy="97.383295"
     inkscape:document-units="px"
     inkscape:current-layer="layer1"
     showgrid="false"
     showguides="true"
     inkscape:guide-bbox="true"
     inkscape:window-width="773"
     inkscape:window-height="676"
     inkscape:window-x="304"
     inkscape:window-y="113" />
  <metadata
     id="metadata7">
    <rdf:RDF>
      <cc:Work
         rdf:about="">
        <dc:format>image/svg+xml</dc:format>
        <dc:type
           rdf:resource="http://purl.org/dc/dcmitype/StillImage" />
      </cc:Work>
    </rdf:RDF>
  </metadata>
  <g
     inkscape:label="Layer 1"
     inkscape:groupmode="layer"
     id="layer1">
    <rect
       style="opacity:1;fill:url(#linearGradient4619);fill-opacity:1;stroke:url(#linearGradient4611);stroke-width:2;stroke-miterlimit:4;stroke-dasharray:none;stroke-opacity:1"
       id="rect2383"
       width="209.543"
       height="209.543"
       x="75.938042"
       y="-106.63853"
       ry="61.030819"
       transform="matrix(0.6997472,0.7143906,-0.7143906,0.6997472,0,0)" />
    <rect
       style="opacity:0.26851852;fill:url(#linearGradient4599);fill-opacity:1;stroke:none;stroke-width:2;stroke-miterlimit:4;stroke-dasharray:none;stroke-opacity:1"
       id="rect4597"
       width="198.18179"
       height="232.08572"
       x="78.369324"
       y="-117.6895"
       ry="67.596573"
       transform="matrix(0.7600468,0.6498684,-0.7370851,0.6758,0,0)" />
    <rect
       transform="matrix(-0.796691,0.6043868,0.6617245,0.7497471,0,0)"
       ry="58.891621"
       y="73.156349"
       x="-116.51585"
       height="202.19823"
       width="173.94705"
       id="rect3188"
       style="opacity:0.27777778;fill:url(#linearGradient3196);fill-opacity:1;stroke:none;stroke-width:2;stroke-miterlimit:4;stroke-dasharray:none;stroke-opacity:1" />
    <path
       sodipodi:nodetypes="ccc"
       id="path2276"
       d="M 108.10388,41.662742 L 108.10388,37.156303 L 108.10388,41.662742 z"
       style="fill:#ffffff;fill-opacity:0.75688076;fill-rule:nonzero;stroke:none;stroke-width:0.5;stroke-linecap:round;stroke-linejoin:round;stroke-miterlimit:4;stroke-dasharray:none;stroke-dashoffset:4;stroke-opacity:1" />
    <g
       id="g36056"
       transform="translate(3.2501624,-0.1963563)">
      <path
         sodipodi:nodetypes="csssssssssssssssssssssssssssssssssssssssssssssssc"
         id="path4121"
         d="M 33.372632,133.54646 C 38.679206,133.6024 45.222674,134.09661 48.776827,134.09661 C 51.527578,134.09661 54.278324,134.09661 57.029075,134.09661 C 60.696745,134.09661 64.364409,134.09661 68.032073,134.09661 C 71.38506,134.09661 74.920715,134.29997 77.934772,133.54646 C 81.876914,132.56093 82.161979,131.69384 83.986421,128.04496 C 85.411997,125.19381 86.18702,123.10356 86.18702,119.79272 C 86.18702,114.67102 86.442604,116.964 87.287319,120.34287 C 88.037262,123.34263 89.279035,125.97675 90.588217,128.59512 C 91.807102,131.03287 97.544233,130.79571 99.940773,130.79571 C 102.73355,130.79571 106.02916,132.47372 108.19301,134.09661 C 110.26942,135.65392 109.82445,140.07222 110.39361,142.34886 C 111.44384,146.54976 111.49391,146.15217 111.49391,141.79871 C 111.49391,138.64184 112.59421,135.75475 112.59421,132.44616 C 112.59421,129.67428 113.69451,127.02122 113.69451,124.19391 C 113.69451,121.15095 114.04734,117.83126 114.79481,114.84137 C 115.61078,111.5775 114.68698,107.67843 115.34496,104.38852 C 115.87898,101.7184 115.34496,98.312334 115.34496,95.586124 C 115.34496,92.224734 114.79481,89.396104 114.79481,86.233574 C 114.79481,83.202914 115.89511,80.089094 115.89511,76.881034 C 115.89511,73.479674 116.99541,70.488214 116.99541,66.978334 C 116.99541,63.427253 118.09571,59.844532 118.09571,55.975337 C 118.09571,53.891617 119.74616,44.456255 119.74616,51.574139 C 119.74616,55.529648 120.29631,59.294613 120.29631,63.127285 C 120.29631,66.046464 120.84646,69.258044 120.84646,72.479824 C 120.84646,76.327874 121.94676,80.052204 121.94676,84.032974 C 121.94676,87.493094 123.04705,90.829044 123.04705,94.485824 C 123.04705,97.277724 124.05088,100.70169 124.69751,103.28822 C 125.46825,106.3712 125.55305,109.46115 126.34796,112.64077 C 127.19312,116.02141 127.3154,119.67859 127.9984,123.09361 C 128.58284,126.0158 128.41079,129.14437 129.0987,131.89601 C 129.8452,134.88198 129.45882,138.28783 130.199,141.24856 C 130.80835,143.68595 130.74916,147.07342 130.74916,149.50081 C 130.74916,152.80171 130.74916,156.10261 130.74916,159.40351 C 130.74916,165.72081 130.199,158.84505 130.199,156.10261 C 130.199,152.57039 130.39706,149.10469 131.84945,146.19991 C 133.78683,142.32517 133.11944,138.87828 136.8008,135.19691 C 138.20902,133.78869 143.15586,134.64676 145.05305,134.64676 C 148.93701,134.64676 150.1411,135.61036 153.3053,132.44616 C 156.16204,129.58943 157.06583,125.47525 158.8068,121.99331 C 160.19035,119.22621 163.07036,116.0449 165.4086,114.29122 C 168.32691,112.10248 171.15398,111.99845 174.211,114.29122 C 177.83659,117.01041 179.07703,120.72239 180.81279,124.19391 C 182.47346,127.51523 183.60486,130.87833 185.214,134.09661 C 186.78071,137.23005 193.68396,137.48062 196.21699,136.84736 C 199.27604,136.0826 201.19654,131.30826 202.81879,129.14526 C 205.0022,126.23406 207.39665,124.37058 210.52089,127.49482 C 213.58783,130.56176 214.58625,135.11295 219.32328,136.29721 C 222.13952,137.00127 222.8551,136.67417 224.82479,135.19691"
         style="fill:none;fill-opacity:1;fill-rule:evenodd;stroke:url(#radialGradient3376);stroke-width:8.5617075;stroke-linecap:round;stroke-linejoin:round;stroke-miterlimit:4;stroke-dasharray:none;stroke-opacity:1" />
      <path
         style="fill:none;fill-opacity:1;fill-rule:evenodd;stroke:url(#radialGradient44779);stroke-width:8.5617075;stroke-linecap:round;stroke-linejoin:round;stroke-miterlimit:4;stroke-dasharray:none;stroke-opacity:1"
         d="M 32.823275,133.54646 C 38.129849,133.6024 44.673317,134.09661 48.22747,134.09661 C 50.978221,134.09661 53.728967,134.09661 56.479718,134.09661 C 60.147388,134.09661 63.815052,134.09661 67.482716,134.09661 C 70.835703,134.09661 74.371358,134.29997 77.385415,133.54646 C 81.327557,132.56093 81.612622,131.69384 83.437064,128.04496 C 84.86264,125.19381 85.637663,123.10356 85.637663,119.79272 C 85.637663,114.67102 85.893247,116.964 86.737962,120.34287 C 87.487905,123.34263 88.729678,125.97675 90.03886,128.59512 C 91.257745,131.03287 96.994876,130.79571 99.391421,130.79571 C 102.1842,130.79571 105.47981,132.47372 107.64366,134.09661 C 109.72007,135.65392 109.2751,140.07222 109.84426,142.34886 C 110.89449,146.54976 110.94456,146.15217 110.94456,141.79871 C 110.94456,138.64184 112.04486,135.75475 112.04486,132.44616 C 112.04486,129.67428 113.14516,127.02122 113.14516,124.19391 C 113.14516,121.15095 113.49799,117.83126 114.24546,114.84137 C 115.06143,111.5775 114.13763,107.67843 114.79561,104.38852 C 115.32963,101.7184 114.79561,98.31233 114.79561,95.586124 C 114.79561,92.224734 114.24546,89.396104 114.24546,86.233574 C 114.24546,83.202914 115.34576,80.089094 115.34576,76.881034 C 115.34576,73.479674 116.44606,70.488214 116.44606,66.978334 C 116.44606,63.427253 117.54636,59.844532 117.54636,55.975337 C 117.54636,53.891617 119.19681,44.456255 119.19681,51.574139 C 119.19681,55.529648 119.74696,59.294613 119.74696,63.127285 C 119.74696,66.046464 120.29711,69.258044 120.29711,72.479824 C 120.29711,76.327874 121.39741,80.052204 121.39741,84.032974 C 121.39741,87.493094 122.4977,90.829044 122.4977,94.485824 C 122.4977,97.27772 123.50153,100.70169 124.14816,103.28822 C 124.9189,106.3712 125.0037,109.46115 125.79861,112.64077 C 126.64377,116.02141 126.76605,119.67859 127.44905,123.09361 C 128.03349,126.0158 127.86144,129.14437 128.54935,131.89601 C 129.29585,134.88198 128.90947,138.28783 129.64965,141.24856 C 130.259,143.68595 130.19981,147.07342 130.19981,149.50081 C 130.19981,152.80171 130.19981,156.10261 130.19981,159.40351 C 130.19981,165.72081 129.64965,158.84505 129.64965,156.10261 C 129.64965,152.57039 129.84771,149.10469 131.3001,146.19991 C 133.23748,142.32517 132.57009,138.87828 136.25145,135.19691 C 137.65967,133.78869 142.60651,134.64676 144.5037,134.64676 C 148.38766,134.64676 149.59175,135.61036 152.75595,132.44616 C 155.61269,129.58943 156.51648,125.47525 158.25745,121.99331 C 159.641,119.22621 162.52101,116.0449 164.85925,114.29122 C 167.77756,112.10248 170.60463,111.99845 173.66165,114.29122 C 177.28724,117.01041 178.52768,120.72239 180.26344,124.19391 C 181.92411,127.51523 183.05551,130.87833 184.66465,134.09661 C 186.23136,137.23005 193.13461,137.48062 195.66764,136.84736 C 198.72669,136.0826 200.64719,131.30826 202.26944,129.14526 C 204.45285,126.23406 206.8473,124.37058 209.97154,127.49482 C 213.03848,130.56176 214.0369,135.11295 218.77393,136.29721 C 221.59017,137.00127 222.30575,136.67417 224.27544,135.19691"
         id="path44777"
         sodipodi:nodetypes="csssssssssssssssssssssssssssssssssssssssssssssssc" />
    </g>
  </g>
</svg>
