<?xml version="1.0" encoding="UTF-8" standalone="no"?>
<!-- Created with Inkscape (http://www.inkscape.org/) -->

<svg
   xmlns:dc="http://purl.org/dc/elements/1.1/"
   xmlns:cc="http://creativecommons.org/ns#"
   xmlns:rdf="http://www.w3.org/1999/02/22-rdf-syntax-ns#"
   xmlns:svg="http://www.w3.org/2000/svg"
   xmlns="http://www.w3.org/2000/svg"
   xmlns:xlink="http://www.w3.org/1999/xlink"
   xmlns:sodipodi="http://sodipodi.sourceforge.net/DTD/sodipodi-0.dtd"
   xmlns:inkscape="http://www.inkscape.org/namespaces/inkscape"
   width="256"
   height="256"
   id="svg2"
   sodipodi:version="0.32"
   inkscape:version="0.47pre0 r21549"
   version="1.0"
   sodipodi:docname="wine.svg"
   inkscape:output_extension="org.inkscape.output.svg.inkscape">
  <defs
     id="defs4">
    <filter
       inkscape:collect="always"
       id="filter22130">
      <feGaussianBlur
         inkscape:collect="always"
         stdDeviation="0.52529391"
         id="feGaussianBlur22132" />
    </filter>
    <linearGradient
       inkscape:collect="always"
       id="linearGradient22170">
      <stop
         style="stop-color:#8f0b10;stop-opacity:1;"
         offset="0"
         id="stop22172" />
      <stop
         style="stop-color:#8f0b10;stop-opacity:0;"
         offset="1"
         id="stop22174" />
    </linearGradient>
    <linearGradient
       inkscape:collect="always"
       xlink:href="#linearGradient22170"
       id="linearGradient22176"
       x1="19.080456"
       y1="34.517242"
       x2="50.372127"
       y2="34.517241"
       gradientUnits="userSpaceOnUse" />
    <linearGradient
       inkscape:collect="always"
       id="linearGradient22150">
      <stop
         style="stop-color:#ce001b;stop-opacity:1;"
         offset="0"
         id="stop22152" />
      <stop
         style="stop-color:#ce001b;stop-opacity:0;"
         offset="1"
         id="stop22154" />
    </linearGradient>
    <linearGradient
       inkscape:collect="always"
       xlink:href="#linearGradient22150"
       id="linearGradient22156"
       x1="19.080456"
       y1="34.517242"
       x2="49.954027"
       y2="34.517241"
       gradientUnits="userSpaceOnUse" />
    <linearGradient
       inkscape:collect="always"
       xlink:href="#linearGradient16837"
       id="linearGradient22112"
       gradientUnits="userSpaceOnUse"
       gradientTransform="matrix(2.4176561,0,0,2.3661709,172.51843,29.616797)"
       x1="-28.128548"
       y1="34.637081"
       x2="15.779508"
       y2="34.637081" />
    <linearGradient
       id="linearGradient16837">
      <stop
         style="stop-color:#830000;stop-opacity:1"
         offset="0"
         id="stop16839" />
      <stop
         style="stop-color:#830000;stop-opacity:0"
         offset="1"
         id="stop16841" />
    </linearGradient>
    <linearGradient
       inkscape:collect="always"
       xlink:href="#linearGradient16837"
       id="linearGradient22115"
       gradientUnits="userSpaceOnUse"
       gradientTransform="matrix(2.4176561,0,0,2.3661709,108.08048,31.046667)"
       x1="-28.128548"
       y1="34.637081"
       x2="15.779508"
       y2="34.637081" />
    <linearGradient
       inkscape:collect="always"
       id="linearGradient4613">
      <stop
         style="stop-color:#000000;stop-opacity:1;"
         offset="0"
         id="stop4615" />
      <stop
         style="stop-color:#000000;stop-opacity:0;"
         offset="1"
         id="stop4617" />
    </linearGradient>
    <linearGradient
       inkscape:collect="always"
       id="linearGradient4605">
      <stop
         style="stop-color:#f70000;stop-opacity:1;"
         offset="0"
         id="stop4607" />
      <stop
         style="stop-color:#000000;stop-opacity:1"
         offset="1"
         id="stop4609" />
    </linearGradient>
    <linearGradient
       id="linearGradient4591"
       inkscape:collect="always">
      <stop
         id="stop4593"
         offset="0"
         style="stop-color:#ffffff;stop-opacity:1" />
      <stop
         id="stop4595"
         offset="1"
         style="stop-color:#ffffff;stop-opacity:0;" />
    </linearGradient>
    <mask
       maskUnits="userSpaceOnUse"
       x="122.963"
       y="97.149"
       width="576.609"
       height="587.491"
       id="XMLID_23_">
      <g
         id="g31"
         style="filter:url(#Adobe_OpacityMaskFilter)">
        <radialGradient
           id="XMLID_24_"
           cx="88.977501"
           cy="-20.899401"
           r="673.11609"
           fx="88.977501"
           fy="-20.899401"
           gradientUnits="userSpaceOnUse">
          <stop
             offset="0.309"
             style="stop-color:#FFFFFF"
             id="stop34" />
          <stop
             offset="1"
             style="stop-color:#000000"
             id="stop3816" />
        </radialGradient>
        <ellipse
           sodipodi:ry="349.10599"
           sodipodi:rx="512.93402"
           sodipodi:cy="286.172"
           sodipodi:cx="295.89499"
           cx="295.89499"
           cy="286.172"
           rx="512.93402"
           ry="349.10599"
           id="ellipse38"
           style="fill:url(#XMLID_24_)" />
      </g>
    </mask>
    <linearGradient
       inkscape:collect="always"
       xlink:href="#linearGradient4591"
       id="linearGradient3196"
       x1="99.881126"
       y1="68.792747"
       x2="171.01328"
       y2="46.998337"
       gradientUnits="userSpaceOnUse"
       gradientTransform="matrix(0.8301257,0,0,0.9649488,-179.55402,176.05704)" />
    <linearGradient
       inkscape:collect="always"
       xlink:href="#linearGradient4591"
       id="linearGradient4599"
       gradientUnits="userSpaceOnUse"
       gradientTransform="matrix(0.9457809,0,0,1.1075807,6.5485589,0.4212711)"
       x1="104.92213"
       y1="71.555038"
       x2="161.92285"
       y2="35.137646" />
    <linearGradient
       inkscape:collect="always"
       xlink:href="#linearGradient4605"
       id="linearGradient4611"
       x1="168.56552"
       y1="-13.762122"
       x2="206.93968"
       y2="23.825462"
       gradientUnits="userSpaceOnUse" />
    <linearGradient
       inkscape:collect="always"
       xlink:href="#linearGradient4613"
       id="linearGradient4619"
       x1="168.56552"
       y1="-13.762122"
       x2="351.36194"
       y2="165.28738"
       gradientUnits="userSpaceOnUse" />
  </defs>
  <sodipodi:namedview
     id="base"
     pagecolor="#ffffff"
     bordercolor="#666666"
     borderopacity="1.0"
     gridtolerance="10000"
     guidetolerance="10"
     objecttolerance="10"
     inkscape:pageopacity="0.0"
     inkscape:pageshadow="2"
     inkscape:zoom="1.2871553"
     inkscape:cx="128"
     inkscape:cy="97.383295"
     inkscape:document-units="px"
     inkscape:current-layer="layer1"
     showgrid="false"
     showguides="true"
     inkscape:guide-bbox="true"
     inkscape:window-width="773"
     inkscape:window-height="676"
     inkscape:window-x="304"
     inkscape:window-y="113" />
  <metadata
     id="metadata7">
    <rdf:RDF>
      <cc:Work
         rdf:about="">
        <dc:format>image/svg+xml</dc:format>
        <dc:type
           rdf:resource="http://purl.org/dc/dcmitype/StillImage" />
      </cc:Work>
    </rdf:RDF>
  </metadata>
  <g
     inkscape:label="Layer 1"
     inkscape:groupmode="layer"
     id="layer1">
    <rect
       style="opacity:1;fill:url(#linearGradient4619);fill-opacity:1;stroke:url(#linearGradient4611);stroke-width:2;stroke-miterlimit:4;stroke-dasharray:none;stroke-opacity:1"
       id="rect2383"
       width="209.543"
       height="209.543"
       x="75.938042"
       y="-106.63853"
       ry="61.030819"
       transform="matrix(0.6997472,0.7143906,-0.7143906,0.6997472,0,0)" />
    <rect
       style="opacity:0.26851852;fill:url(#linearGradient4599);fill-opacity:1;stroke:none;stroke-width:2;stroke-miterlimit:4;stroke-dasharray:none;stroke-opacity:1"
       id="rect4597"
       width="198.18179"
       height="232.08572"
       x="78.369324"
       y="-117.6895"
       ry="67.596573"
       transform="matrix(0.7600468,0.6498684,-0.7370851,0.6758,0,0)" />
    <rect
       transform="matrix(-0.796691,0.6043868,0.6617245,0.7497471,0,0)"
       ry="58.891621"
       y="73.156349"
       x="-116.51585"
       height="202.19823"
       width="173.94705"
       id="rect3188"
       style="opacity:0.27777778;fill:url(#linearGradient3196);fill-opacity:1;stroke:none;stroke-width:2;stroke-miterlimit:4;stroke-dasharray:none;stroke-opacity:1" />
    <path
       sodipodi:nodetypes="ccc"
       id="path2276"
       d="M 108.10388,41.662742 L 108.10388,37.156303 L 108.10388,41.662742 z"
       style="fill:#ffffff;fill-opacity:0.75688076;fill-rule:nonzero;stroke:none;stroke-width:0.5;stroke-linecap:round;stroke-linejoin:round;stroke-miterlimit:4;stroke-dasharray:none;stroke-dashoffset:4;stroke-opacity:1" />
    <g
       id="g55151"
       transform="matrix(0.8351208,-0.2545524,0.2545524,0.8351208,-11.88299,50.776389)">
      <path
         d="M 129.15693,30.282283 C 126.07951,30.480322 123.87523,31.185486 122.96169,32.500568 C 109.94389,66.248097 93.662452,111.67272 104.1493,138.017 C 114.48988,163.99384 111.84078,173.51445 105.35813,188.81573 C 94.707559,213.95476 82.330318,197.51846 63.955771,203.0867 C 45.22116,208.76405 152.23604,246.17366 138.6009,228.9667 C 124.51606,211.19223 106.44214,214.59309 112.91331,190.07276 C 119.8285,163.86999 122.52073,168.04725 147.36491,148.96054 C 172.78622,129.43044 177.35877,86.111581 188.76727,53.796106 C 187.80037,42.826169 145.77504,29.212869 129.15693,30.282283 z M 130.51687,34.718853 C 145.01769,34.031053 186.38884,48.415066 184.08306,56.088334 C 173.1366,87.09503 166.25392,131.10854 141.09411,148.73871 C 129.44837,156.89921 112.78007,148.86788 107.47358,138.017 C 97.411444,112.73966 113.19097,69.170008 125.68155,36.789253 C 126.07519,35.491289 127.83153,34.846223 130.51687,34.718853 z"
         style="fill:#0a0000;fill-opacity:1;fill-rule:evenodd;stroke:none;stroke-width:1px;stroke-linecap:butt;stroke-linejoin:miter;stroke-opacity:1;filter:url(#filter17327)"
         id="path17048" />
      <path
         d="M 108.73193,137.64711 C 114.03842,148.49799 130.171,155.85442 142.28841,148.38063 C 161.6125,136.46191 170.88135,106.13231 179.49352,76.267903 C 175.02418,70.578492 165.29354,65.414878 145.25133,76.807222 C 124.33023,88.699143 121.16835,76.248933 114.073,71.835246 C 103.91671,101.93142 102.17123,122.65038 108.73193,137.64711 z"
         style="fill:url(#linearGradient22115);fill-opacity:1;fill-rule:evenodd;stroke:none;stroke-width:1px;stroke-linecap:butt;stroke-linejoin:miter;stroke-opacity:1;filter:url(#filter17361)"
         id="path17341" />
      <path
         d="M 108.39337,138.50182 C 113.69986,149.35269 129.83244,156.70912 141.94985,149.23534 C 161.27394,137.31661 170.54278,106.98702 179.15495,77.122611 C 174.68562,71.433201 164.95498,66.269586 144.91277,77.66193 C 123.99167,89.553851 120.82978,77.103642 113.73444,72.689954 C 103.57815,102.78613 101.83267,123.50509 108.39337,138.50182 z"
         style="fill:url(#linearGradient22112);fill-opacity:1;fill-rule:evenodd;stroke:none;stroke-width:1px;stroke-linecap:butt;stroke-linejoin:miter;stroke-opacity:1"
         id="path14897" />
      <path
         transform="matrix(2.4176561,0,0,2.3661709,58.138286,29.616797)"
         d="M 20.685356,45.897556 C 22.880244,50.483392 29.553063,53.592394 34.565113,50.433794 C 42.558013,45.396659 46.391829,32.578651 49.954027,19.957244 C 48.105404,17.552764 44.08058,15.370498 35.790647,20.185173 C 27.137181,25.210981 25.829351,19.949227 22.894548,18.083898 C 18.693665,30.803256 17.971694,39.559581 20.685356,45.897556 z"
         style="fill:url(#linearGradient22156);fill-opacity:1;fill-rule:evenodd;stroke:url(#linearGradient22176);stroke-width:0.83619905;stroke-linecap:butt;stroke-linejoin:miter;stroke-miterlimit:4;stroke-dasharray:none;stroke-opacity:1"
         id="path22953" />
      <path
         transform="matrix(2.4176561,0,0,2.3661709,58.138286,29.616797)"
         d="M 29.37158,0.28649562 C 28.098683,0.37019162 27.18694,0.66821162 26.80908,1.2239956 C 21.42461,15.486503 14.690219,34.684028 19.02783,45.817746 C 23.30494,56.796173 22.209207,60.819812 19.52783,67.286496 C 15.1225,77.910846 10.002979,70.964477 2.40283,73.317746 C -5.3462499,75.717128 38.917647,91.527319 33.27783,84.255246 C 27.452006,76.743337 19.9762,78.18062 22.65283,67.817746 C 25.513117,56.743833 26.626687,58.509242 36.90283,50.442746 C 47.41769,42.188863 49.309003,23.881283 54.02783,10.223996 C 53.627897,5.5878406 36.245225,-0.16546338 29.37158,0.28649562 z M 29.93408,2.1614956 C 35.931965,1.8708156 53.044054,7.9498406 52.09033,11.192746 C 47.562616,24.296912 44.715773,42.898067 34.30908,50.348996 C 29.492124,53.797814 22.597718,50.403583 20.40283,45.817746 C 16.240891,35.134943 22.76768,16.721372 27.93408,3.0364956 C 28.096896,2.4879456 28.823361,2.2153256 29.93408,2.1614956 z"
         style="fill:#000000;fill-opacity:1;fill-rule:evenodd;stroke:#fefdfb;stroke-width:0.62714928;stroke-linecap:butt;stroke-linejoin:miter;stroke-miterlimit:4;stroke-dasharray:none;stroke-opacity:1;filter:url(#filter22130)"
         id="path20995" />
    </g>
  </g>
</svg>
