<?xml version="1.0" encoding="UTF-8" standalone="no"?>
<!-- Generator: Adobe Illustrator 12.0.0, SVG Export Plug-In . SVG Version: 6.00 Build 51448)  -->

<svg
   xmlns:dc="http://purl.org/dc/elements/1.1/"
   xmlns:cc="http://creativecommons.org/ns#"
   xmlns:rdf="http://www.w3.org/1999/02/22-rdf-syntax-ns#"
   xmlns:svg="http://www.w3.org/2000/svg"
   xmlns="http://www.w3.org/2000/svg"
   xmlns:xlink="http://www.w3.org/1999/xlink"
   xmlns:sodipodi="http://sodipodi.sourceforge.net/DTD/sodipodi-0.dtd"
   xmlns:inkscape="http://www.inkscape.org/namespaces/inkscape"
   height="135.788"
   id="Layer_1"
   inkscape:version="0.47pre0 r21549"
   sodipodi:docname="cairo-dock-ok.svg"
   sodipodi:version="0.32"
   space="preserve"
   style="overflow:visible;enable-background:new 0 0 135.828 135.788;"
   version="1.1"
   viewBox="0 0 135.828 135.788"
   width="135.828"
   inkscape:output_extension="org.inkscape.output.svg.inkscape">
  <metadata
     id="metadata3">
    <rdf:RDF>
      <cc:Work
         rdf:about="">
        <dc:title>Tasto 7</dc:title>
        <dc:description />
        <dc:subject>
          <rdf:Bag>
            <rdf:li>unsorted</rdf:li>
          </rdf:Bag>
        </dc:subject>
        <dc:publisher>
          <cc:Agent
             rdf:about="http://www.openclipart.org/">
            <dc:title>Open Clip Art Library</dc:title>
          </cc:Agent>
        </dc:publisher>
        <dc:creator>
          <cc:Agent>
            <dc:title>Architetto Francesco Rollandin</dc:title>
          </cc:Agent>
        </dc:creator>
        <dc:rights>
          <cc:Agent>
            <dc:title>Architetto Francesco Rollandin</dc:title>
          </cc:Agent>
        </dc:rights>
        <dc:date />
        <dc:format>image/svg+xml</dc:format>
        <dc:type
           rdf:resource="http://purl.org/dc/dcmitype/StillImage" />
        <cc:license
           rdf:resource="http://web.resource.org/cc/PublicDomain" />
        <dc:language>en</dc:language>
      </cc:Work>
      <cc:License
         rdf:about="http://web.resource.org/cc/PublicDomain">
        <cc:permits
           rdf:resource="http://web.resource.org/cc/Reproduction" />
        <cc:permits
           rdf:resource="http://web.resource.org/cc/Distribution" />
        <cc:permits
           rdf:resource="http://web.resource.org/cc/DerivativeWorks" />
      </cc:License>
    </rdf:RDF>
  </metadata>
  <defs
     id="defs23">
    <linearGradient
       inkscape:collect="always"
       id="linearGradient3454">
      <stop
         style="stop-color:#000000;stop-opacity:1;"
         offset="0"
         id="stop3456" />
      <stop
         style="stop-color:#000000;stop-opacity:0;"
         offset="1"
         id="stop3458" />
    </linearGradient>
    <linearGradient
       inkscape:collect="always"
       id="linearGradient3213">
      <stop
         style="stop-color:#f1f1f1;stop-opacity:1;"
         offset="0"
         id="stop3215" />
      <stop
         style="stop-color:#f1f1f1;stop-opacity:0;"
         offset="1"
         id="stop3217" />
    </linearGradient>
    <linearGradient
       inkscape:collect="always"
       id="linearGradient3203">
      <stop
         style="stop-color:#ffffff;stop-opacity:1;"
         offset="0"
         id="stop3205" />
      <stop
         style="stop-color:#ffffff;stop-opacity:0;"
         offset="1"
         id="stop3207" />
    </linearGradient>
    <radialGradient
       inkscape:collect="always"
       xlink:href="#linearGradient3213"
       id="radialGradient2421"
       gradientUnits="userSpaceOnUse"
       gradientTransform="matrix(0.8828926,0,0,0.831456,46.016429,75.450348)"
       cx="392.94211"
       cy="408.68912"
       fx="392.94211"
       fy="408.68912"
       r="340.3389" />
    <linearGradient
       inkscape:collect="always"
       xlink:href="#linearGradient3203"
       id="linearGradient2423"
       gradientUnits="userSpaceOnUse"
       x1="392.94211"
       y1="132.28055"
       x2="392.94211"
       y2="675.65747" />
    <linearGradient
       inkscape:collect="always"
       xlink:href="#linearGradient3454"
       id="linearGradient2425"
       gradientUnits="userSpaceOnUse"
       x1="392.94211"
       y1="264.00168"
       x2="372.07959"
       y2="1331.5603" />
    <linearGradient
       inkscape:collect="always"
       xlink:href="#linearGradient3203"
       id="linearGradient2429"
       gradientUnits="userSpaceOnUse"
       x1="392.94211"
       y1="221.97482"
       x2="392.94211"
       y2="921.23096" />
  </defs>
  <sodipodi:namedview
     bordercolor="#666666"
     borderopacity="1.0"
     id="base"
     inkscape:current-layer="Layer_1"
     inkscape:cx="67.914001"
     inkscape:cy="54.327724"
     inkscape:pageopacity="0.0"
     inkscape:pageshadow="2"
     inkscape:window-height="676"
     inkscape:window-width="787"
     inkscape:window-x="293"
     inkscape:window-y="105"
     inkscape:zoom="2.6511917"
     pagecolor="#ffffff"
     showgrid="false" />
  <path
     transform="matrix(0.1960871,0,0,0.1935298,-6.1263979,-41.651537)"
     d="M 729.427,562.31372 A 336.48489,336.48489 0 1 1 56.457214,562.31372 A 336.48489,336.48489 0 1 1 729.427,562.31372 z"
     sodipodi:ry="336.48489"
     sodipodi:rx="336.48489"
     sodipodi:cy="562.31372"
     sodipodi:cx="392.94211"
     id="path3201"
     style="fill:#000000;fill-opacity:1;stroke:url(#linearGradient2429);stroke-width:7.70800017999999998;stroke-miterlimit:4;stroke-dasharray:none;stroke-opacity:1"
     sodipodi:type="arc" />
  <g
     id="g3517"
     transform="matrix(0.5359099,0,0,0.5289208,14.131685,-6.7957224)">
    <path
       sodipodi:open="true"
       sodipodi:end="6.2808738"
       sodipodi:start="0"
       transform="matrix(0.3658957,0,0,0.3658957,-37.145923,-65.312782)"
       d="M 687.10828,562.31372 A 294.16617,332.58691 0 1 1 687.10749,561.54494"
       sodipodi:ry="332.58691"
       sodipodi:rx="294.16617"
       sodipodi:cy="562.31372"
       sodipodi:cx="392.94211"
       id="path3211"
       style="opacity:0.52314818;fill:url(#radialGradient2421);fill-opacity:1;stroke:url(#linearGradient2423);stroke-width:7.70800018;stroke-miterlimit:4;stroke-dasharray:none;stroke-opacity:1"
       sodipodi:type="arc" />
    <path
       sodipodi:type="arc"
       style="fill:none;fill-opacity:1;stroke:url(#linearGradient2425);stroke-width:20.74902153;stroke-miterlimit:4;stroke-dasharray:none;stroke-opacity:1"
       id="path2682"
       sodipodi:cx="392.94211"
       sodipodi:cy="562.31372"
       sodipodi:rx="336.48489"
       sodipodi:ry="336.48489"
       d="M 729.427,562.31372 A 336.48489,336.48489 0 1 1 729.4261,561.53593"
       transform="matrix(0.3373653,0,0,0.3373653,-25.445251,-52.303481)"
       sodipodi:start="0"
       sodipodi:end="6.2808738"
       sodipodi:open="true" />
  </g>
  <path
     style="fill:#739b07"
     id="path18"
     d="M 93.214218,37.928062 C 83.611512,50.614718 74.004853,63.297101 64.407851,75.986641 C 57.237411,70.529752 50.069898,65.072245 42.900433,59.615151 C 40.049763,57.445866 37.262808,54.774627 33.485383,54.568088 C 27.354179,54.232365 20.95676,61.166843 20.951327,67.238384 C 20.944868,75.429671 33.878067,81.990962 39.455823,86.236072 C 45.842736,91.097139 52.095951,96.233764 58.457028,101.07372 C 67.175771,107.70577 72.774119,103.4582 78.257343,96.213039 C 84.417716,88.072662 90.579271,79.933058 96.738874,71.793866 C 101.58316,65.392926 106.42708,58.995128 111.26961,52.595578 C 119.61835,41.565739 101.50118,26.9777 93.214218,37.928062 M 65.289906,77.783901 C 70.33142,71.123617 75.371189,64.464723 80.412704,57.804438 C 85.15105,51.544424 89.842083,42.396151 96.117821,37.506757 C 101.50431,33.31314 110.97933,38.543749 111.85421,44.958684 C 112.38398,48.838505 109.83781,51.528654 107.70828,54.339258 C 101.1994,62.940582 94.690309,71.540928 88.180242,80.14148 C 83.226743,86.687107 78.271085,93.232168 73.318353,99.776612 C 67.0389,108.07295 58.958279,98.831941 53.460549,94.647592 C 44.917988,88.145916 36.376609,81.645013 27.833278,75.144522 C 24.269246,72.432041 21.296741,68.790314 23.425616,63.982953 C 25.846271,58.522239 32.219299,53.73697 37.863676,58.032389 C 41.332118,60.67309 63.578086,79.517009 65.289906,77.783901" />
  <path
     style="fill:#ffffff;stroke:#000000;stroke-width:1.39805472;stroke-miterlimit:4;stroke-dasharray:none;stroke-opacity:1"
     id="path20"
     d="M 109.14847,38.96756 C 97.244186,29.022457 90.450181,42.937397 83.975447,51.500707 C 77.470643,60.105134 70.964862,68.709767 64.457899,77.313629 C 58.336647,72.658465 52.216577,68.004072 46.095531,63.349887 C 38.464828,57.547721 31.491673,51.397812 23.868149,61.485027 C 17.267536,70.220125 27.144236,75.923808 33.1044,80.457732 C 40.580694,86.141332 48.056423,91.827095 55.53467,97.510282 C 61.324649,101.91365 68.033935,108.17054 74.248487,99.949522 C 78.797583,93.9352 83.346266,87.918918 87.89341,81.905006 C 93.732679,74.181482 99.571383,66.460123 105.41261,58.736186 C 109.56245,53.245891 117.27904,45.149349 109.14847,38.96756" />
</svg>
