<?xml version="1.0" encoding="UTF-8" standalone="no"?>
<!-- Generator: Adobe Illustrator 12.0.0, SVG Export Plug-In . SVG Version: 6.00 Build 51448)  -->

<svg
   xmlns:dc="http://purl.org/dc/elements/1.1/"
   xmlns:cc="http://creativecommons.org/ns#"
   xmlns:rdf="http://www.w3.org/1999/02/22-rdf-syntax-ns#"
   xmlns:svg="http://www.w3.org/2000/svg"
   xmlns="http://www.w3.org/2000/svg"
   xmlns:xlink="http://www.w3.org/1999/xlink"
   xmlns:sodipodi="http://sodipodi.sourceforge.net/DTD/sodipodi-0.dtd"
   xmlns:inkscape="http://www.inkscape.org/namespaces/inkscape"
   height="135.772"
   id="Layer_1"
   inkscape:version="0.47pre0 r21549"
   sodipodi:docname="cairo-dock-cancel.svg"
   sodipodi:version="0.32"
   space="preserve"
   style="overflow:visible;enable-background:new 0 0 135.81 135.772;"
   version="1.1"
   viewBox="0 0 135.81 135.772"
   width="135.81"
   inkscape:output_extension="org.inkscape.output.svg.inkscape">
  <metadata
     id="metadata3">
    <rdf:RDF>
      <cc:Work
         rdf:about="">
        <dc:title>Tasto 11</dc:title>
        <dc:description />
        <dc:subject>
          <rdf:Bag>
            <rdf:li>unsorted</rdf:li>
          </rdf:Bag>
        </dc:subject>
        <dc:publisher>
          <cc:Agent
             rdf:about="http://www.openclipart.org/">
            <dc:title>Open Clip Art Library</dc:title>
          </cc:Agent>
        </dc:publisher>
        <dc:creator>
          <cc:Agent>
            <dc:title>Architetto Francesco Rollandin</dc:title>
          </cc:Agent>
        </dc:creator>
        <dc:rights>
          <cc:Agent>
            <dc:title>Architetto Francesco Rollandin</dc:title>
          </cc:Agent>
        </dc:rights>
        <dc:date />
        <dc:format>image/svg+xml</dc:format>
        <dc:type
           rdf:resource="http://purl.org/dc/dcmitype/StillImage" />
        <cc:license
           rdf:resource="http://web.resource.org/cc/PublicDomain" />
        <dc:language>en</dc:language>
      </cc:Work>
      <cc:License
         rdf:about="http://web.resource.org/cc/PublicDomain">
        <cc:permits
           rdf:resource="http://web.resource.org/cc/Reproduction" />
        <cc:permits
           rdf:resource="http://web.resource.org/cc/Distribution" />
        <cc:permits
           rdf:resource="http://web.resource.org/cc/DerivativeWorks" />
      </cc:License>
    </rdf:RDF>
  </metadata>
  <defs
     id="defs23">
    <linearGradient
       inkscape:collect="always"
       id="linearGradient3454">
      <stop
         style="stop-color:#000000;stop-opacity:1;"
         offset="0"
         id="stop3456" />
      <stop
         style="stop-color:#000000;stop-opacity:0;"
         offset="1"
         id="stop3458" />
    </linearGradient>
    <linearGradient
       inkscape:collect="always"
       id="linearGradient3213">
      <stop
         style="stop-color:#f1f1f1;stop-opacity:1;"
         offset="0"
         id="stop3215" />
      <stop
         style="stop-color:#f1f1f1;stop-opacity:0;"
         offset="1"
         id="stop3217" />
    </linearGradient>
    <linearGradient
       inkscape:collect="always"
       id="linearGradient3203">
      <stop
         style="stop-color:#ffffff;stop-opacity:1;"
         offset="0"
         id="stop3205" />
      <stop
         style="stop-color:#ffffff;stop-opacity:0;"
         offset="1"
         id="stop3207" />
    </linearGradient>
    <linearGradient
       inkscape:collect="always"
       xlink:href="#linearGradient3203"
       id="linearGradient3535"
       gradientUnits="userSpaceOnUse"
       x1="392.94211"
       y1="221.97482"
       x2="392.94211"
       y2="921.23096" />
    <radialGradient
       inkscape:collect="always"
       xlink:href="#linearGradient3213"
       id="radialGradient2418"
       gradientUnits="userSpaceOnUse"
       gradientTransform="matrix(0.8828926,0,0,0.831456,46.016429,75.450347)"
       cx="392.94211"
       cy="408.68912"
       fx="392.94211"
       fy="408.68912"
       r="340.3389" />
    <linearGradient
       inkscape:collect="always"
       xlink:href="#linearGradient3203"
       id="linearGradient2420"
       gradientUnits="userSpaceOnUse"
       x1="392.94211"
       y1="132.28055"
       x2="392.94211"
       y2="921.23096" />
    <linearGradient
       inkscape:collect="always"
       xlink:href="#linearGradient3454"
       id="linearGradient2422"
       gradientUnits="userSpaceOnUse"
       x1="392.94211"
       y1="264.00168"
       x2="392.94211"
       y2="581.15448" />
  </defs>
  <sodipodi:namedview
     bordercolor="#666666"
     borderopacity="1.0"
     id="base"
     inkscape:current-layer="Layer_1"
     inkscape:cx="67.904999"
     inkscape:cy="67.886002"
     inkscape:pageopacity="0.0"
     inkscape:pageshadow="2"
     inkscape:window-height="676"
     inkscape:window-width="787"
     inkscape:window-x="88"
     inkscape:window-y="116"
     inkscape:zoom="2.6515039"
     pagecolor="#ffffff"
     showgrid="false" />
  <path
     transform="matrix(0.1960709,0,0,0.1962466,-8.7683854,-43.011412)"
     d="M 729.427,562.31372 A 336.48489,336.48489 0 1 1 56.457214,562.31372 A 336.48489,336.48489 0 1 1 729.427,562.31372 z"
     sodipodi:ry="336.48489"
     sodipodi:rx="336.48489"
     sodipodi:cy="562.31372"
     sodipodi:cx="392.94211"
     id="path3201"
     style="fill:#000000;fill-opacity:1;stroke:url(#linearGradient3535);stroke-width:7.70800017999999998;stroke-miterlimit:4;stroke-dasharray:none;stroke-opacity:1"
     sodipodi:type="arc" />
  <g
     id="g3517"
     transform="matrix(0.5358656,0,0,0.5363457,11.865141,-5.7592182)">
    <path
       sodipodi:open="true"
       sodipodi:end="6.2808738"
       sodipodi:start="0"
       transform="matrix(0.3658957,0,0,0.3658957,-37.145923,-65.312782)"
       d="M 729.427,562.31372 A 336.48489,336.48489 0 1 1 729.4261,561.53593"
       sodipodi:ry="336.48489"
       sodipodi:rx="336.48489"
       sodipodi:cy="562.31372"
       sodipodi:cx="392.94211"
       id="path3211"
       style="opacity:0.52314818;fill:url(#radialGradient2418);fill-opacity:1;stroke:url(#linearGradient2420);stroke-width:7.70800018;stroke-miterlimit:4;stroke-dasharray:none;stroke-opacity:1"
       sodipodi:type="arc" />
    <path
       sodipodi:type="arc"
       style="fill:none;fill-opacity:1;stroke:url(#linearGradient2422);stroke-width:20.74902153;stroke-miterlimit:4;stroke-dasharray:none;stroke-opacity:1"
       id="path2682"
       sodipodi:cx="392.94211"
       sodipodi:cy="562.31372"
       sodipodi:rx="336.48489"
       sodipodi:ry="336.48489"
       d="M 729.427,562.31372 A 336.48489,336.48489 0 1 1 729.4261,561.53593"
       transform="matrix(0.3373653,0,0,0.3373653,-25.445251,-52.303481)"
       sodipodi:start="0"
       sodipodi:end="6.2808738"
       sodipodi:open="true" />
  </g>
  <path
     d="M 104.27767,85.473 C 98.717133,79.851 93.156593,74.228 87.597042,68.603 C 86.110738,67.1 99.783158,54.882 101.75699,52.886 C 109.33981,45.215 102.14265,40.51 96.154914,34.455 C 93.336571,31.607 89.398803,27.051 85.326546,31.169 C 82.322292,33.08 79.660195,36.9 77.161265,39.426 C 74.197556,42.423 71.233846,45.42 68.270137,48.419 C 67.561101,49.136 63.504666,44.237 62.821342,43.545 C 58.772818,39.451 49.038165,25.07 42.567845,31.61 C 38.669633,35.55 25.786348,44.428 31.943189,50.655 C 37.628329,56.404 43.314458,62.154 49.001576,67.905 C 44.456629,72.499 25.033801,86.474 32.062845,93.58 C 35.704935,97.261 39.731703,103.295 44.392351,105.655 C 49.698745,108.339 55.640997,99.521 58.747107,96.381 C 60.184956,94.927 67.119067,86.226 68.643938,87.769 C 73.362931,92.541 78.08489,97.316 82.805861,102.09 C 87.279608,106.613 90.683374,106.885 95.275789,102.24 C 98.625166,98.853 109.77393,91.022 104.27767,85.473"
     id="path2400"
     style="fill:#ffffff;stroke:#000000;stroke-width:2.18774724;stroke-miterlimit:4;stroke-dasharray:none;stroke-opacity:1" />
  <path
     d="M 46.788436,28.939 C 42.405667,28.939 38.132664,35.183 35.374645,37.971 C 31.852211,41.533 26.459783,46.019 31.523899,51.139 C 35.009743,54.664 38.495588,58.191 41.98341,61.718 C 44.540685,64.303 49.381311,66.608 46.436391,69.583 C 41.803432,74.271 24.330699,86.665 31.613888,94.034 C 34.946454,97.403 38.278032,100.772 41.609609,104.142 C 46.189168,108.773 50.076502,106.052 53.754191,102.334 C 57.689981,98.355 61.625772,94.376 65.559584,90.397 C 69.107729,86.811 69.66843,89.713 73.050441,93.133 C 76.741975,96.864 80.434497,100.596 84.124054,104.329 C 88.939958,109.2 92.937059,105.512 96.605848,101.803 C 99.438035,98.942 104.44183,95.505 106.03098,91.626 C 108.19863,86.334 101.3288,81.576 98.187087,78.398 C 94.788265,74.965 91.395376,71.534 87.998532,68.099 C 87.592098,67.688 96.28347,59.326 97.123039,58.477 C 100.69195,54.868 110.39595,47.951 104.72762,42.21 C 102.0141,38.128 97.238739,34.638 93.788495,31.151 C 86.266983,23.548 72.775529,42.932 67.950725,47.822 C 64.489603,44.323 61.02947,40.826 57.568348,37.327 C 54.904273,34.632 51.009027,28.986 46.788436,28.939 M 43.450926,104.182 C 38.8684,99.549 26.541861,91.528 33.212927,84.78 C 35.382556,82.585 50.641159,68.653 49.240888,67.24 C 45.810422,63.769 42.377978,60.3 38.947511,56.829 C 36.60186,54.456 30.697185,50.344 30.697185,46.502 C 30.697185,42.555 36.828316,38.321 39.254068,35.869 C 42.190088,32.902 46.101156,27.557 50.42657,31.929 C 52.11362,33.635 67.875569,49.728 68.030825,49.571 C 73.580487,43.959 79.21816,35.932 85.775503,31.627 C 90.092017,27.268 94.897043,34.096 97.642207,36.87 C 100.45857,39.72 108.34499,45.306 103.82674,49.881 C 99.568569,56.515 91.629744,62.215 86.079093,67.829 C 86.05536,67.854 86.02866,67.88 86.002948,67.906 C 91.580299,73.546 99.544835,79.267 103.82674,85.929 C 108.3529,90.497 100.45659,96.092 97.642207,98.94 C 94.584553,102.032 90.083117,108.54 85.475869,103.878 C 83.15395,101.53 68.685472,85.418 67.295089,86.824 C 63.680689,90.479 49.191444,110.009 43.450926,104.182"
     id="path2402"
     style="fill:#970f00" />
</svg>
