<?xml version="1.0" encoding="UTF-8" standalone="no"?>
<!-- Created with Inkscape (http://www.inkscape.org/) -->

<svg
   xmlns:dc="http://purl.org/dc/elements/1.1/"
   xmlns:cc="http://creativecommons.org/ns#"
   xmlns:rdf="http://www.w3.org/1999/02/22-rdf-syntax-ns#"
   xmlns:svg="http://www.w3.org/2000/svg"
   xmlns="http://www.w3.org/2000/svg"
   xmlns:xlink="http://www.w3.org/1999/xlink"
   xmlns:sodipodi="http://sodipodi.sourceforge.net/DTD/sodipodi-0.dtd"
   xmlns:inkscape="http://www.inkscape.org/namespaces/inkscape"
   id="svg2"
   sodipodi:version="0.32"
   inkscape:version="0.47pre0 r21549"
   width="270"
   height="256"
   version="1.0"
   sodipodi:docname="task-indicator.svg"
   inkscape:output_extension="org.inkscape.output.svg.inkscape">
  <metadata
     id="metadata7">
    <rdf:RDF>
      <cc:Work
         rdf:about="">
        <dc:format>image/svg+xml</dc:format>
        <dc:type
           rdf:resource="http://purl.org/dc/dcmitype/StillImage" />
      </cc:Work>
    </rdf:RDF>
  </metadata>
  <defs
     id="defs5">
    <linearGradient
       inkscape:collect="always"
       id="linearGradient3181">
      <stop
         style="stop-color:#00f2f8;stop-opacity:1;"
         offset="0"
         id="stop3183" />
      <stop
         style="stop-color:#00f2f8;stop-opacity:0;"
         offset="1"
         id="stop3185" />
    </linearGradient>
    <radialGradient
       inkscape:collect="always"
       xlink:href="#linearGradient3181"
       id="radialGradient2404"
       gradientUnits="userSpaceOnUse"
       gradientTransform="matrix(1.1040802,0,0,0.3262718,-7.4521037,110.78001)"
       cx="256.423"
       cy="198.4164"
       fx="256.423"
       fy="198.4164"
       r="121.76441" />
    <radialGradient
       inkscape:collect="always"
       xlink:href="#linearGradient3181"
       id="radialGradient2408"
       gradientUnits="userSpaceOnUse"
       gradientTransform="matrix(1.1040802,0,0,0.3262718,-7.4521037,110.78001)"
       cx="12.251387"
       cy="206.99348"
       fx="12.251387"
       fy="206.99348"
       r="121.76441" />
    <radialGradient
       inkscape:collect="always"
       xlink:href="#linearGradient3181"
       id="radialGradient2411"
       gradientUnits="userSpaceOnUse"
       gradientTransform="matrix(1.1040802,0,0,0.3262718,-7.4521037,110.78001)"
       cx="128.423"
       cy="315.63651"
       fx="128.423"
       fy="315.63651"
       r="121.76441" />
    <radialGradient
       inkscape:collect="always"
       xlink:href="#linearGradient3181"
       id="radialGradient2416"
       gradientUnits="userSpaceOnUse"
       gradientTransform="matrix(1.1040802,0,0,0.3262718,-7.4521037,110.78001)"
       cx="125.94987"
       cy="85.22905"
       fx="125.94987"
       fy="85.22905"
       r="121.76441" />
  </defs>
  <sodipodi:namedview
     inkscape:window-height="816"
     inkscape:window-width="1152"
     inkscape:pageshadow="2"
     inkscape:pageopacity="0.0"
     guidetolerance="10.0"
     gridtolerance="10.0"
     objecttolerance="10.0"
     borderopacity="1.0"
     bordercolor="#666666"
     pagecolor="#ffffff"
     id="base"
     showgrid="false"
     showborder="true"
     inkscape:zoom="2.3671875"
     inkscape:cx="128"
     inkscape:cy="128"
     inkscape:window-x="92"
     inkscape:window-y="60"
     inkscape:current-layer="svg2" />
  <path
     style="fill:#000000;fill-opacity:1;stroke:#ffffff;stroke-width:0.20434727;stroke-miterlimit:4;stroke-dasharray:none;stroke-opacity:1"
     d="M 134.31994,138.69002 C 60.168605,138.69002 0.0016904498,156.45267 0.001690229,178.3334 C 0.001690229,200.21412 60.168602,217.94227 134.31994,217.94227 C 208.47128,217.94227 268.67271,200.21411 268.6727,178.3334 C 268.6727,156.45267 208.47128,138.69002 134.31994,138.69002 z M 133.14686,146.10806 C 191.19849,146.10804 238.3105,160.03032 238.3105,177.16031 C 238.31051,194.2903 191.19849,208.17806 133.14686,208.17806 C 75.095236,208.17806 27.983222,194.2903 27.983222,177.16031 C 27.983223,160.03033 75.095233,146.10806 133.14686,146.10806 z"
     id="path2390" />
  <path
     id="path2395"
     d="M 134.31994,138.69002 C 60.168605,138.69002 0.0016904498,156.45267 0.001690229,178.3334 C 0.001690229,200.21412 60.168602,217.94227 134.31994,217.94227 C 208.47128,217.94227 268.67271,200.21411 268.6727,178.3334 C 268.6727,156.45267 208.47128,138.69002 134.31994,138.69002 z M 133.14686,146.10806 C 191.19849,146.10804 238.3105,160.03032 238.3105,177.16031 C 238.31051,194.2903 191.19849,208.17806 133.14686,208.17806 C 75.095236,208.17806 27.983222,194.2903 27.983222,177.16031 C 27.983223,160.03033 75.095233,146.10806 133.14686,146.10806 z"
     style="fill:url(#radialGradient2411);fill-opacity:1;stroke:#ffffff;stroke-width:0.20434727;stroke-miterlimit:4;stroke-dasharray:none;stroke-opacity:1" />
  <path
     style="fill:url(#radialGradient2408);fill-opacity:1;stroke:#ffffff;stroke-width:0.20434727;stroke-miterlimit:4;stroke-dasharray:none;stroke-opacity:1"
     d="M 134.31994,138.69002 C 60.168605,138.69002 0.0016904498,156.45267 0.001690229,178.3334 C 0.001690229,200.21412 60.168602,217.94227 134.31994,217.94227 C 208.47128,217.94227 268.67271,200.21411 268.6727,178.3334 C 268.6727,156.45267 208.47128,138.69002 134.31994,138.69002 z M 133.14686,146.10806 C 191.19849,146.10804 238.3105,160.03032 238.3105,177.16031 C 238.31051,194.2903 191.19849,208.17806 133.14686,208.17806 C 75.095236,208.17806 27.983222,194.2903 27.983222,177.16031 C 27.983223,160.03033 75.095233,146.10806 133.14686,146.10806 z"
     id="path3191" />
  <path
     id="path3195"
     d="M 134.31994,138.69002 C 60.168605,138.69002 0.0016904498,156.45267 0.001690229,178.3334 C 0.001690229,200.21412 60.168602,217.94227 134.31994,217.94227 C 208.47128,217.94227 268.67271,200.21411 268.6727,178.3334 C 268.6727,156.45267 208.47128,138.69002 134.31994,138.69002 z M 133.14686,146.10806 C 191.19849,146.10804 238.3105,160.03032 238.3105,177.16031 C 238.31051,194.2903 191.19849,208.17806 133.14686,208.17806 C 75.095236,208.17806 27.983222,194.2903 27.983222,177.16031 C 27.983223,160.03033 75.095233,146.10806 133.14686,146.10806 z"
     style="fill:url(#radialGradient2404);fill-opacity:1;stroke:#ffffff;stroke-width:0.20434727;stroke-miterlimit:4;stroke-dasharray:none;stroke-opacity:1" />
  <g
     id="g2418">
    <path
       id="path2414"
       d="M 134.31994,138.69002 C 60.168605,138.69002 0.0016904498,156.45267 0.001690229,178.3334 C 0.001690229,200.21412 60.168602,217.94227 134.31994,217.94227 C 208.47128,217.94227 268.67271,200.21411 268.6727,178.3334 C 268.6727,156.45267 208.47128,138.69002 134.31994,138.69002 z M 133.14686,146.10806 C 191.19849,146.10804 238.3105,160.03032 238.3105,177.16031 C 238.31051,194.2903 191.19849,208.17806 133.14686,208.17806 C 75.095236,208.17806 27.983222,194.2903 27.983222,177.16031 C 27.983223,160.03033 75.095233,146.10806 133.14686,146.10806 z"
       style="fill:url(#radialGradient2416);fill-opacity:1;stroke:#ffffff;stroke-width:0.20434727000000000;stroke-miterlimit:4;stroke-dasharray:none;stroke-opacity:1" />
  </g>
</svg>
