<?xml version="1.0" encoding="UTF-8" standalone="no"?>
<!-- Created with Inkscape (http://www.inkscape.org/) -->
<svg
   xmlns:dc="http://purl.org/dc/elements/1.1/"
   xmlns:cc="http://creativecommons.org/ns#"
   xmlns:rdf="http://www.w3.org/1999/02/22-rdf-syntax-ns#"
   xmlns:svg="http://www.w3.org/2000/svg"
   xmlns="http://www.w3.org/2000/svg"
   xmlns:sodipodi="http://sodipodi.sourceforge.net/DTD/sodipodi-0.dtd"
   xmlns:inkscape="http://www.inkscape.org/namespaces/inkscape"
   width="500"
   height="500"
   id="svg2413"
   sodipodi:version="0.32"
   inkscape:version="0.46"
   version="1.0"
   sodipodi:docname="3D_cd_cover-reflet.svg"
   inkscape:output_extension="org.inkscape.output.svg.inkscape"
   style="display:inline">
  <defs
     id="defs2415">
    <inkscape:perspective
       sodipodi:type="inkscape:persp3d"
       inkscape:vp_x="0 : 212.5 : 1"
       inkscape:vp_y="0 : 1000 : 0"
       inkscape:vp_z="428.75 : 212.5 : 1"
       inkscape:persp3d-origin="214.375 : 141.66667 : 1"
       id="perspective2422" />
    <inkscape:perspective
       id="perspective2525"
       inkscape:persp3d-origin="372.04724 : 350.78739 : 1"
       inkscape:vp_z="744.09448 : 526.18109 : 1"
       inkscape:vp_y="0 : 1000 : 0"
       inkscape:vp_x="0 : 526.18109 : 1"
       sodipodi:type="inkscape:persp3d" />
    <filter
       inkscape:collect="always"
       id="filter3166"
       x="-0.41233588"
       width="1.8246718"
       y="-0.18520169"
       height="1.3704034">
      <feGaussianBlur
         inkscape:collect="always"
         stdDeviation="10.204021"
         id="feGaussianBlur3168" />
    </filter>
    <filter
       inkscape:collect="always"
       id="filter3174"
       x="-0.18495514"
       width="1.3699103"
       y="-0.13329027"
       height="1.2665805">
      <feGaussianBlur
         inkscape:collect="always"
         stdDeviation="10.017717"
         id="feGaussianBlur3176" />
    </filter>
    <filter
       inkscape:collect="always"
       id="filter3189">
      <feGaussianBlur
         inkscape:collect="always"
         stdDeviation="10.179539"
         id="feGaussianBlur3191" />
    </filter>
  </defs>
  <sodipodi:namedview
     pagecolor="#5cd708"
     bordercolor="#666666"
     borderopacity="1.0"
     inkscape:pageopacity="0.68627451"
     inkscape:pageshadow="2"
     inkscape:zoom="7.1389501"
     inkscape:cx="339.3745"
     inkscape:cy="356.97703"
     inkscape:document-units="pt"
     inkscape:current-layer="layer5"
     id="namedview2417"
     showgrid="true"
     inkscape:window-width="784"
     inkscape:window-height="727"
     inkscape:window-x="24"
     inkscape:window-y="129"
     inkscape:snap-intersection-line-segments="false"
     inkscape:snap-intersection-grid-guide="false"
     showguides="true"
     inkscape:guide-bbox="true" />
  <metadata
     id="metadata2419">
    <rdf:RDF>
      <cc:Work
         rdf:about="">
        <dc:format>image/svg+xml</dc:format>
        <dc:type
           rdf:resource="http://purl.org/dc/dcmitype/StillImage" />
      </cc:Work>
    </rdf:RDF>
  </metadata>
  <g
     inkscape:groupmode="layer"
     id="layer5"
     inkscape:label="Couvercle"
     style="display:inline">
    <path
       style="fill:#fefafb;fill-opacity:0.34999998999999998;fill-rule:evenodd;stroke:none;stroke-width:1px;stroke-linecap:butt;stroke-linejoin:miter;stroke-opacity:1;filter:url(#filter3174);opacity:0.69999999999999996"
       d="M 60.5131,45.031137 L 190.5042,75.287687 C 190.5042,75.287687 145.67969,98.820559 127.74988,133.55956 C 109.82007,168.29856 107.46391,137.00441 102.98146,163.89912 C 98.499006,190.79383 74.065812,225.40831 74.065812,225.40831 L 72.839843,223.08408 L 60.5131,45.031137 z"
       id="path2431"
       sodipodi:nodetypes="ccssccc"
       transform="matrix(1.0086207,0,0,1.0188679,-0.5216647,-6.4527089)" />
    <path
       style="fill:#ffffff;fill-rule:evenodd;stroke:none;stroke-width:1px;stroke-linecap:butt;stroke-linejoin:miter;stroke-opacity:1;fill-opacity:0.30666666999999997;filter:url(#filter3189);opacity:0.50000000000000000"
       d="M 136.71478,362.16461 L 190.50421,386.81809 C 190.50421,386.81809 238.74895,361.2338 280.15324,328.54621 C 322.73653,294.92783 323.47956,283.35624 337.30449,255.70638 C 351.87246,226.57044 389.97331,133.55955 389.97331,133.55955 C 389.97331,133.55955 264.53601,89.462183 265.58527,89.855656 C 328.3396,113.38853 289.11814,166.05735 273.42956,206.39941 C 258.25409,245.42203 218.51953,287.08353 197.22788,310.61641 C 178.01561,331.85103 135.59417,366.64706 136.71478,362.16461 z"
       id="path3207"
       sodipodi:nodetypes="ccsscsssc" />
    <path
       style="opacity:0.7;fill:#ffffff;fill-opacity:0.26666667;fill-rule:evenodd;stroke:none;stroke-width:1px;stroke-linecap:butt;stroke-linejoin:miter;stroke-opacity:1;filter:url(#filter3166)"
       d="M 377.64657,464.14039 L 411.26495,131.31834 C 411.26495,131.31834 378.76717,108.90607 369.80227,123.47404 C 360.83736,138.04201 199.46911,381.21502 199.46911,381.21502 L 377.64657,464.14039 z"
       id="path3237"
       sodipodi:nodetypes="ccscc"
       transform="matrix(0.9682539,0,0,1,6.332353,0)" />
    <path
       style="fill:#ffffff;fill-opacity:0.05882353;fill-rule:evenodd;stroke:#ffffff;stroke-width:1px;stroke-linecap:butt;stroke-linejoin:miter;stroke-opacity:0.09803922000000000;display:inline"
       d="M 96.134452,50.483656 L 127.03778,58.209486 C 127.03778,58.209486 127.23588,60.190466 124.8587,65.142926 C 122.38605,70.294246 120.72267,73.230962 114.77972,73.825262 C 108.27791,74.475442 103.25547,71.854279 100.34258,67.776219 C 97.371112,63.616159 96.892858,61.717233 96.496658,56.962873 C 96.233438,53.804253 96.134452,50.483656 96.134452,50.483656 z"
       id="path3194"
       sodipodi:nodetypes="ccssssc" />
    <path
       style="fill:#ffffff;fill-opacity:0.05882353;fill-rule:evenodd;stroke:#ffffff;stroke-width:1.09041035px;stroke-linecap:butt;stroke-linejoin:miter;stroke-opacity:0.09803922;display:inline"
       d="M 337.80099,111.55023 L 371.39081,120.00152 C 371.39081,120.00152 371.53237,122.1485 368.46199,127.30586 C 365.77439,131.82026 361.82873,135.26028 358.0306,135.91038 C 351.02969,137.10868 345.32792,135.08078 342.1618,130.6198 C 338.93202,126.06911 338.01631,123.68542 337.58567,118.48461 C 337.29956,115.0294 337.80099,111.55023 337.80099,111.55023 z"
       id="path3196"
       sodipodi:nodetypes="ccssssc" />
    <path
       style="fill:#ffffff;fill-opacity:0.05882353;fill-rule:evenodd;stroke:#ffffff;stroke-width:1px;stroke-linecap:butt;stroke-linejoin:miter;stroke-opacity:0.09803922000000000;display:inline"
       d="M 137.74101,366.05319 L 107.11784,353.84491 C 107.11784,353.84491 106.35943,352.70439 108.73661,347.75193 C 111.20926,342.60061 113.29287,340.2242 119.23582,339.6299 C 125.73763,338.97972 130.33984,342.02111 132.55235,345.11864 C 135.52381,349.2787 136.70245,351.3177 137.09865,356.07206 C 137.36187,359.23068 137.74101,366.05319 137.74101,366.05319 z"
       id="path2391"
       sodipodi:nodetypes="ccssssc" />
    <path
       style="fill:#ffffff;fill-opacity:0.05882353;fill-rule:evenodd;stroke:#ffffff;stroke-width:1px;stroke-linecap:butt;stroke-linejoin:miter;stroke-opacity:0.09803922000000000;display:inline"
       d="M 339.91554,455.85228 L 309.38849,441.25274 C 309.38849,441.25274 309.11371,438.50162 312.02179,433.84105 C 314.49444,429.87832 316.04178,428.51644 321.98473,427.92214 C 328.48654,427.27196 331.95817,429.91717 335.15121,434.1353 C 338.23678,438.21146 339.11113,442.63567 339.43729,444.79861 C 339.9099,447.93274 339.91554,455.85228 339.91554,455.85228 z"
       id="path2393"
       sodipodi:nodetypes="ccssssc" />
  </g>
</svg>
